<svg width="72" height="67" viewBox="0 0 72 67" fill="none" xmlns="http://www.w3.org/2000/svg">
<g clip-path="url(#clip0_3368_6209)">
<path d="M34.7904 8.00714C33.7911 8.0863 32.2922 8.30794 31.0312 8.56124C25.1941 9.74068 20.2612 12.2975 16.161 16.2712C11.1329 21.1472 8.143 27.274 7.29441 34.4377C7.14373 35.7438 7.16752 39.4642 7.33407 40.8495C8.373 49.256 12.4891 56.3247 19.254 61.3354C22.1329 63.4647 26.5741 65.4832 29.8336 66.1323C31.2929 66.4252 32.3477 64.8737 31.4991 63.6943C31.1977 63.2906 30.8964 63.1402 29.7147 62.8235C23.4177 61.1216 18.0961 57.2667 14.5511 51.8365C12.2829 48.3615 10.776 43.9287 10.4033 39.6621C9.95915 34.4377 11.2519 28.7226 13.9007 24.2106C14.9476 22.4375 15.931 21.1393 17.8185 19.0575C18.1358 18.7013 19.6505 17.3635 20.4516 16.7224C24.6231 13.4057 30.4522 11.3159 35.98 11.1497C39.1047 11.0626 42.1025 11.5138 45.1797 12.5429C49.0895 13.841 52.3808 15.8595 55.2993 18.7329C59.463 22.8412 62.0405 28.0023 62.9208 34.0024C63.1508 35.6251 63.1746 39.1634 62.9525 40.7307C62.5084 43.9287 61.7312 46.4696 60.3274 49.3272C58.6382 52.7547 56.2827 55.644 53.1501 58.1453C50.3505 60.3776 46.7579 62.119 43.0384 63.0373C41.4046 63.4489 39.4695 63.7655 38.6209 63.7655H38.3196V59.8393V55.9131L38.0658 55.9685C37.7327 56.0477 35.7341 56.0477 35.409 55.9764L35.1473 55.9131V60.8129V65.7049L35.3376 66.1165C35.4724 66.4014 35.639 66.5914 35.869 66.7497C36.1703 66.9476 36.2893 66.9714 36.9555 66.9951C37.3599 67.0109 38.2323 66.9872 38.8826 66.9397C42.6418 66.6468 46.9086 65.4436 50.3743 63.6784C55.5055 61.0742 59.8912 56.8313 62.6274 51.8128C65.9266 45.7731 67.0448 38.918 65.8393 32.2055C65.0938 28.0814 63.2222 23.6328 60.8509 20.3478C57.0996 15.1471 52.1825 11.5217 46.1472 9.50321C44.4818 8.94911 42.1025 8.41084 40.1436 8.14962C39.2713 8.0388 35.6786 7.9359 34.7904 8.00714Z" fill="url(#paint0_linear_3368_6209)"/>
<path d="M30.0081 22.6009C29.6433 22.688 29.1912 23.06 29.0009 23.44C28.8502 23.7329 28.8423 23.9307 28.8185 27.8015L28.7947 31.8623H30.3888H31.9749V27.8253C31.9749 23.535 31.967 23.4637 31.5942 23.0521C31.2691 22.688 30.5157 22.4743 30.0081 22.6009Z" fill="url(#paint1_linear_3368_6209)"/>
<path d="M42.6974 22.6009C42.2692 22.7038 41.8092 23.06 41.6426 23.4162C41.5078 23.7249 41.4919 23.9941 41.4919 27.8015V31.8623H43.0781H44.6722L44.6484 27.762C44.6246 24.1207 44.6087 23.6458 44.4898 23.4321C44.347 23.1708 43.9981 22.8225 43.7522 22.6959C43.5064 22.5772 42.9909 22.5297 42.6974 22.6009Z" fill="url(#paint2_linear_3368_6209)"/>
<path d="M26.6931 32.9654C26.36 33.1633 26.1221 33.4879 26.019 33.8599C25.9635 34.0816 25.9476 35.8705 25.9714 39.5355C26.0031 44.5699 26.0111 44.934 26.1697 45.6385C26.6297 47.7995 27.51 49.4618 29.0089 51.0212C30.5792 52.6439 32.6491 53.7521 34.8697 54.1479C35.7342 54.2983 37.4789 54.3221 38.3593 54.1875C42.8084 53.5147 46.3297 50.1505 47.2972 45.6385C47.4558 44.934 47.4638 44.562 47.4955 39.583C47.5193 35.8388 47.5034 34.1607 47.4479 33.8757C47.3448 33.4404 47.0197 33.0525 46.6231 32.9021C46.4724 32.8388 43.3398 32.815 36.67 32.815C27.28 32.815 26.931 32.823 26.6931 32.9654ZM37.3124 34.9839C38.0896 35.2135 38.7479 35.4272 38.7717 35.4589C38.8192 35.5064 38.2165 37.2241 37.1696 40.0025C36.7334 41.1582 36.6224 41.5144 36.7176 41.4907C36.7969 41.4669 37.1538 41.3561 37.5265 41.2532C37.8993 41.1424 38.5099 40.9682 38.8985 40.8574C39.5409 40.6674 39.8264 40.612 39.8264 40.6833C39.8264 40.707 38.6289 44.4512 37.0586 49.3589C36.6621 50.5938 36.3369 51.6386 36.3369 51.6703C36.3369 51.789 36.1704 52.1532 36.1307 52.1136C36.1148 52.0898 36.4321 50.0634 36.8445 47.6095C37.2648 45.1636 37.59 43.1451 37.5741 43.1292C37.5662 43.1134 37.3917 43.1688 37.2014 43.2559C33.6563 44.7994 33.4818 44.8628 33.4818 44.7361C33.4818 44.7203 33.6563 43.9445 33.8704 43.0184C34.0846 42.0844 34.608 39.8046 35.0363 37.9365C35.4645 36.0763 35.8373 34.5565 35.8611 34.5565C35.8849 34.5565 36.5352 34.7465 37.3124 34.9839Z" fill="url(#paint3_linear_3368_6209)"/>
</g>
<defs>
<linearGradient id="paint0_linear_3368_6209" x1="0.151221" y1="39.7936" x2="71.1229" y2="39.3405" gradientUnits="userSpaceOnUse">
<stop stop-color="#63B7FF"/>
<stop offset="1" stop-color="#296ACC"/>
</linearGradient>
<linearGradient id="paint1_linear_3368_6209" x1="28.4158" y1="27.5759" x2="32.2339" y2="27.5676" gradientUnits="userSpaceOnUse">
<stop stop-color="#63B7FF"/>
<stop offset="1" stop-color="#296ACC"/>
</linearGradient>
<linearGradient id="paint2_linear_3368_6209" x1="41.1131" y1="27.5774" x2="44.9312" y2="27.5691" gradientUnits="userSpaceOnUse">
<stop stop-color="#63B7FF"/>
<stop offset="1" stop-color="#296ACC"/>
</linearGradient>
<linearGradient id="paint3_linear_3368_6209" x1="23.3939" y1="44.3825" x2="49.26" y2="44.217" gradientUnits="userSpaceOnUse">
<stop stop-color="#63B7FF"/>
<stop offset="1" stop-color="#296ACC"/>
</linearGradient>
<clipPath id="clip0_3368_6209">
<rect width="71.6941" height="66.967" fill="white"/>
</clipPath>
</defs>
</svg>
