<svg width="142" height="57" viewBox="0 0 142 57" fill="none" xmlns="http://www.w3.org/2000/svg">
<g filter="url(#filter0_d_3368_6119)">
<g filter="url(#filter1_d_3368_6119)">
<path d="M10.3508 10.5C10.3508 5.11522 14.7161 0.75 20.1008 0.75L127.5 0.749995C132.885 0.750168 137.25 5.11533 137.25 10.5L137.25 38.5C137.25 43.8847 132.885 48.2498 127.5 48.25L20.1008 48.25C14.7161 48.25 10.3508 43.8848 10.3508 38.5L10.3508 10.5Z" stroke="white" stroke-opacity="0.78" stroke-width="1.5"/>
<path d="M4.75 12.4717C4.75 11.3764 5.63814 10.4883 6.7334 10.4883C7.82854 10.4884 8.71582 11.3765 8.71582 12.4717L8.71582 37.0576C8.71582 38.1528 7.82854 39.0409 6.7334 39.041C5.63814 39.041 4.75 38.1529 4.75 37.0576L4.75 12.4717Z" fill="#CBD1D5" stroke="#CBD1D5" stroke-width="1.5"/>
<path d="M71.1472 35.7285L71.1472 13.4062C71.1473 12.1637 72.1546 11.1562 73.3972 11.1562L73.7888 11.1562C75.0313 11.1563 76.0387 12.1637 76.0388 13.4062L76.0388 35.7285C76.0388 36.9711 75.0314 37.9785 73.7888 37.9785L73.3972 37.9785C72.1546 37.9785 71.1472 36.9712 71.1472 35.7285Z" fill="url(#paint0_linear_3368_6119)" stroke="url(#paint1_linear_3368_6119)" stroke-width="1.5"/>
<path d="M32.0481 13.4065L32.0481 35.7285C32.0481 37.3854 33.3912 38.7285 35.0481 38.7285L35.4396 38.7285C37.0965 38.7285 38.4396 37.3854 38.4396 35.7285L38.4396 13.4065C38.4396 11.7496 37.0965 10.4065 35.4396 10.4065L35.0481 10.4065C33.3912 10.4065 32.0481 11.7496 32.0481 13.4065Z" fill="#6B7277"/>
<path d="M32.7981 35.7285L32.7981 13.4062C32.7982 12.1637 33.8055 11.1562 35.0481 11.1562L35.4397 11.1562C36.6822 11.1563 37.6896 12.1637 37.6897 13.4062L37.6897 35.7285C37.6897 36.9711 36.6823 37.9785 35.4397 37.9785L35.0481 37.9785C33.8055 37.9785 32.7981 36.9712 32.7981 35.7285Z" stroke="#6B7277" stroke-opacity="0.15" stroke-width="1.5"/>
<path d="M19.2651 13.4065L19.2651 35.7285C19.2651 37.3854 20.6083 38.7285 22.2651 38.7285L22.6566 38.7285C24.3135 38.7285 25.6566 37.3854 25.6566 35.7285L25.6566 13.4065C25.6566 11.7496 24.3135 10.4065 22.6566 10.4065L22.2651 10.4065C20.6083 10.4065 19.2651 11.7496 19.2651 13.4065Z" fill="#6B7277"/>
<path d="M20.0151 35.7285L20.0151 13.4062C20.0152 12.1637 21.0226 11.1562 22.2651 11.1562L22.6567 11.1562C23.8993 11.1563 24.9066 12.1637 24.9067 13.4062L24.9067 35.7285C24.9067 36.9711 23.8993 37.9785 22.6567 37.9785L22.2651 37.9785C21.0225 37.9785 20.0151 36.9712 20.0151 35.7285Z" stroke="#6B7277" stroke-opacity="0.15" stroke-width="1.5"/>
<path d="M122.279 35.7285L122.279 13.4062C122.279 12.1637 123.287 11.1562 124.529 11.1562L124.921 11.1562C126.163 11.1563 127.171 12.1637 127.171 13.4062L127.171 35.7285C127.171 36.9711 126.163 37.9785 124.921 37.9785L124.529 37.9785C123.287 37.9785 122.279 36.9712 122.279 35.7285Z" fill="url(#paint2_linear_3368_6119)" stroke="url(#paint3_linear_3368_6119)" stroke-width="1.5"/>
<path d="M109.496 35.7285L109.496 13.4062C109.496 12.1637 110.504 11.1562 111.746 11.1562L112.138 11.1562C113.38 11.1563 114.388 12.1637 114.388 13.4062L114.388 35.7285C114.388 36.9711 113.38 37.9785 112.138 37.9785L111.746 37.9785C110.503 37.9785 109.496 36.9712 109.496 35.7285Z" fill="url(#paint4_linear_3368_6119)" stroke="url(#paint5_linear_3368_6119)" stroke-width="1.5"/>
<path d="M96.7131 35.7285L96.7131 13.4062C96.7132 12.1637 97.7206 11.1562 98.9631 11.1562L99.3547 11.1562C100.597 11.1563 101.605 12.1637 101.605 13.4062L101.605 35.7285C101.605 36.9711 100.597 37.9785 99.3547 37.9785L98.9631 37.9785C97.7205 37.9785 96.7131 36.9712 96.7131 35.7285Z" fill="url(#paint6_linear_3368_6119)" stroke="url(#paint7_linear_3368_6119)" stroke-width="1.5"/>
<path d="M58.3643 35.7285L58.3643 13.4062C58.3644 12.1637 59.3717 11.1562 60.6143 11.1562L61.0059 11.1562C62.2484 11.1563 63.2557 12.1637 63.2559 13.4062L63.2559 35.7285C63.2559 36.9711 62.2485 37.9785 61.0059 37.9785L60.6143 37.9785C59.3716 37.9785 58.3643 36.9712 58.3643 35.7285Z" fill="url(#paint8_linear_3368_6119)" stroke="url(#paint9_linear_3368_6119)" stroke-width="1.5"/>
<path d="M83.9302 35.7285L83.9302 13.4062C83.9303 12.1637 84.9376 11.1562 86.1802 11.1562L86.5718 11.1562C87.8143 11.1563 88.8217 12.1637 88.8218 13.4062L88.8218 35.7285C88.8218 36.9711 87.8144 37.9785 86.5718 37.9785L86.1802 37.9785C84.9375 37.9785 83.9302 36.9712 83.9302 35.7285Z" fill="url(#paint10_linear_3368_6119)" stroke="url(#paint11_linear_3368_6119)" stroke-width="1.5"/>
<path d="M45.5811 35.7285L45.5811 13.4062C45.5812 12.1637 46.5885 11.1562 47.8311 11.1562L48.2227 11.1562C49.4652 11.1563 50.4725 12.1637 50.4727 13.4062L50.4727 35.7285C50.4727 36.9711 49.4653 37.9785 48.2227 37.9785L47.8311 37.9785C46.5884 37.9785 45.5811 36.9712 45.5811 35.7285Z" fill="url(#paint12_linear_3368_6119)" stroke="url(#paint13_linear_3368_6119)" stroke-width="1.5"/>
</g>
</g>
<defs>
<filter id="filter0_d_3368_6119" x="0" y="0" width="142" height="57" filterUnits="userSpaceOnUse" color-interpolation-filters="sRGB">
<feFlood flood-opacity="0" result="BackgroundImageFix"/>
<feColorMatrix in="SourceAlpha" type="matrix" values="0 0 0 0 0 0 0 0 0 0 0 0 0 0 0 0 0 0 127 0" result="hardAlpha"/>
<feOffset dy="4"/>
<feGaussianBlur stdDeviation="2"/>
<feComposite in2="hardAlpha" operator="out"/>
<feColorMatrix type="matrix" values="0 0 0 0 0 0 0 0 0 0 0 0 0 0 0 0 0 0 0.25 0"/>
<feBlend mode="normal" in2="BackgroundImageFix" result="effect1_dropShadow_3368_6119"/>
<feBlend mode="normal" in="SourceGraphic" in2="effect1_dropShadow_3368_6119" result="shape"/>
</filter>
<filter id="filter1_d_3368_6119" x="0" y="0" width="142" height="57" filterUnits="userSpaceOnUse" color-interpolation-filters="sRGB">
<feFlood flood-opacity="0" result="BackgroundImageFix"/>
<feColorMatrix in="SourceAlpha" type="matrix" values="0 0 0 0 0 0 0 0 0 0 0 0 0 0 0 0 0 0 127 0" result="hardAlpha"/>
<feOffset dy="4"/>
<feGaussianBlur stdDeviation="2"/>
<feComposite in2="hardAlpha" operator="out"/>
<feColorMatrix type="matrix" values="0 0 0 0 0 0 0 0 0 0 0 0 0 0 0 0 0 0 0.25 0"/>
<feBlend mode="normal" in2="BackgroundImageFix" result="effect1_dropShadow_3368_6119"/>
<feBlend mode="normal" in="SourceGraphic" in2="effect1_dropShadow_3368_6119" result="shape"/>
</filter>
<linearGradient id="paint0_linear_3368_6119" x1="73.3437" y1="42.1027" x2="74.3032" y2="8.12678" gradientUnits="userSpaceOnUse">
<stop stop-color="#63B7FF"/>
<stop offset="1" stop-color="#296ACC"/>
</linearGradient>
<linearGradient id="paint1_linear_3368_6119" x1="73.3437" y1="42.1027" x2="74.3032" y2="8.12678" gradientUnits="userSpaceOnUse">
<stop stop-color="#63B7FF"/>
<stop offset="1" stop-color="#296ACC"/>
</linearGradient>
<linearGradient id="paint2_linear_3368_6119" x1="121.529" y1="38.7285" x2="133.693" y2="35.9835" gradientUnits="userSpaceOnUse">
<stop stop-color="#F74FAC"/>
<stop offset="1" stop-color="#FCB24F"/>
</linearGradient>
<linearGradient id="paint3_linear_3368_6119" x1="121.529" y1="38.7285" x2="133.693" y2="35.9835" gradientUnits="userSpaceOnUse">
<stop stop-color="#F74FAC"/>
<stop offset="1" stop-color="#FCB24F"/>
</linearGradient>
<linearGradient id="paint4_linear_3368_6119" x1="108.746" y1="38.7285" x2="120.91" y2="35.9835" gradientUnits="userSpaceOnUse">
<stop stop-color="#F74FAC"/>
<stop offset="1" stop-color="#FCB24F"/>
</linearGradient>
<linearGradient id="paint5_linear_3368_6119" x1="108.746" y1="38.7285" x2="120.91" y2="35.9835" gradientUnits="userSpaceOnUse">
<stop stop-color="#F74FAC"/>
<stop offset="1" stop-color="#FCB24F"/>
</linearGradient>
<linearGradient id="paint6_linear_3368_6119" x1="98.9096" y1="42.1027" x2="99.8692" y2="8.12678" gradientUnits="userSpaceOnUse">
<stop stop-color="#63B7FF"/>
<stop offset="1" stop-color="#296ACC"/>
</linearGradient>
<linearGradient id="paint7_linear_3368_6119" x1="98.9096" y1="42.1027" x2="99.8692" y2="8.12678" gradientUnits="userSpaceOnUse">
<stop stop-color="#63B7FF"/>
<stop offset="1" stop-color="#296ACC"/>
</linearGradient>
<linearGradient id="paint8_linear_3368_6119" x1="60.5607" y1="42.1027" x2="61.5203" y2="8.12678" gradientUnits="userSpaceOnUse">
<stop stop-color="#63B7FF"/>
<stop offset="1" stop-color="#296ACC"/>
</linearGradient>
<linearGradient id="paint9_linear_3368_6119" x1="60.5607" y1="42.1027" x2="61.5203" y2="8.12678" gradientUnits="userSpaceOnUse">
<stop stop-color="#63B7FF"/>
<stop offset="1" stop-color="#296ACC"/>
</linearGradient>
<linearGradient id="paint10_linear_3368_6119" x1="86.1266" y1="42.1027" x2="87.0862" y2="8.12678" gradientUnits="userSpaceOnUse">
<stop stop-color="#63B7FF"/>
<stop offset="1" stop-color="#296ACC"/>
</linearGradient>
<linearGradient id="paint11_linear_3368_6119" x1="86.1266" y1="42.1027" x2="87.0862" y2="8.12678" gradientUnits="userSpaceOnUse">
<stop stop-color="#63B7FF"/>
<stop offset="1" stop-color="#296ACC"/>
</linearGradient>
<linearGradient id="paint12_linear_3368_6119" x1="47.7775" y1="42.1027" x2="48.7371" y2="8.12678" gradientUnits="userSpaceOnUse">
<stop stop-color="#63B7FF"/>
<stop offset="1" stop-color="#296ACC"/>
</linearGradient>
<linearGradient id="paint13_linear_3368_6119" x1="47.7775" y1="42.1027" x2="48.7371" y2="8.12678" gradientUnits="userSpaceOnUse">
<stop stop-color="#63B7FF"/>
<stop offset="1" stop-color="#296ACC"/>
</linearGradient>
</defs>
</svg>
