<svg width="51" height="51" viewBox="0 0 51 51" fill="none" xmlns="http://www.w3.org/2000/svg">
<path d="M37.9231 1.29883C38.1576 1.29887 38.3489 1.48945 38.3489 1.72754V2.58008C38.349 2.95702 38.8054 3.14573 39.0715 2.87891C39.2379 2.71196 39.5068 2.71196 39.6731 2.87891C39.8398 3.04647 39.8399 3.31788 39.6731 3.48535L38.8772 4.28418C38.539 4.62367 38.3489 5.08331 38.3489 5.5625V5.63184C38.3489 5.86686 38.4044 6.09975 38.509 6.30957C38.7785 6.84983 39.3461 7.18156 39.9504 7.14551C40.1851 7.13143 40.414 7.06223 40.6174 6.94434L40.677 6.91016C41.0896 6.67103 41.3899 6.27715 41.5129 5.81641L41.8049 4.7207L41.8059 4.72168C41.8691 4.49049 42.1017 4.35605 42.3293 4.41602V4.41699C42.5553 4.47774 42.6914 4.71257 42.6301 4.94238C42.533 5.30661 42.925 5.60664 43.2512 5.41797L43.9856 4.99219H43.9866C44.1877 4.87509 44.4487 4.94364 44.5657 5.14844L44.5667 5.14941C44.6853 5.35492 44.6145 5.61701 44.4104 5.73535L43.676 6.16113C43.35 6.3501 43.4147 6.83862 43.7786 6.93652C44.0045 6.9972 44.1404 7.23213 44.0793 7.46191C44.0249 7.6625 43.8396 7.7902 43.6418 7.77832L43.5569 7.76465L42.4709 7.47266C42.0084 7.34823 41.5152 7.41314 41.1008 7.65332L41.0432 7.6875C40.8391 7.80584 40.6649 7.9698 40.5354 8.16699C40.2035 8.6726 40.2035 9.32742 40.5354 9.83301C40.665 10.0303 40.839 10.1951 41.0432 10.3135L41.1008 10.3467C41.5152 10.5869 42.0084 10.6518 42.4709 10.5273L43.5569 10.2354L43.5559 10.2344C43.7888 10.1733 44.0166 10.3075 44.0793 10.5371V10.5381C44.1329 10.7392 44.0353 10.9435 43.8586 11.0322L43.7786 11.0635C43.4147 11.1614 43.35 11.6499 43.676 11.8389L44.4114 12.2646C44.6152 12.383 44.6852 12.6452 44.5667 12.8506L44.5657 12.8525C44.4649 13.0292 44.2537 13.1058 44.0647 13.043L43.9856 13.0078L43.2512 12.582C42.925 12.3935 42.5331 12.6935 42.6301 13.0576C42.6838 13.2589 42.5863 13.4641 42.4094 13.5527L42.3293 13.583C42.1023 13.6437 41.8692 13.5095 41.8069 13.2803L41.5139 12.1836C41.3909 11.7228 41.0896 11.329 40.677 11.0898L40.6174 11.0557C40.4141 10.9378 40.186 10.8696 39.9514 10.8555C39.3469 10.8192 38.7786 11.15 38.509 11.6904C38.4044 11.9002 38.3489 12.1331 38.3489 12.3682V12.4375C38.3489 12.9167 38.5391 13.3763 38.8772 13.7158L39.6731 14.5146C39.84 14.6822 39.84 14.9545 39.6731 15.1221C39.5274 15.268 39.303 15.2864 39.1379 15.1768L39.0715 15.1221L39.0198 15.0771C38.7504 14.8789 38.349 15.0664 38.3489 15.4199V16.2725C38.3489 16.5106 38.1577 16.7012 37.9231 16.7012C37.6886 16.7011 37.4973 16.5105 37.4973 16.2725V15.4199C37.4972 15.0663 37.0958 14.8787 36.8264 15.0771L36.7747 15.1221C36.6084 15.2887 36.3394 15.2887 36.1731 15.1221C36.0062 14.9545 36.0062 14.6822 36.1731 14.5146L36.969 13.7158C37.3072 13.3763 37.4973 12.9167 37.4973 12.4375V12.3682C37.4973 12.1331 37.4418 11.9002 37.3372 11.6904C37.0677 11.1502 36.5001 10.8184 35.8958 10.8545C35.6611 10.8686 35.4322 10.9378 35.2288 11.0557L35.1692 11.0898C34.7566 11.329 34.4563 11.7228 34.3333 12.1836L34.0403 13.2793C33.9884 13.4716 33.8156 13.5975 33.6282 13.5977C33.3489 13.5977 33.1431 13.3313 33.2161 13.0576C33.3071 12.716 32.9681 12.4312 32.6565 12.5527L32.595 12.582L31.8606 13.0078C31.6548 13.1261 31.3955 13.0542 31.2805 12.8525L31.2795 12.8506L31.2434 12.7715C31.1802 12.5821 31.2564 12.3683 31.4348 12.2646L32.1702 11.8389C32.4757 11.6618 32.4385 11.2212 32.1331 11.0859L32.0676 11.0635L31.9875 11.0322C31.8108 10.9435 31.7123 10.7382 31.7659 10.5371C31.83 10.3077 32.0642 10.1748 32.2893 10.2344V10.2354L33.3752 10.5273C33.8377 10.6518 34.331 10.5869 34.7454 10.3467L34.803 10.3125C35.007 10.1942 35.1813 10.0302 35.3108 9.83301C35.6427 9.32741 35.6427 8.67258 35.3108 8.16699C35.1812 7.96972 35.0072 7.80488 34.803 7.68652L34.7454 7.65332C34.331 7.41314 33.8378 7.34823 33.3752 7.47266L32.2893 7.76465C32.0621 7.82538 31.828 7.69132 31.7659 7.46191H31.7668C31.7057 7.2321 31.8416 6.99719 32.0676 6.93652C32.4315 6.83862 32.4962 6.3501 32.1702 6.16113L31.4348 5.73535C31.231 5.61699 31.1609 5.35483 31.2795 5.14941V5.14844C31.3958 4.94575 31.6568 4.87518 31.8606 4.99121V4.99219L32.595 5.41797C32.9212 5.60653 33.3131 5.30654 33.2161 4.94238C33.1548 4.71256 33.2909 4.47773 33.5168 4.41699L33.5159 4.41602C33.7492 4.35483 33.9769 4.48972 34.0393 4.71973L34.3323 5.81641C34.4553 6.27715 34.7566 6.67103 35.1692 6.91016L35.2288 6.94434C35.4321 7.06217 35.6602 7.1304 35.8948 7.14453C36.4993 7.18079 37.0676 6.84996 37.3372 6.30957C37.4418 6.09976 37.4973 5.86686 37.4973 5.63184V5.5625C37.4973 5.08335 37.3071 4.62366 36.969 4.28418L36.1731 3.48535C36.0062 3.3178 36.0062 3.04548 36.1731 2.87793C36.3394 2.7113 36.6084 2.71124 36.7747 2.87793C37.0408 3.14503 37.4971 2.95705 37.4973 2.58008V1.72754C37.4973 1.48943 37.6885 1.29883 37.9231 1.29883Z" fill="url(#paint0_linear_3368_6175)" stroke="url(#paint1_linear_3368_6175)" stroke-width="0.597198"/>
<path d="M16.2428 7.98795H13.7416C13.5205 7.98795 13.3084 7.90615 13.152 7.76054C12.9957 7.61492 12.9078 7.41743 12.9078 7.2115C12.9078 7.00558 12.9957 6.80809 13.152 6.66247C13.3084 6.51686 13.5205 6.43506 13.7416 6.43506H16.2428C16.4639 6.43506 16.676 6.51686 16.8324 6.66247C16.9887 6.80809 17.0766 7.00558 17.0766 7.2115C17.0766 7.41743 16.9887 7.61492 16.8324 7.76054C16.676 7.90615 16.4639 7.98795 16.2428 7.98795ZM16.2428 11.0937H15.4091C15.1879 11.0937 14.9759 11.0119 14.8195 10.8663C14.6632 10.7207 14.5753 10.5232 14.5753 10.3173C14.5753 10.1114 14.6632 9.91387 14.8195 9.76826C14.9759 9.62265 15.1879 9.54084 15.4091 9.54084H16.2428C16.4639 9.54084 16.676 9.62265 16.8324 9.76826C16.9887 9.91387 17.0766 10.1114 17.0766 10.3173C17.0766 10.5232 16.9887 10.7207 16.8324 10.8663C16.676 11.0119 16.4639 11.0937 16.2428 11.0937ZM13.7416 12.6466H16.2428C16.4639 12.6466 16.676 12.7284 16.8324 12.874C16.9887 13.0197 17.0766 13.2171 17.0766 13.4231C17.0766 13.629 16.9887 13.8265 16.8324 13.9721C16.676 14.1177 16.4639 14.1995 16.2428 14.1995H13.7416C13.5205 14.1995 13.3084 14.1177 13.152 13.9721C12.9957 13.8265 12.9078 13.629 12.9078 13.4231C12.9078 13.2171 12.9957 13.0197 13.152 12.874C13.3084 12.7284 13.5205 12.6466 13.7416 12.6466ZM16.2428 17.3053H15.4091C15.1879 17.3053 14.9759 17.2235 14.8195 17.0779C14.6632 16.9323 14.5753 16.7348 14.5753 16.5289C14.5753 16.3229 14.6632 16.1254 14.8195 15.9798C14.9759 15.8342 15.1879 15.7524 15.4091 15.7524H16.2428C16.4639 15.7524 16.676 15.8342 16.8324 15.9798C16.9887 16.1254 17.0766 16.3229 17.0766 16.5289C17.0766 16.7348 16.9887 16.9323 16.8324 17.0779C16.676 17.2235 16.4639 17.3053 16.2428 17.3053ZM13.7416 18.8582H16.2428C16.4639 18.8582 16.676 18.94 16.8324 19.0856C16.9887 19.2312 17.0766 19.4287 17.0766 19.6346C17.0766 19.8406 16.9887 20.0381 16.8324 20.1837C16.676 20.3293 16.4639 20.4111 16.2428 20.4111H13.7416C13.5205 20.4111 13.3084 20.3293 13.152 20.1837C12.9957 20.0381 12.9078 19.8406 12.9078 19.6346C12.9078 19.4287 12.9957 19.2312 13.152 19.0856C13.3084 18.94 13.5205 18.8582 13.7416 18.8582ZM16.2428 23.5169H15.4091C15.1879 23.5169 14.9759 23.4351 14.8195 23.2895C14.6632 23.1439 14.5753 22.9464 14.5753 22.7404C14.5753 22.5345 14.6632 22.337 14.8195 22.1914C14.9759 22.0458 15.1879 21.964 15.4091 21.964H16.2428C16.4639 21.964 16.676 22.0458 16.8324 22.1914C16.9887 22.337 17.0766 22.5345 17.0766 22.7404C17.0766 22.9464 16.9887 23.1439 16.8324 23.2895C16.676 23.4351 16.4639 23.5169 16.2428 23.5169ZM13.7416 25.0698H16.2428C16.4639 25.0698 16.676 25.1516 16.8324 25.2972C16.9887 25.4428 17.0766 25.6403 17.0766 25.8462C17.0766 26.0521 16.9887 26.2496 16.8324 26.3953C16.676 26.5409 16.4639 26.6227 16.2428 26.6227H13.7416C13.5205 26.6227 13.3084 26.5409 13.152 26.3953C12.9957 26.2496 12.9078 26.0521 12.9078 25.8462C12.9078 25.6403 12.9957 25.4428 13.152 25.2972C13.3084 25.1516 13.5205 25.0698 13.7416 25.0698ZM16.2428 29.7285H15.4091C15.1879 29.7285 14.9759 29.6466 14.8195 29.501C14.6632 29.3554 14.5753 29.1579 14.5753 28.952C14.5753 28.7461 14.6632 28.5486 14.8195 28.403C14.9759 28.2574 15.1879 28.1756 15.4091 28.1756H16.2428C16.4639 28.1756 16.676 28.2574 16.8324 28.403C16.9887 28.5486 17.0766 28.7461 17.0766 28.952C17.0766 29.1579 16.9887 29.3554 16.8324 29.501C16.676 29.6466 16.4639 29.7285 16.2428 29.7285ZM13.7416 31.2813H16.2428C16.4639 31.2813 16.676 31.3631 16.8324 31.5088C16.9887 31.6544 17.0766 31.8519 17.0766 32.0578C17.0766 32.2637 16.9887 32.4612 16.8324 32.6068C16.676 32.7524 16.4639 32.8342 16.2428 32.8342H13.7416C13.5205 32.8342 13.3084 32.7524 13.152 32.6068C12.9957 32.4612 12.9078 32.2637 12.9078 32.0578C12.9078 31.8519 12.9957 31.6544 13.152 31.5088C13.3084 31.3631 13.5205 31.2813 13.7416 31.2813ZM15.4091 34.3871H16.2428C16.4639 34.3871 16.676 34.4689 16.8324 34.6145C16.9887 34.7602 17.0766 34.9576 17.0766 35.1636C17.0766 35.3695 16.9887 35.567 16.8324 35.7126C16.676 35.8582 16.4639 35.94 16.2428 35.94H15.4091C15.1879 35.94 14.9759 35.8582 14.8195 35.7126C14.6632 35.567 14.5753 35.3695 14.5753 35.1636C14.5753 34.9576 14.6632 34.7602 14.8195 34.6145C14.9759 34.4689 15.1879 34.3871 15.4091 34.3871ZM10.8952 10.3173L10.234 9.70157C10.0821 9.55513 9.99809 9.359 9.99998 9.15542C10.0019 8.95183 10.0896 8.75709 10.2442 8.61313C10.3987 8.46917 10.6079 8.38751 10.8265 8.38575C11.0451 8.38398 11.2557 8.46224 11.4129 8.60367L12.6635 9.76834C12.8198 9.91395 12.9076 10.1114 12.9076 10.3173C12.9076 10.5232 12.8198 10.7206 12.6635 10.8662L11.4129 12.0309C11.2557 12.1723 11.0451 12.2506 10.8265 12.2488C10.6079 12.2471 10.3987 12.1654 10.2442 12.0214C10.0896 11.8775 10.0019 11.6827 9.99998 11.4792C9.99809 11.2756 10.0821 11.0795 10.234 10.933L10.8952 10.3173ZM22.9128 40.9869C23.5724 40.9869 24.2172 41.1691 24.7656 41.5103C25.3141 41.8516 25.7415 42.3367 25.9939 42.9042C26.2464 43.4717 26.3124 44.0962 26.1837 44.6986C26.055 45.3011 25.7374 45.8545 25.271 46.2888C24.8046 46.7232 24.2104 47.019 23.5634 47.1388C22.9165 47.2587 22.246 47.1972 21.6366 46.9621C21.0272 46.727 20.5063 46.3289 20.1399 45.8182C19.7734 45.3074 19.5778 44.707 19.5778 44.0927C19.5789 43.2693 19.9306 42.4799 20.5558 41.8977C21.181 41.3155 22.0287 40.9879 22.9128 40.9869ZM22.9128 45.6456C23.2426 45.6456 23.565 45.5545 23.8392 45.3839C24.1134 45.2133 24.3272 44.9707 24.4534 44.687C24.5796 44.4032 24.6126 44.091 24.5483 43.7898C24.4839 43.4885 24.3251 43.2118 24.0919 42.9946C23.8587 42.7775 23.5616 42.6296 23.2381 42.5697C22.9147 42.5097 22.5794 42.5405 22.2747 42.658C21.97 42.7756 21.7096 42.9746 21.5263 43.23C21.3431 43.4853 21.2453 43.7856 21.2453 44.0927C21.2458 44.5044 21.4216 44.8992 21.7342 45.1903C22.0468 45.4814 22.4707 45.6452 22.9128 45.6456Z" fill="url(#paint2_linear_3368_6175)"/>
<path d="M18.7442 38.7621V4.88223C18.7442 3.8526 19.1834 2.86514 19.9651 2.13708C20.7469 1.40902 21.8073 1 22.9129 1C24.0185 1 25.0789 1.40902 25.8606 2.13708C26.6424 2.86514 27.0816 3.8526 27.0816 4.88223V38.7621C27.9931 39.3752 28.7337 40.1827 29.2414 41.117C29.7491 42.0513 30.0091 43.0853 29.9998 44.1324C29.9699 45.8165 29.2574 47.4278 28.0052 48.6432C26.753 49.8586 25.0537 50.5881 23.2481 50.6856C23.1344 50.6902 23.0213 50.6926 22.9087 50.6926C21.4133 50.6924 19.9564 50.2514 18.7466 49.4329C17.5368 48.6143 16.6362 47.4602 16.1739 46.1358C15.7116 44.8114 15.7113 43.3848 16.173 42.0602C16.6347 40.7356 17.5347 39.5811 18.7442 38.7621ZM19.171 47.7432C19.7007 48.2168 20.3288 48.5845 21.0166 48.8236C21.7045 49.0628 22.4376 49.1683 23.1709 49.1339C24.5514 49.0592 25.8505 48.5012 26.8077 47.5719C27.765 46.6426 28.3096 45.4106 28.3323 44.1231C28.3394 43.2658 28.1106 42.4211 27.6678 41.6695C27.225 40.9178 26.5829 40.2843 25.8027 39.8293C25.6839 39.7592 25.5861 39.6623 25.5183 39.5476C25.4505 39.4329 25.415 39.3041 25.415 39.1732V4.88223C25.415 4.26445 25.1515 3.67198 24.6824 3.23514C24.2133 2.7983 23.5771 2.55289 22.9137 2.55289C22.2504 2.55289 21.6142 2.7983 21.1451 3.23514C20.676 3.67198 20.4125 4.26445 20.4125 4.88223V39.1728C20.4124 39.3038 20.3767 39.4327 20.3088 39.5474C20.2408 39.6621 20.1429 39.7589 20.024 39.8289C19.3268 40.2375 18.739 40.7888 18.3052 41.441C17.8715 42.0931 17.6033 42.8288 17.5211 43.5921C17.4389 44.3554 17.5448 45.126 17.8308 45.8454C18.1168 46.5648 18.5749 47.2139 19.171 47.7432Z" fill="url(#paint3_linear_3368_6175)"/>
<path d="M22.9128 20.4111C22.7479 20.4111 22.5867 20.3655 22.4496 20.2802C22.3125 20.1949 22.2057 20.0736 22.1426 19.9318C22.0794 19.7899 22.0629 19.6338 22.0951 19.4832C22.1273 19.3325 22.2067 19.1942 22.3233 19.0856C22.4399 18.977 22.5884 18.9031 22.7502 18.8731C22.9119 18.8431 23.0795 18.8585 23.2319 18.9173C23.3842 18.9761 23.5145 19.0756 23.6061 19.2033C23.6977 19.3309 23.7466 19.4811 23.7466 19.6346C23.7466 19.8406 23.6587 20.0381 23.5024 20.1837C23.346 20.3293 23.134 20.4111 22.9128 20.4111ZM22.9128 17.6935C22.7479 17.6935 22.5867 17.648 22.4496 17.5627C22.3125 17.4773 22.2057 17.3561 22.1426 17.2142C22.0794 17.0723 22.0629 16.9162 22.0951 16.7656C22.1273 16.615 22.2067 16.4766 22.3233 16.368C22.4399 16.2595 22.5884 16.1855 22.7502 16.1555C22.9119 16.1256 23.0795 16.141 23.2319 16.1997C23.3842 16.2585 23.5145 16.358 23.6061 16.4857C23.6977 16.6134 23.7466 16.7635 23.7466 16.9171C23.7466 17.123 23.6587 17.3205 23.5024 17.4661C23.346 17.6117 23.134 17.6935 22.9128 17.6935ZM22.9128 23.1286C22.7479 23.1286 22.5867 23.0831 22.4496 22.9978C22.3125 22.9125 22.2057 22.7912 22.1426 22.6493C22.0794 22.5075 22.0629 22.3513 22.0951 22.2007C22.1273 22.0501 22.2067 21.9118 22.3233 21.8032C22.4399 21.6946 22.5884 21.6206 22.7502 21.5907C22.9119 21.5607 23.0795 21.5761 23.2319 21.6349C23.3842 21.6936 23.5145 21.7931 23.6061 21.9208C23.6977 22.0485 23.7466 22.1986 23.7466 22.3522C23.7466 22.5581 23.6587 22.7556 23.5024 22.9012C23.346 23.0468 23.134 23.1286 22.9128 23.1286ZM22.9128 33.9989C22.7479 33.9989 22.5867 33.9534 22.4496 33.868C22.3125 33.7827 22.2057 33.6615 22.1426 33.5196C22.0794 33.3777 22.0629 33.2216 22.0951 33.071C22.1273 32.9204 22.2067 32.782 22.3233 32.6734C22.4399 32.5648 22.5884 32.4909 22.7502 32.4609C22.9119 32.431 23.0795 32.4463 23.2319 32.5051C23.3842 32.5639 23.5145 32.6634 23.6061 32.7911C23.6977 32.9188 23.7466 33.0689 23.7466 33.2224C23.7466 33.4284 23.6587 33.6259 23.5024 33.7715C23.346 33.9171 23.134 33.9989 22.9128 33.9989ZM22.9128 36.7165C22.7479 36.7165 22.5867 36.6709 22.4496 36.5856C22.3125 36.5003 22.2057 36.379 22.1426 36.2371C22.0794 36.0953 22.0629 35.9391 22.0951 35.7885C22.1273 35.6379 22.2067 35.4996 22.3233 35.391C22.4399 35.2824 22.5884 35.2084 22.7502 35.1785C22.9119 35.1485 23.0795 35.1639 23.2319 35.2227C23.3842 35.2814 23.5145 35.381 23.6061 35.5086C23.6977 35.6363 23.7466 35.7864 23.7466 35.94C23.7466 36.1459 23.6587 36.3434 23.5024 36.489C23.346 36.6347 23.134 36.7165 22.9128 36.7165ZM22.9128 39.434C22.7479 39.434 22.5867 39.3885 22.4496 39.3032C22.3125 39.2178 22.2057 39.0966 22.1426 38.9547C22.0794 38.8128 22.0629 38.6567 22.0951 38.5061C22.1273 38.3555 22.2067 38.2171 22.3233 38.1085C22.4399 38 22.5884 37.926 22.7502 37.896C22.9119 37.8661 23.0795 37.8815 23.2319 37.9402C23.3842 37.999 23.5145 38.0985 23.6061 38.2262C23.6977 38.3539 23.7466 38.504 23.7466 38.6576C23.7466 38.8635 23.6587 39.061 23.5024 39.2066C23.346 39.3522 23.134 39.434 22.9128 39.434ZM22.9128 31.2813C22.7479 31.2813 22.5867 31.2358 22.4496 31.1505C22.3125 31.0652 22.2057 30.9439 22.1426 30.802C22.0794 30.6601 22.0629 30.504 22.0951 30.3534C22.1273 30.2028 22.2067 30.0644 22.3233 29.9559C22.4399 29.8473 22.5884 29.7733 22.7502 29.7434C22.9119 29.7134 23.0795 29.7288 23.2319 29.7875C23.3842 29.8463 23.5145 29.9458 23.6061 30.0735C23.6977 30.2012 23.7466 30.3513 23.7466 30.5049C23.7466 30.7108 23.6587 30.9083 23.5024 31.0539C23.346 31.1995 23.134 31.2813 22.9128 31.2813ZM22.9128 28.5638C22.7479 28.5638 22.5867 28.5182 22.4496 28.4329C22.3125 28.3476 22.2057 28.2263 22.1426 28.0845C22.0794 27.9426 22.0629 27.7865 22.0951 27.6358C22.1273 27.4852 22.2067 27.3469 22.3233 27.2383C22.4399 27.1297 22.5884 27.0558 22.7502 27.0258C22.9119 26.9958 23.0795 27.0112 23.2319 27.07C23.3842 27.1287 23.5145 27.2283 23.6061 27.356C23.6977 27.4836 23.7466 27.6338 23.7466 27.7873C23.7466 27.9932 23.6587 28.1907 23.5024 28.3364C23.346 28.482 23.134 28.5638 22.9128 28.5638ZM22.9128 25.8462C22.7479 25.8462 22.5867 25.8007 22.4496 25.7154C22.3125 25.63 22.2057 25.5088 22.1426 25.3669C22.0794 25.225 22.0629 25.0689 22.0951 24.9183C22.1273 24.7677 22.2067 24.6293 22.3233 24.5207C22.4399 24.4121 22.5884 24.3382 22.7502 24.3082C22.9119 24.2783 23.0795 24.2936 23.2319 24.3524C23.3842 24.4112 23.5145 24.5107 23.6061 24.6384C23.6977 24.7661 23.7466 24.9162 23.7466 25.0698C23.7466 25.2757 23.6587 25.4732 23.5024 25.6188C23.346 25.7644 23.134 25.8462 22.9128 25.8462Z" fill="url(#paint4_linear_3368_6175)"/>
<defs>
<linearGradient id="paint0_linear_3368_6175" x1="29.2552" y1="8.37597" x2="81.7638" y2="8.10562" gradientUnits="userSpaceOnUse">
<stop stop-color="#63B7FF"/>
<stop offset="1" stop-color="#296ACC"/>
</linearGradient>
<linearGradient id="paint1_linear_3368_6175" x1="30.9229" y1="16.9999" x2="46.7813" y2="3.12371" gradientUnits="userSpaceOnUse">
<stop stop-color="#005BE4"/>
<stop offset="1" stop-color="#65ACFF"/>
</linearGradient>
<linearGradient id="paint2_linear_3368_6175" x1="28.1835" y1="25.2269" x2="8.67672" y2="25.2765" gradientUnits="userSpaceOnUse">
<stop stop-color="#63B7FF"/>
<stop offset="1" stop-color="#296ACC"/>
</linearGradient>
<linearGradient id="paint3_linear_3368_6175" x1="31.6885" y1="23.9082" x2="14.6727" y2="23.9391" gradientUnits="userSpaceOnUse">
<stop stop-color="#63B7FF"/>
<stop offset="1" stop-color="#296ACC"/>
</linearGradient>
<linearGradient id="paint4_linear_3368_6175" x1="23.9452" y1="26.8788" x2="21.9433" y2="26.8797" gradientUnits="userSpaceOnUse">
<stop stop-color="#63B7FF"/>
<stop offset="1" stop-color="#296ACC"/>
</linearGradient>
</defs>
</svg>
