<svg width="357" height="200" viewBox="0 0 357 200" fill="none" xmlns="http://www.w3.org/2000/svg">
<foreignObject x="-42" y="-42" width="441" height="283.724"><div xmlns="http://www.w3.org/1999/xhtml" style="backdrop-filter:blur(21px);clip-path:url(#bgblur_0_3368_6217_clip_path);height:100%;width:100%"></div></foreignObject>
<g data-figma-bg-blur-radius="42">
<path d="M335 1C346.598 1 356 10.402 356 22V177.725C356 189.322 346.598 198.725 335 198.725H22C10.4022 198.725 1.00026 189.322 1 177.725V22C1 10.402 10.402 1 22 1H335Z" fill="url(#paint0_linear_3368_6217)" fill-opacity="0.1"/>
<path d="M335 1C346.598 1 356 10.402 356 22V177.725C356 189.322 346.598 198.725 335 198.725H22C10.4022 198.725 1.00026 189.322 1 177.725V22C1 10.402 10.402 1 22 1H335Z" stroke="url(#paint1_radial_3368_6217)" stroke-width="2"/>
</g>
<defs>
<clipPath id="bgblur_0_3368_6217_clip_path" transform="translate(42 42)"><path d="M335 1C346.598 1 356 10.402 356 22V177.725C356 189.322 346.598 198.725 335 198.725H22C10.4022 198.725 1.00026 189.322 1 177.725V22C1 10.402 10.402 1 22 1H335Z"/></clipPath>
<linearGradient id="paint0_linear_3368_6217" x1="-158.146" y1="25.7665" x2="65.3669" y2="293.966" gradientUnits="userSpaceOnUse">
<stop offset="0.0001" stop-color="white" stop-opacity="0"/>
<stop offset="1" stop-color="white" stop-opacity="0.39"/>
</linearGradient>
<radialGradient id="paint1_radial_3368_6217" cx="0" cy="0" r="1" gradientTransform="matrix(-225.214 -135.888 245.083 -63.7102 178.5 99.8621)" gradientUnits="userSpaceOnUse">
<stop stop-color="white"/>
<stop offset="1" stop-color="white" stop-opacity="0"/>
</radialGradient>
</defs>
</svg>
