<svg width="163" height="82" viewBox="0 0 163 82" fill="none" xmlns="http://www.w3.org/2000/svg">
<g opacity="0.3">
<path d="M16.7911 11.5698H25.21C25.5421 11.5698 25.8114 11.8646 25.8114 12.2282V14.8616C25.8114 15.2252 25.5421 15.5199 25.21 15.5199H16.7911C16.4589 15.5199 16.1897 15.2252 16.1897 14.8616V12.2282C16.1897 11.8646 16.4589 11.5698 16.7911 11.5698Z" fill="url(#paint0_linear_3220_31108)"/>
<path d="M16.7911 16.8367H25.21C25.5421 16.8367 25.8114 17.1314 25.8114 17.495V20.1284C25.8114 20.492 25.5421 20.7868 25.21 20.7868H16.7911C16.4589 20.7868 16.1897 20.492 16.1897 20.1284V17.495C16.1897 17.1314 16.4589 16.8367 16.7911 16.8367Z" fill="url(#paint1_linear_3220_31108)"/>
<path d="M16.7911 22.1035H25.21C25.5421 22.1035 25.8114 22.3982 25.8114 22.7618V25.3952C25.8114 25.7588 25.5421 26.0536 25.21 26.0536H16.7911C16.4589 26.0536 16.1897 25.7588 16.1897 25.3952V22.7618C16.1897 22.3982 16.4589 22.1035 16.7911 22.1035Z" fill="url(#paint2_linear_3220_31108)"/>
<path d="M16.7911 27.3703H25.21C25.5421 27.3703 25.8114 27.6651 25.8114 28.0287V30.6621C25.8114 31.0257 25.5421 31.3204 25.21 31.3204H16.7911C16.4589 31.3204 16.1897 31.0257 16.1897 30.6621V28.0287C16.1897 27.6651 16.4589 27.3703 16.7911 27.3703Z" fill="url(#paint3_linear_3220_31108)"/>
<path d="M16.7911 32.6371H25.21C25.5421 32.6371 25.8114 32.9319 25.8114 33.2955V35.9289C25.8114 36.2925 25.5421 36.5873 25.21 36.5873H16.7911C16.4589 36.5873 16.1897 36.2925 16.1897 35.9289V33.2955C16.1897 32.9319 16.4589 32.6371 16.7911 32.6371Z" fill="url(#paint4_linear_3220_31108)"/>
<path d="M16.7911 37.904H25.21C25.5421 37.904 25.8114 38.1987 25.8114 38.5623V41.1957C25.8114 41.5593 25.5421 41.8541 25.21 41.8541H16.7911C16.4589 41.8541 16.1897 41.5593 16.1897 41.1957V38.5623C16.1897 38.1987 16.4589 37.904 16.7911 37.904Z" fill="url(#paint5_linear_3220_31108)"/>
<path d="M16.7911 43.1708H25.21C25.5421 43.1708 25.8114 43.4655 25.8114 43.8291V46.4626C25.8114 46.8261 25.5421 47.1209 25.21 47.1209H16.7911C16.4589 47.1209 16.1897 46.8261 16.1897 46.4626V43.8291C16.1897 43.4655 16.4589 43.1708 16.7911 43.1708Z" fill="url(#paint6_linear_3220_31108)"/>
<path d="M16.7911 48.4376H25.21C25.5421 48.4376 25.8114 48.7324 25.8114 49.096V51.7294C25.8114 52.093 25.5421 52.3877 25.21 52.3877H16.7911C16.4589 52.3877 16.1897 52.093 16.1897 51.7294V49.096C16.1897 48.7324 16.4589 48.4376 16.7911 48.4376Z" fill="url(#paint7_linear_3220_31108)"/>
<path d="M16.7911 53.7044H25.21C25.5421 53.7044 25.8114 53.9992 25.8114 54.3628V56.9962C25.8114 57.3598 25.5421 57.6546 25.21 57.6546H16.7911C16.4589 57.6546 16.1897 57.3598 16.1897 56.9962V54.3628C16.1897 53.9992 16.4589 53.7044 16.7911 53.7044Z" fill="url(#paint8_linear_3220_31108)"/>
<path d="M25.21 58.9713H16.7911C16.4589 58.9713 16.1897 59.266 16.1897 59.6296V62.263C16.1897 62.6266 16.4589 62.9214 16.7911 62.9214H25.21C25.5421 62.9214 25.8114 62.6266 25.8114 62.263V59.6296C25.8114 59.266 25.5421 58.9713 25.21 58.9713Z" fill="url(#paint9_linear_3220_31108)"/>
<path d="M36.0344 58.9713H27.6154C27.2833 58.9713 27.0141 59.266 27.0141 59.6296V62.263C27.0141 62.6266 27.2833 62.9214 27.6154 62.9214H36.0344C36.3665 62.9214 36.6357 62.6266 36.6357 62.263V59.6296C36.6357 59.266 36.3665 58.9713 36.0344 58.9713Z" fill="url(#paint10_linear_3220_31108)"/>
<path d="M38.4398 58.9713H46.8588C47.1909 58.9713 47.4601 59.266 47.4601 59.6296V62.263C47.4601 62.6266 47.1909 62.9214 46.8588 62.9214H38.4398C38.1077 62.9214 37.8384 62.6266 37.8384 62.263V59.6296C37.8384 59.266 38.1077 58.9713 38.4398 58.9713Z" fill="url(#paint11_linear_3220_31108)"/>
<path d="M57.6831 58.9713H49.2642C48.9321 58.9713 48.6628 59.266 48.6628 59.6296V62.263C48.6628 62.6266 48.9321 62.9214 49.2642 62.9214H57.6831C58.0153 62.9214 58.2845 62.6266 58.2845 62.263V59.6296C58.2845 59.266 58.0153 58.9713 57.6831 58.9713Z" fill="url(#paint12_linear_3220_31108)"/>
<path d="M60.0886 58.9713H68.5075C68.8396 58.9713 69.1089 59.266 69.1089 59.6296V62.263C69.1089 62.6266 68.8396 62.9214 68.5075 62.9214H60.0886C59.7564 62.9214 59.4872 62.6266 59.4872 62.263V59.6296C59.4872 59.266 59.7564 58.9713 60.0886 58.9713Z" fill="url(#paint13_linear_3220_31108)"/>
<path d="M79.3319 58.9713H70.9129C70.5808 58.9713 70.3116 59.266 70.3116 59.6296V62.263C70.3116 62.6266 70.5808 62.9214 70.9129 62.9214H79.3319C79.664 62.9214 79.9332 62.6266 79.9332 62.263V59.6296C79.9332 59.266 79.664 58.9713 79.3319 58.9713Z" fill="url(#paint14_linear_3220_31108)"/>
<path d="M81.7373 58.9713H90.1563C90.4884 58.9713 90.7576 59.266 90.7576 59.6296V62.263C90.7576 62.6266 90.4884 62.9214 90.1563 62.9214H81.7373C81.4052 62.9214 81.1359 62.6266 81.1359 62.263V59.6296C81.1359 59.266 81.4052 58.9713 81.7373 58.9713Z" fill="url(#paint15_linear_3220_31108)"/>
<path d="M100.981 58.9713H92.5617C92.2296 58.9713 91.9603 59.266 91.9603 59.6296V62.263C91.9603 62.6266 92.2296 62.9214 92.5617 62.9214H100.981C101.313 62.9214 101.582 62.6266 101.582 62.263V59.6296C101.582 59.266 101.313 58.9713 100.981 58.9713Z" fill="url(#paint16_linear_3220_31108)"/>
<path d="M103.386 58.9713H111.805C112.137 58.9713 112.406 59.266 112.406 59.6296V62.263C112.406 62.6266 112.137 62.9214 111.805 62.9214H103.386C103.054 62.9214 102.785 62.6266 102.785 62.263V59.6296C102.785 59.266 103.054 58.9713 103.386 58.9713Z" fill="url(#paint17_linear_3220_31108)"/>
<path d="M122.629 58.9713H114.21C113.878 58.9713 113.609 59.266 113.609 59.6296V62.263C113.609 62.6266 113.878 62.9214 114.21 62.9214H122.629C122.962 62.9214 123.231 62.6266 123.231 62.263V59.6296C123.231 59.266 122.962 58.9713 122.629 58.9713Z" fill="url(#paint18_linear_3220_31108)"/>
<path d="M36.0344 53.7044H27.6154C27.2833 53.7044 27.0141 53.9992 27.0141 54.3628V56.9962C27.0141 57.3598 27.2833 57.6546 27.6154 57.6546H36.0344C36.3665 57.6546 36.6357 57.3598 36.6357 56.9962V54.3628C36.6357 53.9992 36.3665 53.7044 36.0344 53.7044Z" fill="url(#paint19_linear_3220_31108)"/>
<path d="M38.4398 53.7044H46.8588C47.1909 53.7044 47.4601 53.9992 47.4601 54.3628V56.9962C47.4601 57.3598 47.1909 57.6546 46.8588 57.6546H38.4398C38.1077 57.6546 37.8384 57.3598 37.8384 56.9962V54.3628C37.8384 53.9992 38.1077 53.7044 38.4398 53.7044Z" fill="url(#paint20_linear_3220_31108)"/>
<path d="M57.6831 53.7044H49.2642C48.9321 53.7044 48.6628 53.9992 48.6628 54.3628V56.9962C48.6628 57.3598 48.9321 57.6546 49.2642 57.6546H57.6831C58.0153 57.6546 58.2845 57.3598 58.2845 56.9962V54.3628C58.2845 53.9992 58.0153 53.7044 57.6831 53.7044Z" fill="url(#paint21_linear_3220_31108)"/>
<path d="M60.0886 53.7044H68.5075C68.8396 53.7044 69.1089 53.9992 69.1089 54.3628V56.9962C69.1089 57.3598 68.8396 57.6546 68.5075 57.6546H60.0886C59.7564 57.6546 59.4872 57.3598 59.4872 56.9962V54.3628C59.4872 53.9992 59.7564 53.7044 60.0886 53.7044Z" fill="url(#paint22_linear_3220_31108)"/>
<path d="M79.3319 53.7044H70.9129C70.5808 53.7044 70.3116 53.9992 70.3116 54.3628V56.9962C70.3116 57.3598 70.5808 57.6546 70.9129 57.6546H79.3319C79.664 57.6546 79.9332 57.3598 79.9332 56.9962V54.3628C79.9332 53.9992 79.664 53.7044 79.3319 53.7044Z" fill="url(#paint23_linear_3220_31108)"/>
<path d="M81.7373 53.7044H90.1563C90.4884 53.7044 90.7576 53.9992 90.7576 54.3628V56.9962C90.7576 57.3598 90.4884 57.6546 90.1563 57.6546H81.7373C81.4052 57.6546 81.1359 57.3598 81.1359 56.9962V54.3628C81.1359 53.9992 81.4052 53.7044 81.7373 53.7044Z" fill="url(#paint24_linear_3220_31108)"/>
<path d="M100.981 53.7044H92.5617C92.2296 53.7044 91.9603 53.9992 91.9603 54.3628V56.9962C91.9603 57.3598 92.2296 57.6546 92.5617 57.6546H100.981C101.313 57.6546 101.582 57.3598 101.582 56.9962V54.3628C101.582 53.9992 101.313 53.7044 100.981 53.7044Z" fill="url(#paint25_linear_3220_31108)"/>
<path d="M103.386 53.7044H111.805C112.137 53.7044 112.406 53.9992 112.406 54.3628V56.9962C112.406 57.3598 112.137 57.6546 111.805 57.6546H103.386C103.054 57.6546 102.785 57.3598 102.785 56.9962V54.3628C102.785 53.9992 103.054 53.7044 103.386 53.7044Z" fill="url(#paint26_linear_3220_31108)"/>
<path d="M122.629 53.7044H114.21C113.878 53.7044 113.609 53.9992 113.609 54.3628V56.9962C113.609 57.3598 113.878 57.6546 114.21 57.6546H122.629C122.962 57.6546 123.231 57.3598 123.231 56.9962V54.3628C123.231 53.9992 122.962 53.7044 122.629 53.7044Z" fill="url(#paint27_linear_3220_31108)"/>
<path d="M36.0344 48.4376H27.6154C27.2833 48.4376 27.0141 48.7324 27.0141 49.096V51.7294C27.0141 52.093 27.2833 52.3877 27.6154 52.3877H36.0344C36.3665 52.3877 36.6357 52.093 36.6357 51.7294V49.096C36.6357 48.7324 36.3665 48.4376 36.0344 48.4376Z" fill="url(#paint28_linear_3220_31108)"/>
<path d="M38.4398 48.4376H46.8588C47.1909 48.4376 47.4601 48.7324 47.4601 49.096V51.7294C47.4601 52.093 47.1909 52.3877 46.8588 52.3877H38.4398C38.1077 52.3877 37.8384 52.093 37.8384 51.7294V49.096C37.8384 48.7324 38.1077 48.4376 38.4398 48.4376Z" fill="url(#paint29_linear_3220_31108)"/>
<path d="M57.6831 48.4376H49.2642C48.9321 48.4376 48.6628 48.7324 48.6628 49.096V51.7294C48.6628 52.093 48.9321 52.3877 49.2642 52.3877H57.6831C58.0153 52.3877 58.2845 52.093 58.2845 51.7294V49.096C58.2845 48.7324 58.0153 48.4376 57.6831 48.4376Z" fill="url(#paint30_linear_3220_31108)"/>
<path d="M60.0886 48.4376H68.5075C68.8396 48.4376 69.1089 48.7324 69.1089 49.096V51.7294C69.1089 52.093 68.8396 52.3877 68.5075 52.3877H60.0886C59.7564 52.3877 59.4872 52.093 59.4872 51.7294V49.096C59.4872 48.7324 59.7564 48.4376 60.0886 48.4376Z" fill="url(#paint31_linear_3220_31108)"/>
<path d="M79.3319 48.4376H70.9129C70.5808 48.4376 70.3116 48.7324 70.3116 49.096V51.7294C70.3116 52.093 70.5808 52.3877 70.9129 52.3877H79.3319C79.664 52.3877 79.9332 52.093 79.9332 51.7294V49.096C79.9332 48.7324 79.664 48.4376 79.3319 48.4376Z" fill="url(#paint32_linear_3220_31108)"/>
<path d="M81.7373 48.4376H90.1563C90.4884 48.4376 90.7576 48.7324 90.7576 49.096V51.7294C90.7576 52.093 90.4884 52.3877 90.1563 52.3877H81.7373C81.4052 52.3877 81.1359 52.093 81.1359 51.7294V49.096C81.1359 48.7324 81.4052 48.4376 81.7373 48.4376Z" fill="url(#paint33_linear_3220_31108)"/>
<path d="M100.981 48.4376H92.5617C92.2296 48.4376 91.9603 48.7324 91.9603 49.096V51.7294C91.9603 52.093 92.2296 52.3877 92.5617 52.3877H100.981C101.313 52.3877 101.582 52.093 101.582 51.7294V49.096C101.582 48.7324 101.313 48.4376 100.981 48.4376Z" fill="url(#paint34_linear_3220_31108)"/>
<path d="M103.386 48.4376H111.805C112.137 48.4376 112.406 48.7324 112.406 49.096V51.7294C112.406 52.093 112.137 52.3877 111.805 52.3877H103.386C103.054 52.3877 102.785 52.093 102.785 51.7294V49.096C102.785 48.7324 103.054 48.4376 103.386 48.4376Z" fill="url(#paint35_linear_3220_31108)"/>
<path d="M122.629 48.4376H114.21C113.878 48.4376 113.609 48.7324 113.609 49.096V51.7294C113.609 52.093 113.878 52.3877 114.21 52.3877H122.629C122.962 52.3877 123.231 52.093 123.231 51.7294V49.096C123.231 48.7324 122.962 48.4376 122.629 48.4376Z" fill="url(#paint36_linear_3220_31108)"/>
<path d="M36.0344 43.1708H27.6154C27.2833 43.1708 27.0141 43.4655 27.0141 43.8291V46.4626C27.0141 46.8261 27.2833 47.1209 27.6154 47.1209H36.0344C36.3665 47.1209 36.6357 46.8261 36.6357 46.4626V43.8291C36.6357 43.4655 36.3665 43.1708 36.0344 43.1708Z" fill="url(#paint37_linear_3220_31108)"/>
<path d="M38.4398 43.1708H46.8588C47.1909 43.1708 47.4601 43.4655 47.4601 43.8291V46.4626C47.4601 46.8261 47.1909 47.1209 46.8588 47.1209H38.4398C38.1077 47.1209 37.8384 46.8261 37.8384 46.4626V43.8291C37.8384 43.4655 38.1077 43.1708 38.4398 43.1708Z" fill="url(#paint38_linear_3220_31108)"/>
<path d="M57.6831 43.1708H49.2642C48.9321 43.1708 48.6628 43.4655 48.6628 43.8291V46.4626C48.6628 46.8261 48.9321 47.1209 49.2642 47.1209H57.6831C58.0153 47.1209 58.2845 46.8261 58.2845 46.4626V43.8291C58.2845 43.4655 58.0153 43.1708 57.6831 43.1708Z" fill="url(#paint39_linear_3220_31108)"/>
<path d="M60.0886 43.1708H68.5075C68.8396 43.1708 69.1089 43.4655 69.1089 43.8291V46.4626C69.1089 46.8261 68.8396 47.1209 68.5075 47.1209H60.0886C59.7564 47.1209 59.4872 46.8261 59.4872 46.4626V43.8291C59.4872 43.4655 59.7564 43.1708 60.0886 43.1708Z" fill="url(#paint40_linear_3220_31108)"/>
<path d="M79.3319 43.1708H70.9129C70.5808 43.1708 70.3116 43.4655 70.3116 43.8291V46.4626C70.3116 46.8261 70.5808 47.1209 70.9129 47.1209H79.3319C79.664 47.1209 79.9332 46.8261 79.9332 46.4626V43.8291C79.9332 43.4655 79.664 43.1708 79.3319 43.1708Z" fill="url(#paint41_linear_3220_31108)"/>
<path d="M81.7373 43.1708H90.1563C90.4884 43.1708 90.7576 43.4655 90.7576 43.8291V46.4626C90.7576 46.8261 90.4884 47.1209 90.1563 47.1209H81.7373C81.4052 47.1209 81.1359 46.8261 81.1359 46.4626V43.8291C81.1359 43.4655 81.4052 43.1708 81.7373 43.1708Z" fill="url(#paint42_linear_3220_31108)"/>
<path d="M100.981 43.1708H92.5617C92.2296 43.1708 91.9603 43.4655 91.9603 43.8291V46.4626C91.9603 46.8261 92.2296 47.1209 92.5617 47.1209H100.981C101.313 47.1209 101.582 46.8261 101.582 46.4626V43.8291C101.582 43.4655 101.313 43.1708 100.981 43.1708Z" fill="url(#paint43_linear_3220_31108)"/>
<path d="M103.386 43.1708H111.805C112.137 43.1708 112.406 43.4655 112.406 43.8291V46.4626C112.406 46.8261 112.137 47.1209 111.805 47.1209H103.386C103.054 47.1209 102.785 46.8261 102.785 46.4626V43.8291C102.785 43.4655 103.054 43.1708 103.386 43.1708Z" fill="url(#paint44_linear_3220_31108)"/>
<path d="M122.629 43.1708H114.21C113.878 43.1708 113.609 43.4655 113.609 43.8291V46.4626C113.609 46.8261 113.878 47.1209 114.21 47.1209H122.629C122.962 47.1209 123.231 46.8261 123.231 46.4626V43.8291C123.231 43.4655 122.962 43.1708 122.629 43.1708Z" fill="url(#paint45_linear_3220_31108)"/>
<path d="M36.0344 37.904H27.6154C27.2833 37.904 27.0141 38.1987 27.0141 38.5623V41.1957C27.0141 41.5593 27.2833 41.8541 27.6154 41.8541H36.0344C36.3665 41.8541 36.6357 41.5593 36.6357 41.1957V38.5623C36.6357 38.1987 36.3665 37.904 36.0344 37.904Z" fill="url(#paint46_linear_3220_31108)"/>
<path d="M38.4398 37.904H46.8588C47.1909 37.904 47.4601 38.1987 47.4601 38.5623V41.1957C47.4601 41.5593 47.1909 41.8541 46.8588 41.8541H38.4398C38.1077 41.8541 37.8384 41.5593 37.8384 41.1957V38.5623C37.8384 38.1987 38.1077 37.904 38.4398 37.904Z" fill="url(#paint47_linear_3220_31108)"/>
<path d="M57.6831 37.904H49.2642C48.9321 37.904 48.6628 38.1987 48.6628 38.5623V41.1957C48.6628 41.5593 48.9321 41.8541 49.2642 41.8541H57.6831C58.0153 41.8541 58.2845 41.5593 58.2845 41.1957V38.5623C58.2845 38.1987 58.0153 37.904 57.6831 37.904Z" fill="url(#paint48_linear_3220_31108)"/>
<path d="M60.0886 37.904H68.5075C68.8396 37.904 69.1089 38.1987 69.1089 38.5623V41.1957C69.1089 41.5593 68.8396 41.8541 68.5075 41.8541H60.0886C59.7564 41.8541 59.4872 41.5593 59.4872 41.1957V38.5623C59.4872 38.1987 59.7564 37.904 60.0886 37.904Z" fill="url(#paint49_linear_3220_31108)"/>
<path d="M79.3319 37.904H70.9129C70.5808 37.904 70.3116 38.1987 70.3116 38.5623V41.1957C70.3116 41.5593 70.5808 41.8541 70.9129 41.8541H79.3319C79.664 41.8541 79.9332 41.5593 79.9332 41.1957V38.5623C79.9332 38.1987 79.664 37.904 79.3319 37.904Z" fill="url(#paint50_linear_3220_31108)"/>
<path d="M81.7373 37.904H90.1563C90.4884 37.904 90.7576 38.1987 90.7576 38.5623V41.1957C90.7576 41.5593 90.4884 41.8541 90.1563 41.8541H81.7373C81.4052 41.8541 81.1359 41.5593 81.1359 41.1957V38.5623C81.1359 38.1987 81.4052 37.904 81.7373 37.904Z" fill="url(#paint51_linear_3220_31108)"/>
<path d="M100.981 37.904H92.5617C92.2296 37.904 91.9603 38.1987 91.9603 38.5623V41.1957C91.9603 41.5593 92.2296 41.8541 92.5617 41.8541H100.981C101.313 41.8541 101.582 41.5593 101.582 41.1957V38.5623C101.582 38.1987 101.313 37.904 100.981 37.904Z" fill="url(#paint52_linear_3220_31108)"/>
<path d="M103.386 37.904H111.805C112.137 37.904 112.406 38.1987 112.406 38.5623V41.1957C112.406 41.5593 112.137 41.8541 111.805 41.8541H103.386C103.054 41.8541 102.785 41.5593 102.785 41.1957V38.5623C102.785 38.1987 103.054 37.904 103.386 37.904Z" fill="url(#paint53_linear_3220_31108)"/>
<path d="M122.629 37.904H114.21C113.878 37.904 113.609 38.1987 113.609 38.5623V41.1957C113.609 41.5593 113.878 41.8541 114.21 41.8541H122.629C122.962 41.8541 123.231 41.5593 123.231 41.1957V38.5623C123.231 38.1987 122.962 37.904 122.629 37.904Z" fill="url(#paint54_linear_3220_31108)"/>
<path d="M36.0344 32.6371H27.6154C27.2833 32.6371 27.0141 32.9319 27.0141 33.2955V35.9289C27.0141 36.2925 27.2833 36.5873 27.6154 36.5873H36.0344C36.3665 36.5873 36.6357 36.2925 36.6357 35.9289V33.2955C36.6357 32.9319 36.3665 32.6371 36.0344 32.6371Z" fill="url(#paint55_linear_3220_31108)"/>
<path d="M38.4398 32.6371H46.8588C47.1909 32.6371 47.4601 32.9319 47.4601 33.2955V35.9289C47.4601 36.2925 47.1909 36.5873 46.8588 36.5873H38.4398C38.1077 36.5873 37.8384 36.2925 37.8384 35.9289V33.2955C37.8384 32.9319 38.1077 32.6371 38.4398 32.6371Z" fill="url(#paint56_linear_3220_31108)"/>
<path d="M57.6831 32.6371H49.2642C48.9321 32.6371 48.6628 32.9319 48.6628 33.2955V35.9289C48.6628 36.2925 48.9321 36.5873 49.2642 36.5873H57.6831C58.0153 36.5873 58.2845 36.2925 58.2845 35.9289V33.2955C58.2845 32.9319 58.0153 32.6371 57.6831 32.6371Z" fill="url(#paint57_linear_3220_31108)"/>
<path d="M60.0886 32.6371H68.5075C68.8396 32.6371 69.1089 32.9319 69.1089 33.2955V35.9289C69.1089 36.2925 68.8396 36.5873 68.5075 36.5873H60.0886C59.7564 36.5873 59.4872 36.2925 59.4872 35.9289V33.2955C59.4872 32.9319 59.7564 32.6371 60.0886 32.6371Z" fill="url(#paint58_linear_3220_31108)"/>
<path d="M79.3319 32.6371H70.9129C70.5808 32.6371 70.3116 32.9319 70.3116 33.2955V35.9289C70.3116 36.2925 70.5808 36.5873 70.9129 36.5873H79.3319C79.664 36.5873 79.9332 36.2925 79.9332 35.9289V33.2955C79.9332 32.9319 79.664 32.6371 79.3319 32.6371Z" fill="url(#paint59_linear_3220_31108)"/>
<path d="M81.7373 32.6371H90.1563C90.4884 32.6371 90.7576 32.9319 90.7576 33.2955V35.9289C90.7576 36.2925 90.4884 36.5873 90.1563 36.5873H81.7373C81.4052 36.5873 81.1359 36.2925 81.1359 35.9289V33.2955C81.1359 32.9319 81.4052 32.6371 81.7373 32.6371Z" fill="url(#paint60_linear_3220_31108)"/>
<path d="M100.981 32.6371H92.5617C92.2296 32.6371 91.9603 32.9319 91.9603 33.2955V35.9289C91.9603 36.2925 92.2296 36.5873 92.5617 36.5873H100.981C101.313 36.5873 101.582 36.2925 101.582 35.9289V33.2955C101.582 32.9319 101.313 32.6371 100.981 32.6371Z" fill="url(#paint61_linear_3220_31108)"/>
<path d="M103.386 32.6371H111.805C112.137 32.6371 112.406 32.9319 112.406 33.2955V35.9289C112.406 36.2925 112.137 36.5873 111.805 36.5873H103.386C103.054 36.5873 102.785 36.2925 102.785 35.9289V33.2955C102.785 32.9319 103.054 32.6371 103.386 32.6371Z" fill="url(#paint62_linear_3220_31108)"/>
<path d="M122.629 32.6371H114.21C113.878 32.6371 113.609 32.9319 113.609 33.2955V35.9289C113.609 36.2925 113.878 36.5873 114.21 36.5873H122.629C122.962 36.5873 123.231 36.2925 123.231 35.9289V33.2955C123.231 32.9319 122.962 32.6371 122.629 32.6371Z" fill="url(#paint63_linear_3220_31108)"/>
<path d="M36.0344 27.3703H27.6154C27.2833 27.3703 27.0141 27.6651 27.0141 28.0287V30.6621C27.0141 31.0257 27.2833 31.3204 27.6154 31.3204H36.0344C36.3665 31.3204 36.6357 31.0257 36.6357 30.6621V28.0287C36.6357 27.6651 36.3665 27.3703 36.0344 27.3703Z" fill="url(#paint64_linear_3220_31108)"/>
<path d="M38.4398 27.3703H46.8588C47.1909 27.3703 47.4601 27.6651 47.4601 28.0287V30.6621C47.4601 31.0257 47.1909 31.3204 46.8588 31.3204H38.4398C38.1077 31.3204 37.8384 31.0257 37.8384 30.6621V28.0287C37.8384 27.6651 38.1077 27.3703 38.4398 27.3703Z" fill="url(#paint65_linear_3220_31108)"/>
<path d="M57.6831 27.3703H49.2642C48.9321 27.3703 48.6628 27.6651 48.6628 28.0287V30.6621C48.6628 31.0257 48.9321 31.3204 49.2642 31.3204H57.6831C58.0153 31.3204 58.2845 31.0257 58.2845 30.6621V28.0287C58.2845 27.6651 58.0153 27.3703 57.6831 27.3703Z" fill="url(#paint66_linear_3220_31108)"/>
<path d="M60.0886 27.3703H68.5075C68.8396 27.3703 69.1089 27.6651 69.1089 28.0287V30.6621C69.1089 31.0257 68.8396 31.3204 68.5075 31.3204H60.0886C59.7564 31.3204 59.4872 31.0257 59.4872 30.6621V28.0287C59.4872 27.6651 59.7564 27.3703 60.0886 27.3703Z" fill="url(#paint67_linear_3220_31108)"/>
<path d="M79.3319 27.3703H70.9129C70.5808 27.3703 70.3116 27.6651 70.3116 28.0287V30.6621C70.3116 31.0257 70.5808 31.3204 70.9129 31.3204H79.3319C79.664 31.3204 79.9332 31.0257 79.9332 30.6621V28.0287C79.9332 27.6651 79.664 27.3703 79.3319 27.3703Z" fill="url(#paint68_linear_3220_31108)"/>
<path d="M81.7373 27.3703H90.1563C90.4884 27.3703 90.7576 27.6651 90.7576 28.0287V30.6621C90.7576 31.0257 90.4884 31.3204 90.1563 31.3204H81.7373C81.4052 31.3204 81.1359 31.0257 81.1359 30.6621V28.0287C81.1359 27.6651 81.4052 27.3703 81.7373 27.3703Z" fill="url(#paint69_linear_3220_31108)"/>
<path d="M100.981 27.3703H92.5617C92.2296 27.3703 91.9603 27.6651 91.9603 28.0287V30.6621C91.9603 31.0257 92.2296 31.3204 92.5617 31.3204H100.981C101.313 31.3204 101.582 31.0257 101.582 30.6621V28.0287C101.582 27.6651 101.313 27.3703 100.981 27.3703Z" fill="url(#paint70_linear_3220_31108)"/>
<path d="M103.386 27.3703H111.805C112.137 27.3703 112.406 27.6651 112.406 28.0287V30.6621C112.406 31.0257 112.137 31.3204 111.805 31.3204H103.386C103.054 31.3204 102.785 31.0257 102.785 30.6621V28.0287C102.785 27.6651 103.054 27.3703 103.386 27.3703Z" fill="url(#paint71_linear_3220_31108)"/>
<path d="M122.629 27.3703H114.21C113.878 27.3703 113.609 27.6651 113.609 28.0287V30.6621C113.609 31.0257 113.878 31.3204 114.21 31.3204H122.629C122.962 31.3204 123.231 31.0257 123.231 30.6621V28.0287C123.231 27.6651 122.962 27.3703 122.629 27.3703Z" fill="url(#paint72_linear_3220_31108)"/>
<path d="M36.0344 22.1035H27.6154C27.2833 22.1035 27.0141 22.3982 27.0141 22.7618V25.3952C27.0141 25.7588 27.2833 26.0536 27.6154 26.0536H36.0344C36.3665 26.0536 36.6357 25.7588 36.6357 25.3952V22.7618C36.6357 22.3982 36.3665 22.1035 36.0344 22.1035Z" fill="url(#paint73_linear_3220_31108)"/>
<path d="M38.4398 22.1035H46.8588C47.1909 22.1035 47.4601 22.3982 47.4601 22.7618V25.3952C47.4601 25.7588 47.1909 26.0536 46.8588 26.0536H38.4398C38.1077 26.0536 37.8384 25.7588 37.8384 25.3952V22.7618C37.8384 22.3982 38.1077 22.1035 38.4398 22.1035Z" fill="url(#paint74_linear_3220_31108)"/>
<path d="M57.6831 22.1035H49.2642C48.9321 22.1035 48.6628 22.3982 48.6628 22.7618V25.3952C48.6628 25.7588 48.9321 26.0536 49.2642 26.0536H57.6831C58.0153 26.0536 58.2845 25.7588 58.2845 25.3952V22.7618C58.2845 22.3982 58.0153 22.1035 57.6831 22.1035Z" fill="url(#paint75_linear_3220_31108)"/>
<path d="M60.0886 22.1035H68.5075C68.8396 22.1035 69.1089 22.3982 69.1089 22.7618V25.3952C69.1089 25.7588 68.8396 26.0536 68.5075 26.0536H60.0886C59.7564 26.0536 59.4872 25.7588 59.4872 25.3952V22.7618C59.4872 22.3982 59.7564 22.1035 60.0886 22.1035Z" fill="url(#paint76_linear_3220_31108)"/>
<path d="M79.3319 22.1035H70.9129C70.5808 22.1035 70.3116 22.3982 70.3116 22.7618V25.3952C70.3116 25.7588 70.5808 26.0536 70.9129 26.0536H79.3319C79.664 26.0536 79.9332 25.7588 79.9332 25.3952V22.7618C79.9332 22.3982 79.664 22.1035 79.3319 22.1035Z" fill="url(#paint77_linear_3220_31108)"/>
<path d="M81.7373 22.1035H90.1563C90.4884 22.1035 90.7576 22.3982 90.7576 22.7618V25.3952C90.7576 25.7588 90.4884 26.0536 90.1563 26.0536H81.7373C81.4052 26.0536 81.1359 25.7588 81.1359 25.3952V22.7618C81.1359 22.3982 81.4052 22.1035 81.7373 22.1035Z" fill="url(#paint78_linear_3220_31108)"/>
<path d="M100.981 22.1035H92.5617C92.2296 22.1035 91.9603 22.3982 91.9603 22.7618V25.3952C91.9603 25.7588 92.2296 26.0536 92.5617 26.0536H100.981C101.313 26.0536 101.582 25.7588 101.582 25.3952V22.7618C101.582 22.3982 101.313 22.1035 100.981 22.1035Z" fill="url(#paint79_linear_3220_31108)"/>
<path d="M103.386 22.1035H111.805C112.137 22.1035 112.406 22.3982 112.406 22.7618V25.3952C112.406 25.7588 112.137 26.0536 111.805 26.0536H103.386C103.054 26.0536 102.785 25.7588 102.785 25.3952V22.7618C102.785 22.3982 103.054 22.1035 103.386 22.1035Z" fill="url(#paint80_linear_3220_31108)"/>
<path d="M122.629 22.1035H114.21C113.878 22.1035 113.609 22.3982 113.609 22.7618V25.3952C113.609 25.7588 113.878 26.0536 114.21 26.0536H122.629C122.962 26.0536 123.231 25.7588 123.231 25.3952V22.7618C123.231 22.3982 122.962 22.1035 122.629 22.1035Z" fill="url(#paint81_linear_3220_31108)"/>
<path d="M36.0344 16.8367H27.6154C27.2833 16.8367 27.0141 17.1314 27.0141 17.495V20.1284C27.0141 20.492 27.2833 20.7868 27.6154 20.7868H36.0344C36.3665 20.7868 36.6357 20.492 36.6357 20.1284V17.495C36.6357 17.1314 36.3665 16.8367 36.0344 16.8367Z" fill="url(#paint82_linear_3220_31108)"/>
<path d="M38.4398 16.8367H46.8588C47.1909 16.8367 47.4601 17.1314 47.4601 17.495V20.1284C47.4601 20.492 47.1909 20.7868 46.8588 20.7868H38.4398C38.1077 20.7868 37.8384 20.492 37.8384 20.1284V17.495C37.8384 17.1314 38.1077 16.8367 38.4398 16.8367Z" fill="url(#paint83_linear_3220_31108)"/>
<path d="M57.6831 16.8367H49.2642C48.9321 16.8367 48.6628 17.1314 48.6628 17.495V20.1284C48.6628 20.492 48.9321 20.7868 49.2642 20.7868H57.6831C58.0153 20.7868 58.2845 20.492 58.2845 20.1284V17.495C58.2845 17.1314 58.0153 16.8367 57.6831 16.8367Z" fill="url(#paint84_linear_3220_31108)"/>
<path d="M60.0886 16.8367H68.5075C68.8396 16.8367 69.1089 17.1314 69.1089 17.495V20.1284C69.1089 20.492 68.8396 20.7868 68.5075 20.7868H60.0886C59.7564 20.7868 59.4872 20.492 59.4872 20.1284V17.495C59.4872 17.1314 59.7564 16.8367 60.0886 16.8367Z" fill="url(#paint85_linear_3220_31108)"/>
<path d="M79.3319 16.8367H70.9129C70.5808 16.8367 70.3116 17.1314 70.3116 17.495V20.1284C70.3116 20.492 70.5808 20.7868 70.9129 20.7868H79.3319C79.664 20.7868 79.9332 20.492 79.9332 20.1284V17.495C79.9332 17.1314 79.664 16.8367 79.3319 16.8367Z" fill="url(#paint86_linear_3220_31108)"/>
<path d="M81.7373 16.8367H90.1563C90.4884 16.8367 90.7576 17.1314 90.7576 17.495V20.1284C90.7576 20.492 90.4884 20.7868 90.1563 20.7868H81.7373C81.4052 20.7868 81.1359 20.492 81.1359 20.1284V17.495C81.1359 17.1314 81.4052 16.8367 81.7373 16.8367Z" fill="url(#paint87_linear_3220_31108)"/>
<path d="M100.981 16.8367H92.5617C92.2296 16.8367 91.9603 17.1314 91.9603 17.495V20.1284C91.9603 20.492 92.2296 20.7868 92.5617 20.7868H100.981C101.313 20.7868 101.582 20.492 101.582 20.1284V17.495C101.582 17.1314 101.313 16.8367 100.981 16.8367Z" fill="url(#paint88_linear_3220_31108)"/>
<path d="M103.386 16.8367H111.805C112.137 16.8367 112.406 17.1314 112.406 17.495V20.1284C112.406 20.492 112.137 20.7868 111.805 20.7868H103.386C103.054 20.7868 102.785 20.492 102.785 20.1284V17.495C102.785 17.1314 103.054 16.8367 103.386 16.8367Z" fill="url(#paint89_linear_3220_31108)"/>
<path d="M122.629 16.8367H114.21C113.878 16.8367 113.609 17.1314 113.609 17.495V20.1284C113.609 20.492 113.878 20.7868 114.21 20.7868H122.629C122.962 20.7868 123.231 20.492 123.231 20.1284V17.495C123.231 17.1314 122.962 16.8367 122.629 16.8367Z" fill="url(#paint90_linear_3220_31108)"/>
<path d="M36.0344 11.5698H27.6154C27.2833 11.5698 27.0141 11.8646 27.0141 12.2282V14.8616C27.0141 15.2252 27.2833 15.5199 27.6154 15.5199H36.0344C36.3665 15.5199 36.6357 15.2252 36.6357 14.8616V12.2282C36.6357 11.8646 36.3665 11.5698 36.0344 11.5698Z" fill="url(#paint91_linear_3220_31108)"/>
<path d="M38.4398 11.5698H46.8588C47.1909 11.5698 47.4601 11.8646 47.4601 12.2282V14.8616C47.4601 15.2252 47.1909 15.5199 46.8588 15.5199H38.4398C38.1077 15.5199 37.8384 15.2252 37.8384 14.8616V12.2282C37.8384 11.8646 38.1077 11.5698 38.4398 11.5698Z" fill="url(#paint92_linear_3220_31108)"/>
<path d="M57.6831 11.5698H49.2642C48.9321 11.5698 48.6628 11.8646 48.6628 12.2282V14.8616C48.6628 15.2252 48.9321 15.5199 49.2642 15.5199H57.6831C58.0153 15.5199 58.2845 15.2252 58.2845 14.8616V12.2282C58.2845 11.8646 58.0153 11.5698 57.6831 11.5698Z" fill="url(#paint93_linear_3220_31108)"/>
<path d="M60.0886 11.5698H68.5075C68.8396 11.5698 69.1089 11.8646 69.1089 12.2282V14.8616C69.1089 15.2252 68.8396 15.5199 68.5075 15.5199H60.0886C59.7564 15.5199 59.4872 15.2252 59.4872 14.8616V12.2282C59.4872 11.8646 59.7564 11.5698 60.0886 11.5698Z" fill="url(#paint94_linear_3220_31108)"/>
<path d="M79.3319 11.5698H70.9129C70.5808 11.5698 70.3116 11.8646 70.3116 12.2282V14.8616C70.3116 15.2252 70.5808 15.5199 70.9129 15.5199H79.3319C79.664 15.5199 79.9332 15.2252 79.9332 14.8616V12.2282C79.9332 11.8646 79.664 11.5698 79.3319 11.5698Z" fill="url(#paint95_linear_3220_31108)"/>
<path d="M81.7373 11.5698H90.1563C90.4884 11.5698 90.7576 11.8646 90.7576 12.2282V14.8616C90.7576 15.2252 90.4884 15.5199 90.1563 15.5199H81.7373C81.4052 15.5199 81.1359 15.2252 81.1359 14.8616V12.2282C81.1359 11.8646 81.4052 11.5698 81.7373 11.5698Z" fill="url(#paint96_linear_3220_31108)"/>
<path d="M100.981 11.5698H92.5617C92.2296 11.5698 91.9603 11.8646 91.9603 12.2282V14.8616C91.9603 15.2252 92.2296 15.5199 92.5617 15.5199H100.981C101.313 15.5199 101.582 15.2252 101.582 14.8616V12.2282C101.582 11.8646 101.313 11.5698 100.981 11.5698Z" fill="url(#paint97_linear_3220_31108)"/>
<path d="M103.386 11.5698H111.805C112.137 11.5698 112.406 11.8646 112.406 12.2282V14.8616C112.406 15.2252 112.137 15.5199 111.805 15.5199H103.386C103.054 15.5199 102.785 15.2252 102.785 14.8616V12.2282C102.785 11.8646 103.054 11.5698 103.386 11.5698Z" fill="url(#paint98_linear_3220_31108)"/>
<path d="M122.629 11.5698H114.21C113.878 11.5698 113.609 11.8646 113.609 12.2282V14.8616C113.609 15.2252 113.878 15.5199 114.21 15.5199H122.629C122.962 15.5199 123.231 15.2252 123.231 14.8616V12.2282C123.231 11.8646 122.962 11.5698 122.629 11.5698Z" fill="url(#paint99_linear_3220_31108)"/>
</g>
<g filter="url(#filter0_f_3220_31108)">
<ellipse cx="12.096" cy="16.9299" rx="12.096" ry="16.9299" transform="matrix(0.996305 0.0858819 -0.962827 0.270118 105.088 13.7183)" fill="url(#paint100_linear_3220_31108)"/>
</g>
<g filter="url(#filter1_d_3220_31108)">
<path d="M115.862 14.9476C102.486 8.76057 106.459 41.014 87.3501 36.1453C82.8514 34.9991 80.5569 51.2361 74.4447 51.2361C68.3325 51.2361 64.5518 51.8548 60.477 51.8548C56.4022 51.8548 51.6483 59.8979 44.1778 59.8979C40.664 59.8979 34.9314 51.2361 30.4728 51.2361C26.0141 51.2361 22.0016 60.2127 18.3707 56.9048" stroke="url(#paint101_linear_3220_31108)" stroke-width="3" stroke-linecap="round" stroke-linejoin="round"/>
</g>
<defs>
<filter id="filter0_f_3220_31108" x="39.4426" y="-26.4835" width="122.792" height="91.6276" filterUnits="userSpaceOnUse" color-interpolation-filters="sRGB">
<feFlood flood-opacity="0" result="BackgroundImageFix"/>
<feBlend mode="normal" in="SourceGraphic" in2="BackgroundImageFix" result="shape"/>
<feGaussianBlur stdDeviation="20.5616" result="effect1_foregroundBlur_3220_31108"/>
</filter>
<filter id="filter1_d_3220_31108" x="6.87061" y="12.6558" width="120.491" height="68.7422" filterUnits="userSpaceOnUse" color-interpolation-filters="sRGB">
<feFlood flood-opacity="0" result="BackgroundImageFix"/>
<feColorMatrix in="SourceAlpha" type="matrix" values="0 0 0 0 0 0 0 0 0 0 0 0 0 0 0 0 0 0 127 0" result="hardAlpha"/>
<feOffset dy="10"/>
<feGaussianBlur stdDeviation="5"/>
<feColorMatrix type="matrix" values="0 0 0 0 0.0456816 0 0 0 0 0.0410428 0 0 0 0 0.12686 0 0 0 0.54362 0"/>
<feBlend mode="normal" in2="BackgroundImageFix" result="effect1_dropShadow_3220_31108"/>
<feBlend mode="normal" in="SourceGraphic" in2="effect1_dropShadow_3220_31108" result="shape"/>
</filter>
<linearGradient id="paint0_linear_3220_31108" x1="69.7102" y1="11.5698" x2="69.7102" y2="62.9214" gradientUnits="userSpaceOnUse">
<stop stop-color="#009D8D" stop-opacity="0.2"/>
<stop offset="1" stop-color="#101828" stop-opacity="0.5"/>
</linearGradient>
<linearGradient id="paint1_linear_3220_31108" x1="69.7102" y1="11.5698" x2="69.7102" y2="62.9214" gradientUnits="userSpaceOnUse">
<stop stop-color="#009D8D" stop-opacity="0.2"/>
<stop offset="1" stop-color="#101828" stop-opacity="0.5"/>
</linearGradient>
<linearGradient id="paint2_linear_3220_31108" x1="69.7102" y1="11.5698" x2="69.7102" y2="62.9214" gradientUnits="userSpaceOnUse">
<stop stop-color="#009D8D" stop-opacity="0.2"/>
<stop offset="1" stop-color="#101828" stop-opacity="0.5"/>
</linearGradient>
<linearGradient id="paint3_linear_3220_31108" x1="69.7102" y1="11.5698" x2="69.7102" y2="62.9214" gradientUnits="userSpaceOnUse">
<stop stop-color="#009D8D" stop-opacity="0.2"/>
<stop offset="1" stop-color="#101828" stop-opacity="0.5"/>
</linearGradient>
<linearGradient id="paint4_linear_3220_31108" x1="69.7102" y1="11.5698" x2="69.7102" y2="62.9214" gradientUnits="userSpaceOnUse">
<stop stop-color="#009D8D" stop-opacity="0.2"/>
<stop offset="1" stop-color="#101828" stop-opacity="0.5"/>
</linearGradient>
<linearGradient id="paint5_linear_3220_31108" x1="69.7102" y1="11.5698" x2="69.7102" y2="62.9214" gradientUnits="userSpaceOnUse">
<stop stop-color="#009D8D" stop-opacity="0.2"/>
<stop offset="1" stop-color="#101828" stop-opacity="0.5"/>
</linearGradient>
<linearGradient id="paint6_linear_3220_31108" x1="69.7102" y1="11.5698" x2="69.7102" y2="62.9214" gradientUnits="userSpaceOnUse">
<stop stop-color="#009D8D" stop-opacity="0.2"/>
<stop offset="1" stop-color="#101828" stop-opacity="0.5"/>
</linearGradient>
<linearGradient id="paint7_linear_3220_31108" x1="69.7102" y1="11.5698" x2="69.7102" y2="62.9214" gradientUnits="userSpaceOnUse">
<stop stop-color="#009D8D" stop-opacity="0.2"/>
<stop offset="1" stop-color="#101828" stop-opacity="0.5"/>
</linearGradient>
<linearGradient id="paint8_linear_3220_31108" x1="69.7102" y1="11.5698" x2="69.7102" y2="62.9214" gradientUnits="userSpaceOnUse">
<stop stop-color="#009D8D" stop-opacity="0.2"/>
<stop offset="1" stop-color="#101828" stop-opacity="0.5"/>
</linearGradient>
<linearGradient id="paint9_linear_3220_31108" x1="69.7102" y1="11.5698" x2="69.7102" y2="62.9214" gradientUnits="userSpaceOnUse">
<stop stop-color="#009D8D" stop-opacity="0.2"/>
<stop offset="1" stop-color="#101828" stop-opacity="0.5"/>
</linearGradient>
<linearGradient id="paint10_linear_3220_31108" x1="69.7102" y1="11.5698" x2="69.7102" y2="62.9214" gradientUnits="userSpaceOnUse">
<stop stop-color="#009D8D" stop-opacity="0.2"/>
<stop offset="1" stop-color="#101828" stop-opacity="0.5"/>
</linearGradient>
<linearGradient id="paint11_linear_3220_31108" x1="69.7102" y1="11.5698" x2="69.7102" y2="62.9214" gradientUnits="userSpaceOnUse">
<stop stop-color="#009D8D" stop-opacity="0.2"/>
<stop offset="1" stop-color="#101828" stop-opacity="0.5"/>
</linearGradient>
<linearGradient id="paint12_linear_3220_31108" x1="69.7102" y1="11.5698" x2="69.7102" y2="62.9214" gradientUnits="userSpaceOnUse">
<stop stop-color="#009D8D" stop-opacity="0.2"/>
<stop offset="1" stop-color="#101828" stop-opacity="0.5"/>
</linearGradient>
<linearGradient id="paint13_linear_3220_31108" x1="69.7102" y1="11.5698" x2="69.7102" y2="62.9214" gradientUnits="userSpaceOnUse">
<stop stop-color="#009D8D" stop-opacity="0.2"/>
<stop offset="1" stop-color="#101828" stop-opacity="0.5"/>
</linearGradient>
<linearGradient id="paint14_linear_3220_31108" x1="69.7102" y1="11.5698" x2="69.7102" y2="62.9214" gradientUnits="userSpaceOnUse">
<stop stop-color="#009D8D" stop-opacity="0.2"/>
<stop offset="1" stop-color="#101828" stop-opacity="0.5"/>
</linearGradient>
<linearGradient id="paint15_linear_3220_31108" x1="69.7102" y1="11.5698" x2="69.7102" y2="62.9214" gradientUnits="userSpaceOnUse">
<stop stop-color="#009D8D" stop-opacity="0.2"/>
<stop offset="1" stop-color="#101828" stop-opacity="0.5"/>
</linearGradient>
<linearGradient id="paint16_linear_3220_31108" x1="69.7102" y1="11.5698" x2="69.7102" y2="62.9214" gradientUnits="userSpaceOnUse">
<stop stop-color="#009D8D" stop-opacity="0.2"/>
<stop offset="1" stop-color="#101828" stop-opacity="0.5"/>
</linearGradient>
<linearGradient id="paint17_linear_3220_31108" x1="69.7102" y1="11.5698" x2="69.7102" y2="62.9214" gradientUnits="userSpaceOnUse">
<stop stop-color="#009D8D" stop-opacity="0.2"/>
<stop offset="1" stop-color="#101828" stop-opacity="0.5"/>
</linearGradient>
<linearGradient id="paint18_linear_3220_31108" x1="69.7102" y1="11.5698" x2="69.7102" y2="62.9214" gradientUnits="userSpaceOnUse">
<stop stop-color="#009D8D" stop-opacity="0.2"/>
<stop offset="1" stop-color="#101828" stop-opacity="0.5"/>
</linearGradient>
<linearGradient id="paint19_linear_3220_31108" x1="69.7102" y1="11.5698" x2="69.7102" y2="62.9214" gradientUnits="userSpaceOnUse">
<stop stop-color="#009D8D" stop-opacity="0.2"/>
<stop offset="1" stop-color="#101828" stop-opacity="0.5"/>
</linearGradient>
<linearGradient id="paint20_linear_3220_31108" x1="69.7102" y1="11.5698" x2="69.7102" y2="62.9214" gradientUnits="userSpaceOnUse">
<stop stop-color="#009D8D" stop-opacity="0.2"/>
<stop offset="1" stop-color="#101828" stop-opacity="0.5"/>
</linearGradient>
<linearGradient id="paint21_linear_3220_31108" x1="69.7102" y1="11.5698" x2="69.7102" y2="62.9214" gradientUnits="userSpaceOnUse">
<stop stop-color="#009D8D" stop-opacity="0.2"/>
<stop offset="1" stop-color="#101828" stop-opacity="0.5"/>
</linearGradient>
<linearGradient id="paint22_linear_3220_31108" x1="69.7102" y1="11.5698" x2="69.7102" y2="62.9214" gradientUnits="userSpaceOnUse">
<stop stop-color="#009D8D" stop-opacity="0.2"/>
<stop offset="1" stop-color="#101828" stop-opacity="0.5"/>
</linearGradient>
<linearGradient id="paint23_linear_3220_31108" x1="69.7102" y1="11.5698" x2="69.7102" y2="62.9214" gradientUnits="userSpaceOnUse">
<stop stop-color="#009D8D" stop-opacity="0.2"/>
<stop offset="1" stop-color="#101828" stop-opacity="0.5"/>
</linearGradient>
<linearGradient id="paint24_linear_3220_31108" x1="69.7102" y1="11.5698" x2="69.7102" y2="62.9214" gradientUnits="userSpaceOnUse">
<stop stop-color="#009D8D" stop-opacity="0.2"/>
<stop offset="1" stop-color="#101828" stop-opacity="0.5"/>
</linearGradient>
<linearGradient id="paint25_linear_3220_31108" x1="69.7102" y1="11.5698" x2="69.7102" y2="62.9214" gradientUnits="userSpaceOnUse">
<stop stop-color="#009D8D" stop-opacity="0.2"/>
<stop offset="1" stop-color="#101828" stop-opacity="0.5"/>
</linearGradient>
<linearGradient id="paint26_linear_3220_31108" x1="69.7102" y1="11.5698" x2="69.7102" y2="62.9214" gradientUnits="userSpaceOnUse">
<stop stop-color="#009D8D" stop-opacity="0.2"/>
<stop offset="1" stop-color="#101828" stop-opacity="0.5"/>
</linearGradient>
<linearGradient id="paint27_linear_3220_31108" x1="69.7102" y1="11.5698" x2="69.7102" y2="62.9214" gradientUnits="userSpaceOnUse">
<stop stop-color="#009D8D" stop-opacity="0.2"/>
<stop offset="1" stop-color="#101828" stop-opacity="0.5"/>
</linearGradient>
<linearGradient id="paint28_linear_3220_31108" x1="69.7102" y1="11.5698" x2="69.7102" y2="62.9214" gradientUnits="userSpaceOnUse">
<stop stop-color="#009D8D" stop-opacity="0.2"/>
<stop offset="1" stop-color="#101828" stop-opacity="0.5"/>
</linearGradient>
<linearGradient id="paint29_linear_3220_31108" x1="69.7102" y1="11.5698" x2="69.7102" y2="62.9214" gradientUnits="userSpaceOnUse">
<stop stop-color="#009D8D" stop-opacity="0.2"/>
<stop offset="1" stop-color="#101828" stop-opacity="0.5"/>
</linearGradient>
<linearGradient id="paint30_linear_3220_31108" x1="69.7102" y1="11.5698" x2="69.7102" y2="62.9214" gradientUnits="userSpaceOnUse">
<stop stop-color="#009D8D" stop-opacity="0.2"/>
<stop offset="1" stop-color="#101828" stop-opacity="0.5"/>
</linearGradient>
<linearGradient id="paint31_linear_3220_31108" x1="69.7102" y1="11.5698" x2="69.7102" y2="62.9214" gradientUnits="userSpaceOnUse">
<stop stop-color="#009D8D" stop-opacity="0.2"/>
<stop offset="1" stop-color="#101828" stop-opacity="0.5"/>
</linearGradient>
<linearGradient id="paint32_linear_3220_31108" x1="69.7102" y1="11.5698" x2="69.7102" y2="62.9214" gradientUnits="userSpaceOnUse">
<stop stop-color="#009D8D" stop-opacity="0.2"/>
<stop offset="1" stop-color="#101828" stop-opacity="0.5"/>
</linearGradient>
<linearGradient id="paint33_linear_3220_31108" x1="69.7102" y1="11.5698" x2="69.7102" y2="62.9214" gradientUnits="userSpaceOnUse">
<stop stop-color="#009D8D" stop-opacity="0.2"/>
<stop offset="1" stop-color="#101828" stop-opacity="0.5"/>
</linearGradient>
<linearGradient id="paint34_linear_3220_31108" x1="69.7102" y1="11.5698" x2="69.7102" y2="62.9214" gradientUnits="userSpaceOnUse">
<stop stop-color="#009D8D" stop-opacity="0.2"/>
<stop offset="1" stop-color="#101828" stop-opacity="0.5"/>
</linearGradient>
<linearGradient id="paint35_linear_3220_31108" x1="69.7102" y1="11.5698" x2="69.7102" y2="62.9214" gradientUnits="userSpaceOnUse">
<stop stop-color="#009D8D" stop-opacity="0.2"/>
<stop offset="1" stop-color="#101828" stop-opacity="0.5"/>
</linearGradient>
<linearGradient id="paint36_linear_3220_31108" x1="69.7102" y1="11.5698" x2="69.7102" y2="62.9214" gradientUnits="userSpaceOnUse">
<stop stop-color="#009D8D" stop-opacity="0.2"/>
<stop offset="1" stop-color="#101828" stop-opacity="0.5"/>
</linearGradient>
<linearGradient id="paint37_linear_3220_31108" x1="69.7102" y1="11.5698" x2="69.7102" y2="62.9214" gradientUnits="userSpaceOnUse">
<stop stop-color="#009D8D" stop-opacity="0.2"/>
<stop offset="1" stop-color="#101828" stop-opacity="0.5"/>
</linearGradient>
<linearGradient id="paint38_linear_3220_31108" x1="69.7102" y1="11.5698" x2="69.7102" y2="62.9214" gradientUnits="userSpaceOnUse">
<stop stop-color="#009D8D" stop-opacity="0.2"/>
<stop offset="1" stop-color="#101828" stop-opacity="0.5"/>
</linearGradient>
<linearGradient id="paint39_linear_3220_31108" x1="69.7102" y1="11.5698" x2="69.7102" y2="62.9214" gradientUnits="userSpaceOnUse">
<stop stop-color="#009D8D" stop-opacity="0.2"/>
<stop offset="1" stop-color="#101828" stop-opacity="0.5"/>
</linearGradient>
<linearGradient id="paint40_linear_3220_31108" x1="69.7102" y1="11.5698" x2="69.7102" y2="62.9214" gradientUnits="userSpaceOnUse">
<stop stop-color="#009D8D" stop-opacity="0.2"/>
<stop offset="1" stop-color="#101828" stop-opacity="0.5"/>
</linearGradient>
<linearGradient id="paint41_linear_3220_31108" x1="69.7102" y1="11.5698" x2="69.7102" y2="62.9214" gradientUnits="userSpaceOnUse">
<stop stop-color="#009D8D" stop-opacity="0.2"/>
<stop offset="1" stop-color="#101828" stop-opacity="0.5"/>
</linearGradient>
<linearGradient id="paint42_linear_3220_31108" x1="69.7102" y1="11.5698" x2="69.7102" y2="62.9214" gradientUnits="userSpaceOnUse">
<stop stop-color="#009D8D" stop-opacity="0.2"/>
<stop offset="1" stop-color="#101828" stop-opacity="0.5"/>
</linearGradient>
<linearGradient id="paint43_linear_3220_31108" x1="69.7102" y1="11.5698" x2="69.7102" y2="62.9214" gradientUnits="userSpaceOnUse">
<stop stop-color="#009D8D" stop-opacity="0.2"/>
<stop offset="1" stop-color="#101828" stop-opacity="0.5"/>
</linearGradient>
<linearGradient id="paint44_linear_3220_31108" x1="69.7102" y1="11.5698" x2="69.7102" y2="62.9214" gradientUnits="userSpaceOnUse">
<stop stop-color="#009D8D" stop-opacity="0.2"/>
<stop offset="1" stop-color="#101828" stop-opacity="0.5"/>
</linearGradient>
<linearGradient id="paint45_linear_3220_31108" x1="69.7102" y1="11.5698" x2="69.7102" y2="62.9214" gradientUnits="userSpaceOnUse">
<stop stop-color="#009D8D" stop-opacity="0.2"/>
<stop offset="1" stop-color="#101828" stop-opacity="0.5"/>
</linearGradient>
<linearGradient id="paint46_linear_3220_31108" x1="69.7102" y1="11.5698" x2="69.7102" y2="62.9214" gradientUnits="userSpaceOnUse">
<stop stop-color="#009D8D" stop-opacity="0.2"/>
<stop offset="1" stop-color="#101828" stop-opacity="0.5"/>
</linearGradient>
<linearGradient id="paint47_linear_3220_31108" x1="69.7102" y1="11.5698" x2="69.7102" y2="62.9214" gradientUnits="userSpaceOnUse">
<stop stop-color="#009D8D" stop-opacity="0.2"/>
<stop offset="1" stop-color="#101828" stop-opacity="0.5"/>
</linearGradient>
<linearGradient id="paint48_linear_3220_31108" x1="69.7102" y1="11.5698" x2="69.7102" y2="62.9214" gradientUnits="userSpaceOnUse">
<stop stop-color="#009D8D" stop-opacity="0.2"/>
<stop offset="1" stop-color="#101828" stop-opacity="0.5"/>
</linearGradient>
<linearGradient id="paint49_linear_3220_31108" x1="69.7102" y1="11.5698" x2="69.7102" y2="62.9214" gradientUnits="userSpaceOnUse">
<stop stop-color="#009D8D" stop-opacity="0.2"/>
<stop offset="1" stop-color="#101828" stop-opacity="0.5"/>
</linearGradient>
<linearGradient id="paint50_linear_3220_31108" x1="69.7102" y1="11.5698" x2="69.7102" y2="62.9214" gradientUnits="userSpaceOnUse">
<stop stop-color="#009D8D" stop-opacity="0.2"/>
<stop offset="1" stop-color="#101828" stop-opacity="0.5"/>
</linearGradient>
<linearGradient id="paint51_linear_3220_31108" x1="69.7102" y1="11.5698" x2="69.7102" y2="62.9214" gradientUnits="userSpaceOnUse">
<stop stop-color="#009D8D" stop-opacity="0.2"/>
<stop offset="1" stop-color="#101828" stop-opacity="0.5"/>
</linearGradient>
<linearGradient id="paint52_linear_3220_31108" x1="69.7102" y1="11.5698" x2="69.7102" y2="62.9214" gradientUnits="userSpaceOnUse">
<stop stop-color="#009D8D" stop-opacity="0.2"/>
<stop offset="1" stop-color="#101828" stop-opacity="0.5"/>
</linearGradient>
<linearGradient id="paint53_linear_3220_31108" x1="69.7102" y1="11.5698" x2="69.7102" y2="62.9214" gradientUnits="userSpaceOnUse">
<stop stop-color="#009D8D" stop-opacity="0.2"/>
<stop offset="1" stop-color="#101828" stop-opacity="0.5"/>
</linearGradient>
<linearGradient id="paint54_linear_3220_31108" x1="69.7102" y1="11.5698" x2="69.7102" y2="62.9214" gradientUnits="userSpaceOnUse">
<stop stop-color="#009D8D" stop-opacity="0.2"/>
<stop offset="1" stop-color="#101828" stop-opacity="0.5"/>
</linearGradient>
<linearGradient id="paint55_linear_3220_31108" x1="69.7102" y1="11.5698" x2="69.7102" y2="62.9214" gradientUnits="userSpaceOnUse">
<stop stop-color="#009D8D" stop-opacity="0.2"/>
<stop offset="1" stop-color="#101828" stop-opacity="0.5"/>
</linearGradient>
<linearGradient id="paint56_linear_3220_31108" x1="69.7102" y1="11.5698" x2="69.7102" y2="62.9214" gradientUnits="userSpaceOnUse">
<stop stop-color="#009D8D" stop-opacity="0.2"/>
<stop offset="1" stop-color="#101828" stop-opacity="0.5"/>
</linearGradient>
<linearGradient id="paint57_linear_3220_31108" x1="69.7102" y1="11.5698" x2="69.7102" y2="62.9214" gradientUnits="userSpaceOnUse">
<stop stop-color="#009D8D" stop-opacity="0.2"/>
<stop offset="1" stop-color="#101828" stop-opacity="0.5"/>
</linearGradient>
<linearGradient id="paint58_linear_3220_31108" x1="69.7102" y1="11.5698" x2="69.7102" y2="62.9214" gradientUnits="userSpaceOnUse">
<stop stop-color="#009D8D" stop-opacity="0.2"/>
<stop offset="1" stop-color="#101828" stop-opacity="0.5"/>
</linearGradient>
<linearGradient id="paint59_linear_3220_31108" x1="69.7102" y1="11.5698" x2="69.7102" y2="62.9214" gradientUnits="userSpaceOnUse">
<stop stop-color="#009D8D" stop-opacity="0.2"/>
<stop offset="1" stop-color="#101828" stop-opacity="0.5"/>
</linearGradient>
<linearGradient id="paint60_linear_3220_31108" x1="69.7102" y1="11.5698" x2="69.7102" y2="62.9214" gradientUnits="userSpaceOnUse">
<stop stop-color="#009D8D" stop-opacity="0.2"/>
<stop offset="1" stop-color="#101828" stop-opacity="0.5"/>
</linearGradient>
<linearGradient id="paint61_linear_3220_31108" x1="69.7102" y1="11.5698" x2="69.7102" y2="62.9214" gradientUnits="userSpaceOnUse">
<stop stop-color="#009D8D" stop-opacity="0.2"/>
<stop offset="1" stop-color="#101828" stop-opacity="0.5"/>
</linearGradient>
<linearGradient id="paint62_linear_3220_31108" x1="69.7102" y1="11.5698" x2="69.7102" y2="62.9214" gradientUnits="userSpaceOnUse">
<stop stop-color="#009D8D" stop-opacity="0.2"/>
<stop offset="1" stop-color="#101828" stop-opacity="0.5"/>
</linearGradient>
<linearGradient id="paint63_linear_3220_31108" x1="69.7102" y1="11.5698" x2="69.7102" y2="62.9214" gradientUnits="userSpaceOnUse">
<stop stop-color="#009D8D" stop-opacity="0.2"/>
<stop offset="1" stop-color="#101828" stop-opacity="0.5"/>
</linearGradient>
<linearGradient id="paint64_linear_3220_31108" x1="69.7102" y1="11.5698" x2="69.7102" y2="62.9214" gradientUnits="userSpaceOnUse">
<stop stop-color="#009D8D" stop-opacity="0.2"/>
<stop offset="1" stop-color="#101828" stop-opacity="0.5"/>
</linearGradient>
<linearGradient id="paint65_linear_3220_31108" x1="69.7102" y1="11.5698" x2="69.7102" y2="62.9214" gradientUnits="userSpaceOnUse">
<stop stop-color="#009D8D" stop-opacity="0.2"/>
<stop offset="1" stop-color="#101828" stop-opacity="0.5"/>
</linearGradient>
<linearGradient id="paint66_linear_3220_31108" x1="69.7102" y1="11.5698" x2="69.7102" y2="62.9214" gradientUnits="userSpaceOnUse">
<stop stop-color="#009D8D" stop-opacity="0.2"/>
<stop offset="1" stop-color="#101828" stop-opacity="0.5"/>
</linearGradient>
<linearGradient id="paint67_linear_3220_31108" x1="69.7102" y1="11.5698" x2="69.7102" y2="62.9214" gradientUnits="userSpaceOnUse">
<stop stop-color="#009D8D" stop-opacity="0.2"/>
<stop offset="1" stop-color="#101828" stop-opacity="0.5"/>
</linearGradient>
<linearGradient id="paint68_linear_3220_31108" x1="69.7102" y1="11.5698" x2="69.7102" y2="62.9214" gradientUnits="userSpaceOnUse">
<stop stop-color="#009D8D" stop-opacity="0.2"/>
<stop offset="1" stop-color="#101828" stop-opacity="0.5"/>
</linearGradient>
<linearGradient id="paint69_linear_3220_31108" x1="69.7102" y1="11.5698" x2="69.7102" y2="62.9214" gradientUnits="userSpaceOnUse">
<stop stop-color="#009D8D" stop-opacity="0.2"/>
<stop offset="1" stop-color="#101828" stop-opacity="0.5"/>
</linearGradient>
<linearGradient id="paint70_linear_3220_31108" x1="69.7102" y1="11.5698" x2="69.7102" y2="62.9214" gradientUnits="userSpaceOnUse">
<stop stop-color="#009D8D" stop-opacity="0.2"/>
<stop offset="1" stop-color="#101828" stop-opacity="0.5"/>
</linearGradient>
<linearGradient id="paint71_linear_3220_31108" x1="69.7102" y1="11.5698" x2="69.7102" y2="62.9214" gradientUnits="userSpaceOnUse">
<stop stop-color="#009D8D" stop-opacity="0.2"/>
<stop offset="1" stop-color="#101828" stop-opacity="0.5"/>
</linearGradient>
<linearGradient id="paint72_linear_3220_31108" x1="69.7102" y1="11.5698" x2="69.7102" y2="62.9214" gradientUnits="userSpaceOnUse">
<stop stop-color="#009D8D" stop-opacity="0.2"/>
<stop offset="1" stop-color="#101828" stop-opacity="0.5"/>
</linearGradient>
<linearGradient id="paint73_linear_3220_31108" x1="69.7102" y1="11.5698" x2="69.7102" y2="62.9214" gradientUnits="userSpaceOnUse">
<stop stop-color="#009D8D" stop-opacity="0.2"/>
<stop offset="1" stop-color="#101828" stop-opacity="0.5"/>
</linearGradient>
<linearGradient id="paint74_linear_3220_31108" x1="69.7102" y1="11.5698" x2="69.7102" y2="62.9214" gradientUnits="userSpaceOnUse">
<stop stop-color="#009D8D" stop-opacity="0.2"/>
<stop offset="1" stop-color="#101828" stop-opacity="0.5"/>
</linearGradient>
<linearGradient id="paint75_linear_3220_31108" x1="69.7102" y1="11.5698" x2="69.7102" y2="62.9214" gradientUnits="userSpaceOnUse">
<stop stop-color="#009D8D" stop-opacity="0.2"/>
<stop offset="1" stop-color="#101828" stop-opacity="0.5"/>
</linearGradient>
<linearGradient id="paint76_linear_3220_31108" x1="69.7102" y1="11.5698" x2="69.7102" y2="62.9214" gradientUnits="userSpaceOnUse">
<stop stop-color="#009D8D" stop-opacity="0.2"/>
<stop offset="1" stop-color="#101828" stop-opacity="0.5"/>
</linearGradient>
<linearGradient id="paint77_linear_3220_31108" x1="69.7102" y1="11.5698" x2="69.7102" y2="62.9214" gradientUnits="userSpaceOnUse">
<stop stop-color="#009D8D" stop-opacity="0.2"/>
<stop offset="1" stop-color="#101828" stop-opacity="0.5"/>
</linearGradient>
<linearGradient id="paint78_linear_3220_31108" x1="69.7102" y1="11.5698" x2="69.7102" y2="62.9214" gradientUnits="userSpaceOnUse">
<stop stop-color="#009D8D" stop-opacity="0.2"/>
<stop offset="1" stop-color="#101828" stop-opacity="0.5"/>
</linearGradient>
<linearGradient id="paint79_linear_3220_31108" x1="69.7102" y1="11.5698" x2="69.7102" y2="62.9214" gradientUnits="userSpaceOnUse">
<stop stop-color="#009D8D" stop-opacity="0.2"/>
<stop offset="1" stop-color="#101828" stop-opacity="0.5"/>
</linearGradient>
<linearGradient id="paint80_linear_3220_31108" x1="69.7102" y1="11.5698" x2="69.7102" y2="62.9214" gradientUnits="userSpaceOnUse">
<stop stop-color="#009D8D" stop-opacity="0.2"/>
<stop offset="1" stop-color="#101828" stop-opacity="0.5"/>
</linearGradient>
<linearGradient id="paint81_linear_3220_31108" x1="69.7102" y1="11.5698" x2="69.7102" y2="62.9214" gradientUnits="userSpaceOnUse">
<stop stop-color="#009D8D" stop-opacity="0.2"/>
<stop offset="1" stop-color="#101828" stop-opacity="0.5"/>
</linearGradient>
<linearGradient id="paint82_linear_3220_31108" x1="69.7102" y1="11.5698" x2="69.7102" y2="62.9214" gradientUnits="userSpaceOnUse">
<stop stop-color="#009D8D" stop-opacity="0.2"/>
<stop offset="1" stop-color="#101828" stop-opacity="0.5"/>
</linearGradient>
<linearGradient id="paint83_linear_3220_31108" x1="69.7102" y1="11.5698" x2="69.7102" y2="62.9214" gradientUnits="userSpaceOnUse">
<stop stop-color="#009D8D" stop-opacity="0.2"/>
<stop offset="1" stop-color="#101828" stop-opacity="0.5"/>
</linearGradient>
<linearGradient id="paint84_linear_3220_31108" x1="69.7102" y1="11.5698" x2="69.7102" y2="62.9214" gradientUnits="userSpaceOnUse">
<stop stop-color="#009D8D" stop-opacity="0.2"/>
<stop offset="1" stop-color="#101828" stop-opacity="0.5"/>
</linearGradient>
<linearGradient id="paint85_linear_3220_31108" x1="69.7102" y1="11.5698" x2="69.7102" y2="62.9214" gradientUnits="userSpaceOnUse">
<stop stop-color="#009D8D" stop-opacity="0.2"/>
<stop offset="1" stop-color="#101828" stop-opacity="0.5"/>
</linearGradient>
<linearGradient id="paint86_linear_3220_31108" x1="69.7102" y1="11.5698" x2="69.7102" y2="62.9214" gradientUnits="userSpaceOnUse">
<stop stop-color="#009D8D" stop-opacity="0.2"/>
<stop offset="1" stop-color="#101828" stop-opacity="0.5"/>
</linearGradient>
<linearGradient id="paint87_linear_3220_31108" x1="69.7102" y1="11.5698" x2="69.7102" y2="62.9214" gradientUnits="userSpaceOnUse">
<stop stop-color="#009D8D" stop-opacity="0.2"/>
<stop offset="1" stop-color="#101828" stop-opacity="0.5"/>
</linearGradient>
<linearGradient id="paint88_linear_3220_31108" x1="69.7102" y1="11.5698" x2="69.7102" y2="62.9214" gradientUnits="userSpaceOnUse">
<stop stop-color="#009D8D" stop-opacity="0.2"/>
<stop offset="1" stop-color="#101828" stop-opacity="0.5"/>
</linearGradient>
<linearGradient id="paint89_linear_3220_31108" x1="69.7102" y1="11.5698" x2="69.7102" y2="62.9214" gradientUnits="userSpaceOnUse">
<stop stop-color="#009D8D" stop-opacity="0.2"/>
<stop offset="1" stop-color="#101828" stop-opacity="0.5"/>
</linearGradient>
<linearGradient id="paint90_linear_3220_31108" x1="69.7102" y1="11.5698" x2="69.7102" y2="62.9214" gradientUnits="userSpaceOnUse">
<stop stop-color="#009D8D" stop-opacity="0.2"/>
<stop offset="1" stop-color="#101828" stop-opacity="0.5"/>
</linearGradient>
<linearGradient id="paint91_linear_3220_31108" x1="69.7102" y1="11.5698" x2="69.7102" y2="62.9214" gradientUnits="userSpaceOnUse">
<stop stop-color="#009D8D" stop-opacity="0.2"/>
<stop offset="1" stop-color="#101828" stop-opacity="0.5"/>
</linearGradient>
<linearGradient id="paint92_linear_3220_31108" x1="69.7102" y1="11.5698" x2="69.7102" y2="62.9214" gradientUnits="userSpaceOnUse">
<stop stop-color="#009D8D" stop-opacity="0.2"/>
<stop offset="1" stop-color="#101828" stop-opacity="0.5"/>
</linearGradient>
<linearGradient id="paint93_linear_3220_31108" x1="69.7102" y1="11.5698" x2="69.7102" y2="62.9214" gradientUnits="userSpaceOnUse">
<stop stop-color="#009D8D" stop-opacity="0.2"/>
<stop offset="1" stop-color="#101828" stop-opacity="0.5"/>
</linearGradient>
<linearGradient id="paint94_linear_3220_31108" x1="69.7102" y1="11.5698" x2="69.7102" y2="62.9214" gradientUnits="userSpaceOnUse">
<stop stop-color="#009D8D" stop-opacity="0.2"/>
<stop offset="1" stop-color="#101828" stop-opacity="0.5"/>
</linearGradient>
<linearGradient id="paint95_linear_3220_31108" x1="69.7102" y1="11.5698" x2="69.7102" y2="62.9214" gradientUnits="userSpaceOnUse">
<stop stop-color="#009D8D" stop-opacity="0.2"/>
<stop offset="1" stop-color="#101828" stop-opacity="0.5"/>
</linearGradient>
<linearGradient id="paint96_linear_3220_31108" x1="69.7102" y1="11.5698" x2="69.7102" y2="62.9214" gradientUnits="userSpaceOnUse">
<stop stop-color="#009D8D" stop-opacity="0.2"/>
<stop offset="1" stop-color="#101828" stop-opacity="0.5"/>
</linearGradient>
<linearGradient id="paint97_linear_3220_31108" x1="69.7102" y1="11.5698" x2="69.7102" y2="62.9214" gradientUnits="userSpaceOnUse">
<stop stop-color="#009D8D" stop-opacity="0.2"/>
<stop offset="1" stop-color="#101828" stop-opacity="0.5"/>
</linearGradient>
<linearGradient id="paint98_linear_3220_31108" x1="69.7102" y1="11.5698" x2="69.7102" y2="62.9214" gradientUnits="userSpaceOnUse">
<stop stop-color="#009D8D" stop-opacity="0.2"/>
<stop offset="1" stop-color="#101828" stop-opacity="0.5"/>
</linearGradient>
<linearGradient id="paint99_linear_3220_31108" x1="69.7102" y1="11.5698" x2="69.7102" y2="62.9214" gradientUnits="userSpaceOnUse">
<stop stop-color="#009D8D" stop-opacity="0.2"/>
<stop offset="1" stop-color="#101828" stop-opacity="0.5"/>
</linearGradient>
<linearGradient id="paint100_linear_3220_31108" x1="13.2249" y1="43.4227" x2="30.4928" y2="32.7886" gradientUnits="userSpaceOnUse">
<stop stop-color="#60FDCB" stop-opacity="0.01"/>
<stop offset="1" stop-color="#60FDC9"/>
</linearGradient>
<linearGradient id="paint101_linear_3220_31108" x1="122.784" y1="68.0496" x2="20.507" y2="68.0496" gradientUnits="userSpaceOnUse">
<stop stop-color="#40FFA6"/>
<stop offset="0.831269" stop-color="#4ABEFC"/>
<stop offset="1" stop-color="#7DABFF" stop-opacity="0.01"/>
</linearGradient>
</defs>
</svg>
