<svg width="140" height="8" viewBox="0 0 140 8" fill="none" xmlns="http://www.w3.org/2000/svg">
<g opacity="0.85">
<path d="M2.14774 8L0.739386 6.76115L2.02451 4.68242L0 3.86352L0.545737 1.88976L2.57025 2.68766V0H4.33069V2.68766L6.3552 1.88976L6.90093 3.86352L4.87643 4.68242L6.16155 6.76115L4.73559 8L3.45047 5.92126L2.14774 8Z" fill="white" fill-opacity="0.74902"/>
<path d="M11.6548 8L10.2465 6.76115L11.5316 4.68242L9.50708 3.86352L10.0528 1.88976L12.0773 2.68766V0H13.8378V2.68766L15.8623 1.88976L16.408 3.86352L14.3835 4.68242L15.6686 6.76115L14.2427 8L12.9575 5.92126L11.6548 8Z" fill="white" fill-opacity="0.74902"/>
<path d="M21.1619 8L19.7535 6.76115L21.0387 4.68242L19.0142 3.86352L19.5599 1.88976L21.5844 2.68766V0H23.3448V2.68766L25.3693 1.88976L25.9151 3.86352L23.8906 4.68242L25.1757 6.76115L23.7497 8L22.4646 5.92126L21.1619 8Z" fill="white" fill-opacity="0.74902"/>
<path d="M30.669 8L29.2606 6.76115L30.5457 4.68242L28.5212 3.86352L29.067 1.88976L31.0915 2.68766V0H32.8519V2.68766L34.8764 1.88976L35.4222 3.86352L33.3977 4.68242L34.6828 6.76115L33.2568 8L31.9717 5.92126L30.669 8Z" fill="white" fill-opacity="0.74902"/>
<path d="M40.176 8L38.7677 6.76115L40.0528 4.68242L38.0283 3.86352L38.574 1.88976L40.5985 2.68766V0H42.359V2.68766L44.3835 1.88976L44.9292 3.86352L42.9047 4.68242L44.1898 6.76115L42.7639 8L41.4788 5.92126L40.176 8Z" fill="white" fill-opacity="0.74902"/>
<path d="M49.6831 8L48.2748 6.76115L49.5599 4.68242L47.5354 3.86352L48.0811 1.88976L50.1056 2.68766V0H51.8661V2.68766L53.8906 1.88976L54.4363 3.86352L52.4118 4.68242L53.6969 6.76115L52.271 8L50.9858 5.92126L49.6831 8Z" fill="white" fill-opacity="0.74902"/>
<path d="M59.1902 8L57.7818 6.76115L59.067 4.68242L57.0425 3.86352L57.5882 1.88976L59.6127 2.68766V0H61.3731V2.68766L63.3977 1.88976L63.9434 3.86352L61.9189 4.68242L63.204 6.76115L61.778 8L60.4929 5.92126L59.1902 8Z" fill="white" fill-opacity="0.74902"/>
<path d="M68.6973 8L67.2889 6.76115L68.574 4.68242L66.5495 3.86352L67.0953 1.88976L69.1198 2.68766V0H70.8802V2.68766L72.9047 1.88976L73.4505 3.86352L71.426 4.68242L72.7111 6.76115L71.2851 8L70 5.92126L68.6973 8Z" fill="white" fill-opacity="0.74902"/>
<path d="M78.2043 8L76.796 6.76115L78.0811 4.68242L76.0566 3.86352L76.6023 1.88976L78.6269 2.68766V0H80.3873V2.68766L82.4118 1.88976L82.9575 3.86352L80.933 4.68242L82.2182 6.76115L80.7922 8L79.5071 5.92126L78.2043 8Z" fill="white" fill-opacity="0.74902"/>
<path d="M87.7114 8L86.3031 6.76115L87.5882 4.68242L85.5637 3.86352L86.1094 1.88976L88.1339 2.68766V0H89.8944V2.68766L91.9189 1.88976L92.4646 3.86352L90.4401 4.68242L91.7252 6.76115L90.2993 8L89.0142 5.92126L87.7114 8Z" fill="white" fill-opacity="0.74902"/>
<path d="M97.2185 8L95.8102 6.76115L97.0953 4.68242L95.0708 3.86352L95.6165 1.88976L97.641 2.68766V0H99.4014V2.68766L101.426 1.88976L101.972 3.86352L99.9472 4.68242L101.232 6.76115L99.8064 8L98.5212 5.92126L97.2185 8Z" fill="white" fill-opacity="0.74902"/>
<path d="M106.726 8L105.317 6.76115L106.602 4.68242L104.578 3.86352L105.124 1.88976L107.148 2.68766V0H108.909V2.68766L110.933 1.88976L111.479 3.86352L109.454 4.68242L110.739 6.76115L109.313 8L108.028 5.92126L106.726 8Z" fill="white" fill-opacity="0.74902"/>
<path d="M116.233 8L114.824 6.76115L116.109 4.68242L114.085 3.86352L114.631 1.88976L116.655 2.68766V0H118.416V2.68766L120.44 1.88976L120.986 3.86352L118.961 4.68242L120.246 6.76115L118.821 8L117.535 5.92126L116.233 8Z" fill="white" fill-opacity="0.74902"/>
<path d="M125.74 8L124.331 6.76115L125.616 4.68242L123.592 3.86352L124.138 1.88976L126.162 2.68766V0H127.923V2.68766L129.947 1.88976L130.493 3.86352L128.468 4.68242L129.754 6.76115L128.328 8L127.042 5.92126L125.74 8Z" fill="white" fill-opacity="0.74902"/>
<path d="M135.247 8L133.838 6.76115L135.124 4.68242L133.099 3.86352L133.645 1.88976L135.669 2.68766V0H137.43V2.68766L139.454 1.88976L140 3.86352L137.975 4.68242L139.261 6.76115L137.835 8L136.55 5.92126L135.247 8Z" fill="white" fill-opacity="0.74902"/>
</g>
</svg>
