<svg width="357" height="215" viewBox="0 0 357 215" fill="none" xmlns="http://www.w3.org/2000/svg">
<foreignObject x="-42" y="-42" width="441" height="299"><div xmlns="http://www.w3.org/1999/xhtml" style="backdrop-filter:blur(21px);clip-path:url(#bgblur_0_3220_31975_clip_path);height:100%;width:100%"></div></foreignObject><g data-figma-bg-blur-radius="42">
<path d="M335 1C346.598 1 356 10.402 356 22V193C356 204.598 346.598 214 335 214H22C10.402 214 1 204.598 1 193V22C1 10.402 10.402 1 22 1H335Z" fill="url(#paint0_linear_3220_31975)" fill-opacity="0.1"/>
<path d="M335 1C346.598 1 356 10.402 356 22V193C356 204.598 346.598 214 335 214H22C10.402 214 1 204.598 1 193V22C1 10.402 10.402 1 22 1H335Z" stroke="url(#paint1_radial_3220_31975)" stroke-width="2"/>
<path opacity="0.85" d="M25.008 36.1379V25.7079H26.828L30.734 31.0139H29.866L33.688 25.7079H35.508V36.1379H33.59V27.8779L34.332 28.0599L30.37 33.3379H30.146L26.282 28.0599L26.912 27.8779V36.1379H25.008ZM39.6601 36.3059C39.1281 36.3059 38.6661 36.2173 38.2741 36.0399C37.8821 35.8626 37.5788 35.6106 37.3641 35.2839C37.1494 34.9479 37.0421 34.5606 37.0421 34.1219C37.0421 33.7019 37.1354 33.3286 37.3221 33.0019C37.5088 32.6659 37.7981 32.3859 38.1901 32.1619C38.5821 31.9379 39.0768 31.7793 39.6741 31.6859L42.1661 31.2799V32.6799L40.0241 33.0439C39.6601 33.1093 39.3894 33.2259 39.2121 33.3939C39.0348 33.5619 38.9461 33.7813 38.9461 34.0519C38.9461 34.3133 39.0441 34.5233 39.2401 34.6819C39.4454 34.8313 39.6974 34.9059 39.9961 34.9059C40.3788 34.9059 40.7148 34.8266 41.0041 34.6679C41.3028 34.4999 41.5314 34.2713 41.6901 33.9819C41.8581 33.6926 41.9421 33.3753 41.9421 33.0299V31.0699C41.9421 30.7433 41.8114 30.4726 41.5501 30.2579C41.2981 30.0339 40.9621 29.9219 40.5421 29.9219C40.1501 29.9219 39.8001 30.0293 39.4921 30.2439C39.1934 30.4493 38.9741 30.7246 38.8341 31.0699L37.3361 30.3419C37.4854 29.9406 37.7188 29.5953 38.0361 29.3059C38.3628 29.0073 38.7454 28.7739 39.1841 28.6059C39.6228 28.4379 40.0988 28.3539 40.6121 28.3539C41.2374 28.3539 41.7881 28.4706 42.2641 28.7039C42.7401 28.9279 43.1088 29.2453 43.3701 29.6559C43.6408 30.0573 43.7761 30.5286 43.7761 31.0699V36.1379H42.0401V34.8359L42.4321 34.8079C42.2361 35.1346 42.0028 35.4099 41.7321 35.6339C41.4614 35.8486 41.1534 36.0166 40.8081 36.1379C40.4628 36.2499 40.0801 36.3059 39.6601 36.3059ZM45.4712 36.1379V28.5219H47.3052V36.1379H45.4712ZM45.4712 27.6679V25.7079H47.3052V27.6679H45.4712ZM48.9985 36.1379V28.5219H50.7205V30.0199L50.5805 29.7539C50.7579 29.2966 51.0472 28.9513 51.4485 28.7179C51.8592 28.4753 52.3352 28.3539 52.8765 28.3539C53.4365 28.3539 53.9312 28.4753 54.3605 28.7179C54.7992 28.9606 55.1399 29.3013 55.3825 29.7399C55.6252 30.1693 55.7465 30.6686 55.7465 31.2379V36.1379H53.9125V31.6719C53.9125 31.3359 53.8472 31.0466 53.7165 30.8039C53.5859 30.5613 53.4039 30.3746 53.1705 30.2439C52.9465 30.1039 52.6805 30.0339 52.3725 30.0339C52.0739 30.0339 51.8079 30.1039 51.5745 30.2439C51.3412 30.3746 51.1592 30.5613 51.0285 30.8039C50.8979 31.0466 50.8325 31.3359 50.8325 31.6719V36.1379H48.9985ZM60.7694 36.2219C59.9107 36.2219 59.2434 35.9886 58.7674 35.5219C58.3007 35.0459 58.0674 34.3786 58.0674 33.5199V30.1599H56.7514V28.5219H56.8914C57.2647 28.5219 57.554 28.4239 57.7594 28.2279C57.9647 28.0319 58.0674 27.7473 58.0674 27.3739V26.7859H59.9014V28.5219H61.6514V30.1599H59.9014V33.4219C59.9014 33.6739 59.9434 33.8886 60.0274 34.0659C60.1207 34.2433 60.2607 34.3786 60.4474 34.4719C60.6434 34.5653 60.8907 34.6119 61.1894 34.6119C61.2547 34.6119 61.3294 34.6073 61.4134 34.5979C61.5067 34.5886 61.5954 34.5793 61.6794 34.5699V36.1379C61.5487 36.1566 61.3994 36.1753 61.2314 36.1939C61.0634 36.2126 60.9094 36.2219 60.7694 36.2219ZM66.6242 36.3059C65.8402 36.3059 65.1542 36.1286 64.5662 35.7739C63.9782 35.4193 63.5209 34.9386 63.1942 34.3319C62.8675 33.7253 62.7042 33.0533 62.7042 32.3159C62.7042 31.5506 62.8675 30.8739 63.1942 30.2859C63.5302 29.6886 63.9829 29.2173 64.5522 28.8719C65.1309 28.5266 65.7749 28.3539 66.4842 28.3539C67.0815 28.3539 67.6042 28.4519 68.0522 28.6479C68.5095 28.8439 68.8969 29.1146 69.2142 29.4599C69.5315 29.8053 69.7742 30.2019 69.9422 30.6499C70.1102 31.0886 70.1942 31.5646 70.1942 32.0779C70.1942 32.2086 70.1849 32.3439 70.1662 32.4839C70.1569 32.6239 70.1335 32.7453 70.0962 32.8479H64.2162V31.4479H69.0602L68.1922 32.1059C68.2762 31.6766 68.2529 31.2939 68.1222 30.9579C68.0009 30.6219 67.7955 30.3559 67.5062 30.1599C67.2262 29.9639 66.8855 29.8659 66.4842 29.8659C66.1015 29.8659 65.7609 29.9639 65.4622 30.1599C65.1635 30.3466 64.9349 30.6266 64.7762 30.9999C64.6269 31.3639 64.5709 31.8073 64.6082 32.3299C64.5709 32.7966 64.6315 33.2119 64.7902 33.5759C64.9582 33.9306 65.2009 34.2059 65.5182 34.4019C65.8449 34.5979 66.2182 34.6959 66.6382 34.6959C67.0582 34.6959 67.4129 34.6073 67.7022 34.4299C68.0009 34.2526 68.2342 34.0146 68.4022 33.7159L69.8862 34.4439C69.7369 34.8079 69.5035 35.1299 69.1862 35.4099C68.8689 35.6899 68.4909 35.9093 68.0522 36.0679C67.6229 36.2266 67.1469 36.3059 66.6242 36.3059ZM71.5845 36.1379V28.5219H73.3065V30.0199L73.1665 29.7539C73.3438 29.2966 73.6331 28.9513 74.0345 28.7179C74.4451 28.4753 74.9211 28.3539 75.4625 28.3539C76.0225 28.3539 76.5171 28.4753 76.9465 28.7179C77.3851 28.9606 77.7258 29.3013 77.9685 29.7399C78.2111 30.1693 78.3325 30.6686 78.3325 31.2379V36.1379H76.4985V31.6719C76.4985 31.3359 76.4331 31.0466 76.3025 30.8039C76.1718 30.5613 75.9898 30.3746 75.7565 30.2439C75.5325 30.1039 75.2665 30.0339 74.9585 30.0339C74.6598 30.0339 74.3938 30.1039 74.1605 30.2439C73.9271 30.3746 73.7451 30.5613 73.6145 30.8039C73.4838 31.0466 73.4185 31.3359 73.4185 31.6719V36.1379H71.5845ZM82.1933 36.3059C81.6613 36.3059 81.1993 36.2173 80.8073 36.0399C80.4153 35.8626 80.112 35.6106 79.8973 35.2839C79.6826 34.9479 79.5753 34.5606 79.5753 34.1219C79.5753 33.7019 79.6686 33.3286 79.8553 33.0019C80.042 32.6659 80.3313 32.3859 80.7233 32.1619C81.1153 31.9379 81.61 31.7793 82.2073 31.6859L84.6993 31.2799V32.6799L82.5573 33.0439C82.1933 33.1093 81.9226 33.2259 81.7453 33.3939C81.568 33.5619 81.4793 33.7813 81.4793 34.0519C81.4793 34.3133 81.5773 34.5233 81.7733 34.6819C81.9786 34.8313 82.2306 34.9059 82.5293 34.9059C82.912 34.9059 83.248 34.8266 83.5373 34.6679C83.836 34.4999 84.0646 34.2713 84.2233 33.9819C84.3913 33.6926 84.4753 33.3753 84.4753 33.0299V31.0699C84.4753 30.7433 84.3446 30.4726 84.0833 30.2579C83.8313 30.0339 83.4953 29.9219 83.0753 29.9219C82.6833 29.9219 82.3333 30.0293 82.0253 30.2439C81.7266 30.4493 81.5073 30.7246 81.3673 31.0699L79.8693 30.3419C80.0186 29.9406 80.252 29.5953 80.5693 29.3059C80.896 29.0073 81.2786 28.7739 81.7173 28.6059C82.156 28.4379 82.632 28.3539 83.1453 28.3539C83.7706 28.3539 84.3213 28.4706 84.7973 28.7039C85.2733 28.9279 85.642 29.2453 85.9033 29.6559C86.174 30.0573 86.3093 30.5286 86.3093 31.0699V36.1379H84.5733V34.8359L84.9653 34.8079C84.7693 35.1346 84.536 35.4099 84.2653 35.6339C83.9946 35.8486 83.6866 36.0166 83.3413 36.1379C82.996 36.2499 82.6133 36.3059 82.1933 36.3059ZM88.0044 36.1379V28.5219H89.7264V30.0199L89.5864 29.7539C89.7637 29.2966 90.0531 28.9513 90.4544 28.7179C90.8651 28.4753 91.3411 28.3539 91.8824 28.3539C92.4424 28.3539 92.9371 28.4753 93.3664 28.7179C93.8051 28.9606 94.1457 29.3013 94.3884 29.7399C94.6311 30.1693 94.7524 30.6686 94.7524 31.2379V36.1379H92.9184V31.6719C92.9184 31.3359 92.8531 31.0466 92.7224 30.8039C92.5917 30.5613 92.4097 30.3746 92.1764 30.2439C91.9524 30.1039 91.6864 30.0339 91.3784 30.0339C91.0797 30.0339 90.8137 30.1039 90.5804 30.2439C90.3471 30.3746 90.1651 30.5613 90.0344 30.8039C89.9037 31.0466 89.8384 31.3359 89.8384 31.6719V36.1379H88.0044ZM99.9712 36.3059C99.2152 36.3059 98.5339 36.1333 97.9272 35.7879C97.3299 35.4333 96.8586 34.9573 96.5132 34.3599C96.1679 33.7533 95.9952 33.0719 95.9952 32.3159C95.9952 31.5599 96.1679 30.8833 96.5132 30.2859C96.8586 29.6886 97.3299 29.2173 97.9272 28.8719C98.5339 28.5266 99.2152 28.3539 99.9712 28.3539C100.513 28.3539 101.017 28.4519 101.483 28.6479C101.95 28.8346 102.351 29.0959 102.687 29.4319C103.033 29.7586 103.28 30.1506 103.429 30.6079L101.819 31.3079C101.679 30.9253 101.441 30.6173 101.105 30.3839C100.779 30.1506 100.401 30.0339 99.9712 30.0339C99.5699 30.0339 99.2106 30.1319 98.8932 30.3279C98.5852 30.5239 98.3426 30.7946 98.1652 31.1399C97.9879 31.4853 97.8992 31.8819 97.8992 32.3299C97.8992 32.7779 97.9879 33.1746 98.1652 33.5199C98.3426 33.8653 98.5852 34.1359 98.8932 34.3319C99.2106 34.5279 99.5699 34.6259 99.9712 34.6259C100.41 34.6259 100.793 34.5093 101.119 34.2759C101.446 34.0426 101.679 33.7299 101.819 33.3379L103.429 34.0659C103.28 34.4953 103.037 34.8826 102.701 35.2279C102.365 35.5639 101.964 35.8299 101.497 36.0259C101.031 36.2126 100.522 36.3059 99.9712 36.3059ZM108.433 36.3059C107.649 36.3059 106.963 36.1286 106.375 35.7739C105.787 35.4193 105.329 34.9386 105.003 34.3319C104.676 33.7253 104.513 33.0533 104.513 32.3159C104.513 31.5506 104.676 30.8739 105.003 30.2859C105.339 29.6886 105.791 29.2173 106.361 28.8719C106.939 28.5266 107.583 28.3539 108.293 28.3539C108.89 28.3539 109.413 28.4519 109.861 28.6479C110.318 28.8439 110.705 29.1146 111.023 29.4599C111.34 29.8053 111.583 30.2019 111.751 30.6499C111.919 31.0886 112.003 31.5646 112.003 32.0779C112.003 32.2086 111.993 32.3439 111.975 32.4839C111.965 32.6239 111.942 32.7453 111.905 32.8479H106.025V31.4479H110.869L110.001 32.1059C110.085 31.6766 110.061 31.2939 109.931 30.9579C109.809 30.6219 109.604 30.3559 109.315 30.1599C109.035 29.9639 108.694 29.8659 108.293 29.8659C107.91 29.8659 107.569 29.9639 107.271 30.1599C106.972 30.3466 106.743 30.6266 106.585 30.9999C106.435 31.3639 106.379 31.8073 106.417 32.3299C106.379 32.7966 106.44 33.2119 106.599 33.5759C106.767 33.9306 107.009 34.2059 107.327 34.4019C107.653 34.5979 108.027 34.6959 108.447 34.6959C108.867 34.6959 109.221 34.6073 109.511 34.4299C109.809 34.2526 110.043 34.0146 110.211 33.7159L111.695 34.4439C111.545 34.8079 111.312 35.1299 110.995 35.4099C110.677 35.6899 110.299 35.9093 109.861 36.0679C109.431 36.2266 108.955 36.3059 108.433 36.3059Z" fill="white"/>
<rect x="24" y="63.1379" width="73.9569" height="6.72414" rx="3.36207" fill="#EB5757"/>
<rect x="104.681" y="63.1379" width="73.9569" height="6.72414" rx="3.36207" fill="#FD9C2B"/>
<rect x="185.362" y="63.1379" width="73.9569" height="6.72414" rx="3.36207" fill="#FCDE2D"/>
<rect x="266.043" y="63.1379" width="73.9569" height="6.72414" rx="3.36207" fill="#57EB66"/>
<path d="M28.9 112.03C28.1627 112.03 27.514 111.876 26.954 111.568C26.394 111.26 25.96 110.84 25.652 110.308C25.344 109.767 25.19 109.151 25.19 108.46V101.432H26.31V108.46C26.31 108.964 26.4173 109.407 26.632 109.79C26.856 110.163 27.1593 110.457 27.542 110.672C27.934 110.877 28.3867 110.98 28.9 110.98C29.4133 110.98 29.8613 110.877 30.244 110.672C30.636 110.457 30.9393 110.163 31.154 109.79C31.378 109.407 31.49 108.964 31.49 108.46V101.432H32.61V108.46C32.61 109.151 32.456 109.767 32.148 110.308C31.84 110.84 31.406 111.26 30.846 111.568C30.2953 111.876 29.6467 112.03 28.9 112.03ZM34.8807 114.662V104.358H35.9307V106.038L35.7627 105.744C36.0614 105.268 36.4581 104.89 36.9527 104.61C37.4567 104.33 38.0307 104.19 38.6747 104.19C39.3841 104.19 40.0141 104.363 40.5647 104.708C41.1247 105.044 41.5634 105.506 41.8807 106.094C42.2074 106.682 42.3707 107.354 42.3707 108.11C42.3707 108.857 42.2074 109.529 41.8807 110.126C41.5634 110.714 41.1247 111.181 40.5647 111.526C40.0141 111.862 39.3841 112.03 38.6747 112.03C38.0307 112.03 37.4474 111.885 36.9247 111.596C36.4114 111.297 36.0241 110.877 35.7627 110.336L35.9307 110.182V114.662H34.8807ZM38.6187 110.98C39.1227 110.98 39.5707 110.854 39.9627 110.602C40.3641 110.35 40.6767 110.009 40.9007 109.58C41.1341 109.141 41.2507 108.651 41.2507 108.11C41.2507 107.559 41.1341 107.069 40.9007 106.64C40.6767 106.211 40.3641 105.87 39.9627 105.618C39.5707 105.366 39.1227 105.24 38.6187 105.24C38.1147 105.24 37.6574 105.366 37.2467 105.618C36.8454 105.87 36.5234 106.215 36.2807 106.654C36.0474 107.083 35.9307 107.569 35.9307 108.11C35.9307 108.651 36.0474 109.141 36.2807 109.58C36.5234 110.009 36.8454 110.35 37.2467 110.602C37.6574 110.854 38.1147 110.98 38.6187 110.98ZM47.6486 112.03C46.9113 112.03 46.2626 111.857 45.7026 111.512C45.1426 111.167 44.704 110.7 44.3866 110.112C44.0693 109.515 43.9106 108.843 43.9106 108.096C43.9106 107.349 44.0693 106.682 44.3866 106.094C44.704 105.506 45.1426 105.044 45.7026 104.708C46.2626 104.363 46.9113 104.19 47.6486 104.19C48.1153 104.19 48.554 104.274 48.9646 104.442C49.3753 104.61 49.7393 104.839 50.0566 105.128C50.374 105.408 50.612 105.735 50.7706 106.108L49.8186 106.598C49.632 106.197 49.3473 105.87 48.9646 105.618C48.582 105.366 48.1433 105.24 47.6486 105.24C47.154 105.24 46.706 105.366 46.3046 105.618C45.9126 105.861 45.6 106.201 45.3666 106.64C45.1426 107.069 45.0306 107.559 45.0306 108.11C45.0306 108.651 45.1426 109.141 45.3666 109.58C45.6 110.009 45.9126 110.35 46.3046 110.602C46.706 110.854 47.154 110.98 47.6486 110.98C48.1433 110.98 48.5773 110.854 48.9506 110.602C49.3333 110.35 49.6226 110.014 49.8186 109.594L50.7706 110.112C50.612 110.476 50.374 110.803 50.0566 111.092C49.7393 111.381 49.3753 111.61 48.9646 111.778C48.554 111.946 48.1153 112.03 47.6486 112.03ZM56.1272 112.03C55.4178 112.03 54.7738 111.862 54.1952 111.526C53.6165 111.181 53.1545 110.714 52.8092 110.126C52.4732 109.529 52.3052 108.852 52.3052 108.096C52.3052 107.349 52.4732 106.682 52.8092 106.094C53.1452 105.506 53.5978 105.044 54.1672 104.708C54.7458 104.363 55.3992 104.19 56.1272 104.19C56.8552 104.19 57.5038 104.358 58.0732 104.694C58.6518 105.03 59.1045 105.492 59.4312 106.08C59.7672 106.668 59.9352 107.34 59.9352 108.096C59.9352 108.861 59.7625 109.543 59.4172 110.14C59.0718 110.728 58.6098 111.19 58.0312 111.526C57.4618 111.862 56.8272 112.03 56.1272 112.03ZM56.1272 110.98C56.6312 110.98 57.0838 110.854 57.4852 110.602C57.8958 110.35 58.2178 110.005 58.4512 109.566C58.6938 109.127 58.8152 108.637 58.8152 108.096C58.8152 107.555 58.6938 107.069 58.4512 106.64C58.2178 106.211 57.8958 105.87 57.4852 105.618C57.0838 105.366 56.6312 105.24 56.1272 105.24C55.6232 105.24 55.1658 105.366 54.7552 105.618C54.3538 105.87 54.0318 106.211 53.7892 106.64C53.5465 107.069 53.4252 107.555 53.4252 108.096C53.4252 108.637 53.5465 109.127 53.7892 109.566C54.0318 110.005 54.3538 110.35 54.7552 110.602C55.1658 110.854 55.6232 110.98 56.1272 110.98ZM61.787 111.862V104.358H62.837V105.786L62.669 105.576C62.8743 105.137 63.1777 104.797 63.579 104.554C63.9897 104.311 64.4377 104.19 64.923 104.19C65.5017 104.19 66.0243 104.353 66.491 104.68C66.9577 105.007 67.289 105.431 67.485 105.954L67.191 105.968C67.3777 105.389 67.6997 104.951 68.157 104.652C68.6237 104.344 69.137 104.19 69.697 104.19C70.201 104.19 70.663 104.311 71.083 104.554C71.5123 104.797 71.853 105.133 72.105 105.562C72.3663 105.982 72.497 106.458 72.497 106.99V111.862H71.447V107.396C71.447 106.939 71.363 106.551 71.195 106.234C71.0363 105.917 70.817 105.674 70.537 105.506C70.257 105.329 69.935 105.24 69.571 105.24C69.2163 105.24 68.8943 105.329 68.605 105.506C68.3157 105.674 68.087 105.921 67.919 106.248C67.751 106.565 67.667 106.948 67.667 107.396V111.862H66.617V107.396C66.617 106.939 66.533 106.551 66.365 106.234C66.2063 105.917 65.987 105.674 65.707 105.506C65.427 105.329 65.105 105.24 64.741 105.24C64.377 105.24 64.0503 105.329 63.761 105.506C63.481 105.674 63.257 105.921 63.089 106.248C62.921 106.565 62.837 106.948 62.837 107.396V111.862H61.787ZM74.5018 111.862V104.358H75.5518V111.862H74.5018ZM74.5018 102.972V101.432H75.5518V102.972H74.5018ZM77.701 111.862V104.358H78.751V105.814L78.513 105.758C78.6997 105.273 79.003 104.89 79.423 104.61C79.8524 104.33 80.347 104.19 80.907 104.19C81.439 104.19 81.915 104.311 82.335 104.554C82.7644 104.797 83.1004 105.133 83.343 105.562C83.595 105.982 83.721 106.458 83.721 106.99V111.862H82.671V107.396C82.671 106.939 82.587 106.551 82.419 106.234C82.2604 105.917 82.0317 105.674 81.733 105.506C81.4437 105.329 81.1077 105.24 80.725 105.24C80.3424 105.24 80.0017 105.329 79.703 105.506C79.4044 105.674 79.171 105.921 79.003 106.248C78.835 106.565 78.751 106.948 78.751 107.396V111.862H77.701ZM89.2824 114.942C88.7691 114.942 88.2931 114.863 87.8544 114.704C87.4251 114.545 87.0518 114.326 86.7344 114.046C86.4264 113.775 86.1884 113.458 86.0204 113.094L86.9864 112.576C87.1358 112.931 87.4018 113.239 87.7844 113.5C88.1671 113.761 88.6571 113.892 89.2544 113.892C89.7118 113.892 90.1318 113.803 90.5144 113.626C90.8971 113.449 91.2051 113.187 91.4384 112.842C91.6718 112.497 91.7884 112.072 91.7884 111.568V109.902L91.9564 110.056C91.6951 110.597 91.3078 111.017 90.7944 111.316C90.2811 111.605 89.7211 111.75 89.1144 111.75C88.4144 111.75 87.7844 111.582 87.2244 111.246C86.6644 110.91 86.2211 110.457 85.8944 109.888C85.5771 109.309 85.4184 108.67 85.4184 107.97C85.4184 107.261 85.5771 106.621 85.8944 106.052C86.2211 105.483 86.6598 105.03 87.2104 104.694C87.7704 104.358 88.4051 104.19 89.1144 104.19C89.7211 104.19 90.2718 104.33 90.7664 104.61C91.2704 104.89 91.6671 105.268 91.9564 105.744L91.7884 106.038V104.358H92.8384V111.568C92.8384 112.212 92.6844 112.786 92.3764 113.29C92.0778 113.803 91.6578 114.205 91.1164 114.494C90.5844 114.793 89.9731 114.942 89.2824 114.942ZM89.1704 110.7C89.6558 110.7 90.0944 110.579 90.4864 110.336C90.8784 110.084 91.1911 109.753 91.4244 109.342C91.6671 108.922 91.7884 108.465 91.7884 107.97C91.7884 107.475 91.6671 107.023 91.4244 106.612C91.1911 106.192 90.8784 105.861 90.4864 105.618C90.0944 105.366 89.6558 105.24 89.1704 105.24C88.6758 105.24 88.2278 105.366 87.8264 105.618C87.4251 105.861 87.1078 106.187 86.8744 106.598C86.6504 107.009 86.5384 107.466 86.5384 107.97C86.5384 108.465 86.6504 108.922 86.8744 109.342C87.1078 109.753 87.4204 110.084 87.8124 110.336C88.2138 110.579 88.6664 110.7 89.1704 110.7Z" fill="#98A2B3"/>
<path d="M25.7257 155.862V154.23L30.6697 148.878C31.6457 147.838 32.4217 146.982 32.9977 146.31C33.5897 145.638 34.0217 145.038 34.2937 144.51C34.5657 143.982 34.7017 143.422 34.7017 142.83C34.7017 141.854 34.4137 141.102 33.8377 140.574C33.2617 140.046 32.5017 139.782 31.5577 139.782C30.5977 139.782 29.7817 140.062 29.1097 140.622C28.4377 141.166 27.9737 141.942 27.7177 142.95L25.5817 142.398C25.7897 141.438 26.1737 140.606 26.7337 139.902C27.2937 139.198 27.9897 138.654 28.8217 138.27C29.6537 137.886 30.5657 137.694 31.5577 137.694C32.6457 137.694 33.5977 137.91 34.4137 138.342C35.2457 138.758 35.8937 139.342 36.3577 140.094C36.8377 140.846 37.0777 141.718 37.0777 142.71C37.0777 143.366 36.9417 144.006 36.6697 144.63C36.3977 145.254 35.9977 145.918 35.4697 146.622C34.9417 147.31 34.2537 148.11 33.4057 149.022L28.9897 153.822H37.4617V155.862H25.7257ZM46.0209 156.15C44.8689 156.15 43.8449 155.894 42.9489 155.382C42.0689 154.87 41.3729 154.174 40.8609 153.294C40.3489 152.398 40.0929 151.382 40.0929 150.246C40.0929 149.622 40.1649 149.006 40.3089 148.398C40.4529 147.79 40.6849 147.174 41.0049 146.55C41.3249 145.926 41.7329 145.278 42.2289 144.606L47.2689 137.982H50.1009L43.9329 145.998L43.5009 145.95C43.7409 145.63 44.0049 145.382 44.2929 145.206C44.5969 145.03 44.9169 144.902 45.2529 144.822C45.6049 144.742 45.9729 144.702 46.3569 144.702C47.4129 144.702 48.3569 144.95 49.1889 145.446C50.0369 145.926 50.7009 146.59 51.1809 147.438C51.6769 148.286 51.9249 149.262 51.9249 150.366C51.9249 151.47 51.6689 152.462 51.1569 153.342C50.6449 154.206 49.9409 154.894 49.0449 155.406C48.1649 155.902 47.1569 156.15 46.0209 156.15ZM46.0209 154.038C46.6929 154.038 47.2929 153.886 47.8209 153.582C48.3489 153.262 48.7649 152.822 49.0689 152.262C49.3889 151.702 49.5489 151.078 49.5489 150.39C49.5489 149.67 49.3969 149.046 49.0929 148.518C48.7889 147.974 48.3729 147.542 47.8449 147.222C47.3169 146.902 46.7089 146.742 46.0209 146.742C45.3489 146.742 44.7409 146.902 44.1969 147.222C43.6529 147.542 43.2289 147.974 42.9249 148.518C42.6209 149.046 42.4689 149.67 42.4689 150.39C42.4689 151.078 42.6209 151.702 42.9249 152.262C43.2449 152.822 43.6689 153.262 44.1969 153.582C44.7409 153.886 45.3489 154.038 46.0209 154.038ZM55.8041 155.862V152.982H58.1321V155.862H55.8041ZM69.4933 156.15C68.0693 156.15 66.8213 155.766 65.7493 154.998C64.6933 154.214 63.8693 153.134 63.2773 151.758C62.6853 150.366 62.3893 148.75 62.3893 146.91C62.3893 145.07 62.6853 143.462 63.2773 142.086C63.8693 140.694 64.6933 139.614 65.7493 138.846C66.8053 138.078 68.0453 137.694 69.4693 137.694C70.8933 137.694 72.1333 138.078 73.1893 138.846C74.2453 139.614 75.0693 140.694 75.6613 142.086C76.2693 143.462 76.5733 145.07 76.5733 146.91C76.5733 148.75 76.2773 150.366 75.6853 151.758C75.0933 153.15 74.2613 154.23 73.1893 154.998C72.1333 155.766 70.9013 156.15 69.4933 156.15ZM69.4933 153.966C70.4533 153.966 71.2853 153.678 71.9893 153.102C72.6933 152.51 73.2373 151.686 73.6213 150.63C74.0213 149.574 74.2213 148.334 74.2213 146.91C74.2213 145.486 74.0213 144.246 73.6213 143.19C73.2373 142.134 72.6853 141.318 71.9653 140.742C71.2613 140.166 70.4293 139.878 69.4693 139.878C68.5093 139.878 67.6773 140.166 66.9733 140.742C66.2693 141.318 65.7173 142.134 65.3173 143.19C64.9333 144.246 64.7413 145.486 64.7413 146.91C64.7413 148.318 64.9333 149.55 65.3173 150.606C65.7173 151.662 66.2693 152.486 66.9733 153.078C67.6933 153.67 68.5333 153.966 69.4933 153.966ZM79.4444 155.862V154.23L84.3884 148.878C85.3644 147.838 86.1404 146.982 86.7164 146.31C87.3084 145.638 87.7404 145.038 88.0124 144.51C88.2844 143.982 88.4204 143.422 88.4204 142.83C88.4204 141.854 88.1324 141.102 87.5564 140.574C86.9804 140.046 86.2204 139.782 85.2764 139.782C84.3164 139.782 83.5004 140.062 82.8284 140.622C82.1564 141.166 81.6924 141.942 81.4364 142.95L79.3004 142.398C79.5084 141.438 79.8924 140.606 80.4524 139.902C81.0124 139.198 81.7084 138.654 82.5404 138.27C83.3724 137.886 84.2844 137.694 85.2764 137.694C86.3644 137.694 87.3164 137.91 88.1324 138.342C88.9644 138.758 89.6124 139.342 90.0764 140.094C90.5564 140.846 90.7964 141.718 90.7964 142.71C90.7964 143.366 90.6604 144.006 90.3884 144.63C90.1164 145.254 89.7164 145.918 89.1884 146.622C88.6604 147.31 87.9724 148.11 87.1244 149.022L82.7084 153.822H91.1804V155.862H79.4444ZM95.1556 155.862V152.982H97.4836V155.862H95.1556ZM101.429 155.862V154.23L106.373 148.878C107.349 147.838 108.125 146.982 108.701 146.31C109.293 145.638 109.725 145.038 109.997 144.51C110.269 143.982 110.405 143.422 110.405 142.83C110.405 141.854 110.117 141.102 109.541 140.574C108.965 140.046 108.205 139.782 107.261 139.782C106.301 139.782 105.485 140.062 104.813 140.622C104.141 141.166 103.677 141.942 103.421 142.95L101.285 142.398C101.493 141.438 101.877 140.606 102.437 139.902C102.997 139.198 103.693 138.654 104.525 138.27C105.357 137.886 106.269 137.694 107.261 137.694C108.349 137.694 109.301 137.91 110.117 138.342C110.949 138.758 111.597 139.342 112.061 140.094C112.541 140.846 112.781 141.718 112.781 142.71C112.781 143.366 112.645 144.006 112.373 144.63C112.101 145.254 111.701 145.918 111.173 146.622C110.645 147.31 109.957 148.11 109.109 149.022L104.693 153.822H113.165V155.862H101.429ZM124.082 155.862V151.734H115.298V149.79L124.034 137.982H126.29V149.79H128.618V151.734H126.29V155.862H124.082ZM117.074 150.63L116.738 149.79H124.082V139.95L124.778 140.142L117.074 150.63Z" fill="white"/>
<path opacity="0.9" d="M26.136 188.862V180.942H24.444V179.922H27.324V188.862H26.136ZM29.23 188.862V188.046L31.702 185.37C32.19 184.85 32.578 184.422 32.866 184.086C33.162 183.75 33.378 183.45 33.514 183.186C33.65 182.922 33.718 182.642 33.718 182.346C33.718 181.858 33.574 181.482 33.286 181.218C32.998 180.954 32.618 180.822 32.146 180.822C31.666 180.822 31.258 180.962 30.922 181.242C30.586 181.514 30.354 181.902 30.226 182.406L29.158 182.13C29.262 181.65 29.454 181.234 29.734 180.882C30.014 180.53 30.362 180.258 30.778 180.066C31.194 179.874 31.65 179.778 32.146 179.778C32.69 179.778 33.166 179.886 33.574 180.102C33.99 180.31 34.314 180.602 34.546 180.978C34.786 181.354 34.906 181.79 34.906 182.286C34.906 182.614 34.838 182.934 34.702 183.246C34.566 183.558 34.366 183.89 34.102 184.242C33.838 184.586 33.494 184.986 33.07 185.442L30.862 187.842H35.098V188.862H29.23ZM40.5564 188.862V186.798H36.1644V185.826L40.5324 179.922H41.6604V185.826H42.8244V186.798H41.6604V188.862H40.5564ZM37.0524 186.246L36.8844 185.826H40.5564V180.906L40.9044 181.002L37.0524 186.246ZM46.371 188.862V179.922H47.547V183.906H52.023V179.922H53.211V188.862H52.023V184.986H47.547V188.862H46.371ZM55.0632 188.862V182.394H56.1552V183.582L56.0352 183.414C56.1872 183.046 56.4192 182.774 56.7312 182.598C57.0432 182.414 57.4232 182.322 57.8712 182.322H58.2672V183.378H57.7032C57.2472 183.378 56.8792 183.522 56.5992 183.81C56.3192 184.09 56.1792 184.49 56.1792 185.01V188.862H55.0632ZM61.5745 189.006C60.9265 189.006 60.3625 188.846 59.8825 188.526C59.4025 188.206 59.0625 187.774 58.8625 187.23L59.7505 186.798C59.9345 187.182 60.1865 187.486 60.5065 187.71C60.8265 187.934 61.1825 188.046 61.5745 188.046C61.9265 188.046 62.2185 187.962 62.4505 187.794C62.6825 187.626 62.7985 187.406 62.7985 187.134C62.7985 186.942 62.7425 186.79 62.6305 186.678C62.5265 186.558 62.3985 186.466 62.2465 186.402C62.0945 186.33 61.9545 186.278 61.8265 186.246L60.8545 185.97C60.2705 185.802 59.8425 185.562 59.5705 185.25C59.3065 184.938 59.1745 184.574 59.1745 184.158C59.1745 183.774 59.2705 183.442 59.4625 183.162C59.6625 182.874 59.9305 182.65 60.2665 182.49C60.6105 182.33 60.9945 182.25 61.4185 182.25C61.9865 182.25 62.4945 182.394 62.9425 182.682C63.3985 182.97 63.7225 183.374 63.9145 183.894L63.0025 184.314C62.8585 183.978 62.6425 183.714 62.3545 183.522C62.0665 183.322 61.7425 183.222 61.3825 183.222C61.0545 183.222 60.7945 183.306 60.6025 183.474C60.4105 183.634 60.3145 183.838 60.3145 184.086C60.3145 184.27 60.3625 184.422 60.4585 184.542C60.5545 184.654 60.6705 184.742 60.8065 184.806C60.9425 184.862 61.0745 184.91 61.2025 184.95L62.2585 185.262C62.7865 185.414 63.1945 185.65 63.4825 185.97C63.7785 186.29 63.9265 186.674 63.9265 187.122C63.9265 187.482 63.8265 187.806 63.6265 188.094C63.4265 188.382 63.1505 188.606 62.7985 188.766C62.4465 188.926 62.0385 189.006 61.5745 189.006Z" fill="white"/>
<path d="M219.232 111.862V101.432H220.352V110.812H224.972V111.862H219.232ZM228.686 112.03C228.21 112.03 227.785 111.941 227.412 111.764C227.038 111.577 226.744 111.325 226.53 111.008C226.315 110.691 226.208 110.327 226.208 109.916C226.208 109.524 226.292 109.169 226.46 108.852C226.628 108.525 226.889 108.25 227.244 108.026C227.598 107.802 228.051 107.643 228.602 107.55L231.542 107.06V108.012L228.854 108.46C228.312 108.553 227.92 108.726 227.678 108.978C227.444 109.23 227.328 109.529 227.328 109.874C227.328 110.21 227.458 110.495 227.72 110.728C227.99 110.961 228.336 111.078 228.756 111.078C229.269 111.078 229.717 110.971 230.1 110.756C230.482 110.532 230.781 110.233 230.996 109.86C231.21 109.487 231.318 109.071 231.318 108.614V106.71C231.318 106.262 231.154 105.898 230.828 105.618C230.501 105.338 230.076 105.198 229.553 105.198C229.096 105.198 228.695 105.315 228.35 105.548C228.004 105.772 227.748 106.066 227.58 106.43L226.628 105.912C226.768 105.595 226.987 105.305 227.285 105.044C227.594 104.783 227.944 104.577 228.336 104.428C228.728 104.269 229.134 104.19 229.553 104.19C230.104 104.19 230.59 104.297 231.01 104.512C231.439 104.727 231.77 105.025 232.004 105.408C232.246 105.781 232.368 106.215 232.368 106.71V111.862H231.318V110.364L231.472 110.518C231.341 110.798 231.136 111.055 230.856 111.288C230.585 111.512 230.263 111.694 229.89 111.834C229.526 111.965 229.124 112.03 228.686 112.03ZM237.131 112.03C236.413 112.03 235.783 111.848 235.241 111.484C234.7 111.12 234.308 110.625 234.065 110L234.947 109.58C235.162 110.037 235.461 110.401 235.843 110.672C236.235 110.943 236.665 111.078 237.131 111.078C237.579 111.078 237.957 110.971 238.265 110.756C238.573 110.532 238.727 110.243 238.727 109.888C238.727 109.627 238.653 109.421 238.503 109.272C238.354 109.113 238.181 108.992 237.985 108.908C237.789 108.824 237.617 108.763 237.467 108.726L236.389 108.418C235.699 108.222 235.199 107.947 234.891 107.592C234.583 107.237 234.429 106.827 234.429 106.36C234.429 105.921 234.541 105.539 234.765 105.212C234.989 104.885 235.293 104.633 235.675 104.456C236.058 104.279 236.483 104.19 236.949 104.19C237.584 104.19 238.158 104.358 238.671 104.694C239.194 105.021 239.563 105.478 239.777 106.066L238.881 106.486C238.695 106.066 238.424 105.739 238.069 105.506C237.724 105.263 237.337 105.142 236.907 105.142C236.487 105.142 236.151 105.249 235.899 105.464C235.647 105.679 235.521 105.949 235.521 106.276C235.521 106.528 235.587 106.729 235.717 106.878C235.848 107.027 235.997 107.139 236.165 107.214C236.343 107.289 236.497 107.345 236.627 107.382L237.873 107.746C238.48 107.923 238.951 108.199 239.287 108.572C239.633 108.945 239.805 109.384 239.805 109.888C239.805 110.299 239.689 110.667 239.455 110.994C239.231 111.321 238.919 111.577 238.517 111.764C238.116 111.941 237.654 112.03 237.131 112.03ZM244.52 111.946C243.848 111.946 243.33 111.75 242.966 111.358C242.602 110.966 242.42 110.406 242.42 109.678V105.408H241.034V104.358H241.384C241.702 104.358 241.954 104.255 242.14 104.05C242.327 103.835 242.42 103.569 242.42 103.252V102.622H243.47V104.358H245.122V105.408H243.47V109.678C243.47 109.93 243.508 110.154 243.582 110.35C243.657 110.537 243.783 110.686 243.96 110.798C244.147 110.91 244.394 110.966 244.702 110.966C244.777 110.966 244.866 110.961 244.968 110.952C245.071 110.943 245.16 110.933 245.234 110.924V111.862C245.122 111.89 244.996 111.909 244.856 111.918C244.716 111.937 244.604 111.946 244.52 111.946Z" fill="#98A2B3"/>
<path d="M219.577 155.862V154.23L224.521 148.878C225.497 147.838 226.273 146.982 226.849 146.31C227.441 145.638 227.873 145.038 228.145 144.51C228.417 143.982 228.553 143.422 228.553 142.83C228.553 141.854 228.265 141.102 227.689 140.574C227.113 140.046 226.353 139.782 225.409 139.782C224.449 139.782 223.633 140.062 222.961 140.622C222.289 141.166 221.825 141.942 221.569 142.95L219.433 142.398C219.641 141.438 220.025 140.606 220.585 139.902C221.145 139.198 221.841 138.654 222.673 138.27C223.505 137.886 224.417 137.694 225.409 137.694C226.497 137.694 227.449 137.91 228.265 138.342C229.097 138.758 229.745 139.342 230.209 140.094C230.689 140.846 230.929 141.718 230.929 142.71C230.929 143.366 230.793 144.006 230.521 144.63C230.249 145.254 229.849 145.918 229.321 146.622C228.793 147.31 228.105 148.11 227.257 149.022L222.841 153.822H231.313V155.862H219.577ZM239.872 156.15C238.72 156.15 237.696 155.894 236.8 155.382C235.92 154.87 235.224 154.174 234.712 153.294C234.2 152.398 233.944 151.382 233.944 150.246C233.944 149.622 234.016 149.006 234.16 148.398C234.304 147.79 234.536 147.174 234.856 146.55C235.176 145.926 235.584 145.278 236.08 144.606L241.12 137.982H243.952L237.784 145.998L237.352 145.95C237.592 145.63 237.856 145.382 238.144 145.206C238.448 145.03 238.768 144.902 239.104 144.822C239.456 144.742 239.824 144.702 240.208 144.702C241.264 144.702 242.208 144.95 243.04 145.446C243.888 145.926 244.552 146.59 245.032 147.438C245.528 148.286 245.776 149.262 245.776 150.366C245.776 151.47 245.52 152.462 245.008 153.342C244.496 154.206 243.792 154.894 242.896 155.406C242.016 155.902 241.008 156.15 239.872 156.15ZM239.872 154.038C240.544 154.038 241.144 153.886 241.672 153.582C242.2 153.262 242.616 152.822 242.92 152.262C243.24 151.702 243.4 151.078 243.4 150.39C243.4 149.67 243.248 149.046 242.944 148.518C242.64 147.974 242.224 147.542 241.696 147.222C241.168 146.902 240.56 146.742 239.872 146.742C239.2 146.742 238.592 146.902 238.048 147.222C237.504 147.542 237.08 147.974 236.776 148.518C236.472 149.046 236.32 149.67 236.32 150.39C236.32 151.078 236.472 151.702 236.776 152.262C237.096 152.822 237.52 153.262 238.048 153.582C238.592 153.886 239.2 154.038 239.872 154.038ZM249.656 155.862V152.982H251.984V155.862H249.656ZM263.345 156.15C261.921 156.15 260.673 155.766 259.601 154.998C258.545 154.214 257.721 153.134 257.129 151.758C256.537 150.366 256.241 148.75 256.241 146.91C256.241 145.07 256.537 143.462 257.129 142.086C257.721 140.694 258.545 139.614 259.601 138.846C260.657 138.078 261.897 137.694 263.321 137.694C264.745 137.694 265.985 138.078 267.041 138.846C268.097 139.614 268.921 140.694 269.513 142.086C270.121 143.462 270.425 145.07 270.425 146.91C270.425 148.75 270.129 150.366 269.537 151.758C268.945 153.15 268.113 154.23 267.041 154.998C265.985 155.766 264.753 156.15 263.345 156.15ZM263.345 153.966C264.305 153.966 265.137 153.678 265.841 153.102C266.545 152.51 267.089 151.686 267.473 150.63C267.873 149.574 268.073 148.334 268.073 146.91C268.073 145.486 267.873 144.246 267.473 143.19C267.089 142.134 266.537 141.318 265.817 140.742C265.113 140.166 264.281 139.878 263.321 139.878C262.361 139.878 261.529 140.166 260.825 140.742C260.121 141.318 259.569 142.134 259.169 143.19C258.785 144.246 258.593 145.486 258.593 146.91C258.593 148.318 258.785 149.55 259.169 150.606C259.569 151.662 260.121 152.486 260.825 153.078C261.545 153.67 262.385 153.966 263.345 153.966ZM273.296 155.862V154.23L278.24 148.878C279.216 147.838 279.992 146.982 280.568 146.31C281.16 145.638 281.592 145.038 281.864 144.51C282.136 143.982 282.272 143.422 282.272 142.83C282.272 141.854 281.984 141.102 281.408 140.574C280.832 140.046 280.072 139.782 279.128 139.782C278.168 139.782 277.352 140.062 276.68 140.622C276.008 141.166 275.544 141.942 275.288 142.95L273.152 142.398C273.36 141.438 273.744 140.606 274.304 139.902C274.864 139.198 275.56 138.654 276.392 138.27C277.224 137.886 278.136 137.694 279.128 137.694C280.216 137.694 281.168 137.91 281.984 138.342C282.816 138.758 283.464 139.342 283.928 140.094C284.408 140.846 284.648 141.718 284.648 142.71C284.648 143.366 284.512 144.006 284.24 144.63C283.968 145.254 283.568 145.918 283.04 146.622C282.512 147.31 281.824 148.11 280.976 149.022L276.56 153.822H285.032V155.862H273.296ZM289.007 155.862V152.982H291.335V155.862H289.007ZM295.28 155.862V154.23L300.224 148.878C301.2 147.838 301.976 146.982 302.552 146.31C303.144 145.638 303.576 145.038 303.848 144.51C304.12 143.982 304.256 143.422 304.256 142.83C304.256 141.854 303.968 141.102 303.392 140.574C302.816 140.046 302.056 139.782 301.112 139.782C300.152 139.782 299.336 140.062 298.664 140.622C297.992 141.166 297.528 141.942 297.272 142.95L295.136 142.398C295.344 141.438 295.728 140.606 296.288 139.902C296.848 139.198 297.544 138.654 298.376 138.27C299.208 137.886 300.12 137.694 301.112 137.694C302.2 137.694 303.152 137.91 303.968 138.342C304.8 138.758 305.448 139.342 305.912 140.094C306.392 140.846 306.632 141.718 306.632 142.71C306.632 143.366 306.496 144.006 306.224 144.63C305.952 145.254 305.552 145.918 305.024 146.622C304.496 147.31 303.808 148.11 302.96 149.022L298.544 153.822H307.016V155.862H295.28ZM309.648 155.862V154.23L314.592 148.878C315.568 147.838 316.344 146.982 316.92 146.31C317.512 145.638 317.944 145.038 318.216 144.51C318.488 143.982 318.624 143.422 318.624 142.83C318.624 141.854 318.336 141.102 317.76 140.574C317.184 140.046 316.424 139.782 315.48 139.782C314.52 139.782 313.704 140.062 313.032 140.622C312.36 141.166 311.896 141.942 311.64 142.95L309.504 142.398C309.712 141.438 310.096 140.606 310.656 139.902C311.216 139.198 311.912 138.654 312.744 138.27C313.576 137.886 314.488 137.694 315.48 137.694C316.568 137.694 317.52 137.91 318.336 138.342C319.168 138.758 319.816 139.342 320.28 140.094C320.76 140.846 321 141.718 321 142.71C321 143.366 320.864 144.006 320.592 144.63C320.32 145.254 319.92 145.918 319.392 146.622C318.864 147.31 318.176 148.11 317.328 149.022L312.912 153.822H321.384V155.862H309.648Z" fill="#FCFCFD"/>
<path opacity="0.9" d="M220.136 188.862V180.942H218.444V179.922H221.324V188.862H220.136ZM226.938 189.006C226.226 189.006 225.602 188.814 225.066 188.43C224.538 188.038 224.126 187.498 223.83 186.81C223.534 186.114 223.386 185.306 223.386 184.386C223.386 183.466 223.534 182.662 223.83 181.974C224.126 181.278 224.538 180.738 225.066 180.354C225.594 179.97 226.214 179.778 226.926 179.778C227.638 179.778 228.258 179.97 228.786 180.354C229.314 180.738 229.726 181.278 230.022 181.974C230.326 182.662 230.478 183.466 230.478 184.386C230.478 185.306 230.33 186.114 230.034 186.81C229.738 187.506 229.322 188.046 228.786 188.43C228.258 188.814 227.642 189.006 226.938 189.006ZM226.938 187.914C227.418 187.914 227.834 187.77 228.186 187.482C228.538 187.186 228.81 186.774 229.002 186.246C229.202 185.718 229.302 185.098 229.302 184.386C229.302 183.674 229.202 183.054 229.002 182.526C228.81 181.998 228.534 181.59 228.174 181.302C227.822 181.014 227.406 180.87 226.926 180.87C226.446 180.87 226.03 181.014 225.678 181.302C225.326 181.59 225.05 181.998 224.85 182.526C224.658 183.054 224.562 183.674 224.562 184.386C224.562 185.09 224.658 185.706 224.85 186.234C225.05 186.762 225.326 187.174 225.678 187.47C226.038 187.766 226.458 187.914 226.938 187.914ZM231.914 188.862V188.046L234.386 185.37C234.874 184.85 235.262 184.422 235.55 184.086C235.846 183.75 236.062 183.45 236.198 183.186C236.334 182.922 236.402 182.642 236.402 182.346C236.402 181.858 236.258 181.482 235.97 181.218C235.682 180.954 235.302 180.822 234.83 180.822C234.35 180.822 233.942 180.962 233.606 181.242C233.27 181.514 233.038 181.902 232.91 182.406L231.842 182.13C231.946 181.65 232.138 181.234 232.418 180.882C232.698 180.53 233.046 180.258 233.462 180.066C233.878 179.874 234.334 179.778 234.83 179.778C235.374 179.778 235.85 179.886 236.258 180.102C236.674 180.31 236.998 180.602 237.23 180.978C237.47 181.354 237.59 181.79 237.59 182.286C237.59 182.614 237.522 182.934 237.386 183.246C237.25 183.558 237.05 183.89 236.786 184.242C236.522 184.586 236.178 184.986 235.754 185.442L233.546 187.842H237.782V188.862H231.914ZM241.519 188.862V179.922H242.695V183.906H247.171V179.922H248.359V188.862H247.171V184.986H242.695V188.862H241.519ZM250.212 188.862V182.394H251.304V183.582L251.184 183.414C251.336 183.046 251.568 182.774 251.88 182.598C252.192 182.414 252.572 182.322 253.02 182.322H253.416V183.378H252.852C252.396 183.378 252.028 183.522 251.748 183.81C251.468 184.09 251.328 184.49 251.328 185.01V188.862H250.212ZM256.723 189.006C256.075 189.006 255.511 188.846 255.031 188.526C254.551 188.206 254.211 187.774 254.011 187.23L254.899 186.798C255.083 187.182 255.335 187.486 255.655 187.71C255.975 187.934 256.331 188.046 256.723 188.046C257.075 188.046 257.367 187.962 257.599 187.794C257.831 187.626 257.947 187.406 257.947 187.134C257.947 186.942 257.891 186.79 257.779 186.678C257.675 186.558 257.547 186.466 257.395 186.402C257.243 186.33 257.103 186.278 256.975 186.246L256.003 185.97C255.419 185.802 254.991 185.562 254.719 185.25C254.455 184.938 254.323 184.574 254.323 184.158C254.323 183.774 254.419 183.442 254.611 183.162C254.811 182.874 255.079 182.65 255.415 182.49C255.759 182.33 256.143 182.25 256.567 182.25C257.135 182.25 257.643 182.394 258.091 182.682C258.547 182.97 258.871 183.374 259.063 183.894L258.151 184.314C258.007 183.978 257.791 183.714 257.503 183.522C257.215 183.322 256.891 183.222 256.531 183.222C256.203 183.222 255.943 183.306 255.751 183.474C255.559 183.634 255.463 183.838 255.463 184.086C255.463 184.27 255.511 184.422 255.607 184.542C255.703 184.654 255.819 184.742 255.955 184.806C256.091 184.862 256.223 184.91 256.351 184.95L257.407 185.262C257.935 185.414 258.343 185.65 258.631 185.97C258.927 186.29 259.075 186.674 259.075 187.122C259.075 187.482 258.975 187.806 258.775 188.094C258.575 188.382 258.299 188.606 257.947 188.766C257.595 188.926 257.187 189.006 256.723 189.006Z" fill="white"/>
<circle cx="232.063" cy="67.069" r="7.06035" fill="white" fill-opacity="0.5" stroke="white" stroke-width="2.01724"/>
<path d="M232.063 67.0625L235.557 73.1142H228.569L232.063 67.0625Z" fill="white"/>
<path d="M228.976 86.0936C228.695 86.0891 228.414 86.0357 228.134 85.9331C227.853 85.8306 227.597 85.6579 227.365 85.415C227.133 85.1698 226.947 84.8389 226.806 84.4221C226.666 84.0031 226.596 83.4772 226.596 82.8442C226.596 82.238 226.653 81.7009 226.766 81.2329C226.88 80.7627 227.045 80.3671 227.261 80.0462C227.477 79.723 227.738 79.4779 228.043 79.3107C228.351 79.1436 228.697 79.06 229.083 79.06C229.466 79.06 229.807 79.1369 230.106 79.2907C230.407 79.4422 230.652 79.6539 230.841 79.9258C231.031 80.1977 231.153 80.5108 231.209 80.8652H230.393C230.318 80.5577 230.171 80.3025 229.952 80.0997C229.734 79.8969 229.444 79.7955 229.083 79.7955C228.553 79.7955 228.135 80.0261 227.829 80.4874C227.526 80.9488 227.374 81.5962 227.371 82.4297H227.425C227.55 82.2403 227.698 82.0787 227.87 81.945C228.043 81.809 228.235 81.7043 228.445 81.6307C228.654 81.5572 228.876 81.5204 229.11 81.5204C229.502 81.5204 229.861 81.6185 230.186 81.8146C230.512 82.0085 230.772 82.277 230.968 82.6203C231.165 82.9612 231.263 83.3524 231.263 83.7936C231.263 84.2171 231.168 84.6049 230.979 84.957C230.789 85.3069 230.523 85.5855 230.18 85.7927C229.839 85.9978 229.437 86.0981 228.976 86.0936ZM228.976 85.3582C229.257 85.3582 229.509 85.2879 229.732 85.1475C229.957 85.0071 230.134 84.8188 230.263 84.5826C230.395 84.3463 230.46 84.0834 230.46 83.7936C230.46 83.5106 230.397 83.2532 230.27 83.0214C230.145 82.7874 229.972 82.6013 229.752 82.4631C229.533 82.325 229.284 82.2559 229.003 82.2559C228.791 82.2559 228.594 82.2982 228.411 82.3829C228.228 82.4654 228.068 82.579 227.93 82.7239C227.794 82.8688 227.687 83.0348 227.609 83.222C227.531 83.407 227.492 83.602 227.492 83.807C227.492 84.0789 227.555 84.333 227.682 84.5692C227.812 84.8054 227.988 84.996 228.211 85.1409C228.436 85.2857 228.691 85.3582 228.976 85.3582ZM234.984 79.1536V86H234.155V80.0228H234.115L232.444 81.1326V80.2902L234.155 79.1536H234.984Z" fill="white"/>
</g>
<defs>
<clipPath id="bgblur_0_3220_31975_clip_path" transform="translate(42 42)"><path d="M335 1C346.598 1 356 10.402 356 22V193C356 204.598 346.598 214 335 214H22C10.402 214 1 204.598 1 193V22C1 10.402 10.402 1 22 1H335Z"/>
</clipPath><linearGradient id="paint0_linear_3220_31975" x1="-158.146" y1="27.6214" x2="85.4264" y2="298.732" gradientUnits="userSpaceOnUse">
<stop offset="0.0001" stop-color="white" stop-opacity="0"/>
<stop offset="1" stop-color="white" stop-opacity="0.39"/>
</linearGradient>
<radialGradient id="paint1_radial_3220_31975" cx="0" cy="0" r="1" gradientTransform="matrix(-225.214 -146.494 245.083 -68.6827 178.5 107.5)" gradientUnits="userSpaceOnUse">
<stop stop-color="white"/>
<stop offset="1" stop-color="white" stop-opacity="0"/>
</radialGradient>
</defs>
</svg>
