<svg width="357" height="215" viewBox="0 0 357 215" fill="none" xmlns="http://www.w3.org/2000/svg">
  <foreignObject x="-42" y="-42" width="441" height="299">
    <div xmlns="http://www.w3.org/1999/xhtml" style="backdrop-filter:blur(21px);clip-path:url(#bgblur_0_3220_31975_clip_path);height:100%;width:100%"></div>
  </foreignObject>
  <g data-figma-bg-blur-radius="42">
    <path d="M335 1C346.598 1 356 10.402 356 22V193C356 204.598 346.598 214 335 214H22C10.402 214 1 204.598 1 193V22C1 10.402 10.402 1 22 1H335Z" fill="url(#paint0_linear_3220_31975)" fill-opacity="0.1"/>
    <path d="M335 1C346.598 1 356 10.402 356 22V193C356 204.598 346.598 214 335 214H22C10.402 214 1 204.598 1 193V22C1 10.402 10.402 1 22 1H335Z" stroke="url(#paint1_radial_3220_31975)" stroke-width="2"/>
  </g>
  <defs>
    <clipPath id="bgblur_0_3220_31975_clip_path" transform="translate(42 42)">
      <path d="M335 1C346.598 1 356 10.402 356 22V193C356 204.598 346.598 214 335 214H22C10.402 214 1 204.598 1 193V22C1 10.402 10.402 1 22 1H335Z"/>
    </clipPath>
    <linearGradient id="paint0_linear_3220_31975" x1="-158.146" y1="27.6214" x2="85.4264" y2="298.732" gradientUnits="userSpaceOnUse">
      <stop offset="0.0001" stop-color="white" stop-opacity="0"/>
      <stop offset="1" stop-color="white" stop-opacity="0.39"/>
    </linearGradient>
    <radialGradient id="paint1_radial_3220_31975" cx="0" cy="0" r="1" gradientTransform="matrix(-225.214 -146.494 245.083 -68.6827 178.5 107.5)" gradientUnits="userSpaceOnUse">
      <stop stop-color="white"/>
      <stop offset="1" stop-color="white" stop-opacity="0"/>
    </radialGradient>
  </defs>
</svg>
