<svg width="17" height="26" viewBox="0 0 17 26" fill="none" xmlns="http://www.w3.org/2000/svg">
<path d="M1.0293 13.3931L0.443809 12.9242L0.435833 12.9345L1.0293 13.3931ZM10.7939 1.20068L11.3794 1.66953L11.383 1.66497L10.7939 1.20068ZM12.2441 1.98486L11.5427 1.71927L11.5403 1.72591L12.2441 1.98486ZM9.04297 10.686L8.33909 10.4271L7.9679 11.436H9.04297V10.686ZM15.6064 12.104L15.0235 11.6321L15.0208 11.6354L15.6064 12.104ZM5.8418 24.3071L5.2562 23.8385L5.25546 23.8395L5.8418 24.3071ZM4.3916 23.5122L5.09304 23.7778L5.09548 23.7712L4.3916 23.5122ZM7.59277 14.811L8.29665 15.07L8.66785 14.061H7.59277V14.811ZM0.75 14.0806H1.5C1.5 14.073 1.49501 14.017 1.62276 13.8517L1.0293 13.3931L0.435833 12.9345C0.198347 13.2418 0 13.6154 0 14.0806H0.75ZM1.0293 13.3931L1.6147 13.8619L11.3793 1.66952L10.7939 1.20068L10.2085 0.731848L0.443897 12.9242L1.0293 13.3931ZM10.7939 1.20068L11.383 1.66497C11.4779 1.54454 11.5545 1.51312 11.5821 1.50551C11.6104 1.49773 11.6108 1.50658 11.5954 1.49842C11.5782 1.48934 11.5753 1.47682 11.5782 1.48625C11.5816 1.4974 11.5994 1.56971 11.5427 1.71928L12.2441 1.98486L12.9455 2.25044C13.2573 1.42715 13.0294 0.560013 12.2967 0.172476C11.5848 -0.204052 10.7387 0.0592518 10.2049 0.736401L10.7939 1.20068ZM12.2441 1.98486L11.5403 1.72591L8.33909 10.4271L9.04297 10.686L9.74685 10.945L12.948 2.24382L12.2441 1.98486ZM9.04297 10.686V11.436H15.1123V10.686V9.93604H9.04297V10.686ZM15.1123 10.686V11.436C15.1353 11.436 15.1471 11.44 15.1506 11.4413C15.1541 11.4427 15.1525 11.4428 15.1486 11.439C15.1447 11.4353 15.1408 11.4299 15.1382 11.4237C15.1354 11.4173 15.1357 11.414 15.1357 11.4165H15.8857H16.6357C16.6357 10.5661 15.9491 9.93604 15.1123 9.93604V10.686ZM15.8857 11.4165H15.1357C15.1357 11.4384 15.1372 11.4916 15.0235 11.6321L15.6064 12.104L16.1894 12.5759C16.4409 12.2652 16.6357 11.8887 16.6357 11.4165H15.8857ZM15.6064 12.104L15.0208 11.6354L5.2562 23.8385L5.8418 24.3071L6.4274 24.7757L16.192 12.5726L15.6064 12.104ZM5.8418 24.3071L5.25546 23.8395C5.1618 23.9569 5.08625 23.9873 5.05862 23.9947C5.03015 24.0023 5.02859 23.9937 5.0425 24.0011C5.05824 24.0095 5.06058 24.021 5.05758 24.0112C5.05407 23.9997 5.0364 23.9273 5.09301 23.7778L4.3916 23.5122L3.6902 23.2466C3.37806 24.071 3.60733 24.9359 4.3369 25.3248C5.04478 25.7021 5.89138 25.4477 6.42813 24.7748L5.8418 24.3071ZM4.3916 23.5122L5.09548 23.7712L8.29665 15.07L7.59277 14.811L6.8889 14.5521L3.68773 23.2533L4.3916 23.5122ZM7.59277 14.811V14.061H1.52344V14.811V15.561H7.59277V14.811ZM1.52344 14.811V14.061C1.49728 14.061 1.48362 14.0566 1.47972 14.0551C1.47585 14.0537 1.47872 14.054 1.48437 14.0594C1.49013 14.0649 1.49514 14.0721 1.49818 14.0793C1.50127 14.0866 1.5 14.0883 1.5 14.0806H0.75H0C0 14.9488 0.69402 15.561 1.52344 15.561V14.811Z" fill="#78879D"/>
</svg>
