<svg width="24" height="22" viewBox="0 0 24 22" fill="none" xmlns="http://www.w3.org/2000/svg">
<mask id="path-1-outside-1_3220_32618" maskUnits="userSpaceOnUse" x="-0.800049" y="-0.677734" width="25" height="23" fill="black">
<rect fill="white" x="-0.800049" y="-0.677734" width="25" height="23"/>
<path d="M14.6863 0.285597C14.4118 0.456554 14.2634 0.730986 14.2589 1.0864V1.27985L9.34613 1.28884L4.42888 1.30234L4.17244 1.42831C3.86202 1.58127 3.5426 1.91868 3.43913 2.21561C3.38964 2.35057 3.35365 2.62051 3.34016 2.97592L3.31766 3.52928H2.57985C2.17495 3.52928 1.73856 3.55177 1.60809 3.57876C1.06373 3.69123 0.555361 4.09613 0.32142 4.6L0.199951 4.85644V11.3573V17.8581L0.343915 18.1596C0.523869 18.542 0.820794 18.8389 1.2032 19.0188C1.50462 19.1628 1.50912 19.1628 2.32341 19.1763L3.1467 19.1898V19.7837C3.1467 20.1121 3.1692 20.4495 3.19169 20.5395C3.25468 20.7644 3.52011 21.0568 3.79454 21.2008C3.99699 21.3088 4.07347 21.3223 4.45137 21.3223C4.82928 21.3223 4.90576 21.3088 5.10821 21.2008C5.38264 21.0568 5.64807 20.7644 5.71105 20.5395C5.73355 20.4495 5.75604 20.1076 5.75604 19.7792V19.1853H10.6103H15.4646L15.4916 19.3788C15.5276 19.6217 15.7705 20.1031 15.9864 20.373C16.0809 20.481 16.2924 20.6654 16.4543 20.7779C17.876 21.7362 19.7565 20.9849 20.1254 19.3068L20.1524 19.1853H20.8497C21.646 19.1853 21.9159 19.1403 22.2804 18.9514C22.6088 18.7759 22.8652 18.4925 23.0452 18.1146L23.1891 17.8132L23.2026 11.4518C23.2116 5.73822 23.2071 5.05889 23.1396 4.83844C22.9597 4.19961 22.4378 3.71823 21.781 3.57876C21.6505 3.55177 21.3356 3.52928 21.0792 3.52928H20.6113L20.5888 2.97592C20.5753 2.62051 20.5393 2.35057 20.4898 2.21561C20.3863 1.91868 20.0669 1.58127 19.7565 1.42831C19.5001 1.30234 19.4956 1.30234 18.4608 1.28884L17.4171 1.27085L17.3991 1.00991C17.3766 0.703991 17.2191 0.429562 16.9897 0.290096C16.8592 0.209116 16.7603 0.200119 15.8335 0.200119C14.9247 0.200119 14.8077 0.209118 14.6863 0.285597ZM16.6883 0.960426C16.7108 1.00991 16.7333 1.09989 16.7333 1.16288V1.27985H15.8335C14.9742 1.27985 14.9337 1.27535 14.9337 1.19437C14.9337 1.14488 14.9517 1.0549 14.9787 0.991919L15.0237 0.874949H15.829C16.5848 0.874949 16.6433 0.879448 16.6883 0.960426ZM19.581 2.14813C19.842 2.34608 19.9005 2.49454 19.9185 3.0434L19.9364 3.52928H11.9915H4.04648V3.10188C4.04648 2.643 4.10496 2.42256 4.28492 2.2291C4.50536 1.99067 4.09146 2.00416 12.0365 2.01316L19.4191 2.02216L19.581 2.14813ZM14.1689 9.97164V15.6942L14.2679 15.7977L14.3624 15.9011H18.4518H22.5368V16.6569C22.5368 17.5432 22.4828 17.7907 22.2354 18.0651C21.9204 18.4115 21.8125 18.443 20.9217 18.443H20.1389L20.0804 18.2001C19.878 17.4218 19.1806 16.7424 18.3978 16.558C17.5611 16.36 16.7153 16.594 16.1259 17.1833C15.8155 17.4892 15.5456 17.9751 15.4916 18.3215L15.4601 18.515L8.61282 18.5015L1.77005 18.488L1.50012 18.353C1.21219 18.2046 0.982753 17.9256 0.897274 17.6197C0.83429 17.3903 0.83429 5.32432 0.897274 5.09488C0.978254 4.80245 1.21219 4.51003 1.47763 4.37506L1.71607 4.24909H7.94249H14.1689V9.97164ZM21.898 4.36606C22.0284 4.42905 22.1949 4.55502 22.2669 4.64499C22.5458 4.98241 22.5368 4.77096 22.5368 10.2416V15.2263H18.7128H14.8887V9.7377V4.24909H18.2764H21.664L21.898 4.36606ZM18.4158 17.3003C18.7712 17.4308 19.1581 17.7952 19.3246 18.1596C19.4371 18.4025 19.4551 18.497 19.4551 18.8254C19.4551 19.1673 19.4371 19.2438 19.3111 19.5047C19.1312 19.8646 18.8117 20.1796 18.4518 20.346C18.2404 20.445 18.1324 20.4675 17.813 20.4675C17.4801 20.4675 17.3946 20.4495 17.1382 20.328C16.7827 20.1616 16.4633 19.8466 16.2924 19.5047C16.1844 19.2843 16.1709 19.1988 16.1709 18.8254C16.1709 18.4475 16.1844 18.3665 16.2969 18.1416C16.6928 17.3363 17.579 16.9854 18.4158 17.3003ZM5.03623 19.7747V20.364L4.90126 20.49C4.64932 20.7284 4.20394 20.7014 3.98349 20.4405C3.87102 20.31 3.86652 20.2785 3.86652 19.7432V19.1853H4.45137H5.03623V19.7747Z"/>
</mask>
<path d="M14.6863 0.285597C14.4118 0.456554 14.2634 0.730986 14.2589 1.0864V1.27985L9.34613 1.28884L4.42888 1.30234L4.17244 1.42831C3.86202 1.58127 3.5426 1.91868 3.43913 2.21561C3.38964 2.35057 3.35365 2.62051 3.34016 2.97592L3.31766 3.52928H2.57985C2.17495 3.52928 1.73856 3.55177 1.60809 3.57876C1.06373 3.69123 0.555361 4.09613 0.32142 4.6L0.199951 4.85644V11.3573V17.8581L0.343915 18.1596C0.523869 18.542 0.820794 18.8389 1.2032 19.0188C1.50462 19.1628 1.50912 19.1628 2.32341 19.1763L3.1467 19.1898V19.7837C3.1467 20.1121 3.1692 20.4495 3.19169 20.5395C3.25468 20.7644 3.52011 21.0568 3.79454 21.2008C3.99699 21.3088 4.07347 21.3223 4.45137 21.3223C4.82928 21.3223 4.90576 21.3088 5.10821 21.2008C5.38264 21.0568 5.64807 20.7644 5.71105 20.5395C5.73355 20.4495 5.75604 20.1076 5.75604 19.7792V19.1853H10.6103H15.4646L15.4916 19.3788C15.5276 19.6217 15.7705 20.1031 15.9864 20.373C16.0809 20.481 16.2924 20.6654 16.4543 20.7779C17.876 21.7362 19.7565 20.9849 20.1254 19.3068L20.1524 19.1853H20.8497C21.646 19.1853 21.9159 19.1403 22.2804 18.9514C22.6088 18.7759 22.8652 18.4925 23.0452 18.1146L23.1891 17.8132L23.2026 11.4518C23.2116 5.73822 23.2071 5.05889 23.1396 4.83844C22.9597 4.19961 22.4378 3.71823 21.781 3.57876C21.6505 3.55177 21.3356 3.52928 21.0792 3.52928H20.6113L20.5888 2.97592C20.5753 2.62051 20.5393 2.35057 20.4898 2.21561C20.3863 1.91868 20.0669 1.58127 19.7565 1.42831C19.5001 1.30234 19.4956 1.30234 18.4608 1.28884L17.4171 1.27085L17.3991 1.00991C17.3766 0.703991 17.2191 0.429562 16.9897 0.290096C16.8592 0.209116 16.7603 0.200119 15.8335 0.200119C14.9247 0.200119 14.8077 0.209118 14.6863 0.285597ZM16.6883 0.960426C16.7108 1.00991 16.7333 1.09989 16.7333 1.16288V1.27985H15.8335C14.9742 1.27985 14.9337 1.27535 14.9337 1.19437C14.9337 1.14488 14.9517 1.0549 14.9787 0.991919L15.0237 0.874949H15.829C16.5848 0.874949 16.6433 0.879448 16.6883 0.960426ZM19.581 2.14813C19.842 2.34608 19.9005 2.49454 19.9185 3.0434L19.9364 3.52928H11.9915H4.04648V3.10188C4.04648 2.643 4.10496 2.42256 4.28492 2.2291C4.50536 1.99067 4.09146 2.00416 12.0365 2.01316L19.4191 2.02216L19.581 2.14813ZM14.1689 9.97164V15.6942L14.2679 15.7977L14.3624 15.9011H18.4518H22.5368V16.6569C22.5368 17.5432 22.4828 17.7907 22.2354 18.0651C21.9204 18.4115 21.8125 18.443 20.9217 18.443H20.1389L20.0804 18.2001C19.878 17.4218 19.1806 16.7424 18.3978 16.558C17.5611 16.36 16.7153 16.594 16.1259 17.1833C15.8155 17.4892 15.5456 17.9751 15.4916 18.3215L15.4601 18.515L8.61282 18.5015L1.77005 18.488L1.50012 18.353C1.21219 18.2046 0.982753 17.9256 0.897274 17.6197C0.83429 17.3903 0.83429 5.32432 0.897274 5.09488C0.978254 4.80245 1.21219 4.51003 1.47763 4.37506L1.71607 4.24909H7.94249H14.1689V9.97164ZM21.898 4.36606C22.0284 4.42905 22.1949 4.55502 22.2669 4.64499C22.5458 4.98241 22.5368 4.77096 22.5368 10.2416V15.2263H18.7128H14.8887V9.7377V4.24909H18.2764H21.664L21.898 4.36606ZM18.4158 17.3003C18.7712 17.4308 19.1581 17.7952 19.3246 18.1596C19.4371 18.4025 19.4551 18.497 19.4551 18.8254C19.4551 19.1673 19.4371 19.2438 19.3111 19.5047C19.1312 19.8646 18.8117 20.1796 18.4518 20.346C18.2404 20.445 18.1324 20.4675 17.813 20.4675C17.4801 20.4675 17.3946 20.4495 17.1382 20.328C16.7827 20.1616 16.4633 19.8466 16.2924 19.5047C16.1844 19.2843 16.1709 19.1988 16.1709 18.8254C16.1709 18.4475 16.1844 18.3665 16.2969 18.1416C16.6928 17.3363 17.579 16.9854 18.4158 17.3003ZM5.03623 19.7747V20.364L4.90126 20.49C4.64932 20.7284 4.20394 20.7014 3.98349 20.4405C3.87102 20.31 3.86652 20.2785 3.86652 19.7432V19.1853H4.45137H5.03623V19.7747Z" fill="white"/>
<path d="M14.6863 0.285597C14.4118 0.456554 14.2634 0.730986 14.2589 1.0864V1.27985L9.34613 1.28884L4.42888 1.30234L4.17244 1.42831C3.86202 1.58127 3.5426 1.91868 3.43913 2.21561C3.38964 2.35057 3.35365 2.62051 3.34016 2.97592L3.31766 3.52928H2.57985C2.17495 3.52928 1.73856 3.55177 1.60809 3.57876C1.06373 3.69123 0.555361 4.09613 0.32142 4.6L0.199951 4.85644V11.3573V17.8581L0.343915 18.1596C0.523869 18.542 0.820794 18.8389 1.2032 19.0188C1.50462 19.1628 1.50912 19.1628 2.32341 19.1763L3.1467 19.1898V19.7837C3.1467 20.1121 3.1692 20.4495 3.19169 20.5395C3.25468 20.7644 3.52011 21.0568 3.79454 21.2008C3.99699 21.3088 4.07347 21.3223 4.45137 21.3223C4.82928 21.3223 4.90576 21.3088 5.10821 21.2008C5.38264 21.0568 5.64807 20.7644 5.71105 20.5395C5.73355 20.4495 5.75604 20.1076 5.75604 19.7792V19.1853H10.6103H15.4646L15.4916 19.3788C15.5276 19.6217 15.7705 20.1031 15.9864 20.373C16.0809 20.481 16.2924 20.6654 16.4543 20.7779C17.876 21.7362 19.7565 20.9849 20.1254 19.3068L20.1524 19.1853H20.8497C21.646 19.1853 21.9159 19.1403 22.2804 18.9514C22.6088 18.7759 22.8652 18.4925 23.0452 18.1146L23.1891 17.8132L23.2026 11.4518C23.2116 5.73822 23.2071 5.05889 23.1396 4.83844C22.9597 4.19961 22.4378 3.71823 21.781 3.57876C21.6505 3.55177 21.3356 3.52928 21.0792 3.52928H20.6113L20.5888 2.97592C20.5753 2.62051 20.5393 2.35057 20.4898 2.21561C20.3863 1.91868 20.0669 1.58127 19.7565 1.42831C19.5001 1.30234 19.4956 1.30234 18.4608 1.28884L17.4171 1.27085L17.3991 1.00991C17.3766 0.703991 17.2191 0.429562 16.9897 0.290096C16.8592 0.209116 16.7603 0.200119 15.8335 0.200119C14.9247 0.200119 14.8077 0.209118 14.6863 0.285597ZM16.6883 0.960426C16.7108 1.00991 16.7333 1.09989 16.7333 1.16288V1.27985H15.8335C14.9742 1.27985 14.9337 1.27535 14.9337 1.19437C14.9337 1.14488 14.9517 1.0549 14.9787 0.991919L15.0237 0.874949H15.829C16.5848 0.874949 16.6433 0.879448 16.6883 0.960426ZM19.581 2.14813C19.842 2.34608 19.9005 2.49454 19.9185 3.0434L19.9364 3.52928H11.9915H4.04648V3.10188C4.04648 2.643 4.10496 2.42256 4.28492 2.2291C4.50536 1.99067 4.09146 2.00416 12.0365 2.01316L19.4191 2.02216L19.581 2.14813ZM14.1689 9.97164V15.6942L14.2679 15.7977L14.3624 15.9011H18.4518H22.5368V16.6569C22.5368 17.5432 22.4828 17.7907 22.2354 18.0651C21.9204 18.4115 21.8125 18.443 20.9217 18.443H20.1389L20.0804 18.2001C19.878 17.4218 19.1806 16.7424 18.3978 16.558C17.5611 16.36 16.7153 16.594 16.1259 17.1833C15.8155 17.4892 15.5456 17.9751 15.4916 18.3215L15.4601 18.515L8.61282 18.5015L1.77005 18.488L1.50012 18.353C1.21219 18.2046 0.982753 17.9256 0.897274 17.6197C0.83429 17.3903 0.83429 5.32432 0.897274 5.09488C0.978254 4.80245 1.21219 4.51003 1.47763 4.37506L1.71607 4.24909H7.94249H14.1689V9.97164ZM21.898 4.36606C22.0284 4.42905 22.1949 4.55502 22.2669 4.64499C22.5458 4.98241 22.5368 4.77096 22.5368 10.2416V15.2263H18.7128H14.8887V9.7377V4.24909H18.2764H21.664L21.898 4.36606ZM18.4158 17.3003C18.7712 17.4308 19.1581 17.7952 19.3246 18.1596C19.4371 18.4025 19.4551 18.497 19.4551 18.8254C19.4551 19.1673 19.4371 19.2438 19.3111 19.5047C19.1312 19.8646 18.8117 20.1796 18.4518 20.346C18.2404 20.445 18.1324 20.4675 17.813 20.4675C17.4801 20.4675 17.3946 20.4495 17.1382 20.328C16.7827 20.1616 16.4633 19.8466 16.2924 19.5047C16.1844 19.2843 16.1709 19.1988 16.1709 18.8254C16.1709 18.4475 16.1844 18.3665 16.2969 18.1416C16.6928 17.3363 17.579 16.9854 18.4158 17.3003ZM5.03623 19.7747V20.364L4.90126 20.49C4.64932 20.7284 4.20394 20.7014 3.98349 20.4405C3.87102 20.31 3.86652 20.2785 3.86652 19.7432V19.1853H4.45137H5.03623V19.7747Z" stroke="white" stroke-width="0.4" mask="url(#path-1-outside-1_3220_32618)"/>
<path d="M10.8394 5.69849L10.8696 5.65942L10.9585 5.54419L11.0044 5.47681C11.0181 5.45326 11.0296 5.42895 11.0396 5.40552C11.0584 5.36084 11.0747 5.30765 11.0747 5.26099C11.0746 5.21444 11.0584 5.16196 11.0396 5.11743C11.0199 5.07102 10.9916 5.02244 10.9585 4.98071L10.9595 4.97974L10.8696 4.86353L10.8394 4.82446H9.30615C8.59739 4.82446 8.22203 4.82515 8.01416 4.83716C7.91117 4.84312 7.84017 4.85212 7.7876 4.86841C7.72748 4.88704 7.69356 4.91459 7.66455 4.9436C7.58273 5.02566 7.54843 5.14373 7.54834 5.25317C7.54834 5.36323 7.58315 5.48203 7.6626 5.56763L7.66357 5.5686C7.68943 5.59569 7.72103 5.62845 7.78076 5.65063C7.83307 5.67003 7.90232 5.68053 8.00244 5.68677C8.20502 5.69937 8.57951 5.69849 9.31006 5.69849H10.8394Z" fill="white" stroke="white" stroke-width="0.2"/>
<path d="M4.21509 16.1301C5.18427 16.29 6.1344 15.6881 6.42896 14.7688L6.47974 14.5813V14.5803C6.48566 14.5511 6.48981 14.4981 6.49341 14.4338C6.49716 14.3666 6.50001 14.2785 6.50317 14.1731C6.50952 13.962 6.51556 13.6788 6.51978 13.3479C6.52822 12.6855 6.53247 11.8299 6.53247 10.9749C6.53247 10.1198 6.52822 9.26426 6.51978 8.60181C6.51556 8.27092 6.50952 7.98776 6.50317 7.77661C6.5 7.67105 6.49717 7.58215 6.49341 7.51489C6.48982 7.45089 6.48564 7.39856 6.47974 7.36938V7.36841C6.24314 6.26113 5.13982 5.56417 4.04517 5.83423H4.04419C3.67049 5.92888 3.35188 6.11504 3.08228 6.40356V6.40454C2.78585 6.71574 2.60958 7.07539 2.5481 7.48657V7.48853C2.54044 7.5456 2.5344 7.69318 2.52954 7.89868C2.5246 8.10764 2.52095 8.38414 2.51782 8.70532C2.51156 9.34845 2.50917 10.1723 2.51001 10.9944C2.51085 11.8164 2.5149 12.6375 2.52271 13.2756C2.52661 13.5945 2.53172 13.8682 2.53735 14.0735C2.54287 14.2746 2.5492 14.4196 2.55786 14.4729C2.6242 14.8985 2.80921 15.2643 3.11646 15.5715C3.42367 15.8787 3.78953 16.0628 4.21509 16.1292V16.1301ZM4.54028 15.2795C4.15742 15.2831 3.84262 15.1208 3.62427 14.8088L3.53638 14.6663L3.44946 14.5042V7.49243L3.57544 7.26782L3.57642 7.26685C3.84087 6.79624 4.33621 6.59813 4.86841 6.7561H4.86938C5.02105 6.80004 5.13715 6.87152 5.28052 7.01489C5.38219 7.11655 5.43632 7.16087 5.47876 7.2395C5.52026 7.31649 5.55242 7.43233 5.57349 7.67114C5.61572 8.15014 5.61157 9.06791 5.61157 11.0198V14.4241L5.48267 14.6819C5.38145 14.8822 5.25216 15.0293 5.0979 15.1272C4.94368 15.225 4.75827 15.2774 4.54028 15.2795Z" fill="white" stroke="white" stroke-width="0.2"/>
<path d="M10.7974 7.09302L10.8267 7.06274L10.9321 6.95239L10.9731 6.90747C11.1586 6.67319 11.0623 6.3269 10.77 6.22388H10.769C10.7456 6.21588 10.7143 6.21115 10.6841 6.20728C10.6516 6.20312 10.6113 6.19881 10.5659 6.19556C10.4749 6.18905 10.3573 6.18378 10.2231 6.17993C9.95425 6.17223 9.61404 6.17015 9.27588 6.17212C8.93775 6.17409 8.59991 6.18069 8.33545 6.19165C8.20348 6.19712 8.08837 6.20344 8.00049 6.21118C7.95675 6.21504 7.91813 6.21915 7.88721 6.22388C7.85998 6.22804 7.82835 6.234 7.8042 6.24438C7.65999 6.30659 7.5678 6.42553 7.54639 6.56274C7.52517 6.69913 7.57526 6.84228 7.68799 6.95239L7.79443 7.06274L7.82373 7.09302H10.7974Z" fill="white" stroke="white" stroke-width="0.2"/>
<path d="M9.98462 12.0193C10.169 12.0193 10.2936 12.015 10.4006 11.9958C10.5102 11.9762 10.5979 11.9416 10.7112 11.8884L10.9163 11.7771C11.8883 11.1664 12.04 9.80336 11.1633 9.00269C10.988 8.84369 10.8175 8.73029 10.6272 8.65894C10.4375 8.58786 10.2338 8.56102 9.99438 8.56323V8.56226C9.80157 8.56226 9.54729 8.5901 9.42993 8.62573H9.42896C8.58994 8.88942 8.06688 9.84237 8.28638 10.7068C8.42436 11.2492 8.77752 11.6696 9.29419 11.907C9.39057 11.9528 9.47423 11.9818 9.5813 11.9988C9.68529 12.0153 9.80906 12.0193 9.98462 12.0193ZM10.2454 11.0828C10.0245 11.1577 9.72866 11.1145 9.53345 10.9792C9.44405 10.9165 9.34455 10.7953 9.26587 10.6599C9.18606 10.5226 9.13998 10.3906 9.13989 10.3093C9.13989 9.68526 9.78381 9.26237 10.3303 9.50952C10.3955 9.54074 10.5018 9.62455 10.5959 9.71753C10.6274 9.7486 10.6534 9.78157 10.677 9.80933C10.5923 9.81479 10.4765 9.81812 10.3489 9.81812C10.1394 9.81812 10.0055 9.82078 9.9104 9.83569C9.80688 9.85193 9.74457 9.88277 9.67993 9.93335V9.93433C9.62855 9.97543 9.5859 10.0199 9.55884 10.0808C9.53245 10.1402 9.52466 10.2053 9.52466 10.2781C9.52469 10.3506 9.53251 10.4151 9.55884 10.4744C9.5859 10.5352 9.62855 10.5797 9.67993 10.6208V10.6218C9.74457 10.6724 9.80688 10.7032 9.9104 10.7195C10.0055 10.7344 10.1394 10.7371 10.3489 10.7371C10.4867 10.7371 10.5979 10.7435 10.677 10.7498C10.6436 10.7863 10.6021 10.8285 10.5549 10.8699C10.4975 10.9203 10.4359 10.9696 10.3792 11.0085C10.3203 11.0489 10.2736 11.0729 10.2463 11.0818L10.2454 11.0828Z" fill="white" stroke="white" stroke-width="0.2"/>
<path d="M9.98511 16.0684C10.1948 16.0684 10.3283 16.066 10.4382 16.0469C10.5525 16.027 10.6385 15.9902 10.7537 15.9326H10.7527C10.9038 15.8595 11.1252 15.6946 11.2458 15.5645L11.3904 15.3916C12.0035 14.5582 11.7836 13.4052 10.908 12.8662L10.7107 12.7598C10.5386 12.6811 10.3096 12.6347 10.0857 12.6201C9.86195 12.6056 9.63081 12.6227 9.45483 12.6797C8.95743 12.8378 8.49663 13.2836 8.32886 13.7773L8.32983 13.7783C8.26886 13.9526 8.24257 14.1716 8.2478 14.3867C8.25308 14.6027 8.28921 14.8236 8.35718 15.001L8.35815 15.002C8.49845 15.3643 8.81333 15.7004 9.1814 15.9033C9.31544 15.977 9.40304 16.0228 9.51831 16.0459C9.62868 16.068 9.76183 16.0684 9.98511 16.0684ZM10.7888 14.6025C10.5957 15.2658 9.64755 15.4189 9.28003 14.7891H9.27905C9.01737 14.3462 9.17061 13.8329 9.64819 13.5879H9.64917C9.72239 13.5495 9.84624 13.5266 9.98413 13.5293C10.1207 13.532 10.2533 13.5593 10.3416 13.6025C10.6745 13.7784 10.8566 14.1077 10.8171 14.4629L10.7888 14.6025Z" fill="white" stroke="white" stroke-width="0.2"/>
<path d="M7.47974 17.792L12.1086 17.7783H12.1545L12.1848 17.7432L12.2922 17.6172L12.343 17.5508C12.3882 17.4825 12.4162 17.4088 12.4192 17.3301C12.4231 17.2244 12.3807 17.1262 12.3079 17.0352L12.3069 17.0361L12.219 16.9199L12.1897 16.8809H2.51685L2.48755 16.9199L2.39673 17.0371V17.0381C2.28593 17.1798 2.26027 17.3475 2.31763 17.4922C2.37509 17.637 2.50956 17.7439 2.68774 17.7764H2.6897C2.70257 17.7785 2.72329 17.7796 2.74146 17.7803C2.76311 17.7811 2.79253 17.7825 2.82837 17.7832C2.90034 17.7846 3.0011 17.785 3.1272 17.7861C3.38017 17.7884 3.7365 17.7909 4.16919 17.792C5.03485 17.7942 6.20872 17.7942 7.47974 17.792Z" fill="white" stroke="white" stroke-width="0.2"/>
<path d="M16.6836 14.6821L16.7383 14.6499C16.7519 14.6389 16.7681 14.6252 16.7852 14.6089C16.8195 14.5761 16.864 14.5292 16.9189 14.4702C17.0294 14.3517 17.1849 14.1774 17.3848 13.9478C17.7846 13.4882 18.3666 12.8029 19.1357 11.8853C19.7633 11.134 20.347 10.435 20.7812 9.91357C20.9983 9.6529 21.1784 9.43653 21.3076 9.27979C21.4305 9.13071 21.512 9.03029 21.5332 9.00049L21.5889 8.91357C21.6369 8.82568 21.6623 8.73438 21.6602 8.64404C21.6579 8.55165 21.6265 8.46654 21.5693 8.39404L21.5039 8.32568C21.4737 8.30013 21.4413 8.27359 21.3994 8.25342C21.3568 8.23299 21.3095 8.22097 21.251 8.21338C21.1388 8.19885 20.9605 8.19775 20.6426 8.19775C20.4589 8.19775 20.2922 8.19621 20.1719 8.19287C20.1586 8.1925 20.1459 8.19229 20.1338 8.19189C20.1688 8.12938 20.2152 8.04726 20.2705 7.94971C20.4009 7.71992 20.5814 7.40507 20.7793 7.06104C21.1681 6.38625 21.3773 6.01332 21.4609 5.78369C21.5033 5.66746 21.5196 5.57131 21.499 5.48389C21.4784 5.39649 21.424 5.33577 21.3711 5.28271L21.2637 5.16943L21.2344 5.13916H20.0264C19.5037 5.13916 19.2055 5.14095 19.0273 5.15186C18.8518 5.16262 18.7693 5.1823 18.7002 5.23682L18.6943 5.2417V5.24268C18.6817 5.25444 18.6699 5.27043 18.6641 5.27881C18.6557 5.29093 18.6452 5.30662 18.6338 5.32471C18.6106 5.36139 18.5799 5.41179 18.543 5.47412C18.4688 5.59937 18.3678 5.7753 18.2471 5.98779C18.0056 6.41282 17.6847 6.98768 17.3428 7.61084C16.6898 8.80464 16.3505 9.42751 16.2002 9.7749C16.1262 9.946 16.0893 10.0679 16.0947 10.1655C16.101 10.2763 16.1602 10.3404 16.2129 10.3931C16.2382 10.4183 16.2672 10.4435 16.3096 10.4624C16.3499 10.4804 16.3964 10.4908 16.4531 10.4976C16.5644 10.5108 16.7424 10.5122 17.0479 10.5122C17.2341 10.5122 17.4023 10.5139 17.5234 10.5161C17.5433 10.5165 17.5621 10.5176 17.5791 10.5181C17.5761 10.5255 17.5735 10.5335 17.5703 10.5415C17.5317 10.6374 17.4754 10.7754 17.4062 10.9448C17.268 11.2837 17.0775 11.7491 16.8662 12.2593H16.8652C16.6559 12.7702 16.4653 13.246 16.3262 13.5991C16.2567 13.7755 16.1995 13.9215 16.1602 14.0269C16.1405 14.0794 16.125 14.1231 16.1143 14.1548C16.109 14.1704 16.1048 14.1846 16.1016 14.1958C16.1 14.2012 16.0979 14.2068 16.0967 14.2124C16.0959 14.216 16.0938 14.2277 16.0938 14.2407C16.0938 14.556 16.3807 14.7812 16.6836 14.6821ZM18.2881 11.1792C18.4312 10.8325 18.541 10.5685 18.6084 10.3706C18.6421 10.2715 18.6665 10.1849 18.6787 10.1099C18.6908 10.0354 18.6929 9.96435 18.6738 9.90088C18.6309 9.75855 18.5038 9.70422 18.3633 9.67822C18.2222 9.65221 18.0236 9.64701 17.7764 9.63818H17.7754L17.2764 9.62158L18.1846 7.96338C18.4544 7.4687 18.7041 7.01008 18.8896 6.66943C18.9824 6.49903 19.059 6.35735 19.1143 6.25635C19.1418 6.20603 19.1636 6.16536 19.1797 6.13623C19.1876 6.1219 19.1944 6.11065 19.1992 6.10205C19.2016 6.09781 19.2036 6.09394 19.2051 6.09131C19.2057 6.09015 19.2066 6.08914 19.207 6.08838L19.208 6.0874V6.08643C19.2087 6.08518 19.2072 6.08625 19.209 6.08545C19.2164 6.08202 19.2357 6.07579 19.2812 6.0708C19.3724 6.06084 19.5319 6.05908 19.8242 6.05908H20.2969C20.1977 6.22667 19.9015 6.73193 19.5801 7.28955C19.2247 7.902 19.0294 8.248 18.9453 8.46533C18.9029 8.575 18.8831 8.66601 18.8936 8.74854C18.9044 8.83312 18.9452 8.89463 18.9893 8.94873L19.0273 8.99268C19.0416 9.00696 19.0583 9.02136 19.0781 9.03369C19.1176 9.05815 19.1627 9.07197 19.2168 9.08154C19.321 9.09994 19.4917 9.10658 19.7891 9.11768L20.2188 9.1333L19.0322 10.5552L19.0312 10.5562C18.6694 10.9922 18.339 11.3866 18.0986 11.6714C18.0923 11.6789 18.0863 11.6865 18.0801 11.6938C18.1414 11.5415 18.2118 11.3654 18.2881 11.1792Z" fill="white" stroke="white" stroke-width="0.2"/>
</svg>
