<svg width="30" height="30" viewBox="0 0 30 30" fill="none" xmlns="http://www.w3.org/2000/svg">
<path d="M14.1001 15.2908V25.95L5.09521 20.948C4.67943 20.717 4.62503 20.676 4.59131 20.6394C4.54444 20.5885 4.50857 20.5283 4.48682 20.4626C4.47121 20.4154 4.46241 20.3481 4.4624 19.8728V9.93628L14.1001 15.2908ZM25.2378 19.8728C25.2378 20.3481 25.228 20.4154 25.2124 20.4626C25.1906 20.5284 25.1548 20.5885 25.1079 20.6394C25.0742 20.676 25.0203 20.7173 24.605 20.948L15.6001 25.949V15.2908L25.2378 9.93628V19.8728ZM14.9478 3.41284C14.9943 3.42241 15.0537 3.4464 15.4468 3.66479L24.4419 8.66187L14.8501 13.991L5.25732 8.66187L14.2524 3.66479C14.6454 3.4465 14.7049 3.42244 14.7515 3.41284C14.8161 3.39954 14.8831 3.3996 14.9478 3.41284Z" stroke="white" stroke-width="1.5" stroke-linecap="round" stroke-linejoin="round"/>
</svg>
