<svg width="30" height="30" viewBox="0 0 30 30" fill="none" xmlns="http://www.w3.org/2000/svg">
<path d="M24.1857 23.7656H5.81372L8.81372 9.41357H21.1857L24.1857 23.7656Z" fill="white" fill-opacity="0.1"/>
<path d="M24.1858 23.7657V23.1657H6.55175L9.29976 10.0137H20.6968L23.5978 23.8887L24.1858 23.7657V23.1657V23.7657L24.7738 23.6427L21.7738 9.29071C21.7168 9.01171 21.4708 8.81372 21.1858 8.81372H8.81376C8.52876 8.81372 8.28576 9.01171 8.22576 9.29071L5.22576 23.6427C5.18976 23.8197 5.23477 24.0027 5.34877 24.1437C5.46277 24.2847 5.63376 24.3657 5.81376 24.3657H24.1858C24.3658 24.3657 24.5368 24.2847 24.6508 24.1437C24.7648 24.0027 24.8098 23.8197 24.7738 23.6427L24.1858 23.7657Z" fill="white"/>
<path d="M12.2791 9.396L11.0791 23.688L12.2731 23.787L13.4731 9.49498" fill="white"/>
<path d="M16.53 9.49498L17.73 23.787L18.924 23.688L17.724 9.396" fill="white"/>
<path d="M23.247 18.5193H6.64502V19.7193H23.247" fill="white"/>
<path d="M22.0409 13.1309H7.91089V14.3309H22.0409" fill="white"/>
<path d="M17.2829 26.4055V25.8055H13.3199V24.3655H16.6829V26.4055H17.2829V25.8055V26.4055H17.8829V23.7655C17.8829 23.6065 17.8199 23.4536 17.7059 23.3426C17.5949 23.2316 17.4389 23.1655 17.2829 23.1655H12.7199C12.5609 23.1655 12.4079 23.2286 12.2969 23.3426C12.1859 23.4536 12.1199 23.6095 12.1199 23.7655V26.4055C12.1199 26.5645 12.1829 26.7176 12.2969 26.8286C12.4079 26.9396 12.5639 27.0055 12.7199 27.0055H17.2829C17.4419 27.0055 17.5949 26.9426 17.7059 26.8286C17.8169 26.7176 17.8829 26.5615 17.8829 26.4055H17.2829Z" fill="white"/>
<path d="M19.224 25.8059H10.779C10.449 25.8059 10.179 26.0759 10.179 26.4059C10.179 26.7359 10.449 27.0059 10.779 27.0059H19.224C19.554 27.0059 19.824 26.7359 19.824 26.4059C19.824 26.0759 19.554 25.8059 19.224 25.8059Z" fill="white"/>
<path d="M25.986 4.73663H25.686C25.686 5.06063 25.554 5.35164 25.341 5.56764C25.128 5.78064 24.837 5.91265 24.51 5.91265C24.186 5.91265 23.895 5.78064 23.679 5.56764C23.466 5.35464 23.334 5.06363 23.334 4.73663C23.334 4.41263 23.466 4.12163 23.679 3.90563C23.892 3.69263 24.183 3.56064 24.51 3.56064C24.834 3.56064 25.125 3.69263 25.341 3.90563C25.554 4.11863 25.686 4.40963 25.686 4.73663H25.986H26.286C26.286 3.75863 25.491 2.96362 24.513 2.96362C23.532 2.96362 22.74 3.75863 22.74 4.73663C22.74 5.71763 23.535 6.50964 24.513 6.50964C25.494 6.50964 26.286 5.71463 26.286 4.73663H25.986Z" fill="white"/>
<path d="M24.2131 1.425V2.26501C24.2131 2.43001 24.3481 2.56501 24.5131 2.56501C24.6781 2.56501 24.8131 2.43001 24.8131 2.26501V1.425C24.8131 1.26 24.6781 1.125 24.5131 1.125C24.3481 1.125 24.2131 1.26 24.2131 1.425Z" fill="white"/>
<path d="M24.2131 7.20942V8.04944C24.2131 8.21444 24.3481 8.34944 24.5131 8.34944C24.6781 8.34944 24.8131 8.21444 24.8131 8.04944V7.20942C24.8131 7.04442 24.6781 6.90942 24.5131 6.90942C24.3481 6.90942 24.2131 7.04142 24.2131 7.20942Z" fill="white"/>
<path d="M26.64 2.18077L26.046 2.77476C25.929 2.89176 25.929 3.08077 26.046 3.19777C26.163 3.31477 26.352 3.31477 26.469 3.19777L27.063 2.60378C27.18 2.48678 27.18 2.29777 27.063 2.18077C26.949 2.06377 26.757 2.06377 26.64 2.18077Z" fill="white"/>
<path d="M22.5511 6.27061L21.9571 6.86461C21.8401 6.98161 21.8401 7.17062 21.9571 7.28762C22.0741 7.40462 22.2631 7.40462 22.3801 7.28762L22.9741 6.69362C23.0911 6.57662 23.0911 6.38761 22.9741 6.27061C22.8601 6.15361 22.6681 6.15361 22.5511 6.27061Z" fill="white"/>
<path d="M27.8221 4.43677H26.9821C26.8171 4.43677 26.6821 4.57177 26.6821 4.73677C26.6821 4.90177 26.8171 5.03677 26.9821 5.03677H27.8221C27.9871 5.03677 28.1221 4.90177 28.1221 4.73677C28.1221 4.57177 27.9901 4.43677 27.8221 4.43677Z" fill="white"/>
<path d="M22.0409 4.43677H21.2009C21.0359 4.43677 20.9009 4.57177 20.9009 4.73677C20.9009 4.90177 21.0359 5.03677 21.2009 5.03677H22.0409C22.2059 5.03677 22.3409 4.90177 22.3409 4.73677C22.3409 4.57177 22.2059 4.43677 22.0409 4.43677Z" fill="white"/>
<path d="M27.0659 6.86461L26.4719 6.27061C26.3549 6.15361 26.1659 6.15361 26.0489 6.27061C25.9319 6.38761 25.9319 6.57662 26.0489 6.69362L26.6429 7.28762C26.7599 7.40462 26.9489 7.40462 27.0659 7.28762C27.1829 7.17362 27.1829 6.98161 27.0659 6.86461Z" fill="white"/>
<path d="M22.9768 2.77476L22.3828 2.18077C22.2658 2.06377 22.0768 2.06377 21.9598 2.18077C21.8428 2.29777 21.8428 2.48678 21.9598 2.60378L22.5538 3.19777C22.6708 3.31477 22.8598 3.31477 22.9768 3.19777C23.0938 3.08077 23.0938 2.89176 22.9768 2.77476Z" fill="white"/>
</svg>
