<svg width="75" height="71" viewBox="0 0 75 71" fill="none" xmlns="http://www.w3.org/2000/svg">
<path d="M35.1356 2.53056C34.0903 2.61449 32.5222 2.84948 31.2031 3.11803C25.0969 4.36851 19.9365 7.07926 15.6472 11.2923C10.3873 16.462 7.25951 22.9578 6.37179 30.5529C6.21416 31.9377 6.23905 35.8821 6.41327 37.3508C7.50011 46.2635 11.806 53.758 18.8829 59.0704C21.8945 61.328 26.5405 63.468 29.9503 64.1562C31.4769 64.4667 32.5803 62.8218 31.6926 61.5713C31.3773 61.1433 31.0621 60.9839 29.8259 60.6482C23.2385 58.8438 17.6716 54.7567 13.9631 48.9995C11.5903 45.3152 10.0139 40.6154 9.624 36.0919C9.1594 30.5529 10.5117 24.4936 13.2827 19.7099C14.3779 17.83 15.4066 16.4536 17.3812 14.2464C17.7131 13.8687 19.2977 12.4504 20.1356 11.7706C24.4996 8.2542 30.5975 6.0386 36.3801 5.86236C39.6489 5.77004 42.785 6.24841 46.004 7.33943C50.0941 8.71579 53.5372 10.8559 56.5903 13.9023C60.9459 18.258 63.6423 23.7299 64.5632 30.0913C64.8038 31.8118 64.8287 35.5632 64.5964 37.2249C64.1318 40.6154 63.3187 43.3094 61.8502 46.3391C60.0831 49.973 57.619 53.0362 54.3419 55.6883C51.4133 58.0549 47.655 59.9013 43.7639 60.8748C42.0549 61.3112 40.0305 61.6469 39.1428 61.6469H38.8275V57.4842V53.3216L38.5621 53.3803C38.2136 53.4643 36.1229 53.4643 35.7827 53.3887L35.509 53.3216V58.5165V63.703L35.7081 64.1394C35.8491 64.4416 36.0233 64.643 36.2639 64.8108C36.5792 65.0206 36.7037 65.0458 37.4006 65.071C37.8237 65.0878 38.7363 65.0626 39.4166 65.0122C43.3491 64.7017 47.8126 63.4261 51.4382 61.5546C56.806 58.7935 61.3939 54.2951 64.2562 48.9743C67.7075 42.5709 68.8773 35.303 67.6163 28.1862C66.8364 23.8138 64.8784 19.0972 62.3978 15.6144C58.4736 10.1005 53.3298 6.25681 47.0162 4.11673C45.2739 3.52926 42.785 2.95858 40.7357 2.68163C39.8231 2.56413 36.0648 2.45503 35.1356 2.53056Z" fill="url(#paint0_linear_3220_23723)"/>
<path d="M30.1329 17.1672C29.7512 17.2595 29.2783 17.6539 29.0792 18.0568C28.9216 18.3673 28.9133 18.5771 28.8884 22.681L28.8635 26.9863H30.5311H32.1904V22.7062C32.1904 18.1575 32.1821 18.082 31.7922 17.6455C31.452 17.2595 30.6639 17.0329 30.1329 17.1672Z" fill="url(#paint1_linear_3220_23723)"/>
<path d="M43.4073 17.1672C42.9593 17.2763 42.4781 17.6539 42.3039 18.0316C42.1628 18.3589 42.1462 18.6442 42.1462 22.681V26.9863H43.8055H45.4731L45.4482 22.639C45.4233 18.7785 45.4067 18.275 45.2823 18.0484C45.133 17.7714 44.7679 17.4022 44.5107 17.2679C44.2535 17.142 43.7143 17.0916 43.4073 17.1672Z" fill="url(#paint2_linear_3220_23723)"/>
<path d="M26.6649 28.9921C26.3164 29.2019 26.0675 29.546 25.9597 29.9405C25.9016 30.1754 25.885 32.0721 25.9099 35.9578C25.9431 41.2954 25.9514 41.6815 26.1173 42.4284C26.5985 44.7195 27.5194 46.4819 29.0874 48.1353C30.7301 49.8557 32.8955 51.0306 35.2185 51.4503C36.1228 51.6097 37.948 51.6349 38.869 51.4922C43.5233 50.7789 47.2069 47.2121 48.2191 42.4284C48.385 41.6815 48.3933 41.287 48.4265 36.0082C48.4514 32.0386 48.4348 30.2594 48.3767 29.9572C48.2688 29.4957 47.9287 29.0844 47.5139 28.925C47.3562 28.8578 44.0791 28.8327 37.1018 28.8327C27.2788 28.8327 26.9138 28.841 26.6649 28.9921ZM37.7738 31.1322C38.5869 31.3756 39.2755 31.6022 39.3004 31.6357C39.3501 31.6861 38.7196 33.5072 37.6245 36.453C37.1682 37.6783 37.052 38.0559 37.1516 38.0308C37.2345 38.0056 37.6079 37.8881 37.9978 37.779C38.3878 37.6615 39.0266 37.4769 39.4331 37.3594C40.1051 37.1579 40.4038 37.0992 40.4038 37.1747C40.4038 37.1999 39.151 41.1695 37.5083 46.3728C37.0935 47.6821 36.7534 48.7899 36.7534 48.8234C36.7534 48.9493 36.5791 49.3354 36.5376 49.2934C36.5211 49.2682 36.8529 47.1198 37.2843 44.5181C37.724 41.9249 38.0642 39.7848 38.0476 39.768C38.0393 39.7512 37.8568 39.81 37.6577 39.9023C33.9492 41.5388 33.7666 41.6059 33.7666 41.4717C33.7666 41.4549 33.9492 40.6324 34.1732 39.6505C34.3972 38.6602 34.9447 36.2432 35.3927 34.2626C35.8407 32.2903 36.2307 30.679 36.2556 30.679C36.2805 30.679 36.9608 30.8804 37.7738 31.1322Z" fill="url(#paint3_linear_3220_23723)"/>
<defs>
<linearGradient id="paint0_linear_3220_23723" x1="-1.10078" y1="36.2313" x2="73.1436" y2="35.7636" gradientUnits="userSpaceOnUse">
<stop stop-color="#63B7FF"/>
<stop offset="1" stop-color="#296ACC"/>
</linearGradient>
<linearGradient id="paint1_linear_3220_23723" x1="28.4672" y1="22.4418" x2="32.4614" y2="22.4332" gradientUnits="userSpaceOnUse">
<stop stop-color="#63B7FF"/>
<stop offset="1" stop-color="#296ACC"/>
</linearGradient>
<linearGradient id="paint2_linear_3220_23723" x1="41.7499" y1="22.4434" x2="45.7441" y2="22.4348" gradientUnits="userSpaceOnUse">
<stop stop-color="#63B7FF"/>
<stop offset="1" stop-color="#296ACC"/>
</linearGradient>
<linearGradient id="paint3_linear_3220_23723" x1="23.2135" y1="41.0967" x2="50.2724" y2="40.9259" gradientUnits="userSpaceOnUse">
<stop stop-color="#63B7FF"/>
<stop offset="1" stop-color="#296ACC"/>
</linearGradient>
</defs>
</svg>
