<svg xmlns="http://www.w3.org/2000/svg" width="148" height="41" viewBox="0 0 148 41" fill="none">
  <g filter="url(#filter0_d_3220_32869)">
    <rect width="33" height="10.3784" rx="4" transform="matrix(-3.44473e-08 -1 -1 3.47113e-08 28.6487 33)" fill="url(#paint0_linear_3220_32869)"/>
    <rect width="33" height="10.3784" rx="4" transform="matrix(-3.44473e-08 -1 -1 3.47113e-08 14.3784 33)" fill="url(#paint1_linear_3220_32869)"/>
    <rect width="33" height="10.3784" rx="4" transform="matrix(-3.44684e-08 -1 -1 3.46975e-08 42.9189 33)" fill="#474750"/>
    <rect width="33" height="10.3784" rx="4" transform="matrix(-3.44684e-08 -1 -1 3.46975e-08 57.1892 33)" fill="white" fill-opacity="0.25"/>
    <rect width="33" height="10.3784" rx="4" transform="matrix(-3.43835e-08 -1 -1 3.47507e-08 71.4595 33)" fill="white" fill-opacity="0.2"/>
    <rect width="33" height="10.3784" rx="4" transform="matrix(-3.45258e-08 -1 -1 3.46575e-08 85.7297 33)" fill="white" fill-opacity="0.15"/>
    <rect width="33" height="10.3784" rx="4" transform="matrix(-3.45258e-08 -1 -1 3.46575e-08 114.378 33)" fill="white" fill-opacity="0.15"/>
    <rect width="33" height="10.3784" rx="4" transform="matrix(-3.45749e-08 -1 -1 3.46205e-08 100 33)" fill="#30313D"/>
    <rect width="33" height="10.3784" rx="4" transform="matrix(-3.45749e-08 -1 -1 3.46205e-08 128.649 33)" fill="white" fill-opacity="0.1"/>
    <rect width="33" height="10.3784" rx="4" transform="matrix(-3.45749e-08 -1 -1 3.46205e-08 143.378 33)" fill="white" fill-opacity="0.1"/>
  </g>
  <defs>
    <filter id="filter0_d_3220_32869" x="0" y="0" width="147.378" height="41" filterUnits="userSpaceOnUse" color-interpolation-filters="sRGB">
      <feFlood flood-opacity="0" result="BackgroundImageFix"/>
      <feColorMatrix in="SourceAlpha" type="matrix" values="0 0 0 0 0 0 0 0 0 0 0 0 0 0 0 0 0 0 127 0" result="hardAlpha"/>
      <feOffset dy="4"/>
      <feGaussianBlur stdDeviation="2"/>
      <feComposite in2="hardAlpha" operator="out"/>
      <feColorMatrix type="matrix" values="0 0 0 0 0 0 0 0 0 0 0 0 0 0 0 0 0 0 0.25 0"/>
      <feBlend mode="normal" in2="BackgroundImageFix" result="effect1_dropShadow_3220_32869"/>
      <feBlend mode="normal" in="SourceGraphic" in2="effect1_dropShadow_3220_32869" result="shape"/>
    </filter>
    <linearGradient id="paint0_linear_3220_32869" x1="0" y1="0" x2="5.94037" y2="18.8885" gradientUnits="userSpaceOnUse">
      <stop stop-color="#F74FAC"/>
      <stop offset="1" stop-color="#FCB24F"/>
    </linearGradient>
    <linearGradient id="paint1_linear_3220_32869" x1="0" y1="0" x2="5.94037" y2="18.8885" gradientUnits="userSpaceOnUse">
      <stop stop-color="#F74FAC"/>
      <stop offset="1" stop-color="#FCB24F"/>
    </linearGradient>
  </defs>
</svg>
