<svg width="51" height="56" viewBox="0 0 51 56" fill="none" xmlns="http://www.w3.org/2000/svg">
<path d="M38.1474 44.3626H3.85303L9.45303 17.5723H32.5474L38.1474 44.3626Z" fill="#3274F5" fill-opacity="0.2"/>
<path d="M38.1476 44.3616V43.2416H5.23075L10.3604 18.6912H31.6348L37.05 44.5912L38.1476 44.3616V43.2416V44.3616L39.2452 44.132L33.6452 17.3416C33.5388 16.8208 33.0796 16.4512 32.5476 16.4512H9.45317C8.92117 16.4512 8.46756 16.8208 8.35556 17.3416L2.75556 44.132C2.68836 44.4624 2.77238 44.804 2.98518 45.0672C3.19798 45.3304 3.51717 45.4816 3.85317 45.4816H38.1476C38.4836 45.4816 38.8028 45.3304 39.0156 45.0672C39.2284 44.804 39.3124 44.4624 39.2452 44.132L38.1476 44.3616Z" fill="url(#paint0_linear_3220_23749)"/>
<path d="M15.9209 17.54L13.6809 44.2184L15.9097 44.4032L18.1497 17.7248" fill="url(#paint1_linear_3220_23749)"/>
<path d="M23.856 17.7248L26.096 44.4032L28.3248 44.2184L26.0848 17.54" fill="url(#paint2_linear_3220_23749)"/>
<path d="M36.3947 34.5684H5.4043V36.8084H36.3947" fill="url(#paint3_linear_3220_23749)"/>
<path d="M34.1436 24.5107H7.76758V26.7507H34.1436" fill="url(#paint4_linear_3220_23749)"/>
<path d="M25.2619 49.2912V48.1712H17.8643V45.4832H24.1419V49.2912H25.2619V48.1712V49.2912H26.3819V44.3632C26.3819 44.0664 26.2643 43.7808 26.0515 43.5736C25.8443 43.3664 25.5531 43.2432 25.2619 43.2432H16.7443C16.4475 43.2432 16.1619 43.3608 15.9547 43.5736C15.7475 43.7808 15.6243 44.072 15.6243 44.3632V49.2912C15.6243 49.588 15.7419 49.8736 15.9547 50.0808C16.1619 50.288 16.4531 50.4112 16.7443 50.4112H25.2619C25.5587 50.4112 25.8443 50.2936 26.0515 50.0808C26.2587 49.8736 26.3819 49.5824 26.3819 49.2912H25.2619Z" fill="url(#paint5_linear_3220_23749)"/>
<path d="M28.885 48.1699H13.121C12.505 48.1699 12.001 48.6739 12.001 49.2899C12.001 49.9059 12.505 50.4099 13.121 50.4099H28.885C29.501 50.4099 30.005 49.9059 30.005 49.2899C30.005 48.6739 29.501 48.1699 28.885 48.1699Z" fill="url(#paint6_linear_3220_23749)"/>
<path d="M47.2545 4.17759H48.7553C48.8879 4.17759 49.0152 4.12868 49.109 4.04161C49.2028 3.95454 49.2555 3.83645 49.2555 3.71331C49.2555 3.59017 49.2028 3.47208 49.109 3.38501C49.0152 3.29794 48.8879 3.24902 48.7553 3.24902H47.2545C47.1218 3.24902 46.9946 3.29794 46.9008 3.38501C46.807 3.47208 46.7543 3.59017 46.7543 3.71331C46.7543 3.83645 46.807 3.95454 46.9008 4.04161C46.9946 4.12868 47.1218 4.17759 47.2545 4.17759ZM47.2545 6.03474H47.7548C47.8874 6.03474 48.0147 5.98582 48.1085 5.89875C48.2023 5.81168 48.255 5.69359 48.255 5.57045C48.255 5.44732 48.2023 5.32922 48.1085 5.24215C48.0147 5.15508 47.8874 5.10617 47.7548 5.10617H47.2545C47.1218 5.10617 46.9946 5.15508 46.9008 5.24215C46.807 5.32922 46.7543 5.44732 46.7543 5.57045C46.7543 5.69359 46.807 5.81168 46.9008 5.89875C46.9946 5.98582 47.1218 6.03474 47.2545 6.03474ZM48.7553 6.96331H47.2545C47.1218 6.96331 46.9946 7.01222 46.9008 7.09929C46.807 7.18637 46.7543 7.30446 46.7543 7.42759C46.7543 7.55073 46.807 7.66882 46.9008 7.75589C46.9946 7.84296 47.1218 7.89188 47.2545 7.89188H48.7553C48.8879 7.89188 49.0152 7.84296 49.109 7.75589C49.2028 7.66882 49.2555 7.55073 49.2555 7.42759C49.2555 7.30446 49.2028 7.18637 49.109 7.09929C49.0152 7.01222 48.8879 6.96331 48.7553 6.96331ZM47.2545 9.74902H47.7548C47.8874 9.74902 48.0147 9.70011 48.1085 9.61304C48.2023 9.52597 48.255 9.40787 48.255 9.28474C48.255 9.1616 48.2023 9.04351 48.1085 8.95644C48.0147 8.86937 47.8874 8.82045 47.7548 8.82045H47.2545C47.1218 8.82045 46.9946 8.86937 46.9008 8.95644C46.807 9.04351 46.7543 9.1616 46.7543 9.28474C46.7543 9.40787 46.807 9.52597 46.9008 9.61304C46.9946 9.70011 47.1218 9.74902 47.2545 9.74902ZM48.7553 10.6776H47.2545C47.1218 10.6776 46.9946 10.7265 46.9008 10.8136C46.807 10.9007 46.7543 11.0187 46.7543 11.1419C46.7543 11.265 46.807 11.3831 46.9008 11.4702C46.9946 11.5573 47.1218 11.6062 47.2545 11.6062H48.7553C48.8879 11.6062 49.0152 11.5573 49.109 11.4702C49.2028 11.3831 49.2555 11.265 49.2555 11.1419C49.2555 11.0187 49.2028 10.9007 49.109 10.8136C49.0152 10.7265 48.8879 10.6776 48.7553 10.6776ZM47.2545 13.4633H47.7548C47.8874 13.4633 48.0147 13.4144 48.1085 13.3273C48.2023 13.2403 48.255 13.1222 48.255 12.999C48.255 12.8759 48.2023 12.7578 48.1085 12.6707C48.0147 12.5837 47.8874 12.5347 47.7548 12.5347H47.2545C47.1218 12.5347 46.9946 12.5837 46.9008 12.6707C46.807 12.7578 46.7543 12.8759 46.7543 12.999C46.7543 13.1222 46.807 13.2403 46.9008 13.3273C46.9946 13.4144 47.1218 13.4633 47.2545 13.4633ZM48.7553 14.3919H47.2545C47.1218 14.3919 46.9946 14.4408 46.9008 14.5279C46.807 14.6149 46.7543 14.733 46.7543 14.8562C46.7543 14.9793 46.807 15.0974 46.9008 15.1845C46.9946 15.2715 47.1218 15.3204 47.2545 15.3204H48.7553C48.8879 15.3204 49.0152 15.2715 49.109 15.1845C49.2028 15.0974 49.2555 14.9793 49.2555 14.8562C49.2555 14.733 49.2028 14.6149 49.109 14.5279C49.0152 14.4408 48.8879 14.3919 48.7553 14.3919ZM47.2545 17.1776H47.7548C47.8874 17.1776 48.0147 17.1287 48.1085 17.0416C48.2023 16.9545 48.255 16.8364 48.255 16.7133C48.255 16.5902 48.2023 16.4721 48.1085 16.385C48.0147 16.2979 47.8874 16.249 47.7548 16.249H47.2545C47.1218 16.249 46.9946 16.2979 46.9008 16.385C46.807 16.4721 46.7543 16.5902 46.7543 16.7133C46.7543 16.8364 46.807 16.9545 46.9008 17.0416C46.9946 17.1287 47.1218 17.1776 47.2545 17.1776ZM48.7553 18.1062H47.2545C47.1218 18.1062 46.9946 18.1551 46.9008 18.2421C46.807 18.3292 46.7543 18.4473 46.7543 18.5704C46.7543 18.6936 46.807 18.8117 46.9008 18.8987C46.9946 18.9858 47.1218 19.0347 47.2545 19.0347H48.7553C48.8879 19.0347 49.0152 18.9858 49.109 18.8987C49.2028 18.8117 49.2555 18.6936 49.2555 18.5704C49.2555 18.4473 49.2028 18.3292 49.109 18.2421C49.0152 18.1551 48.8879 18.1062 48.7553 18.1062ZM47.7548 19.9633H47.2545C47.1218 19.9633 46.9946 20.0122 46.9008 20.0993C46.807 20.1864 46.7543 20.3045 46.7543 20.4276C46.7543 20.5507 46.807 20.6688 46.9008 20.7559C46.9946 20.843 47.1218 20.8919 47.2545 20.8919H47.7548C47.8874 20.8919 48.0147 20.843 48.1085 20.7559C48.2023 20.6688 48.255 20.5507 48.255 20.4276C48.255 20.3045 48.2023 20.1864 48.1085 20.0993C48.0147 20.0122 47.8874 19.9633 47.7548 19.9633ZM50.4631 5.57045L50.8598 5.20227C50.951 5.11471 51.0014 4.99743 51.0002 4.87569C50.9991 4.75396 50.9465 4.63751 50.8537 4.55143C50.761 4.46535 50.6355 4.41652 50.5044 4.41546C50.3732 4.4144 50.2468 4.4612 50.1525 4.54577L49.4021 5.2422C49.3083 5.32927 49.2556 5.44734 49.2556 5.57045C49.2556 5.69356 49.3083 5.81164 49.4021 5.8987L50.1525 6.59513C50.2468 6.6797 50.3732 6.7265 50.5044 6.72544C50.6355 6.72439 50.761 6.67556 50.8537 6.58947C50.9465 6.50339 50.9991 6.38694 51.0002 6.26521C51.0014 6.14347 50.951 6.0262 50.8598 5.93863L50.4631 5.57045ZM43.2525 23.9097C42.8567 23.9097 42.4698 24.0187 42.1408 24.2227C41.8117 24.4268 41.5552 24.7168 41.4038 25.0562C41.2523 25.3955 41.2127 25.7689 41.2899 26.1292C41.3671 26.4894 41.5577 26.8203 41.8376 27.0801C42.1174 27.3398 42.4739 27.5167 42.8621 27.5883C43.2503 27.66 43.6526 27.6232 44.0182 27.4827C44.3839 27.3421 44.6964 27.1041 44.9163 26.7987C45.1361 26.4932 45.2535 26.1342 45.2535 25.7669C45.2528 25.2745 45.0418 24.8025 44.6667 24.4544C44.2916 24.1062 43.783 23.9103 43.2525 23.9097ZM43.2525 26.6954C43.0546 26.6954 42.8612 26.641 42.6966 26.539C42.5321 26.4369 42.4039 26.2919 42.3281 26.1222C42.2524 25.9526 42.2326 25.7658 42.2712 25.5857C42.3098 25.4056 42.4051 25.2401 42.545 25.1103C42.6849 24.9804 42.8632 24.892 43.0573 24.8561C43.2514 24.8203 43.4525 24.8387 43.6354 24.909C43.8182 24.9793 43.9744 25.0983 44.0844 25.251C44.1943 25.4037 44.253 25.5832 44.253 25.7669C44.2527 26.0131 44.1472 26.2491 43.9597 26.4232C43.7721 26.5973 43.5178 26.6952 43.2525 26.6954Z" fill="url(#paint7_linear_3220_23749)"/>
<path d="M45.7538 22.5803V2.32143C45.7538 1.70575 45.4903 1.11528 45.0212 0.679931C44.5521 0.244578 43.9159 0 43.2525 0C42.5892 0 41.953 0.244578 41.4839 0.679931C41.0148 1.11528 40.7513 1.70575 40.7513 2.32143V22.5803C40.2044 22.9469 39.76 23.4298 39.4554 23.9885C39.1508 24.5472 38.9948 25.1654 39.0004 25.7915C39.0183 26.7986 39.4458 27.7621 40.1971 28.4888C40.9485 29.2156 41.9681 29.6518 43.0514 29.7101C43.1196 29.7129 43.1875 29.7143 43.255 29.7143C44.1523 29.7142 45.0265 29.4505 45.7523 28.961C46.4782 28.4716 47.0186 27.7814 47.296 26.9895C47.5733 26.1976 47.5735 25.3445 47.2965 24.5524C47.0195 23.7604 46.4795 23.0701 45.7538 22.5803ZM45.4977 27.9507C45.1799 28.2339 44.803 28.4537 44.3903 28.5967C43.9776 28.7397 43.5377 28.8028 43.0977 28.7822C42.2694 28.7376 41.49 28.404 40.9156 27.8483C40.3413 27.2926 40.0145 26.5559 40.0009 25.786C39.9966 25.2733 40.1339 24.7682 40.3996 24.3188C40.6653 23.8694 41.0505 23.4905 41.5187 23.2185C41.5899 23.1766 41.6486 23.1186 41.6893 23.05C41.7299 22.9814 41.7513 22.9044 41.7513 22.8261V2.32143C41.7513 1.95202 41.9094 1.59774 42.1908 1.33653C42.4723 1.07532 42.854 0.928571 43.252 0.928571C43.6501 0.928571 44.0318 1.07532 44.3132 1.33653C44.5947 1.59774 44.7528 1.95202 44.7528 2.32143V22.8259C44.7529 22.9042 44.7743 22.9813 44.815 23.0499C44.8558 23.1185 44.9146 23.1764 44.9859 23.2182C45.4042 23.4625 45.7569 23.7922 46.0172 24.1822C46.2774 24.5721 46.4383 25.0121 46.4877 25.4685C46.537 25.9249 46.4734 26.3857 46.3018 26.8159C46.1302 27.246 45.8554 27.6342 45.4977 27.9507Z" fill="url(#paint8_linear_3220_23749)"/>
<path d="M43.2527 11.6083C43.3516 11.6083 43.4484 11.581 43.5306 11.53C43.6129 11.479 43.677 11.4065 43.7149 11.3216C43.7527 11.2368 43.7626 11.1435 43.7433 11.0534C43.724 10.9633 43.6764 10.8806 43.6064 10.8157C43.5365 10.7507 43.4473 10.7065 43.3503 10.6886C43.2533 10.6707 43.1527 10.6799 43.0613 10.715C42.9698 10.7502 42.8917 10.8097 42.8367 10.886C42.7818 10.9624 42.7524 11.0521 42.7524 11.144C42.7524 11.2671 42.8051 11.3852 42.899 11.4723C42.9928 11.5593 43.12 11.6083 43.2527 11.6083ZM43.2527 9.98326C43.3516 9.98326 43.4484 9.95603 43.5306 9.90501C43.6129 9.854 43.677 9.78148 43.7149 9.69665C43.7527 9.61181 43.7626 9.51846 43.7433 9.4284C43.724 9.33833 43.6764 9.25561 43.6064 9.19067C43.5365 9.12574 43.4473 9.08152 43.3503 9.06361C43.2533 9.04569 43.1527 9.05489 43.0613 9.09003C42.9698 9.12517 42.8917 9.18468 42.8367 9.26103C42.7818 9.33738 42.7524 9.42715 42.7524 9.51897C42.7524 9.64211 42.8051 9.7602 42.899 9.84727C42.9928 9.93434 43.12 9.98326 43.2527 9.98326ZM43.2527 13.2333C43.3516 13.2333 43.4484 13.206 43.5306 13.155C43.6129 13.104 43.677 13.0315 43.7149 12.9466C43.7527 12.8618 43.7626 12.7685 43.7433 12.6784C43.724 12.5883 43.6764 12.5056 43.6064 12.4407C43.5365 12.3757 43.4473 12.3315 43.3503 12.3136C43.2533 12.2957 43.1527 12.3049 43.0613 12.34C42.9698 12.3752 42.8917 12.4347 42.8367 12.511C42.7818 12.5874 42.7524 12.6771 42.7524 12.769C42.7524 12.8921 42.8051 13.0102 42.899 13.0973C42.9928 13.1843 43.12 13.2333 43.2527 13.2333ZM43.2527 19.7333C43.3516 19.7333 43.4484 19.706 43.5306 19.655C43.6129 19.604 43.677 19.5315 43.7149 19.4466C43.7527 19.3618 43.7626 19.2685 43.7433 19.1784C43.724 19.0883 43.6764 19.0056 43.6064 18.9407C43.5365 18.8757 43.4473 18.8315 43.3503 18.8136C43.2533 18.7957 43.1527 18.8049 43.0613 18.84C42.9698 18.8752 42.8917 18.9347 42.8367 19.011C42.7818 19.0874 42.7524 19.1771 42.7524 19.269C42.7524 19.3921 42.8051 19.5102 42.899 19.5973C42.9928 19.6843 43.12 19.7333 43.2527 19.7333ZM43.2527 21.3583C43.3516 21.3583 43.4484 21.331 43.5306 21.28C43.6129 21.229 43.677 21.1565 43.7149 21.0716C43.7527 20.9868 43.7626 20.8935 43.7433 20.8034C43.724 20.7133 43.6764 20.6306 43.6064 20.5657C43.5365 20.5007 43.4473 20.4565 43.3503 20.4386C43.2533 20.4207 43.1527 20.4299 43.0613 20.465C42.9698 20.5002 42.8917 20.5597 42.8367 20.636C42.7818 20.7124 42.7524 20.8021 42.7524 20.894C42.7524 21.0171 42.8051 21.1352 42.899 21.2223C42.9928 21.3093 43.12 21.3583 43.2527 21.3583ZM43.2527 22.9833C43.3516 22.9833 43.4484 22.956 43.5306 22.905C43.6129 22.854 43.677 22.7815 43.7149 22.6966C43.7527 22.6118 43.7626 22.5185 43.7433 22.4284C43.724 22.3383 43.6764 22.2556 43.6064 22.1907C43.5365 22.1257 43.4473 22.0815 43.3503 22.0636C43.2533 22.0457 43.1527 22.0549 43.0613 22.09C42.9698 22.1252 42.8917 22.1847 42.8367 22.261C42.7818 22.3374 42.7524 22.4271 42.7524 22.519C42.7524 22.6421 42.8051 22.7602 42.899 22.8473C42.9928 22.9343 43.12 22.9833 43.2527 22.9833ZM43.2527 18.1083C43.3516 18.1083 43.4484 18.081 43.5306 18.03C43.6129 17.979 43.677 17.9065 43.7149 17.8216C43.7527 17.7368 43.7626 17.6435 43.7433 17.5534C43.724 17.4633 43.6764 17.3806 43.6064 17.3157C43.5365 17.2507 43.4473 17.2065 43.3503 17.1886C43.2533 17.1707 43.1527 17.1799 43.0613 17.215C42.9698 17.2502 42.8917 17.3097 42.8367 17.386C42.7818 17.4624 42.7524 17.5521 42.7524 17.644C42.7524 17.7671 42.8051 17.8852 42.899 17.9723C42.9928 18.0593 43.12 18.1083 43.2527 18.1083ZM43.2527 16.4833C43.3516 16.4833 43.4484 16.456 43.5306 16.405C43.6129 16.354 43.677 16.2815 43.7149 16.1966C43.7527 16.1118 43.7626 16.0185 43.7433 15.9284C43.724 15.8383 43.6764 15.7556 43.6064 15.6907C43.5365 15.6257 43.4473 15.5815 43.3503 15.5636C43.2533 15.5457 43.1527 15.5549 43.0613 15.59C42.9698 15.6252 42.8917 15.6847 42.8367 15.761C42.7818 15.8374 42.7524 15.9271 42.7524 16.019C42.7524 16.1421 42.8051 16.2602 42.899 16.3473C42.9928 16.4343 43.12 16.4833 43.2527 16.4833ZM43.2527 14.8583C43.3516 14.8583 43.4484 14.831 43.5306 14.78C43.6129 14.729 43.677 14.6565 43.7149 14.5716C43.7527 14.4868 43.7626 14.3935 43.7433 14.3034C43.724 14.2133 43.6764 14.1306 43.6064 14.0657C43.5365 14.0007 43.4473 13.9565 43.3503 13.9386C43.2533 13.9207 43.1527 13.9299 43.0613 13.965C42.9698 14.0002 42.8917 14.0597 42.8367 14.136C42.7818 14.2124 42.7524 14.3021 42.7524 14.394C42.7524 14.5171 42.8051 14.6352 42.899 14.7223C42.9928 14.8093 43.12 14.8583 43.2527 14.8583Z" fill="url(#paint9_linear_3220_23749)"/>
<defs>
<linearGradient id="paint0_linear_3220_23749" x1="2.73234" y1="45.4814" x2="31.012" y2="9.89116" gradientUnits="userSpaceOnUse">
<stop stop-color="#3793FF"/>
<stop offset="1" stop-color="#3793FF" stop-opacity="0.5"/>
</linearGradient>
<linearGradient id="paint1_linear_3220_23749" x1="13.6808" y1="44.4031" x2="22.3778" y2="42.9563" gradientUnits="userSpaceOnUse">
<stop stop-color="#3793FF"/>
<stop offset="1" stop-color="#3793FF" stop-opacity="0.5"/>
</linearGradient>
<linearGradient id="paint2_linear_3220_23749" x1="23.8559" y1="44.4031" x2="32.5529" y2="42.9563" gradientUnits="userSpaceOnUse">
<stop stop-color="#3793FF"/>
<stop offset="1" stop-color="#3793FF" stop-opacity="0.5"/>
</linearGradient>
<linearGradient id="paint3_linear_3220_23749" x1="5.40381" y1="36.8083" x2="5.72595" y2="32.3516" gradientUnits="userSpaceOnUse">
<stop stop-color="#3793FF"/>
<stop offset="1" stop-color="#3793FF" stop-opacity="0.5"/>
</linearGradient>
<linearGradient id="paint4_linear_3220_23749" x1="7.76717" y1="26.7507" x2="8.14491" y2="22.3028" gradientUnits="userSpaceOnUse">
<stop stop-color="#3793FF"/>
<stop offset="1" stop-color="#3793FF" stop-opacity="0.5"/>
</linearGradient>
<linearGradient id="paint5_linear_3220_23749" x1="15.6241" y1="50.4111" x2="22.2394" y2="40.483" gradientUnits="userSpaceOnUse">
<stop stop-color="#3793FF"/>
<stop offset="1" stop-color="#3793FF" stop-opacity="0.5"/>
</linearGradient>
<linearGradient id="paint6_linear_3220_23749" x1="12.0007" y1="50.4099" x2="12.5496" y2="45.9982" gradientUnits="userSpaceOnUse">
<stop stop-color="#3793FF"/>
<stop offset="1" stop-color="#3793FF" stop-opacity="0.5"/>
</linearGradient>
<linearGradient id="paint7_linear_3220_23749" x1="40.09" y1="14.4858" x2="51.7942" y2="14.5157" gradientUnits="userSpaceOnUse">
<stop stop-color="#63B7FF"/>
<stop offset="1" stop-color="#296ACC"/>
</linearGradient>
<linearGradient id="paint8_linear_3220_23749" x1="37.9871" y1="13.6982" x2="48.1967" y2="13.7168" gradientUnits="userSpaceOnUse">
<stop stop-color="#63B7FF"/>
<stop offset="1" stop-color="#296ACC"/>
</linearGradient>
<linearGradient id="paint9_linear_3220_23749" x1="42.6332" y1="15.4757" x2="43.8344" y2="15.4763" gradientUnits="userSpaceOnUse">
<stop stop-color="#63B7FF"/>
<stop offset="1" stop-color="#296ACC"/>
</linearGradient>
</defs>
</svg>
