<svg width="144" height="80.25" viewBox="4 0 145 80.25" fill="none" xmlns="http://www.w3.org/2000/svg">
<g opacity="0.3">
<path d="M9.32718 0H20.0771C20.5012 0 20.8449 0.46063 20.8449 1.02885V5.14423C20.8449 5.71245 20.5012 6.17308 20.0771 6.17308H9.32718C8.9031 6.17308 8.55933 5.71245 8.55933 5.14423V1.02885C8.55933 0.46063 8.9031 0 9.32718 0Z" fill="url(#paint0_linear_3220_32857)"/>
<path d="M9.32718 8.23077H20.0771C20.5012 8.23077 20.8449 8.6914 20.8449 9.25961V13.375C20.8449 13.9432 20.5012 14.4038 20.0771 14.4038H9.32718C8.9031 14.4038 8.55933 13.9432 8.55933 13.375V9.25961C8.55933 8.6914 8.9031 8.23077 9.32718 8.23077Z" fill="url(#paint1_linear_3220_32857)"/>
<path d="M9.32718 16.4615H20.0771C20.5012 16.4615 20.8449 16.9222 20.8449 17.4904V21.6058C20.8449 22.174 20.5012 22.6346 20.0771 22.6346H9.32718C8.9031 22.6346 8.55933 22.174 8.55933 21.6058V17.4904C8.55933 16.9222 8.9031 16.4615 9.32718 16.4615Z" fill="url(#paint2_linear_3220_32857)"/>
<path d="M9.32718 24.6923H20.0771C20.5012 24.6923 20.8449 25.1529 20.8449 25.7212V29.8365C20.8449 30.4048 20.5012 30.8654 20.0771 30.8654H9.32718C8.9031 30.8654 8.55933 30.4048 8.55933 29.8365V25.7212C8.55933 25.1529 8.9031 24.6923 9.32718 24.6923Z" fill="url(#paint3_linear_3220_32857)"/>
<path d="M9.32718 32.9231H20.0771C20.5012 32.9231 20.8449 33.3837 20.8449 33.9519V38.0673C20.8449 38.6355 20.5012 39.0962 20.0771 39.0962H9.32718C8.9031 39.0962 8.55933 38.6355 8.55933 38.0673V33.9519C8.55933 33.3837 8.9031 32.9231 9.32718 32.9231Z" fill="url(#paint4_linear_3220_32857)"/>
<path d="M9.32718 41.1538H20.0771C20.5012 41.1538 20.8449 41.6145 20.8449 42.1827V46.2981C20.8449 46.8663 20.5012 47.3269 20.0771 47.3269H9.32718C8.9031 47.3269 8.55933 46.8663 8.55933 46.2981V42.1827C8.55933 41.6145 8.9031 41.1538 9.32718 41.1538Z" fill="url(#paint5_linear_3220_32857)"/>
<path d="M9.32718 49.3846H20.0771C20.5012 49.3846 20.8449 49.8452 20.8449 50.4135V54.5288C20.8449 55.0971 20.5012 55.5577 20.0771 55.5577H9.32718C8.9031 55.5577 8.55933 55.0971 8.55933 54.5288V50.4135C8.55933 49.8452 8.9031 49.3846 9.32718 49.3846Z" fill="url(#paint6_linear_3220_32857)"/>
<path d="M9.32718 57.6154H20.0771C20.5012 57.6154 20.8449 58.076 20.8449 58.6442V62.7596C20.8449 63.3278 20.5012 63.7885 20.0771 63.7885H9.32718C8.9031 63.7885 8.55933 63.3278 8.55933 62.7596V58.6442C8.55933 58.076 8.9031 57.6154 9.32718 57.6154Z" fill="url(#paint7_linear_3220_32857)"/>
<path d="M9.32718 65.8462H20.0771C20.5012 65.8462 20.8449 66.3068 20.8449 66.875V70.9904C20.8449 71.5586 20.5012 72.0192 20.0771 72.0192H9.32718C8.9031 72.0192 8.55933 71.5586 8.55933 70.9904V66.875C8.55933 66.3068 8.9031 65.8462 9.32718 65.8462Z" fill="url(#paint8_linear_3220_32857)"/>
<path d="M20.0771 74.0769H9.32718C8.9031 74.0769 8.55933 74.5376 8.55933 75.1058V79.2212C8.55933 79.7894 8.9031 80.25 9.32718 80.25H20.0771C20.5012 80.25 20.8449 79.7894 20.8449 79.2212V75.1058C20.8449 74.5376 20.5012 74.0769 20.0771 74.0769Z" fill="url(#paint9_linear_3220_32857)"/>
<path d="M33.8984 74.0769H23.1485C22.7244 74.0769 22.3806 74.5376 22.3806 75.1058V79.2212C22.3806 79.7894 22.7244 80.25 23.1485 80.25H33.8984C34.3225 80.25 34.6662 79.7894 34.6662 79.2212V75.1058C34.6662 74.5376 34.3225 74.0769 33.8984 74.0769Z" fill="url(#paint10_linear_3220_32857)"/>
<path d="M36.9698 74.0769H47.7197C48.1438 74.0769 48.4875 74.5376 48.4875 75.1058V79.2212C48.4875 79.7894 48.1438 80.25 47.7197 80.25H36.9698C36.5457 80.25 36.2019 79.7894 36.2019 79.2212V75.1058C36.2019 74.5376 36.5457 74.0769 36.9698 74.0769Z" fill="url(#paint11_linear_3220_32857)"/>
<path d="M61.541 74.0769H50.7911C50.367 74.0769 50.0232 74.5376 50.0232 75.1058V79.2212C50.0232 79.7894 50.367 80.25 50.7911 80.25H61.541C61.9651 80.25 62.3088 79.7894 62.3088 79.2212V75.1058C62.3088 74.5376 61.9651 74.0769 61.541 74.0769Z" fill="url(#paint12_linear_3220_32857)"/>
<path d="M64.6124 74.0769H75.3623C75.7864 74.0769 76.1301 74.5376 76.1301 75.1058V79.2212C76.1301 79.7894 75.7864 80.25 75.3623 80.25H64.6124C64.1883 80.25 63.8445 79.7894 63.8445 79.2212V75.1058C63.8445 74.5376 64.1883 74.0769 64.6124 74.0769Z" fill="url(#paint13_linear_3220_32857)"/>
<path d="M89.1836 74.0769H78.4337C78.0096 74.0769 77.6658 74.5376 77.6658 75.1058V79.2212C77.6658 79.7894 78.0096 80.25 78.4337 80.25H89.1836C89.6077 80.25 89.9515 79.7894 89.9515 79.2212V75.1058C89.9515 74.5376 89.6077 74.0769 89.1836 74.0769Z" fill="url(#paint14_linear_3220_32857)"/>
<path d="M92.255 74.0769H103.005C103.429 74.0769 103.773 74.5376 103.773 75.1058V79.2212C103.773 79.7894 103.429 80.25 103.005 80.25H92.255C91.8309 80.25 91.4872 79.7894 91.4872 79.2212V75.1058C91.4872 74.5376 91.8309 74.0769 92.255 74.0769Z" fill="url(#paint15_linear_3220_32857)"/>
<path d="M116.826 74.0769H106.076C105.652 74.0769 105.308 74.5376 105.308 75.1058V79.2212C105.308 79.7894 105.652 80.25 106.076 80.25H116.826C117.25 80.25 117.594 79.7894 117.594 79.2212V75.1058C117.594 74.5376 117.25 74.0769 116.826 74.0769Z" fill="url(#paint16_linear_3220_32857)"/>
<path d="M119.898 74.0769H130.648C131.072 74.0769 131.415 74.5376 131.415 75.1058V79.2212C131.415 79.7894 131.072 80.25 130.648 80.25H119.898C119.474 80.25 119.13 79.7894 119.13 79.2212V75.1058C119.13 74.5376 119.474 74.0769 119.898 74.0769Z" fill="url(#paint17_linear_3220_32857)"/>
<path d="M144.469 74.0769H133.719C133.295 74.0769 132.951 74.5376 132.951 75.1058V79.2212C132.951 79.7894 133.295 80.25 133.719 80.25H144.469C144.893 80.25 145.237 79.7894 145.237 79.2212V75.1058C145.237 74.5376 144.893 74.0769 144.469 74.0769Z" fill="url(#paint18_linear_3220_32857)"/>
<path d="M33.8984 65.8462H23.1485C22.7244 65.8462 22.3806 66.3068 22.3806 66.875V70.9904C22.3806 71.5586 22.7244 72.0192 23.1485 72.0192H33.8984C34.3225 72.0192 34.6662 71.5586 34.6662 70.9904V66.875C34.6662 66.3068 34.3225 65.8462 33.8984 65.8462Z" fill="url(#paint19_linear_3220_32857)"/>
<path d="M36.9698 65.8462H47.7197C48.1438 65.8462 48.4875 66.3068 48.4875 66.875V70.9904C48.4875 71.5586 48.1438 72.0192 47.7197 72.0192H36.9698C36.5457 72.0192 36.2019 71.5586 36.2019 70.9904V66.875C36.2019 66.3068 36.5457 65.8462 36.9698 65.8462Z" fill="url(#paint20_linear_3220_32857)"/>
<path d="M61.541 65.8462H50.7911C50.367 65.8462 50.0232 66.3068 50.0232 66.875V70.9904C50.0232 71.5586 50.367 72.0192 50.7911 72.0192H61.541C61.9651 72.0192 62.3088 71.5586 62.3088 70.9904V66.875C62.3088 66.3068 61.9651 65.8462 61.541 65.8462Z" fill="url(#paint21_linear_3220_32857)"/>
<path d="M64.6124 65.8462H75.3623C75.7864 65.8462 76.1301 66.3068 76.1301 66.875V70.9904C76.1301 71.5586 75.7864 72.0192 75.3623 72.0192H64.6124C64.1883 72.0192 63.8445 71.5586 63.8445 70.9904V66.875C63.8445 66.3068 64.1883 65.8462 64.6124 65.8462Z" fill="url(#paint22_linear_3220_32857)"/>
<path d="M89.1836 65.8462H78.4337C78.0096 65.8462 77.6658 66.3068 77.6658 66.875V70.9904C77.6658 71.5586 78.0096 72.0192 78.4337 72.0192H89.1836C89.6077 72.0192 89.9515 71.5586 89.9515 70.9904V66.875C89.9515 66.3068 89.6077 65.8462 89.1836 65.8462Z" fill="url(#paint23_linear_3220_32857)"/>
<path d="M92.255 65.8462H103.005C103.429 65.8462 103.773 66.3068 103.773 66.875V70.9904C103.773 71.5586 103.429 72.0192 103.005 72.0192H92.255C91.8309 72.0192 91.4872 71.5586 91.4872 70.9904V66.875C91.4872 66.3068 91.8309 65.8462 92.255 65.8462Z" fill="url(#paint24_linear_3220_32857)"/>
<path d="M116.826 65.8462H106.076C105.652 65.8462 105.308 66.3068 105.308 66.875V70.9904C105.308 71.5586 105.652 72.0192 106.076 72.0192H116.826C117.25 72.0192 117.594 71.5586 117.594 70.9904V66.875C117.594 66.3068 117.25 65.8462 116.826 65.8462Z" fill="url(#paint25_linear_3220_32857)"/>
<path d="M119.898 65.8462H130.648C131.072 65.8462 131.415 66.3068 131.415 66.875V70.9904C131.415 71.5586 131.072 72.0192 130.648 72.0192H119.898C119.474 72.0192 119.13 71.5586 119.13 70.9904V66.875C119.13 66.3068 119.474 65.8462 119.898 65.8462Z" fill="url(#paint26_linear_3220_32857)"/>
<path d="M144.469 65.8462H133.719C133.295 65.8462 132.951 66.3068 132.951 66.875V70.9904C132.951 71.5586 133.295 72.0192 133.719 72.0192H144.469C144.893 72.0192 145.237 71.5586 145.237 70.9904V66.875C145.237 66.3068 144.893 65.8462 144.469 65.8462Z" fill="url(#paint27_linear_3220_32857)"/>
<path d="M33.8984 57.6154H23.1485C22.7244 57.6154 22.3806 58.076 22.3806 58.6442V62.7596C22.3806 63.3278 22.7244 63.7885 23.1485 63.7885H33.8984C34.3225 63.7885 34.6662 63.3278 34.6662 62.7596V58.6442C34.6662 58.076 34.3225 57.6154 33.8984 57.6154Z" fill="url(#paint28_linear_3220_32857)"/>
<path d="M36.9698 57.6154H47.7197C48.1438 57.6154 48.4875 58.076 48.4875 58.6442V62.7596C48.4875 63.3278 48.1438 63.7885 47.7197 63.7885H36.9698C36.5457 63.7885 36.2019 63.3278 36.2019 62.7596V58.6442C36.2019 58.076 36.5457 57.6154 36.9698 57.6154Z" fill="url(#paint29_linear_3220_32857)"/>
<path d="M61.541 57.6154H50.7911C50.367 57.6154 50.0232 58.076 50.0232 58.6442V62.7596C50.0232 63.3278 50.367 63.7885 50.7911 63.7885H61.541C61.9651 63.7885 62.3088 63.3278 62.3088 62.7596V58.6442C62.3088 58.076 61.9651 57.6154 61.541 57.6154Z" fill="url(#paint30_linear_3220_32857)"/>
<path d="M64.6124 57.6154H75.3623C75.7864 57.6154 76.1301 58.076 76.1301 58.6442V62.7596C76.1301 63.3278 75.7864 63.7885 75.3623 63.7885H64.6124C64.1883 63.7885 63.8445 63.3278 63.8445 62.7596V58.6442C63.8445 58.076 64.1883 57.6154 64.6124 57.6154Z" fill="url(#paint31_linear_3220_32857)"/>
<path d="M89.1836 57.6154H78.4337C78.0096 57.6154 77.6658 58.076 77.6658 58.6442V62.7596C77.6658 63.3278 78.0096 63.7885 78.4337 63.7885H89.1836C89.6077 63.7885 89.9515 63.3278 89.9515 62.7596V58.6442C89.9515 58.076 89.6077 57.6154 89.1836 57.6154Z" fill="url(#paint32_linear_3220_32857)"/>
<path d="M92.255 57.6154H103.005C103.429 57.6154 103.773 58.076 103.773 58.6442V62.7596C103.773 63.3278 103.429 63.7885 103.005 63.7885H92.255C91.8309 63.7885 91.4872 63.3278 91.4872 62.7596V58.6442C91.4872 58.076 91.8309 57.6154 92.255 57.6154Z" fill="url(#paint33_linear_3220_32857)"/>
<path d="M116.826 57.6154H106.076C105.652 57.6154 105.308 58.076 105.308 58.6442V62.7596C105.308 63.3278 105.652 63.7885 106.076 63.7885H116.826C117.25 63.7885 117.594 63.3278 117.594 62.7596V58.6442C117.594 58.076 117.25 57.6154 116.826 57.6154Z" fill="url(#paint34_linear_3220_32857)"/>
<path d="M119.898 57.6154H130.648C131.072 57.6154 131.415 58.076 131.415 58.6442V62.7596C131.415 63.3278 131.072 63.7885 130.648 63.7885H119.898C119.474 63.7885 119.13 63.3278 119.13 62.7596V58.6442C119.13 58.076 119.474 57.6154 119.898 57.6154Z" fill="url(#paint35_linear_3220_32857)"/>
<path d="M144.469 57.6154H133.719C133.295 57.6154 132.951 58.076 132.951 58.6442V62.7596C132.951 63.3278 133.295 63.7885 133.719 63.7885H144.469C144.893 63.7885 145.237 63.3278 145.237 62.7596V58.6442C145.237 58.076 144.893 57.6154 144.469 57.6154Z" fill="url(#paint36_linear_3220_32857)"/>
<path d="M33.8984 49.3846H23.1485C22.7244 49.3846 22.3806 49.8452 22.3806 50.4135V54.5288C22.3806 55.0971 22.7244 55.5577 23.1485 55.5577H33.8984C34.3225 55.5577 34.6662 55.0971 34.6662 54.5288V50.4135C34.6662 49.8452 34.3225 49.3846 33.8984 49.3846Z" fill="url(#paint37_linear_3220_32857)"/>
<path d="M36.9698 49.3846H47.7197C48.1438 49.3846 48.4875 49.8452 48.4875 50.4135V54.5288C48.4875 55.0971 48.1438 55.5577 47.7197 55.5577H36.9698C36.5457 55.5577 36.2019 55.0971 36.2019 54.5288V50.4135C36.2019 49.8452 36.5457 49.3846 36.9698 49.3846Z" fill="url(#paint38_linear_3220_32857)"/>
<path d="M61.541 49.3846H50.7911C50.367 49.3846 50.0232 49.8452 50.0232 50.4135V54.5288C50.0232 55.0971 50.367 55.5577 50.7911 55.5577H61.541C61.9651 55.5577 62.3088 55.0971 62.3088 54.5288V50.4135C62.3088 49.8452 61.9651 49.3846 61.541 49.3846Z" fill="url(#paint39_linear_3220_32857)"/>
<path d="M64.6124 49.3846H75.3623C75.7864 49.3846 76.1301 49.8452 76.1301 50.4135V54.5288C76.1301 55.0971 75.7864 55.5577 75.3623 55.5577H64.6124C64.1883 55.5577 63.8445 55.0971 63.8445 54.5288V50.4135C63.8445 49.8452 64.1883 49.3846 64.6124 49.3846Z" fill="url(#paint40_linear_3220_32857)"/>
<path d="M89.1836 49.3846H78.4337C78.0096 49.3846 77.6658 49.8452 77.6658 50.4135V54.5288C77.6658 55.0971 78.0096 55.5577 78.4337 55.5577H89.1836C89.6077 55.5577 89.9515 55.0971 89.9515 54.5288V50.4135C89.9515 49.8452 89.6077 49.3846 89.1836 49.3846Z" fill="url(#paint41_linear_3220_32857)"/>
<path d="M92.255 49.3846H103.005C103.429 49.3846 103.773 49.8452 103.773 50.4135V54.5288C103.773 55.0971 103.429 55.5577 103.005 55.5577H92.255C91.8309 55.5577 91.4872 55.0971 91.4872 54.5288V50.4135C91.4872 49.8452 91.8309 49.3846 92.255 49.3846Z" fill="url(#paint42_linear_3220_32857)"/>
<path d="M116.826 49.3846H106.076C105.652 49.3846 105.308 49.8452 105.308 50.4135V54.5288C105.308 55.0971 105.652 55.5577 106.076 55.5577H116.826C117.25 55.5577 117.594 55.0971 117.594 54.5288V50.4135C117.594 49.8452 117.25 49.3846 116.826 49.3846Z" fill="url(#paint43_linear_3220_32857)"/>
<path d="M119.898 49.3846H130.648C131.072 49.3846 131.415 49.8452 131.415 50.4135V54.5288C131.415 55.0971 131.072 55.5577 130.648 55.5577H119.898C119.474 55.5577 119.13 55.0971 119.13 54.5288V50.4135C119.13 49.8452 119.474 49.3846 119.898 49.3846Z" fill="url(#paint44_linear_3220_32857)"/>
<path d="M144.469 49.3846H133.719C133.295 49.3846 132.951 49.8452 132.951 50.4135V54.5288C132.951 55.0971 133.295 55.5577 133.719 55.5577H144.469C144.893 55.5577 145.237 55.0971 145.237 54.5288V50.4135C145.237 49.8452 144.893 49.3846 144.469 49.3846Z" fill="url(#paint45_linear_3220_32857)"/>
<path d="M33.8984 41.1538H23.1485C22.7244 41.1538 22.3806 41.6145 22.3806 42.1827V46.2981C22.3806 46.8663 22.7244 47.3269 23.1485 47.3269H33.8984C34.3225 47.3269 34.6662 46.8663 34.6662 46.2981V42.1827C34.6662 41.6145 34.3225 41.1538 33.8984 41.1538Z" fill="url(#paint46_linear_3220_32857)"/>
<path d="M36.9698 41.1538H47.7197C48.1438 41.1538 48.4875 41.6145 48.4875 42.1827V46.2981C48.4875 46.8663 48.1438 47.3269 47.7197 47.3269H36.9698C36.5457 47.3269 36.2019 46.8663 36.2019 46.2981V42.1827C36.2019 41.6145 36.5457 41.1538 36.9698 41.1538Z" fill="url(#paint47_linear_3220_32857)"/>
<path d="M61.541 41.1538H50.7911C50.367 41.1538 50.0232 41.6145 50.0232 42.1827V46.2981C50.0232 46.8663 50.367 47.3269 50.7911 47.3269H61.541C61.9651 47.3269 62.3088 46.8663 62.3088 46.2981V42.1827C62.3088 41.6145 61.9651 41.1538 61.541 41.1538Z" fill="url(#paint48_linear_3220_32857)"/>
<path d="M64.6124 41.1538H75.3623C75.7864 41.1538 76.1301 41.6145 76.1301 42.1827V46.2981C76.1301 46.8663 75.7864 47.3269 75.3623 47.3269H64.6124C64.1883 47.3269 63.8445 46.8663 63.8445 46.2981V42.1827C63.8445 41.6145 64.1883 41.1538 64.6124 41.1538Z" fill="url(#paint49_linear_3220_32857)"/>
<path d="M89.1836 41.1538H78.4337C78.0096 41.1538 77.6658 41.6145 77.6658 42.1827V46.2981C77.6658 46.8663 78.0096 47.3269 78.4337 47.3269H89.1836C89.6077 47.3269 89.9515 46.8663 89.9515 46.2981V42.1827C89.9515 41.6145 89.6077 41.1538 89.1836 41.1538Z" fill="url(#paint50_linear_3220_32857)"/>
<path d="M92.255 41.1538H103.005C103.429 41.1538 103.773 41.6145 103.773 42.1827V46.2981C103.773 46.8663 103.429 47.3269 103.005 47.3269H92.255C91.8309 47.3269 91.4872 46.8663 91.4872 46.2981V42.1827C91.4872 41.6145 91.8309 41.1538 92.255 41.1538Z" fill="url(#paint51_linear_3220_32857)"/>
<path d="M116.826 41.1538H106.076C105.652 41.1538 105.308 41.6145 105.308 42.1827V46.2981C105.308 46.8663 105.652 47.3269 106.076 47.3269H116.826C117.25 47.3269 117.594 46.8663 117.594 46.2981V42.1827C117.594 41.6145 117.25 41.1538 116.826 41.1538Z" fill="url(#paint52_linear_3220_32857)"/>
<path d="M119.898 41.1538H130.648C131.072 41.1538 131.415 41.6145 131.415 42.1827V46.2981C131.415 46.8663 131.072 47.3269 130.648 47.3269H119.898C119.474 47.3269 119.13 46.8663 119.13 46.2981V42.1827C119.13 41.6145 119.474 41.1538 119.898 41.1538Z" fill="url(#paint53_linear_3220_32857)"/>
<path d="M144.469 41.1538H133.719C133.295 41.1538 132.951 41.6145 132.951 42.1827V46.2981C132.951 46.8663 133.295 47.3269 133.719 47.3269H144.469C144.893 47.3269 145.237 46.8663 145.237 46.2981V42.1827C145.237 41.6145 144.893 41.1538 144.469 41.1538Z" fill="url(#paint54_linear_3220_32857)"/>
<path d="M33.8984 32.9231H23.1485C22.7244 32.9231 22.3806 33.3837 22.3806 33.9519V38.0673C22.3806 38.6355 22.7244 39.0962 23.1485 39.0962H33.8984C34.3225 39.0962 34.6662 38.6355 34.6662 38.0673V33.9519C34.6662 33.3837 34.3225 32.9231 33.8984 32.9231Z" fill="url(#paint55_linear_3220_32857)"/>
<path d="M36.9698 32.9231H47.7197C48.1438 32.9231 48.4875 33.3837 48.4875 33.9519V38.0673C48.4875 38.6355 48.1438 39.0962 47.7197 39.0962H36.9698C36.5457 39.0962 36.2019 38.6355 36.2019 38.0673V33.9519C36.2019 33.3837 36.5457 32.9231 36.9698 32.9231Z" fill="url(#paint56_linear_3220_32857)"/>
<path d="M61.541 32.9231H50.7911C50.367 32.9231 50.0232 33.3837 50.0232 33.9519V38.0673C50.0232 38.6355 50.367 39.0962 50.7911 39.0962H61.541C61.9651 39.0962 62.3088 38.6355 62.3088 38.0673V33.9519C62.3088 33.3837 61.9651 32.9231 61.541 32.9231Z" fill="url(#paint57_linear_3220_32857)"/>
<path d="M64.6124 32.9231H75.3623C75.7864 32.9231 76.1301 33.3837 76.1301 33.9519V38.0673C76.1301 38.6355 75.7864 39.0962 75.3623 39.0962H64.6124C64.1883 39.0962 63.8445 38.6355 63.8445 38.0673V33.9519C63.8445 33.3837 64.1883 32.9231 64.6124 32.9231Z" fill="url(#paint58_linear_3220_32857)"/>
<path d="M89.1836 32.9231H78.4337C78.0096 32.9231 77.6658 33.3837 77.6658 33.9519V38.0673C77.6658 38.6355 78.0096 39.0962 78.4337 39.0962H89.1836C89.6077 39.0962 89.9515 38.6355 89.9515 38.0673V33.9519C89.9515 33.3837 89.6077 32.9231 89.1836 32.9231Z" fill="url(#paint59_linear_3220_32857)"/>
<path d="M92.255 32.9231H103.005C103.429 32.9231 103.773 33.3837 103.773 33.9519V38.0673C103.773 38.6355 103.429 39.0962 103.005 39.0962H92.255C91.8309 39.0962 91.4872 38.6355 91.4872 38.0673V33.9519C91.4872 33.3837 91.8309 32.9231 92.255 32.9231Z" fill="url(#paint60_linear_3220_32857)"/>
<path d="M116.826 32.9231H106.076C105.652 32.9231 105.308 33.3837 105.308 33.9519V38.0673C105.308 38.6355 105.652 39.0962 106.076 39.0962H116.826C117.25 39.0962 117.594 38.6355 117.594 38.0673V33.9519C117.594 33.3837 117.25 32.9231 116.826 32.9231Z" fill="url(#paint61_linear_3220_32857)"/>
<path d="M119.898 32.9231H130.648C131.072 32.9231 131.415 33.3837 131.415 33.9519V38.0673C131.415 38.6355 131.072 39.0962 130.648 39.0962H119.898C119.474 39.0962 119.13 38.6355 119.13 38.0673V33.9519C119.13 33.3837 119.474 32.9231 119.898 32.9231Z" fill="url(#paint62_linear_3220_32857)"/>
<path d="M144.469 32.9231H133.719C133.295 32.9231 132.951 33.3837 132.951 33.9519V38.0673C132.951 38.6355 133.295 39.0962 133.719 39.0962H144.469C144.893 39.0962 145.237 38.6355 145.237 38.0673V33.9519C145.237 33.3837 144.893 32.9231 144.469 32.9231Z" fill="url(#paint63_linear_3220_32857)"/>
<path d="M33.8984 24.6923H23.1485C22.7244 24.6923 22.3806 25.1529 22.3806 25.7212V29.8365C22.3806 30.4048 22.7244 30.8654 23.1485 30.8654H33.8984C34.3225 30.8654 34.6662 30.4048 34.6662 29.8365V25.7212C34.6662 25.1529 34.3225 24.6923 33.8984 24.6923Z" fill="url(#paint64_linear_3220_32857)"/>
<path d="M36.9698 24.6923H47.7197C48.1438 24.6923 48.4875 25.1529 48.4875 25.7212V29.8365C48.4875 30.4048 48.1438 30.8654 47.7197 30.8654H36.9698C36.5457 30.8654 36.2019 30.4048 36.2019 29.8365V25.7212C36.2019 25.1529 36.5457 24.6923 36.9698 24.6923Z" fill="url(#paint65_linear_3220_32857)"/>
<path d="M61.541 24.6923H50.7911C50.367 24.6923 50.0232 25.1529 50.0232 25.7212V29.8365C50.0232 30.4048 50.367 30.8654 50.7911 30.8654H61.541C61.9651 30.8654 62.3088 30.4048 62.3088 29.8365V25.7212C62.3088 25.1529 61.9651 24.6923 61.541 24.6923Z" fill="url(#paint66_linear_3220_32857)"/>
<path d="M64.6124 24.6923H75.3623C75.7864 24.6923 76.1301 25.1529 76.1301 25.7212V29.8365C76.1301 30.4048 75.7864 30.8654 75.3623 30.8654H64.6124C64.1883 30.8654 63.8445 30.4048 63.8445 29.8365V25.7212C63.8445 25.1529 64.1883 24.6923 64.6124 24.6923Z" fill="url(#paint67_linear_3220_32857)"/>
<path d="M89.1836 24.6923H78.4337C78.0096 24.6923 77.6658 25.1529 77.6658 25.7212V29.8365C77.6658 30.4048 78.0096 30.8654 78.4337 30.8654H89.1836C89.6077 30.8654 89.9515 30.4048 89.9515 29.8365V25.7212C89.9515 25.1529 89.6077 24.6923 89.1836 24.6923Z" fill="url(#paint68_linear_3220_32857)"/>
<path d="M92.255 24.6923H103.005C103.429 24.6923 103.773 25.1529 103.773 25.7212V29.8365C103.773 30.4048 103.429 30.8654 103.005 30.8654H92.255C91.8309 30.8654 91.4872 30.4048 91.4872 29.8365V25.7212C91.4872 25.1529 91.8309 24.6923 92.255 24.6923Z" fill="url(#paint69_linear_3220_32857)"/>
<path d="M116.826 24.6923H106.076C105.652 24.6923 105.308 25.1529 105.308 25.7212V29.8365C105.308 30.4048 105.652 30.8654 106.076 30.8654H116.826C117.25 30.8654 117.594 30.4048 117.594 29.8365V25.7212C117.594 25.1529 117.25 24.6923 116.826 24.6923Z" fill="url(#paint70_linear_3220_32857)"/>
<path d="M119.898 24.6923H130.648C131.072 24.6923 131.415 25.1529 131.415 25.7212V29.8365C131.415 30.4048 131.072 30.8654 130.648 30.8654H119.898C119.474 30.8654 119.13 30.4048 119.13 29.8365V25.7212C119.13 25.1529 119.474 24.6923 119.898 24.6923Z" fill="url(#paint71_linear_3220_32857)"/>
<path d="M144.469 24.6923H133.719C133.295 24.6923 132.951 25.1529 132.951 25.7212V29.8365C132.951 30.4048 133.295 30.8654 133.719 30.8654H144.469C144.893 30.8654 145.237 30.4048 145.237 29.8365V25.7212C145.237 25.1529 144.893 24.6923 144.469 24.6923Z" fill="url(#paint72_linear_3220_32857)"/>
<path d="M33.8984 16.4615H23.1485C22.7244 16.4615 22.3806 16.9222 22.3806 17.4904V21.6058C22.3806 22.174 22.7244 22.6346 23.1485 22.6346H33.8984C34.3225 22.6346 34.6662 22.174 34.6662 21.6058V17.4904C34.6662 16.9222 34.3225 16.4615 33.8984 16.4615Z" fill="url(#paint73_linear_3220_32857)"/>
<path d="M36.9698 16.4615H47.7197C48.1438 16.4615 48.4875 16.9222 48.4875 17.4904V21.6058C48.4875 22.174 48.1438 22.6346 47.7197 22.6346H36.9698C36.5457 22.6346 36.2019 22.174 36.2019 21.6058V17.4904C36.2019 16.9222 36.5457 16.4615 36.9698 16.4615Z" fill="url(#paint74_linear_3220_32857)"/>
<path d="M61.541 16.4615H50.7911C50.367 16.4615 50.0232 16.9222 50.0232 17.4904V21.6058C50.0232 22.174 50.367 22.6346 50.7911 22.6346H61.541C61.9651 22.6346 62.3088 22.174 62.3088 21.6058V17.4904C62.3088 16.9222 61.9651 16.4615 61.541 16.4615Z" fill="url(#paint75_linear_3220_32857)"/>
<path d="M64.6124 16.4615H75.3623C75.7864 16.4615 76.1301 16.9222 76.1301 17.4904V21.6058C76.1301 22.174 75.7864 22.6346 75.3623 22.6346H64.6124C64.1883 22.6346 63.8445 22.174 63.8445 21.6058V17.4904C63.8445 16.9222 64.1883 16.4615 64.6124 16.4615Z" fill="url(#paint76_linear_3220_32857)"/>
<path d="M89.1836 16.4615H78.4337C78.0096 16.4615 77.6658 16.9222 77.6658 17.4904V21.6058C77.6658 22.174 78.0096 22.6346 78.4337 22.6346H89.1836C89.6077 22.6346 89.9515 22.174 89.9515 21.6058V17.4904C89.9515 16.9222 89.6077 16.4615 89.1836 16.4615Z" fill="url(#paint77_linear_3220_32857)"/>
<path d="M92.255 16.4615H103.005C103.429 16.4615 103.773 16.9222 103.773 17.4904V21.6058C103.773 22.174 103.429 22.6346 103.005 22.6346H92.255C91.8309 22.6346 91.4872 22.174 91.4872 21.6058V17.4904C91.4872 16.9222 91.8309 16.4615 92.255 16.4615Z" fill="url(#paint78_linear_3220_32857)"/>
<path d="M116.826 16.4615H106.076C105.652 16.4615 105.308 16.9222 105.308 17.4904V21.6058C105.308 22.174 105.652 22.6346 106.076 22.6346H116.826C117.25 22.6346 117.594 22.174 117.594 21.6058V17.4904C117.594 16.9222 117.25 16.4615 116.826 16.4615Z" fill="url(#paint79_linear_3220_32857)"/>
<path d="M119.898 16.4615H130.648C131.072 16.4615 131.415 16.9222 131.415 17.4904V21.6058C131.415 22.174 131.072 22.6346 130.648 22.6346H119.898C119.474 22.6346 119.13 22.174 119.13 21.6058V17.4904C119.13 16.9222 119.474 16.4615 119.898 16.4615Z" fill="url(#paint80_linear_3220_32857)"/>
<path d="M144.469 16.4615H133.719C133.295 16.4615 132.951 16.9222 132.951 17.4904V21.6058C132.951 22.174 133.295 22.6346 133.719 22.6346H144.469C144.893 22.6346 145.237 22.174 145.237 21.6058V17.4904C145.237 16.9222 144.893 16.4615 144.469 16.4615Z" fill="url(#paint81_linear_3220_32857)"/>
<path d="M33.8984 8.23077H23.1485C22.7244 8.23077 22.3806 8.6914 22.3806 9.25961V13.375C22.3806 13.9432 22.7244 14.4038 23.1485 14.4038H33.8984C34.3225 14.4038 34.6662 13.9432 34.6662 13.375V9.25961C34.6662 8.6914 34.3225 8.23077 33.8984 8.23077Z" fill="url(#paint82_linear_3220_32857)"/>
<path d="M36.9698 8.23077H47.7197C48.1438 8.23077 48.4875 8.6914 48.4875 9.25961V13.375C48.4875 13.9432 48.1438 14.4038 47.7197 14.4038H36.9698C36.5457 14.4038 36.2019 13.9432 36.2019 13.375V9.25961C36.2019 8.6914 36.5457 8.23077 36.9698 8.23077Z" fill="url(#paint83_linear_3220_32857)"/>
<path d="M61.541 8.23077H50.7911C50.367 8.23077 50.0232 8.6914 50.0232 9.25961V13.375C50.0232 13.9432 50.367 14.4038 50.7911 14.4038H61.541C61.9651 14.4038 62.3088 13.9432 62.3088 13.375V9.25961C62.3088 8.6914 61.9651 8.23077 61.541 8.23077Z" fill="url(#paint84_linear_3220_32857)"/>
<path d="M64.6124 8.23077H75.3623C75.7864 8.23077 76.1301 8.6914 76.1301 9.25961V13.375C76.1301 13.9432 75.7864 14.4038 75.3623 14.4038H64.6124C64.1883 14.4038 63.8445 13.9432 63.8445 13.375V9.25961C63.8445 8.6914 64.1883 8.23077 64.6124 8.23077Z" fill="url(#paint85_linear_3220_32857)"/>
<path d="M89.1836 8.23077H78.4337C78.0096 8.23077 77.6658 8.6914 77.6658 9.25961V13.375C77.6658 13.9432 78.0096 14.4038 78.4337 14.4038H89.1836C89.6077 14.4038 89.9515 13.9432 89.9515 13.375V9.25961C89.9515 8.6914 89.6077 8.23077 89.1836 8.23077Z" fill="url(#paint86_linear_3220_32857)"/>
<path d="M92.255 8.23077H103.005C103.429 8.23077 103.773 8.6914 103.773 9.25961V13.375C103.773 13.9432 103.429 14.4038 103.005 14.4038H92.255C91.8309 14.4038 91.4872 13.9432 91.4872 13.375V9.25961C91.4872 8.6914 91.8309 8.23077 92.255 8.23077Z" fill="url(#paint87_linear_3220_32857)"/>
<path d="M116.826 8.23077H106.076C105.652 8.23077 105.308 8.6914 105.308 9.25961V13.375C105.308 13.9432 105.652 14.4038 106.076 14.4038H116.826C117.25 14.4038 117.594 13.9432 117.594 13.375V9.25961C117.594 8.6914 117.25 8.23077 116.826 8.23077Z" fill="url(#paint88_linear_3220_32857)"/>
<path d="M119.898 8.23077H130.648C131.072 8.23077 131.415 8.6914 131.415 9.25961V13.375C131.415 13.9432 131.072 14.4038 130.648 14.4038H119.898C119.474 14.4038 119.13 13.9432 119.13 13.375V9.25961C119.13 8.6914 119.474 8.23077 119.898 8.23077Z" fill="url(#paint89_linear_3220_32857)"/>
<path d="M144.469 8.23077H133.719C133.295 8.23077 132.951 8.6914 132.951 9.25961V13.375C132.951 13.9432 133.295 14.4038 133.719 14.4038H144.469C144.893 14.4038 145.237 13.9432 145.237 13.375V9.25961C145.237 8.6914 144.893 8.23077 144.469 8.23077Z" fill="url(#paint90_linear_3220_32857)"/>
<path d="M33.8984 0H23.1485C22.7244 0 22.3806 0.46063 22.3806 1.02885V5.14423C22.3806 5.71245 22.7244 6.17308 23.1485 6.17308H33.8984C34.3225 6.17308 34.6662 5.71245 34.6662 5.14423V1.02885C34.6662 0.46063 34.3225 0 33.8984 0Z" fill="url(#paint91_linear_3220_32857)"/>
<path d="M36.9698 0H47.7197C48.1438 0 48.4875 0.46063 48.4875 1.02885V5.14423C48.4875 5.71245 48.1438 6.17308 47.7197 6.17308H36.9698C36.5457 6.17308 36.2019 5.71245 36.2019 5.14423V1.02885C36.2019 0.46063 36.5457 0 36.9698 0Z" fill="url(#paint92_linear_3220_32857)"/>
<path d="M61.541 0H50.7911C50.367 0 50.0232 0.46063 50.0232 1.02885V5.14423C50.0232 5.71245 50.367 6.17308 50.7911 6.17308H61.541C61.9651 6.17308 62.3088 5.71245 62.3088 5.14423V1.02885C62.3088 0.46063 61.9651 0 61.541 0Z" fill="url(#paint93_linear_3220_32857)"/>
<path d="M64.6124 0H75.3623C75.7864 0 76.1301 0.46063 76.1301 1.02885V5.14423C76.1301 5.71245 75.7864 6.17308 75.3623 6.17308H64.6124C64.1883 6.17308 63.8445 5.71245 63.8445 5.14423V1.02885C63.8445 0.46063 64.1883 0 64.6124 0Z" fill="url(#paint94_linear_3220_32857)"/>
<path d="M89.1836 0H78.4337C78.0096 0 77.6658 0.46063 77.6658 1.02885V5.14423C77.6658 5.71245 78.0096 6.17308 78.4337 6.17308H89.1836C89.6077 6.17308 89.9515 5.71245 89.9515 5.14423V1.02885C89.9515 0.46063 89.6077 0 89.1836 0Z" fill="url(#paint95_linear_3220_32857)"/>
<path d="M92.255 0H103.005C103.429 0 103.773 0.46063 103.773 1.02885V5.14423C103.773 5.71245 103.429 6.17308 103.005 6.17308H92.255C91.8309 6.17308 91.4872 5.71245 91.4872 5.14423V1.02885C91.4872 0.46063 91.8309 0 92.255 0Z" fill="url(#paint96_linear_3220_32857)"/>
<path d="M116.826 0H106.076C105.652 0 105.308 0.46063 105.308 1.02885V5.14423C105.308 5.71245 105.652 6.17308 106.076 6.17308H116.826C117.25 6.17308 117.594 5.71245 117.594 5.14423V1.02885C117.594 0.46063 117.25 0 116.826 0Z" fill="url(#paint97_linear_3220_32857)"/>
<path d="M119.898 0H130.648C131.072 0 131.415 0.46063 131.415 1.02885V5.14423C131.415 5.71245 131.072 6.17308 130.648 6.17308H119.898C119.474 6.17308 119.13 5.71245 119.13 5.14423V1.02885C119.13 0.46063 119.474 0 119.898 0Z" fill="url(#paint98_linear_3220_32857)"/>
<path d="M144.469 0H133.719C133.295 0 132.951 0.46063 132.951 1.02885V5.14423C132.951 5.71245 133.295 6.17308 133.719 6.17308H144.469C144.893 6.17308 145.237 5.71245 145.237 5.14423V1.02885C145.237 0.46063 144.893 0 144.469 0Z" fill="url(#paint99_linear_3220_32857)"/>
</g>
<g filter="url(#filter0_d_3220_32857)">
<path d="M137.915 12.328C120.502 3.49293 125.674 49.5509 100.798 42.5984C94.9419 40.9616 91.9549 64.148 83.9979 64.148C76.041 64.148 71.1193 65.0315 65.8146 65.0315C60.51 65.0315 54.3213 76.517 44.5961 76.517C40.0218 76.517 32.5591 64.148 26.7548 64.148C20.9504 64.148 15.7269 76.9666 11.0001 72.2429" stroke="url(#paint100_linear_3220_32857)" stroke-width="2" stroke-linecap="round" stroke-linejoin="round"/>
</g>
<g filter="url(#filter1_f_3220_32857)">
<ellipse cx="15.4987" cy="21.394" rx="15.4987" ry="21.394" transform="matrix(0.997835 0.0657712 -0.977755 0.209751 121.629 31.9688)" fill="url(#paint101_linear_3220_32857)"/>
</g>
<defs>
<filter id="filter0_d_3220_32857" x="0" y="10.1973" width="148.915" height="87.3193" filterUnits="userSpaceOnUse" color-interpolation-filters="sRGB">
<feFlood flood-opacity="0" result="BackgroundImageFix"/>
<feColorMatrix in="SourceAlpha" type="matrix" values="0 0 0 0 0 0 0 0 0 0 0 0 0 0 0 0 0 0 127 0" result="hardAlpha"/>
<feOffset dy="10"/>
<feGaussianBlur stdDeviation="5"/>
<feColorMatrix type="matrix" values="0 0 0 0 0.0456816 0 0 0 0 0.0410428 0 0 0 0 0.12686 0 0 0 0.54362 0"/>
<feBlend mode="normal" in2="BackgroundImageFix" result="effect1_dropShadow_3220_32857"/>
<feBlend mode="normal" in="SourceGraphic" in2="effect1_dropShadow_3220_32857" result="shape"/>
</filter>
<filter id="filter1_f_3220_32857" x="49.0373" y="-8.25007" width="134.278" height="91.4513" filterUnits="userSpaceOnUse" color-interpolation-filters="sRGB">
<feFlood flood-opacity="0" result="BackgroundImageFix"/>
<feBlend mode="normal" in="SourceGraphic" in2="BackgroundImageFix" result="shape"/>
<feGaussianBlur stdDeviation="20.5616" result="effect1_foregroundBlur_3220_32857"/>
</filter>
<linearGradient id="paint0_linear_3220_32857" x1="76.898" y1="0" x2="76.898" y2="80.25" gradientUnits="userSpaceOnUse">
<stop stop-color="#009D8D" stop-opacity="0.2"/>
<stop offset="1" stop-color="#101828" stop-opacity="0.5"/>
</linearGradient>
<linearGradient id="paint1_linear_3220_32857" x1="76.898" y1="0" x2="76.898" y2="80.25" gradientUnits="userSpaceOnUse">
<stop stop-color="#009D8D" stop-opacity="0.2"/>
<stop offset="1" stop-color="#101828" stop-opacity="0.5"/>
</linearGradient>
<linearGradient id="paint2_linear_3220_32857" x1="76.898" y1="0" x2="76.898" y2="80.25" gradientUnits="userSpaceOnUse">
<stop stop-color="#009D8D" stop-opacity="0.2"/>
<stop offset="1" stop-color="#101828" stop-opacity="0.5"/>
</linearGradient>
<linearGradient id="paint3_linear_3220_32857" x1="76.898" y1="0" x2="76.898" y2="80.25" gradientUnits="userSpaceOnUse">
<stop stop-color="#009D8D" stop-opacity="0.2"/>
<stop offset="1" stop-color="#101828" stop-opacity="0.5"/>
</linearGradient>
<linearGradient id="paint4_linear_3220_32857" x1="76.898" y1="0" x2="76.898" y2="80.25" gradientUnits="userSpaceOnUse">
<stop stop-color="#009D8D" stop-opacity="0.2"/>
<stop offset="1" stop-color="#101828" stop-opacity="0.5"/>
</linearGradient>
<linearGradient id="paint5_linear_3220_32857" x1="76.898" y1="0" x2="76.898" y2="80.25" gradientUnits="userSpaceOnUse">
<stop stop-color="#009D8D" stop-opacity="0.2"/>
<stop offset="1" stop-color="#101828" stop-opacity="0.5"/>
</linearGradient>
<linearGradient id="paint6_linear_3220_32857" x1="76.898" y1="0" x2="76.898" y2="80.25" gradientUnits="userSpaceOnUse">
<stop stop-color="#009D8D" stop-opacity="0.2"/>
<stop offset="1" stop-color="#101828" stop-opacity="0.5"/>
</linearGradient>
<linearGradient id="paint7_linear_3220_32857" x1="76.898" y1="0" x2="76.898" y2="80.25" gradientUnits="userSpaceOnUse">
<stop stop-color="#009D8D" stop-opacity="0.2"/>
<stop offset="1" stop-color="#101828" stop-opacity="0.5"/>
</linearGradient>
<linearGradient id="paint8_linear_3220_32857" x1="76.898" y1="0" x2="76.898" y2="80.25" gradientUnits="userSpaceOnUse">
<stop stop-color="#009D8D" stop-opacity="0.2"/>
<stop offset="1" stop-color="#101828" stop-opacity="0.5"/>
</linearGradient>
<linearGradient id="paint9_linear_3220_32857" x1="76.898" y1="0" x2="76.898" y2="80.25" gradientUnits="userSpaceOnUse">
<stop stop-color="#009D8D" stop-opacity="0.2"/>
<stop offset="1" stop-color="#101828" stop-opacity="0.5"/>
</linearGradient>
<linearGradient id="paint10_linear_3220_32857" x1="76.898" y1="0" x2="76.898" y2="80.25" gradientUnits="userSpaceOnUse">
<stop stop-color="#009D8D" stop-opacity="0.2"/>
<stop offset="1" stop-color="#101828" stop-opacity="0.5"/>
</linearGradient>
<linearGradient id="paint11_linear_3220_32857" x1="76.898" y1="0" x2="76.898" y2="80.25" gradientUnits="userSpaceOnUse">
<stop stop-color="#009D8D" stop-opacity="0.2"/>
<stop offset="1" stop-color="#101828" stop-opacity="0.5"/>
</linearGradient>
<linearGradient id="paint12_linear_3220_32857" x1="76.898" y1="0" x2="76.898" y2="80.25" gradientUnits="userSpaceOnUse">
<stop stop-color="#009D8D" stop-opacity="0.2"/>
<stop offset="1" stop-color="#101828" stop-opacity="0.5"/>
</linearGradient>
<linearGradient id="paint13_linear_3220_32857" x1="76.898" y1="0" x2="76.898" y2="80.25" gradientUnits="userSpaceOnUse">
<stop stop-color="#009D8D" stop-opacity="0.2"/>
<stop offset="1" stop-color="#101828" stop-opacity="0.5"/>
</linearGradient>
<linearGradient id="paint14_linear_3220_32857" x1="76.898" y1="0" x2="76.898" y2="80.25" gradientUnits="userSpaceOnUse">
<stop stop-color="#009D8D" stop-opacity="0.2"/>
<stop offset="1" stop-color="#101828" stop-opacity="0.5"/>
</linearGradient>
<linearGradient id="paint15_linear_3220_32857" x1="76.898" y1="0" x2="76.898" y2="80.25" gradientUnits="userSpaceOnUse">
<stop stop-color="#009D8D" stop-opacity="0.2"/>
<stop offset="1" stop-color="#101828" stop-opacity="0.5"/>
</linearGradient>
<linearGradient id="paint16_linear_3220_32857" x1="76.898" y1="0" x2="76.898" y2="80.25" gradientUnits="userSpaceOnUse">
<stop stop-color="#009D8D" stop-opacity="0.2"/>
<stop offset="1" stop-color="#101828" stop-opacity="0.5"/>
</linearGradient>
<linearGradient id="paint17_linear_3220_32857" x1="76.898" y1="0" x2="76.898" y2="80.25" gradientUnits="userSpaceOnUse">
<stop stop-color="#009D8D" stop-opacity="0.2"/>
<stop offset="1" stop-color="#101828" stop-opacity="0.5"/>
</linearGradient>
<linearGradient id="paint18_linear_3220_32857" x1="76.898" y1="0" x2="76.898" y2="80.25" gradientUnits="userSpaceOnUse">
<stop stop-color="#009D8D" stop-opacity="0.2"/>
<stop offset="1" stop-color="#101828" stop-opacity="0.5"/>
</linearGradient>
<linearGradient id="paint19_linear_3220_32857" x1="76.898" y1="0" x2="76.898" y2="80.25" gradientUnits="userSpaceOnUse">
<stop stop-color="#009D8D" stop-opacity="0.2"/>
<stop offset="1" stop-color="#101828" stop-opacity="0.5"/>
</linearGradient>
<linearGradient id="paint20_linear_3220_32857" x1="76.898" y1="0" x2="76.898" y2="80.25" gradientUnits="userSpaceOnUse">
<stop stop-color="#009D8D" stop-opacity="0.2"/>
<stop offset="1" stop-color="#101828" stop-opacity="0.5"/>
</linearGradient>
<linearGradient id="paint21_linear_3220_32857" x1="76.898" y1="0" x2="76.898" y2="80.25" gradientUnits="userSpaceOnUse">
<stop stop-color="#009D8D" stop-opacity="0.2"/>
<stop offset="1" stop-color="#101828" stop-opacity="0.5"/>
</linearGradient>
<linearGradient id="paint22_linear_3220_32857" x1="76.898" y1="0" x2="76.898" y2="80.25" gradientUnits="userSpaceOnUse">
<stop stop-color="#009D8D" stop-opacity="0.2"/>
<stop offset="1" stop-color="#101828" stop-opacity="0.5"/>
</linearGradient>
<linearGradient id="paint23_linear_3220_32857" x1="76.898" y1="0" x2="76.898" y2="80.25" gradientUnits="userSpaceOnUse">
<stop stop-color="#009D8D" stop-opacity="0.2"/>
<stop offset="1" stop-color="#101828" stop-opacity="0.5"/>
</linearGradient>
<linearGradient id="paint24_linear_3220_32857" x1="76.898" y1="0" x2="76.898" y2="80.25" gradientUnits="userSpaceOnUse">
<stop stop-color="#009D8D" stop-opacity="0.2"/>
<stop offset="1" stop-color="#101828" stop-opacity="0.5"/>
</linearGradient>
<linearGradient id="paint25_linear_3220_32857" x1="76.898" y1="0" x2="76.898" y2="80.25" gradientUnits="userSpaceOnUse">
<stop stop-color="#009D8D" stop-opacity="0.2"/>
<stop offset="1" stop-color="#101828" stop-opacity="0.5"/>
</linearGradient>
<linearGradient id="paint26_linear_3220_32857" x1="76.898" y1="0" x2="76.898" y2="80.25" gradientUnits="userSpaceOnUse">
<stop stop-color="#009D8D" stop-opacity="0.2"/>
<stop offset="1" stop-color="#101828" stop-opacity="0.5"/>
</linearGradient>
<linearGradient id="paint27_linear_3220_32857" x1="76.898" y1="0" x2="76.898" y2="80.25" gradientUnits="userSpaceOnUse">
<stop stop-color="#009D8D" stop-opacity="0.2"/>
<stop offset="1" stop-color="#101828" stop-opacity="0.5"/>
</linearGradient>
<linearGradient id="paint28_linear_3220_32857" x1="76.898" y1="0" x2="76.898" y2="80.25" gradientUnits="userSpaceOnUse">
<stop stop-color="#009D8D" stop-opacity="0.2"/>
<stop offset="1" stop-color="#101828" stop-opacity="0.5"/>
</linearGradient>
<linearGradient id="paint29_linear_3220_32857" x1="76.898" y1="0" x2="76.898" y2="80.25" gradientUnits="userSpaceOnUse">
<stop stop-color="#009D8D" stop-opacity="0.2"/>
<stop offset="1" stop-color="#101828" stop-opacity="0.5"/>
</linearGradient>
<linearGradient id="paint30_linear_3220_32857" x1="76.898" y1="0" x2="76.898" y2="80.25" gradientUnits="userSpaceOnUse">
<stop stop-color="#009D8D" stop-opacity="0.2"/>
<stop offset="1" stop-color="#101828" stop-opacity="0.5"/>
</linearGradient>
<linearGradient id="paint31_linear_3220_32857" x1="76.898" y1="0" x2="76.898" y2="80.25" gradientUnits="userSpaceOnUse">
<stop stop-color="#009D8D" stop-opacity="0.2"/>
<stop offset="1" stop-color="#101828" stop-opacity="0.5"/>
</linearGradient>
<linearGradient id="paint32_linear_3220_32857" x1="76.898" y1="0" x2="76.898" y2="80.25" gradientUnits="userSpaceOnUse">
<stop stop-color="#009D8D" stop-opacity="0.2"/>
<stop offset="1" stop-color="#101828" stop-opacity="0.5"/>
</linearGradient>
<linearGradient id="paint33_linear_3220_32857" x1="76.898" y1="0" x2="76.898" y2="80.25" gradientUnits="userSpaceOnUse">
<stop stop-color="#009D8D" stop-opacity="0.2"/>
<stop offset="1" stop-color="#101828" stop-opacity="0.5"/>
</linearGradient>
<linearGradient id="paint34_linear_3220_32857" x1="76.898" y1="0" x2="76.898" y2="80.25" gradientUnits="userSpaceOnUse">
<stop stop-color="#009D8D" stop-opacity="0.2"/>
<stop offset="1" stop-color="#101828" stop-opacity="0.5"/>
</linearGradient>
<linearGradient id="paint35_linear_3220_32857" x1="76.898" y1="0" x2="76.898" y2="80.25" gradientUnits="userSpaceOnUse">
<stop stop-color="#009D8D" stop-opacity="0.2"/>
<stop offset="1" stop-color="#101828" stop-opacity="0.5"/>
</linearGradient>
<linearGradient id="paint36_linear_3220_32857" x1="76.898" y1="0" x2="76.898" y2="80.25" gradientUnits="userSpaceOnUse">
<stop stop-color="#009D8D" stop-opacity="0.2"/>
<stop offset="1" stop-color="#101828" stop-opacity="0.5"/>
</linearGradient>
<linearGradient id="paint37_linear_3220_32857" x1="76.898" y1="0" x2="76.898" y2="80.25" gradientUnits="userSpaceOnUse">
<stop stop-color="#009D8D" stop-opacity="0.2"/>
<stop offset="1" stop-color="#101828" stop-opacity="0.5"/>
</linearGradient>
<linearGradient id="paint38_linear_3220_32857" x1="76.898" y1="0" x2="76.898" y2="80.25" gradientUnits="userSpaceOnUse">
<stop stop-color="#009D8D" stop-opacity="0.2"/>
<stop offset="1" stop-color="#101828" stop-opacity="0.5"/>
</linearGradient>
<linearGradient id="paint39_linear_3220_32857" x1="76.898" y1="0" x2="76.898" y2="80.25" gradientUnits="userSpaceOnUse">
<stop stop-color="#009D8D" stop-opacity="0.2"/>
<stop offset="1" stop-color="#101828" stop-opacity="0.5"/>
</linearGradient>
<linearGradient id="paint40_linear_3220_32857" x1="76.898" y1="0" x2="76.898" y2="80.25" gradientUnits="userSpaceOnUse">
<stop stop-color="#009D8D" stop-opacity="0.2"/>
<stop offset="1" stop-color="#101828" stop-opacity="0.5"/>
</linearGradient>
<linearGradient id="paint41_linear_3220_32857" x1="76.898" y1="0" x2="76.898" y2="80.25" gradientUnits="userSpaceOnUse">
<stop stop-color="#009D8D" stop-opacity="0.2"/>
<stop offset="1" stop-color="#101828" stop-opacity="0.5"/>
</linearGradient>
<linearGradient id="paint42_linear_3220_32857" x1="76.898" y1="0" x2="76.898" y2="80.25" gradientUnits="userSpaceOnUse">
<stop stop-color="#009D8D" stop-opacity="0.2"/>
<stop offset="1" stop-color="#101828" stop-opacity="0.5"/>
</linearGradient>
<linearGradient id="paint43_linear_3220_32857" x1="76.898" y1="0" x2="76.898" y2="80.25" gradientUnits="userSpaceOnUse">
<stop stop-color="#009D8D" stop-opacity="0.2"/>
<stop offset="1" stop-color="#101828" stop-opacity="0.5"/>
</linearGradient>
<linearGradient id="paint44_linear_3220_32857" x1="76.898" y1="0" x2="76.898" y2="80.25" gradientUnits="userSpaceOnUse">
<stop stop-color="#009D8D" stop-opacity="0.2"/>
<stop offset="1" stop-color="#101828" stop-opacity="0.5"/>
</linearGradient>
<linearGradient id="paint45_linear_3220_32857" x1="76.898" y1="0" x2="76.898" y2="80.25" gradientUnits="userSpaceOnUse">
<stop stop-color="#009D8D" stop-opacity="0.2"/>
<stop offset="1" stop-color="#101828" stop-opacity="0.5"/>
</linearGradient>
<linearGradient id="paint46_linear_3220_32857" x1="76.898" y1="0" x2="76.898" y2="80.25" gradientUnits="userSpaceOnUse">
<stop stop-color="#009D8D" stop-opacity="0.2"/>
<stop offset="1" stop-color="#101828" stop-opacity="0.5"/>
</linearGradient>
<linearGradient id="paint47_linear_3220_32857" x1="76.898" y1="0" x2="76.898" y2="80.25" gradientUnits="userSpaceOnUse">
<stop stop-color="#009D8D" stop-opacity="0.2"/>
<stop offset="1" stop-color="#101828" stop-opacity="0.5"/>
</linearGradient>
<linearGradient id="paint48_linear_3220_32857" x1="76.898" y1="0" x2="76.898" y2="80.25" gradientUnits="userSpaceOnUse">
<stop stop-color="#009D8D" stop-opacity="0.2"/>
<stop offset="1" stop-color="#101828" stop-opacity="0.5"/>
</linearGradient>
<linearGradient id="paint49_linear_3220_32857" x1="76.898" y1="0" x2="76.898" y2="80.25" gradientUnits="userSpaceOnUse">
<stop stop-color="#009D8D" stop-opacity="0.2"/>
<stop offset="1" stop-color="#101828" stop-opacity="0.5"/>
</linearGradient>
<linearGradient id="paint50_linear_3220_32857" x1="76.898" y1="0" x2="76.898" y2="80.25" gradientUnits="userSpaceOnUse">
<stop stop-color="#009D8D" stop-opacity="0.2"/>
<stop offset="1" stop-color="#101828" stop-opacity="0.5"/>
</linearGradient>
<linearGradient id="paint51_linear_3220_32857" x1="76.898" y1="0" x2="76.898" y2="80.25" gradientUnits="userSpaceOnUse">
<stop stop-color="#009D8D" stop-opacity="0.2"/>
<stop offset="1" stop-color="#101828" stop-opacity="0.5"/>
</linearGradient>
<linearGradient id="paint52_linear_3220_32857" x1="76.898" y1="0" x2="76.898" y2="80.25" gradientUnits="userSpaceOnUse">
<stop stop-color="#009D8D" stop-opacity="0.2"/>
<stop offset="1" stop-color="#101828" stop-opacity="0.5"/>
</linearGradient>
<linearGradient id="paint53_linear_3220_32857" x1="76.898" y1="0" x2="76.898" y2="80.25" gradientUnits="userSpaceOnUse">
<stop stop-color="#009D8D" stop-opacity="0.2"/>
<stop offset="1" stop-color="#101828" stop-opacity="0.5"/>
</linearGradient>
<linearGradient id="paint54_linear_3220_32857" x1="76.898" y1="0" x2="76.898" y2="80.25" gradientUnits="userSpaceOnUse">
<stop stop-color="#009D8D" stop-opacity="0.2"/>
<stop offset="1" stop-color="#101828" stop-opacity="0.5"/>
</linearGradient>
<linearGradient id="paint55_linear_3220_32857" x1="76.898" y1="0" x2="76.898" y2="80.25" gradientUnits="userSpaceOnUse">
<stop stop-color="#009D8D" stop-opacity="0.2"/>
<stop offset="1" stop-color="#101828" stop-opacity="0.5"/>
</linearGradient>
<linearGradient id="paint56_linear_3220_32857" x1="76.898" y1="0" x2="76.898" y2="80.25" gradientUnits="userSpaceOnUse">
<stop stop-color="#009D8D" stop-opacity="0.2"/>
<stop offset="1" stop-color="#101828" stop-opacity="0.5"/>
</linearGradient>
<linearGradient id="paint57_linear_3220_32857" x1="76.898" y1="0" x2="76.898" y2="80.25" gradientUnits="userSpaceOnUse">
<stop stop-color="#009D8D" stop-opacity="0.2"/>
<stop offset="1" stop-color="#101828" stop-opacity="0.5"/>
</linearGradient>
<linearGradient id="paint58_linear_3220_32857" x1="76.898" y1="0" x2="76.898" y2="80.25" gradientUnits="userSpaceOnUse">
<stop stop-color="#009D8D" stop-opacity="0.2"/>
<stop offset="1" stop-color="#101828" stop-opacity="0.5"/>
</linearGradient>
<linearGradient id="paint59_linear_3220_32857" x1="76.898" y1="0" x2="76.898" y2="80.25" gradientUnits="userSpaceOnUse">
<stop stop-color="#009D8D" stop-opacity="0.2"/>
<stop offset="1" stop-color="#101828" stop-opacity="0.5"/>
</linearGradient>
<linearGradient id="paint60_linear_3220_32857" x1="76.898" y1="0" x2="76.898" y2="80.25" gradientUnits="userSpaceOnUse">
<stop stop-color="#009D8D" stop-opacity="0.2"/>
<stop offset="1" stop-color="#101828" stop-opacity="0.5"/>
</linearGradient>
<linearGradient id="paint61_linear_3220_32857" x1="76.898" y1="0" x2="76.898" y2="80.25" gradientUnits="userSpaceOnUse">
<stop stop-color="#009D8D" stop-opacity="0.2"/>
<stop offset="1" stop-color="#101828" stop-opacity="0.5"/>
</linearGradient>
<linearGradient id="paint62_linear_3220_32857" x1="76.898" y1="0" x2="76.898" y2="80.25" gradientUnits="userSpaceOnUse">
<stop stop-color="#009D8D" stop-opacity="0.2"/>
<stop offset="1" stop-color="#101828" stop-opacity="0.5"/>
</linearGradient>
<linearGradient id="paint63_linear_3220_32857" x1="76.898" y1="0" x2="76.898" y2="80.25" gradientUnits="userSpaceOnUse">
<stop stop-color="#009D8D" stop-opacity="0.2"/>
<stop offset="1" stop-color="#101828" stop-opacity="0.5"/>
</linearGradient>
<linearGradient id="paint64_linear_3220_32857" x1="76.898" y1="0" x2="76.898" y2="80.25" gradientUnits="userSpaceOnUse">
<stop stop-color="#009D8D" stop-opacity="0.2"/>
<stop offset="1" stop-color="#101828" stop-opacity="0.5"/>
</linearGradient>
<linearGradient id="paint65_linear_3220_32857" x1="76.898" y1="0" x2="76.898" y2="80.25" gradientUnits="userSpaceOnUse">
<stop stop-color="#009D8D" stop-opacity="0.2"/>
<stop offset="1" stop-color="#101828" stop-opacity="0.5"/>
</linearGradient>
<linearGradient id="paint66_linear_3220_32857" x1="76.898" y1="0" x2="76.898" y2="80.25" gradientUnits="userSpaceOnUse">
<stop stop-color="#009D8D" stop-opacity="0.2"/>
<stop offset="1" stop-color="#101828" stop-opacity="0.5"/>
</linearGradient>
<linearGradient id="paint67_linear_3220_32857" x1="76.898" y1="0" x2="76.898" y2="80.25" gradientUnits="userSpaceOnUse">
<stop stop-color="#009D8D" stop-opacity="0.2"/>
<stop offset="1" stop-color="#101828" stop-opacity="0.5"/>
</linearGradient>
<linearGradient id="paint68_linear_3220_32857" x1="76.898" y1="0" x2="76.898" y2="80.25" gradientUnits="userSpaceOnUse">
<stop stop-color="#009D8D" stop-opacity="0.2"/>
<stop offset="1" stop-color="#101828" stop-opacity="0.5"/>
</linearGradient>
<linearGradient id="paint69_linear_3220_32857" x1="76.898" y1="0" x2="76.898" y2="80.25" gradientUnits="userSpaceOnUse">
<stop stop-color="#009D8D" stop-opacity="0.2"/>
<stop offset="1" stop-color="#101828" stop-opacity="0.5"/>
</linearGradient>
<linearGradient id="paint70_linear_3220_32857" x1="76.898" y1="0" x2="76.898" y2="80.25" gradientUnits="userSpaceOnUse">
<stop stop-color="#009D8D" stop-opacity="0.2"/>
<stop offset="1" stop-color="#101828" stop-opacity="0.5"/>
</linearGradient>
<linearGradient id="paint71_linear_3220_32857" x1="76.898" y1="0" x2="76.898" y2="80.25" gradientUnits="userSpaceOnUse">
<stop stop-color="#009D8D" stop-opacity="0.2"/>
<stop offset="1" stop-color="#101828" stop-opacity="0.5"/>
</linearGradient>
<linearGradient id="paint72_linear_3220_32857" x1="76.898" y1="0" x2="76.898" y2="80.25" gradientUnits="userSpaceOnUse">
<stop stop-color="#009D8D" stop-opacity="0.2"/>
<stop offset="1" stop-color="#101828" stop-opacity="0.5"/>
</linearGradient>
<linearGradient id="paint73_linear_3220_32857" x1="76.898" y1="0" x2="76.898" y2="80.25" gradientUnits="userSpaceOnUse">
<stop stop-color="#009D8D" stop-opacity="0.2"/>
<stop offset="1" stop-color="#101828" stop-opacity="0.5"/>
</linearGradient>
<linearGradient id="paint74_linear_3220_32857" x1="76.898" y1="0" x2="76.898" y2="80.25" gradientUnits="userSpaceOnUse">
<stop stop-color="#009D8D" stop-opacity="0.2"/>
<stop offset="1" stop-color="#101828" stop-opacity="0.5"/>
</linearGradient>
<linearGradient id="paint75_linear_3220_32857" x1="76.898" y1="0" x2="76.898" y2="80.25" gradientUnits="userSpaceOnUse">
<stop stop-color="#009D8D" stop-opacity="0.2"/>
<stop offset="1" stop-color="#101828" stop-opacity="0.5"/>
</linearGradient>
<linearGradient id="paint76_linear_3220_32857" x1="76.898" y1="0" x2="76.898" y2="80.25" gradientUnits="userSpaceOnUse">
<stop stop-color="#009D8D" stop-opacity="0.2"/>
<stop offset="1" stop-color="#101828" stop-opacity="0.5"/>
</linearGradient>
<linearGradient id="paint77_linear_3220_32857" x1="76.898" y1="0" x2="76.898" y2="80.25" gradientUnits="userSpaceOnUse">
<stop stop-color="#009D8D" stop-opacity="0.2"/>
<stop offset="1" stop-color="#101828" stop-opacity="0.5"/>
</linearGradient>
<linearGradient id="paint78_linear_3220_32857" x1="76.898" y1="0" x2="76.898" y2="80.25" gradientUnits="userSpaceOnUse">
<stop stop-color="#009D8D" stop-opacity="0.2"/>
<stop offset="1" stop-color="#101828" stop-opacity="0.5"/>
</linearGradient>
<linearGradient id="paint79_linear_3220_32857" x1="76.898" y1="0" x2="76.898" y2="80.25" gradientUnits="userSpaceOnUse">
<stop stop-color="#009D8D" stop-opacity="0.2"/>
<stop offset="1" stop-color="#101828" stop-opacity="0.5"/>
</linearGradient>
<linearGradient id="paint80_linear_3220_32857" x1="76.898" y1="0" x2="76.898" y2="80.25" gradientUnits="userSpaceOnUse">
<stop stop-color="#009D8D" stop-opacity="0.2"/>
<stop offset="1" stop-color="#101828" stop-opacity="0.5"/>
</linearGradient>
<linearGradient id="paint81_linear_3220_32857" x1="76.898" y1="0" x2="76.898" y2="80.25" gradientUnits="userSpaceOnUse">
<stop stop-color="#009D8D" stop-opacity="0.2"/>
<stop offset="1" stop-color="#101828" stop-opacity="0.5"/>
</linearGradient>
<linearGradient id="paint82_linear_3220_32857" x1="76.898" y1="0" x2="76.898" y2="80.25" gradientUnits="userSpaceOnUse">
<stop stop-color="#009D8D" stop-opacity="0.2"/>
<stop offset="1" stop-color="#101828" stop-opacity="0.5"/>
</linearGradient>
<linearGradient id="paint83_linear_3220_32857" x1="76.898" y1="0" x2="76.898" y2="80.25" gradientUnits="userSpaceOnUse">
<stop stop-color="#009D8D" stop-opacity="0.2"/>
<stop offset="1" stop-color="#101828" stop-opacity="0.5"/>
</linearGradient>
<linearGradient id="paint84_linear_3220_32857" x1="76.898" y1="0" x2="76.898" y2="80.25" gradientUnits="userSpaceOnUse">
<stop stop-color="#009D8D" stop-opacity="0.2"/>
<stop offset="1" stop-color="#101828" stop-opacity="0.5"/>
</linearGradient>
<linearGradient id="paint85_linear_3220_32857" x1="76.898" y1="0" x2="76.898" y2="80.25" gradientUnits="userSpaceOnUse">
<stop stop-color="#009D8D" stop-opacity="0.2"/>
<stop offset="1" stop-color="#101828" stop-opacity="0.5"/>
</linearGradient>
<linearGradient id="paint86_linear_3220_32857" x1="76.898" y1="0" x2="76.898" y2="80.25" gradientUnits="userSpaceOnUse">
<stop stop-color="#009D8D" stop-opacity="0.2"/>
<stop offset="1" stop-color="#101828" stop-opacity="0.5"/>
</linearGradient>
<linearGradient id="paint87_linear_3220_32857" x1="76.898" y1="0" x2="76.898" y2="80.25" gradientUnits="userSpaceOnUse">
<stop stop-color="#009D8D" stop-opacity="0.2"/>
<stop offset="1" stop-color="#101828" stop-opacity="0.5"/>
</linearGradient>
<linearGradient id="paint88_linear_3220_32857" x1="76.898" y1="0" x2="76.898" y2="80.25" gradientUnits="userSpaceOnUse">
<stop stop-color="#009D8D" stop-opacity="0.2"/>
<stop offset="1" stop-color="#101828" stop-opacity="0.5"/>
</linearGradient>
<linearGradient id="paint89_linear_3220_32857" x1="76.898" y1="0" x2="76.898" y2="80.25" gradientUnits="userSpaceOnUse">
<stop stop-color="#009D8D" stop-opacity="0.2"/>
<stop offset="1" stop-color="#101828" stop-opacity="0.5"/>
</linearGradient>
<linearGradient id="paint90_linear_3220_32857" x1="76.898" y1="0" x2="76.898" y2="80.25" gradientUnits="userSpaceOnUse">
<stop stop-color="#009D8D" stop-opacity="0.2"/>
<stop offset="1" stop-color="#101828" stop-opacity="0.5"/>
</linearGradient>
<linearGradient id="paint91_linear_3220_32857" x1="76.898" y1="0" x2="76.898" y2="80.25" gradientUnits="userSpaceOnUse">
<stop stop-color="#009D8D" stop-opacity="0.2"/>
<stop offset="1" stop-color="#101828" stop-opacity="0.5"/>
</linearGradient>
<linearGradient id="paint92_linear_3220_32857" x1="76.898" y1="0" x2="76.898" y2="80.25" gradientUnits="userSpaceOnUse">
<stop stop-color="#009D8D" stop-opacity="0.2"/>
<stop offset="1" stop-color="#101828" stop-opacity="0.5"/>
</linearGradient>
<linearGradient id="paint93_linear_3220_32857" x1="76.898" y1="0" x2="76.898" y2="80.25" gradientUnits="userSpaceOnUse">
<stop stop-color="#009D8D" stop-opacity="0.2"/>
<stop offset="1" stop-color="#101828" stop-opacity="0.5"/>
</linearGradient>
<linearGradient id="paint94_linear_3220_32857" x1="76.898" y1="0" x2="76.898" y2="80.25" gradientUnits="userSpaceOnUse">
<stop stop-color="#009D8D" stop-opacity="0.2"/>
<stop offset="1" stop-color="#101828" stop-opacity="0.5"/>
</linearGradient>
<linearGradient id="paint95_linear_3220_32857" x1="76.898" y1="0" x2="76.898" y2="80.25" gradientUnits="userSpaceOnUse">
<stop stop-color="#009D8D" stop-opacity="0.2"/>
<stop offset="1" stop-color="#101828" stop-opacity="0.5"/>
</linearGradient>
<linearGradient id="paint96_linear_3220_32857" x1="76.898" y1="0" x2="76.898" y2="80.25" gradientUnits="userSpaceOnUse">
<stop stop-color="#009D8D" stop-opacity="0.2"/>
<stop offset="1" stop-color="#101828" stop-opacity="0.5"/>
</linearGradient>
<linearGradient id="paint97_linear_3220_32857" x1="76.898" y1="0" x2="76.898" y2="80.25" gradientUnits="userSpaceOnUse">
<stop stop-color="#009D8D" stop-opacity="0.2"/>
<stop offset="1" stop-color="#101828" stop-opacity="0.5"/>
</linearGradient>
<linearGradient id="paint98_linear_3220_32857" x1="76.898" y1="0" x2="76.898" y2="80.25" gradientUnits="userSpaceOnUse">
<stop stop-color="#009D8D" stop-opacity="0.2"/>
<stop offset="1" stop-color="#101828" stop-opacity="0.5"/>
</linearGradient>
<linearGradient id="paint99_linear_3220_32857" x1="76.898" y1="0" x2="76.898" y2="80.25" gradientUnits="userSpaceOnUse">
<stop stop-color="#009D8D" stop-opacity="0.2"/>
<stop offset="1" stop-color="#101828" stop-opacity="0.5"/>
</linearGradient>
<linearGradient id="paint100_linear_3220_32857" x1="146.926" y1="88.1577" x2="13.7813" y2="88.1577" gradientUnits="userSpaceOnUse">
<stop stop-color="#40FFA6"/>
<stop offset="0.831269" stop-color="#4ABEFC"/>
<stop offset="1" stop-color="#7DABFF" stop-opacity="0.01"/>
</linearGradient>
<linearGradient id="paint101_linear_3220_32857" x1="16.9451" y1="54.8723" x2="38.901" y2="41.1627" gradientUnits="userSpaceOnUse">
<stop stop-color="#60FDCB" stop-opacity="0.01"/>
<stop offset="1" stop-color="#60FDC9"/>
</linearGradient>
</defs>
</svg>
