<svg width="73" height="73" viewBox="0 0 73 73" fill="none" xmlns="http://www.w3.org/2000/svg">
<path d="M51.1583 65.6649L45.7671 47.9612C45.5797 47.3562 45.0248 46.9385 44.3905 46.9385H26.754C26.1198 46.9385 25.5576 47.349 25.3774 47.9612L19.9863 65.6649C19.7556 66.4284 20.1809 67.2279 20.9449 67.4655C21.7088 67.696 22.5089 67.2711 22.7467 66.5076L27.8279 49.8195H43.3238L48.405 66.5076C48.6357 67.2711 49.4429 67.696 50.2069 67.4655C50.9564 67.2351 51.3889 66.4284 51.1583 65.6649Z" fill="url(#paint0_linear_3220_32808)"/>
<path d="M42.5957 30.754V29.3135H28.5413C27.799 29.3135 27.1791 29.8753 27.107 30.6099L25.3196 48.2344C25.2764 48.6377 25.4133 49.0411 25.6872 49.3436C25.9611 49.6461 26.3503 49.8189 26.7539 49.8189H44.3904C44.794 49.8189 45.1904 49.6461 45.4571 49.3436C45.731 49.0411 45.8607 48.6377 45.8246 48.2344L44.0372 30.6099C43.9652 29.8753 43.3453 29.3135 42.603 29.3135V30.754L41.1687 30.898L42.7976 46.9307H28.3539L29.8531 32.1873H42.6102V30.754L41.1759 30.898L42.5957 30.754Z" fill="url(#paint1_linear_3220_32808)"/>
<path d="M35.5687 10.6308L34.639 9.52879L22.8548 19.5042C22.3936 19.8932 22.2278 20.5342 22.4296 21.096C22.6386 21.665 23.1792 22.0395 23.7846 22.0395H47.3528C47.9583 22.0395 48.4988 21.665 48.7078 21.096C48.9168 20.527 48.751 19.8932 48.2826 19.5042L36.4985 9.52879C35.9579 9.07504 35.1723 9.07504 34.6318 9.52879L35.5687 10.6308L34.639 11.7327L43.4248 19.1729H27.7198L36.5057 11.7327L35.5687 10.6308L34.639 11.7327L35.5687 10.6308Z" fill="url(#paint2_linear_3220_32808)"/>
<path d="M17.1033 32.1945H54.0413C54.8341 32.1945 55.4827 31.5462 55.4827 30.754C55.4827 29.9617 54.8341 29.3135 54.0413 29.3135H17.1033C16.3105 29.3135 15.6619 29.9617 15.6619 30.754C15.6619 31.5534 16.3033 32.1945 17.1033 32.1945Z" fill="url(#paint3_linear_3220_32808)"/>
<path d="M10.8613 67.5224H21.3546C22.1473 67.5224 22.7959 66.8742 22.7959 66.082C22.7959 65.2898 22.1473 64.6416 21.3546 64.6416H10.8613C10.0685 64.6416 9.41992 65.2898 9.41992 66.082C9.41992 66.8814 10.0613 67.5224 10.8613 67.5224Z" fill="url(#paint4_linear_3220_32808)"/>
<path d="M49.7668 67.5224H61.2186C62.0114 67.5224 62.66 66.8742 62.66 66.082C62.66 65.2898 62.0114 64.6416 61.2186 64.6416H49.7668C48.9741 64.6416 48.3254 65.2898 48.3254 66.082C48.3254 66.8814 48.9741 67.5224 49.7668 67.5224Z" fill="url(#paint5_linear_3220_32808)"/>
<path d="M17.1033 22.0538H54.0413C54.8341 22.0538 55.4827 21.4056 55.4827 20.6133C55.4827 19.8211 54.8341 19.1729 54.0413 19.1729H17.1033C16.3105 19.1729 15.6619 19.8211 15.6619 20.6133C15.6619 21.4056 16.3033 22.0538 17.1033 22.0538Z" fill="url(#paint6_linear_3220_32808)"/>
<path d="M18.1554 36.3867H19.5966C20.3893 36.3867 21.0378 35.7385 21.0378 34.9463C21.0378 34.154 20.3893 33.5059 19.5966 33.5059H18.1554C17.3627 33.5059 16.7141 34.154 16.7141 34.9463C16.7141 35.7457 17.3627 36.3867 18.1554 36.3867Z" fill="url(#paint7_linear_3220_32808)"/>
<path d="M18.1554 26.2451H19.5966C20.3893 26.2451 21.0378 25.5969 21.0378 24.8047C21.0378 24.0124 20.3893 23.3643 19.5966 23.3643H18.1554C17.3627 23.3643 16.7141 24.0124 16.7141 24.8047C16.7141 25.5969 17.3627 26.2451 18.1554 26.2451Z" fill="url(#paint8_linear_3220_32808)"/>
<path d="M51.5325 36.3867H52.9738C53.7665 36.3867 54.415 35.7385 54.415 34.9463C54.415 34.154 53.7665 33.5059 52.9738 33.5059H51.5325C50.7399 33.5059 50.0913 34.154 50.0913 34.9463C50.0913 35.7457 50.7399 36.3867 51.5325 36.3867Z" fill="url(#paint9_linear_3220_32808)"/>
<path d="M51.5325 26.2451H52.9738C53.7665 26.2451 54.415 25.5969 54.415 24.8047C54.415 24.0124 53.7665 23.3643 52.9738 23.3643H51.5325C50.7399 23.3643 50.0913 24.0124 50.0913 24.8047C50.0913 25.5969 50.7399 26.2451 51.5325 26.2451Z" fill="url(#paint10_linear_3220_32808)"/>
<path d="M50.6391 64.937L27.633 47.2405C26.9988 46.7579 26.0979 46.8732 25.615 47.4998C25.1321 48.1336 25.2474 49.0339 25.8744 49.5165L48.8805 67.2129C49.5147 67.6955 50.4156 67.5803 50.8985 66.9537C51.3886 66.327 51.2733 65.4195 50.6391 64.937Z" fill="url(#paint11_linear_3220_32808)"/>
<path d="M22.2491 67.2281L45.2696 49.5244C45.9038 49.0419 46.0191 48.1343 45.529 47.5077C45.0389 46.8811 44.138 46.7587 43.511 47.2484L20.4905 64.9521C19.8563 65.4347 19.741 66.3422 20.2311 66.9688C20.7212 67.5954 21.6149 67.7107 22.2491 67.2281Z" fill="url(#paint12_linear_3220_32808)"/>
<path d="M27.4673 31.7198L43.3236 49.2795C43.8569 49.8701 44.7651 49.9205 45.3561 49.3875C45.9471 48.8545 45.9975 47.947 45.4642 47.3564L29.6079 29.7968C29.0745 29.2062 28.1665 29.1558 27.5754 29.6888C26.9844 30.2217 26.934 31.1292 27.4673 31.7198Z" fill="url(#paint13_linear_3220_32808)"/>
<path d="M27.8206 49.3443L43.6624 31.7198C44.1958 31.1292 44.1453 30.2145 43.5543 29.6888C42.9633 29.1558 42.048 29.2062 41.5218 29.7968L25.68 47.4213C25.1466 48.0119 25.1971 48.9266 25.7881 49.4524C26.3791 49.9853 27.2944 49.9349 27.8206 49.3443Z" fill="url(#paint14_linear_3220_32808)"/>
<path d="M37.0817 10.565V5.94137C37.0817 5.14915 36.4331 4.50098 35.6405 4.50098C34.8478 4.50098 34.1992 5.14915 34.1992 5.94137V10.565C34.1992 11.3573 34.8478 12.0054 35.6405 12.0054C36.4331 12.0054 37.0817 11.3573 37.0817 10.565Z" fill="url(#paint15_linear_3220_32808)"/>
<path d="M29.9826 30.7469V20.6425C29.9826 19.8503 29.334 19.2021 28.5413 19.2021C27.7487 19.2021 27.1001 19.8503 27.1001 20.6425V30.7469C27.1001 31.5391 27.7487 32.1873 28.5413 32.1873C29.334 32.1873 29.9826 31.5391 29.9826 30.7469Z" fill="url(#paint16_linear_3220_32808)"/>
<path d="M44.0439 30.7613V20.6425C44.0439 19.8503 43.3953 19.2021 42.6026 19.2021C41.8099 19.2021 41.1614 19.8503 41.1614 20.6425V30.7613C41.1614 31.5535 41.8099 32.2017 42.6026 32.2017C43.3953 32.2017 44.0439 31.5607 44.0439 30.7613Z" fill="url(#paint17_linear_3220_32808)"/>
<path d="M41.7597 19.4751L27.698 29.5946C27.0494 30.0627 26.9052 30.963 27.3737 31.604C27.8422 32.2523 28.7431 32.3963 29.3845 31.9282L43.4462 21.8087C44.0948 21.3405 44.239 20.4402 43.7705 19.7992C43.302 19.151 42.4011 19.0069 41.7597 19.4751Z" fill="url(#paint18_linear_3220_32808)"/>
<path d="M43.4386 29.5873L29.3842 19.475C28.7355 19.0068 27.8346 19.1581 27.3734 19.7991C26.9049 20.4473 27.0562 21.3476 27.6977 21.8086L41.7521 31.9209C42.4008 32.389 43.3017 32.2378 43.763 31.5968C44.2315 30.9485 44.0801 30.0482 43.4386 29.5873Z" fill="url(#paint19_linear_3220_32808)"/>
<defs>
<linearGradient id="paint0_linear_3220_32808" x1="16.195" y1="56.4303" x2="53.7659" y2="56.7943" gradientUnits="userSpaceOnUse">
<stop stop-color="#63B7FF"/>
<stop offset="1" stop-color="#296ACC"/>
</linearGradient>
<linearGradient id="paint1_linear_3220_32808" x1="22.8673" y1="38.7664" x2="47.5008" y2="38.9235" gradientUnits="userSpaceOnUse">
<stop stop-color="#63B7FF"/>
<stop offset="1" stop-color="#296ACC"/>
</linearGradient>
<linearGradient id="paint2_linear_3220_32808" x1="19.1936" y1="15.1128" x2="50.9458" y2="15.5293" gradientUnits="userSpaceOnUse">
<stop stop-color="#63B7FF"/>
<stop offset="1" stop-color="#296ACC"/>
</linearGradient>
<linearGradient id="paint3_linear_3220_32808" x1="10.9178" y1="30.6416" x2="58.3579" y2="34.8208" gradientUnits="userSpaceOnUse">
<stop stop-color="#63B7FF"/>
<stop offset="1" stop-color="#296ACC"/>
</linearGradient>
<linearGradient id="paint4_linear_3220_32808" x1="7.82637" y1="65.9696" x2="23.8713" y2="66.4445" gradientUnits="userSpaceOnUse">
<stop stop-color="#63B7FF"/>
<stop offset="1" stop-color="#296ACC"/>
</linearGradient>
<linearGradient id="paint5_linear_3220_32808" x1="46.6177" y1="65.9696" x2="63.8102" y2="66.5149" gradientUnits="userSpaceOnUse">
<stop stop-color="#63B7FF"/>
<stop offset="1" stop-color="#296ACC"/>
</linearGradient>
<linearGradient id="paint6_linear_3220_32808" x1="10.9178" y1="20.501" x2="58.3579" y2="24.6801" gradientUnits="userSpaceOnUse">
<stop stop-color="#63B7FF"/>
<stop offset="1" stop-color="#296ACC"/>
</linearGradient>
<linearGradient id="paint7_linear_3220_32808" x1="16.199" y1="34.8339" x2="21.3895" y2="34.8835" gradientUnits="userSpaceOnUse">
<stop stop-color="#63B7FF"/>
<stop offset="1" stop-color="#296ACC"/>
</linearGradient>
<linearGradient id="paint8_linear_3220_32808" x1="16.199" y1="24.6923" x2="21.3895" y2="24.7419" gradientUnits="userSpaceOnUse">
<stop stop-color="#63B7FF"/>
<stop offset="1" stop-color="#296ACC"/>
</linearGradient>
<linearGradient id="paint9_linear_3220_32808" x1="49.5762" y1="34.8339" x2="54.7667" y2="34.8835" gradientUnits="userSpaceOnUse">
<stop stop-color="#63B7FF"/>
<stop offset="1" stop-color="#296ACC"/>
</linearGradient>
<linearGradient id="paint10_linear_3220_32808" x1="49.5762" y1="24.6923" x2="54.7667" y2="24.7419" gradientUnits="userSpaceOnUse">
<stop stop-color="#63B7FF"/>
<stop offset="1" stop-color="#296ACC"/>
</linearGradient>
<linearGradient id="paint11_linear_3220_32808" x1="22.2328" y1="56.4245" x2="53.3084" y2="56.6737" gradientUnits="userSpaceOnUse">
<stop stop-color="#63B7FF"/>
<stop offset="1" stop-color="#296ACC"/>
</linearGradient>
<linearGradient id="paint12_linear_3220_32808" x1="16.8413" y1="56.4341" x2="47.9405" y2="56.6836" gradientUnits="userSpaceOnUse">
<stop stop-color="#63B7FF"/>
<stop offset="1" stop-color="#296ACC"/>
</linearGradient>
<linearGradient id="paint13_linear_3220_32808" x1="24.8655" y1="38.741" x2="47.3591" y2="38.8725" gradientUnits="userSpaceOnUse">
<stop stop-color="#63B7FF"/>
<stop offset="1" stop-color="#296ACC"/>
</linearGradient>
<linearGradient id="paint14_linear_3220_32808" x1="23.0799" y1="38.7709" x2="45.5562" y2="38.9017" gradientUnits="userSpaceOnUse">
<stop stop-color="#63B7FF"/>
<stop offset="1" stop-color="#296ACC"/>
</linearGradient>
<linearGradient id="paint15_linear_3220_32808" x1="33.8558" y1="7.96051" x2="37.3165" y2="7.96898" gradientUnits="userSpaceOnUse">
<stop stop-color="#63B7FF"/>
<stop offset="1" stop-color="#296ACC"/>
</linearGradient>
<linearGradient id="paint16_linear_3220_32808" x1="26.7567" y1="25.1883" x2="30.2173" y2="25.1932" gradientUnits="userSpaceOnUse">
<stop stop-color="#63B7FF"/>
<stop offset="1" stop-color="#296ACC"/>
</linearGradient>
<linearGradient id="paint17_linear_3220_32808" x1="40.818" y1="25.1949" x2="44.2786" y2="25.1998" gradientUnits="userSpaceOnUse">
<stop stop-color="#63B7FF"/>
<stop offset="1" stop-color="#296ACC"/>
</linearGradient>
<linearGradient id="paint18_linear_3220_32808" x1="25.0797" y1="25.1945" x2="45.4245" y2="25.3635" gradientUnits="userSpaceOnUse">
<stop stop-color="#63B7FF"/>
<stop offset="1" stop-color="#296ACC"/>
</linearGradient>
<linearGradient id="paint19_linear_3220_32808" x1="25.0827" y1="25.1912" x2="45.414" y2="25.3601" gradientUnits="userSpaceOnUse">
<stop stop-color="#63B7FF"/>
<stop offset="1" stop-color="#296ACC"/>
</linearGradient>
</defs>
</svg>
