<svg width="20" height="20" viewBox="0 0 20 20" fill="none" xmlns="http://www.w3.org/2000/svg">
<path fill-rule="evenodd" clip-rule="evenodd" d="M9.11195 10.069C9.75437 9.5265 10.0755 8.74308 10.0755 7.71875C10.0755 6.7335 9.77387 5.9935 9.17062 5.49875C8.57162 4.99958 7.69488 4.75 6.54037 4.75H3.5V14.2682H5.51823V10.8828H6.38412C7.56467 10.8828 8.47396 10.6116 9.11195 10.069ZM6.18229 9.22917H5.51823V6.40367H6.4362C6.98742 6.40367 7.39107 6.5165 7.64714 6.74225C7.90756 6.96792 8.03777 7.31733 8.03777 7.79042C8.03777 8.25917 7.88368 8.61725 7.57552 8.86458C7.26737 9.10767 6.80296 9.22917 6.18229 9.22917Z" fill="white"/>
<path d="M11.832 14.2682H13.8177V10.5052H17.0469V8.85808H13.8177V6.40367H17.2877V4.75H11.832V14.2682Z" fill="white"/>
</svg>
