<svg width="24" height="24" viewBox="0 0 24 24" fill="none" xmlns="http://www.w3.org/2000/svg">
<path d="M1.99707 12.0001L11.6252 16.8212C11.7562 16.8868 11.8217 16.9196 11.8904 16.9325C11.9513 16.9439 12.0137 16.9439 12.0746 16.9325C12.1433 16.9196 12.2088 16.8868 12.3397 16.8212L21.9679 12.0001M1.99707 17.0001L11.6252 21.8212C11.7562 21.8868 11.8217 21.9196 11.8904 21.9325C11.9513 21.9439 12.0137 21.9439 12.0746 21.9325C12.1433 21.9196 12.2088 21.8868 12.3397 21.8212L21.9679 17.0001M1.99707 7.00006L11.6252 2.17895C11.7562 2.11336 11.8217 2.08056 11.8904 2.06766C11.9513 2.05622 12.0137 2.05622 12.0746 2.06766C12.1433 2.08056 12.2088 2.11336 12.3397 2.17895L21.9679 7.00006L12.3397 11.8212C12.2088 11.8868 12.1433 11.9196 12.0746 11.9325C12.0137 11.9439 11.9513 11.9439 11.8904 11.9325C11.8217 11.9196 11.7562 11.8868 11.6252 11.8212L1.99707 7.00006Z" stroke="white" stroke-width="2" stroke-linecap="round" stroke-linejoin="round"/>
</svg>
