<svg width="24" height="24" viewBox="0 0 24 24" fill="none" xmlns="http://www.w3.org/2000/svg">
<path d="M6 22.5C3.79086 22.5 2 20.7091 2 18.5C2 16.2909 3.79086 14.5 6 14.5C6.46419 14.5 6.90991 14.5791 7.32442 14.7245C8.04061 12.8396 9.86387 11.5 12 11.5C14.1361 11.5 15.9594 12.8396 16.6756 14.7245C17.0901 14.5791 17.5358 14.5 18 14.5C20.2091 14.5 22 16.2909 22 18.5C22 20.7091 20.2091 22.5 18 22.5C13.3597 22.5 9.87921 22.5 6 22.5Z" fill="white"/>
<path d="M10.5 2V3.6M3.6 10.5H2M5.4512 5.45137L4.31982 4.32M15.5498 5.45137L16.6812 4.32M19 10.5H17.4M6.50007 10.5001C6.50007 8.29093 8.29093 6.50007 10.5001 6.50007C12.0061 6.50007 13.3177 7.33235 14.0001 8.56206M6 22.5C3.79086 22.5 2 20.7091 2 18.5C2 16.2909 3.79086 14.5 6 14.5C6.46419 14.5 6.90991 14.5791 7.32442 14.7245C8.04061 12.8396 9.86387 11.5 12 11.5C14.1361 11.5 15.9594 12.8396 16.6756 14.7245C17.0901 14.5791 17.5358 14.5 18 14.5C20.2091 14.5 22 16.2909 22 18.5C22 20.7091 20.2091 22.5 18 22.5C13.3597 22.5 9.87921 22.5 6 22.5Z" stroke="white" stroke-linecap="round" stroke-linejoin="round"/>
<path d="M10.5 2V3.6M3.6 10.5H2M5.4512 5.45137L4.31982 4.32M15.5498 5.45137L16.6812 4.32M19 10.5H17.4M6.50007 10.5001C6.50007 8.29093 8.29093 6.50007 10.5001 6.50007C12.0061 6.50007 13.3177 7.33235 14.0001 8.56206" stroke="url(#paint0_linear_3220_31732)" stroke-width="2" stroke-linecap="round" stroke-linejoin="round"/>
<defs>
<linearGradient id="paint0_linear_3220_31732" x1="1.99974" y1="10.5" x2="8.79984" y2="-3.10011" gradientUnits="userSpaceOnUse">
<stop stop-color="#FF7A00"/>
<stop offset="1" stop-color="#FFD439"/>
</linearGradient>
</defs>
</svg>
