<svg width="64" height="60" viewBox="0 0 64 60" fill="none" xmlns="http://www.w3.org/2000/svg">
<path d="M54.11 0.00581622C55.7335 -0.0985821 57.0799 1.22031 57.7556 2.5243C62.5701 11.816 65.3227 23.3397 62.4821 33.5181C61.7467 36.153 59.8046 40.3597 58.2498 42.5564C55.3483 46.6556 51.1964 50.4087 46.7114 52.8957C45.6024 53.4884 41.1811 55.4779 40.0126 55.8007C34.4716 57.3314 28.226 57.7679 22.6411 56.1909C20.7088 55.6453 20.6733 55.4152 19.0823 54.6394C16.047 53.1593 14.0013 51.6627 11.7329 49.2346C11.149 48.6096 10.5596 48.0483 10.1206 47.2971C9.31087 48.0888 8.74589 48.781 8.1155 49.7014C7.50492 50.6196 7.04876 51.6214 6.76312 52.6712C6.34597 54.1649 5.94091 58.3447 5.18431 59.1229C3.53969 60.8144 -0.00709031 60.0475 1.06467e-05 57.0987C0.0111121 52.4714 1.35149 48.6194 4.23838 44.9164C5.03069 43.9002 6.19144 42.8972 7.08836 41.9874C6.90444 40.5946 6.47818 38.846 6.22015 37.3391C5.55796 33.4717 6.29106 29.3554 7.67224 25.6927C8.25362 24.151 9.71082 22.1644 10.7111 20.7973C18.7643 9.7905 32.2637 12.2992 43.7622 7.49581C45.6011 6.72758 46.9789 5.98519 48.4824 4.71506C50.2754 3.20039 51.8856 0.917581 54.11 0.00581622Z" fill="url(#paint0_linear_3220_31953)"/>
<path d="M53.4428 8.14746C53.5144 8.19858 53.5665 8.24252 53.6191 8.31222C57.0288 12.8294 58.2241 24.4359 57.1979 29.8979C56.8081 31.9729 56.1977 34.2076 55.2716 36.1213C54.7503 37.1983 54.019 38.1988 53.3117 39.1746C51.0102 42.3497 48.4466 44.9242 45.0977 47.1265C39.7451 50.6468 33.1375 52.2254 26.6601 51.122C21.7967 50.2936 18.0321 47.7434 15.2271 43.942C17.2666 43.3052 19.7143 42.7936 21.8415 42.1746C26.0007 40.93 29.9841 39.2131 33.7039 37.0618C35.8714 35.7364 41.9391 32.0061 38.0139 29.1678C35.5649 27.3969 32.5996 31.1121 30.5539 32.1084C29.1147 32.8095 27.4547 33.9699 25.9186 34.6136C23.0303 35.8818 20.0447 36.806 16.9526 37.5212C15.4345 37.8723 13.977 38.3067 12.4423 38.5797C12.1294 36.8296 12.0095 35.0535 12.0848 33.28C12.3767 27.0326 16.7764 21.1025 22.9382 18.6466C25.8812 17.43 29.0317 17.1447 32.1292 16.4989C40.1832 14.8196 47.1407 13.5936 53.4428 8.14746Z" fill="#0A0C20"/>
<defs>
<linearGradient id="paint0_linear_3220_31953" x1="-0.000990913" y1="60.007" x2="59.9036" y2="-3.51443" gradientUnits="userSpaceOnUse">
<stop stop-color="#3793FF"/>
<stop offset="1" stop-color="#3793FF" stop-opacity="0.5"/>
</linearGradient>
</defs>
</svg>
