<svg width="28" height="28" viewBox="0 0 28 28" fill="none" xmlns="http://www.w3.org/2000/svg">
<path d="M23.9166 8.49064L14 13.9999M14 13.9999L4.0833 8.49064M14 13.9999L14 25.0833M24.5 18.7349V9.26496C24.5 8.8652 24.5 8.66533 24.4411 8.48707C24.389 8.32936 24.3038 8.1846 24.1913 8.06246C24.064 7.9244 23.8893 7.82733 23.5399 7.63319L14.9065 2.8369C14.5757 2.65308 14.4102 2.56117 14.235 2.52514C14.08 2.49325 13.92 2.49325 13.765 2.52514C13.5898 2.56117 13.4243 2.65308 13.0935 2.8369L4.46013 7.6332C4.11069 7.82733 3.93597 7.9244 3.80874 8.06246C3.69618 8.1846 3.61101 8.32936 3.5589 8.48707C3.5 8.66533 3.5 8.86521 3.5 9.26496V18.7349C3.5 19.1347 3.5 19.3345 3.5589 19.5128C3.61101 19.6705 3.69618 19.8153 3.80874 19.9374C3.93597 20.0755 4.11069 20.1725 4.46013 20.3667L13.0935 25.163C13.4243 25.3468 13.5898 25.4387 13.765 25.4747C13.92 25.5066 14.08 25.5066 14.235 25.4747C14.4102 25.4387 14.5757 25.3468 14.9065 25.163L23.5399 20.3667C23.8893 20.1725 24.064 20.0755 24.1913 19.9374C24.3038 19.8153 24.389 19.6705 24.4411 19.5128C24.5 19.3345 24.5 19.1347 24.5 18.7349Z" stroke="white" stroke-width="1.5" stroke-linecap="round" stroke-linejoin="round"/>
</svg>
