<svg width="101" height="101" viewBox="0 0 101 101" fill="none" xmlns="http://www.w3.org/2000/svg">
<path d="M39.7157 93.1863C39.1387 95.3397 38.8503 96.4164 39.1124 97.4342C39.3249 98.2592 39.9314 99.1559 40.618 99.6603C41.465 100.282 42.4462 100.4 44.4085 100.636C46.4054 100.876 48.4383 101 50.5 101C78.3904 101 101 78.3895 101 50.4981C101 25.0133 82.1238 3.9374 57.5906 0.490028C55.6293 0.214436 54.6487 0.0766399 53.6717 0.459545C52.879 0.770219 52.0643 1.47839 51.6464 2.22015C51.1312 3.13438 51.1312 4.24921 51.1312 6.47888L51.1313 19.01C51.1313 21.1406 51.1313 22.206 51.4312 22.9362C51.747 23.7052 52.0181 24.0622 52.6741 24.5729C53.297 25.0578 54.629 25.429 57.2931 26.1714C67.9389 29.1381 75.75 38.9059 75.75 50.4981C75.75 64.4438 64.4452 75.749 50.5 75.749C48.0006 75.749 46.7509 75.749 46.0874 75.9909C45.1757 76.3232 44.7386 76.6586 44.1816 77.4533C43.7763 78.0316 43.5267 78.9631 43.0275 80.8261L39.7157 93.1863Z" fill="#1D63B5"/>
<path d="M0 50.4981C0 43.8254 1.29407 37.4549 3.64492 31.624C4.38295 29.7934 4.75196 28.8781 5.57212 28.2227C6.23698 27.6914 7.25926 27.339 8.11028 27.3477C9.16009 27.3585 10.1244 27.9153 12.053 29.0288L22.9096 35.2971C24.7561 36.3632 25.6793 36.8963 26.1615 37.5203C26.6699 38.1783 26.8428 38.5891 26.9578 39.4127C27.0669 40.1937 26.7236 41.5354 26.0369 44.2188C25.5231 46.2264 25.25 48.3303 25.25 50.4981C25.25 59.7492 30.2247 67.8383 37.6448 72.2361C40.0264 73.6477 41.2172 74.3534 41.6922 74.9828C42.193 75.6463 42.3613 76.0593 42.4669 76.8839C42.5672 77.666 42.2912 78.6959 41.7393 80.7558L38.494 92.868C37.9176 95.0193 37.6294 96.0949 36.8941 96.8451C36.2982 97.453 35.325 97.9267 34.479 98.0206C33.435 98.1366 32.5271 97.7495 30.7113 96.9753C12.6563 89.2776 0 71.3659 0 50.4981Z" fill="#56A2D6"/>
<path d="M49.8687 6.47888C49.8687 4.2493 49.8687 3.13451 49.3536 2.2203C48.9357 1.47853 48.1211 0.770391 47.3284 0.45969C46.3515 0.0767636 45.3716 0.214404 43.4119 0.489685C30.1901 2.34693 18.6112 9.32433 10.7444 19.3527C9.52302 20.9096 8.91236 21.6881 8.75381 22.7267C8.62524 23.569 8.83053 24.6307 9.26382 25.3644C9.79809 26.269 10.7638 26.8266 12.6953 27.9418L23.5515 34.2098C25.3972 35.2755 26.32 35.8083 27.1023 35.9137C27.9254 36.0246 28.3715 35.9682 29.141 35.6558C29.8724 35.3589 30.8576 34.3933 32.8281 32.4623C35.8245 29.5257 39.5496 27.33 43.707 26.1714C46.371 25.429 47.703 25.0578 48.3259 24.5729C48.9819 24.0622 49.253 23.7052 49.5688 22.9362C49.8688 22.206 49.8688 21.1406 49.8688 19.01L49.8687 6.47888Z" fill="#88CAEE"/>
<g fill="#FFFFFF" font-family="Inter, Arial, sans-serif" font-size="8" font-weight="600" text-anchor="middle" dominant-baseline="central">
<text x="36" y="16">20%</text>
<text x="18" y="64">28%</text>
<text x="87" y="51">52%</text>
</g>
</svg>
