<svg width="24" height="24" viewBox="0 0 24 24" fill="none" xmlns="http://www.w3.org/2000/svg">
<path d="M12.6123 2V1.25V2ZM13.4414 2.06934L13.7167 1.37169L13.7165 1.37161L13.4414 2.06934ZM13.9639 2.54297L14.631 2.20038L14.6309 2.20005L13.9639 2.54297ZM14.1152 3.36133L14.8615 3.28698L14.1152 3.36133ZM14.4072 4.81348L13.8092 5.26614L13.8094 5.26641L14.4072 4.81348ZM15.3418 5.2002L15.4444 5.94314L15.4449 5.94307L15.3418 5.2002ZM16.5732 4.38086L16.0979 3.8007L16.5732 4.38086ZM17.2568 3.91113L17.0268 3.19727L17.0266 3.19735L17.2568 3.91113ZM17.9639 3.94629L18.2643 3.25908L18.2638 3.25887L17.9639 3.94629ZM18.3936 4.2793L18.9239 3.74893L18.9174 3.74254L18.3936 4.2793ZM19.4893 5.375L20.02 4.84504L20.0196 4.84467L19.4893 5.375ZM20.0264 6.01367L20.7149 5.71632L20.7148 5.7162L20.0264 6.01367ZM20.0615 6.71289L20.7762 6.9404L20.7762 6.94021L20.0615 6.71289ZM19.5889 7.40234L19.0081 6.92781L19.5889 7.40234ZM18.7695 8.63965L18.0263 8.53885L18.0263 8.53935L18.7695 8.63965ZM19.1543 9.56934L18.6999 10.166L18.6999 10.166L19.1543 9.56934ZM20.6074 9.86328L20.5326 10.6095L20.6074 9.86328ZM21.4258 10.0156L21.7693 9.34892L21.7692 9.34886L21.4258 10.0156ZM21.8984 10.5381L22.5963 10.2633L22.5961 10.2628L21.8984 10.5381ZM21.8984 13.4619L22.5962 13.737L22.5962 13.737L21.8984 13.4619ZM21.4258 13.9844L21.769 14.6513L21.7692 14.6512L21.4258 13.9844ZM20.6074 14.1357L20.5328 13.3895L20.6074 14.1357ZM19.1553 14.4297L18.7014 13.8326L18.7013 13.8327L19.1553 14.4297ZM18.7695 15.3594L18.0263 15.4596L18.0263 15.46L18.7695 15.3594ZM19.5898 16.5967L20.1706 16.1221L19.5898 16.5967ZM20.0615 17.2852L20.7761 17.0575L20.776 17.057L20.0615 17.2852ZM20.0264 17.9863L20.7146 18.2845L20.7148 18.2839L20.0264 17.9863ZM19.4893 18.623L20.0199 19.1531L20.02 19.153L19.4893 18.623ZM18.5967 19.5166L18.0661 18.9866L18.066 18.9866L18.5967 19.5166ZM17.9639 20.0527L18.2639 20.7401L18.2641 20.74L17.9639 20.0527ZM17.2568 20.0879L17.0266 20.8017V20.8017L17.2568 20.0879ZM16.5732 19.6182L16.0979 20.1983L16.5732 19.6182ZM15.3428 18.7988L15.4462 18.056L15.4457 18.0559L15.3428 18.7988ZM14.4082 19.1855L13.8104 18.7326L13.8104 18.7327L14.4082 19.1855ZM14.1152 20.6377L14.8615 20.7122V20.7122L14.1152 20.6377ZM13.9639 21.458L14.6307 21.8013L14.6307 21.8013L13.9639 21.458ZM13.4414 21.9297L13.7168 22.6273L13.7168 22.6273L13.4414 21.9297ZM11.3525 22V22.75V22ZM10.5234 21.9307L10.2482 22.6283L10.2485 22.6285L10.5234 21.9307ZM10.001 21.458L9.33421 21.8014L9.33421 21.8014L10.001 21.458ZM9.84863 20.6377L10.5949 20.563L9.84863 20.6377ZM9.55664 19.1865L10.1546 18.7339L10.1545 18.7336L9.55664 19.1865ZM8.62109 18.7998L8.51783 18.0569L8.51731 18.057L8.62109 18.7998ZM7.3916 19.6182L6.91613 19.0381L7.3916 19.6182ZM6.70801 20.0889L6.93826 20.8026L6.93841 20.8026L6.70801 20.0889ZM6.00098 20.0537L5.70087 20.741L5.70089 20.7411L6.00098 20.0537ZM5.57129 19.7207L5.04092 20.2511L5.04747 20.2575L5.57129 19.7207ZM4.47559 18.625L3.94489 19.155L3.94526 19.1553L4.47559 18.625ZM3.9375 17.9863L3.24889 18.2835L3.24898 18.2837L3.9375 17.9863ZM3.90332 17.2871L3.18859 17.0598L3.18858 17.0598L3.90332 17.2871ZM4.37598 16.5977L3.79512 16.1232L4.37598 16.5977ZM5.19531 15.3594L5.93857 15.4598L5.93858 15.4596L5.19531 15.3594ZM4.81055 14.4297L5.26479 13.8329L5.26464 13.8328L4.81055 14.4297ZM3.35742 14.1357L3.28279 14.882L3.35742 14.1357ZM2.53906 13.9844L2.19568 14.6512L2.19579 14.6512L2.53906 13.9844ZM2.06641 13.4619L1.36864 13.7369L1.36873 13.7371L2.06641 13.4619ZM1.99707 12.6328H1.24707H1.99707ZM2.06641 10.5381L1.36874 10.2628L1.36855 10.2633L2.06641 10.5381ZM2.53906 10.0156L2.19563 9.34888L2.19558 9.3489L2.53906 10.0156ZM3.35742 9.86328L3.43224 10.6095L3.35742 9.86328ZM4.80957 9.56934L5.26368 10.1662L5.26388 10.1661L4.80957 9.56934ZM5.19531 8.63965L5.93858 8.53937L5.93852 8.53893L5.19531 8.63965ZM4.375 7.40234L3.79413 7.87678L4.375 7.40234ZM3.90332 6.71289L3.18858 6.94015L3.18861 6.94024L3.90332 6.71289ZM3.9375 6.01367L3.24901 5.71622L3.2489 5.71648L3.9375 6.01367ZM4.47559 5.375L3.94526 4.84467L3.94489 4.84504L4.47559 5.375ZM5.57129 4.2793L5.04742 3.74251L5.04096 3.74897L5.57129 4.2793ZM6.00098 3.94629L5.70099 3.2589L5.70057 3.25908L6.00098 3.94629ZM6.70801 3.91113L6.93822 3.19734L6.93805 3.19728L6.70801 3.91113ZM7.3916 4.38086L7.86688 3.80068L7.3916 4.38086ZM8.62305 5.19922L8.52029 5.94215L8.52049 5.94217L8.62305 5.19922ZM9.55664 4.81348L10.1542 5.26668L10.1544 5.26644L9.55664 4.81348ZM9.84961 3.36133L9.10332 3.28679L9.84961 3.36133ZM10.001 2.54297L9.33407 2.19984L9.3338 2.20037L10.001 2.54297ZM10.5234 2.06934L10.2483 1.37163L10.2483 1.37163L10.5234 2.06934ZM11.3525 2V1.25V2ZM11.9824 8V7.25H11.9824L11.9824 8ZM11.9824 16L11.9824 16.75H11.9824V16ZM12.6123 2V2.75C12.8398 2.75 12.9738 2.7503 13.0742 2.75691C13.1673 2.76304 13.1795 2.77228 13.1663 2.76706L13.4414 2.06934L13.7165 1.37161C13.5265 1.2967 13.3416 1.27127 13.1729 1.26016C13.0115 1.24953 12.8194 1.25 12.6123 1.25V2ZM13.4414 2.06934L13.1661 2.76699C13.2218 2.78894 13.2687 2.83119 13.2969 2.88589L13.9639 2.54297L14.6309 2.20005C14.4371 1.82314 14.1125 1.52786 13.7167 1.37169L13.4414 2.06934ZM13.9639 2.54297L13.2967 2.88556C13.2904 2.87323 13.3008 2.88484 13.3162 2.97676C13.3327 3.07592 13.3464 3.20936 13.3689 3.43568L14.1152 3.36133L14.8615 3.28698C14.841 3.0805 14.8223 2.88923 14.7957 2.72963C14.7678 2.5628 14.7241 2.38163 14.631 2.20038L13.9639 2.54297ZM14.1152 3.36133L13.3689 3.43568C13.4084 3.83208 13.4418 4.1736 13.4897 4.44182C13.5363 4.70259 13.6133 5.00735 13.8092 5.26614L14.4072 4.81348L15.0052 4.36081C15.0311 4.39505 15.0029 4.38276 14.9664 4.17809C14.9311 3.98089 14.9035 3.70861 14.8615 3.28698L14.1152 3.36133ZM14.4072 4.81348L13.8094 5.26641C14.192 5.77125 14.8177 6.0297 15.4444 5.94314L15.3418 5.2002L15.2392 4.45725C15.1492 4.46967 15.0594 4.43232 15.005 4.36054L14.4072 4.81348ZM15.3418 5.2002L15.4449 5.94307C15.7661 5.89847 16.0357 5.73771 16.2529 5.5863C16.4762 5.43065 16.7409 5.21305 17.0485 4.96102L16.5732 4.38086L16.0979 3.8007C15.7707 4.06875 15.5592 4.24145 15.3952 4.35577C15.2251 4.47433 15.1964 4.46319 15.2387 4.45732L15.3418 5.2002ZM16.5732 4.38086L17.0485 4.96102C17.2234 4.81774 17.3271 4.73351 17.4083 4.67567C17.4835 4.6221 17.4994 4.62093 17.4871 4.62491L17.2568 3.91113L17.0266 3.19735C16.6779 3.30984 16.382 3.56796 16.0979 3.8007L16.5732 4.38086ZM17.2568 3.91113L17.4868 4.625C17.5451 4.60623 17.6084 4.60946 17.664 4.63371L17.9639 3.94629L18.2638 3.25887C17.8727 3.08822 17.4325 3.06658 17.0268 3.19727L17.2568 3.91113ZM17.9639 3.94629L17.6635 4.63349C17.6548 4.62972 17.6623 4.63082 17.6953 4.65688C17.7322 4.68603 17.7845 4.7329 17.8697 4.81605L18.3936 4.2793L18.9174 3.74254C18.7383 3.56777 18.533 3.37657 18.2643 3.25908L17.9639 3.94629ZM18.3936 4.2793L17.8632 4.80963L18.9589 5.90533L19.4893 5.375L20.0196 4.84467L18.9239 3.74897L18.3936 4.2793ZM19.4893 5.375L18.9586 5.90496C19.119 6.06563 19.2135 6.16119 19.2791 6.23664C19.3399 6.30652 19.3429 6.32265 19.3379 6.31115L20.0264 6.01367L20.7148 5.7162C20.5687 5.37789 20.2821 5.1075 20.02 4.84504L19.4893 5.375ZM20.0264 6.01367L19.3378 6.31103C19.362 6.3669 19.3649 6.42868 19.3468 6.48557L20.0615 6.71289L20.7762 6.94021C20.9043 6.53756 20.882 6.10315 20.7149 5.71632L20.0264 6.01367ZM20.0615 6.71289L19.3469 6.48538C19.3511 6.47213 19.3503 6.48785 19.296 6.56413C19.2375 6.64638 19.1525 6.751 19.0081 6.92781L19.5889 7.40234L20.1697 7.87688C20.3016 7.71543 20.424 7.56618 20.5183 7.43369C20.6168 7.29524 20.7141 7.13536 20.7762 6.9404L20.0615 6.71289ZM19.5889 7.40234L19.0081 6.92781C18.7553 7.23724 18.5374 7.50322 18.3817 7.72784C18.2301 7.94644 18.07 8.21702 18.0263 8.53885L18.7695 8.63965L19.5127 8.74045C19.507 8.7823 19.496 8.75318 19.6143 8.5826C19.7284 8.41804 19.9013 8.20536 20.1697 7.87688L19.5889 7.40234ZM18.7695 8.63965L18.0263 8.53935C17.9422 9.16238 18.1984 9.7841 18.6999 10.166L19.1543 9.56934L19.6087 8.97266C19.5378 8.91868 19.5007 8.8299 19.5128 8.73995L18.7695 8.63965ZM19.1543 9.56934L18.6999 10.166C18.959 10.3633 19.2642 10.441 19.5255 10.4879C19.7941 10.5362 20.136 10.5698 20.5326 10.6095L20.6074 9.86328L20.6822 9.11702C20.2601 9.07471 19.9879 9.04697 19.7907 9.01156C19.5865 8.97487 19.5745 8.94661 19.6087 8.97265L19.1543 9.56934ZM20.6074 9.86328L20.5326 10.6095C20.7587 10.6322 20.8921 10.646 20.991 10.6627C21.0826 10.6781 21.0944 10.6886 21.0824 10.6824L21.4258 10.0156L21.7692 9.34886C21.5881 9.25562 21.4072 9.21162 21.24 9.18348C21.0802 9.15657 20.8889 9.13774 20.6822 9.11702L20.6074 9.86328ZM21.4258 10.0156L21.0823 10.6823C21.136 10.71 21.1785 10.757 21.2008 10.8134L21.8984 10.5381L22.5961 10.2628C22.4404 9.86837 22.1464 9.5432 21.7693 9.34892L21.4258 10.0156ZM21.8984 10.5381L21.2006 10.8128C21.1955 10.7999 21.2047 10.8123 21.2108 10.9053C21.2175 11.0057 21.2178 11.1397 21.2178 11.3672H21.9678H22.7178C22.7178 11.16 22.7182 10.9679 22.7076 10.8066C22.6965 10.6379 22.671 10.4531 22.5963 10.2633L21.8984 10.5381ZM21.9678 11.3672H21.2178V12.6328H21.9678H22.7178V11.3672H21.9678ZM21.9678 12.6328H21.2178C21.2178 12.8604 21.2175 12.9944 21.2109 13.0948C21.2047 13.1877 21.1955 13.2 21.2007 13.1869L21.8984 13.4619L22.5962 13.737C22.6711 13.547 22.6965 13.3621 22.7076 13.1934C22.7182 13.0321 22.7178 12.8399 22.7178 12.6328H21.9678ZM21.8984 13.4619L21.2007 13.1868C21.1785 13.2432 21.1363 13.2899 21.0824 13.3176L21.4258 13.9844L21.7692 14.6512C22.1465 14.4568 22.4405 14.1318 22.5962 13.737L21.8984 13.4619ZM21.4258 13.9844L21.0826 13.3175C21.0954 13.3109 21.0842 13.3213 20.9922 13.3366C20.8928 13.3532 20.7595 13.3668 20.5328 13.3895L20.6074 14.1357L20.682 14.882C20.888 14.8614 21.0794 14.8428 21.2388 14.8162C21.4055 14.7885 21.5872 14.7448 21.769 14.6513L21.4258 13.9844ZM20.6074 14.1357L20.5328 13.3895C20.1361 13.4291 19.7945 13.4628 19.5259 13.5112C19.2645 13.5583 18.96 13.636 18.7014 13.8326L19.1553 14.4297L19.6092 15.0267C19.5754 15.0524 19.5879 15.0241 19.7917 14.9874C19.9885 14.952 20.2605 14.9242 20.682 14.882L20.6074 14.1357ZM19.1553 14.4297L18.7013 13.8327C18.1999 14.214 17.9421 14.8354 18.0263 15.4596L18.7695 15.3594L19.5128 15.2591C19.5008 15.17 19.5376 15.0812 19.6093 15.0267L19.1553 14.4297ZM18.7695 15.3594L18.0263 15.46C18.07 15.7825 18.2309 16.0534 18.3824 16.2716C18.5383 16.496 18.7564 16.762 19.0091 17.0712L19.5898 16.5967L20.1706 16.1221C19.902 15.7933 19.7288 15.5806 19.6143 15.4158C19.4956 15.2448 19.507 15.2161 19.5128 15.2588L18.7695 15.3594ZM19.5898 16.5967L19.0091 17.0712C19.1531 17.2475 19.2378 17.352 19.2961 17.434C19.35 17.5099 19.3511 17.5259 19.3471 17.5133L20.0615 17.2852L20.776 17.057C20.6639 16.7061 20.4041 16.4079 20.1706 16.1221L19.5898 16.5967ZM20.0615 17.2852L19.3469 17.5128C19.3651 17.5699 19.3621 17.6329 19.3379 17.6887L20.0264 17.9863L20.7148 18.2839C20.8823 17.8966 20.9045 17.4604 20.7761 17.0575L20.0615 17.2852ZM20.0264 17.9863L19.3382 17.6882C19.3436 17.6757 19.3412 17.6912 19.28 17.7612C19.2139 17.8369 19.1194 17.9321 18.9586 18.0931L19.4893 18.623L20.02 19.153C20.1667 19.0061 20.3029 18.8702 20.4095 18.7482C20.5211 18.6206 20.6335 18.4717 20.7146 18.2845L20.0264 17.9863ZM19.4893 18.623L18.9586 18.093L18.0661 18.9866L18.5967 19.5166L19.1273 20.0466L20.0199 19.1531L19.4893 18.623ZM18.5967 19.5166L18.066 18.9866C17.9056 19.1472 17.8111 19.2415 17.7357 19.3076C17.666 19.3688 17.6508 19.3711 17.6636 19.3654L17.9639 20.0527L18.2641 20.74C18.4505 20.6586 18.5986 20.5461 18.7253 20.4349C18.8464 20.3286 18.9814 20.1927 19.1274 20.0466L18.5967 19.5166ZM17.9639 20.0527L17.6638 19.3654C17.6081 19.3897 17.5452 19.3929 17.487 19.3741L17.2568 20.0879L17.0266 20.8017C17.4326 20.9326 17.8726 20.9109 18.2639 20.7401L17.9639 20.0527ZM17.2568 20.0879L17.487 19.3741C17.4994 19.3781 17.4834 19.3769 17.4083 19.3234C17.3271 19.2656 17.2235 19.1813 17.0486 19.0381L16.5732 19.6182L16.0979 20.1983C16.3821 20.4312 16.6779 20.6892 17.0266 20.8017L17.2568 20.0879ZM16.5732 19.6182L17.0486 19.0381C16.7413 18.7862 16.4768 18.5686 16.2538 18.413C16.0369 18.2616 15.7674 18.1007 15.4462 18.056L15.3428 18.7988L15.2394 19.5417C15.1969 19.5358 15.2255 19.5245 15.3955 19.6432C15.5594 19.7575 15.7708 19.9302 16.0979 20.1983L16.5732 19.6182ZM15.3428 18.7988L15.4457 18.0559C14.8184 17.969 14.1929 18.2279 13.8104 18.7326L14.4082 19.1855L15.006 19.6385C15.0606 19.5664 15.1502 19.5293 15.2398 19.5417L15.3428 18.7988ZM14.4082 19.1855L13.8104 18.7327C13.6147 18.991 13.5373 19.2953 13.4904 19.5563C13.4422 19.8247 13.4086 20.1663 13.3689 20.5632L14.1152 20.6377L14.8615 20.7122C14.9036 20.2907 14.9314 20.0183 14.9668 19.8214C15.0035 19.617 15.0318 19.6045 15.006 19.6384L14.4082 19.1855ZM14.1152 20.6377L13.3689 20.5632C13.3462 20.7907 13.3327 20.9245 13.3161 21.0243C13.3007 21.1168 13.2903 21.1278 13.297 21.1147L13.9639 21.458L14.6307 21.8013C14.7245 21.6191 14.7681 21.4369 14.7958 21.2701C14.8223 21.1105 14.8409 20.9186 14.8615 20.7122L14.1152 20.6377ZM13.9639 21.458L13.2971 21.1147C13.2703 21.1667 13.2243 21.2091 13.166 21.2321L13.4414 21.9297L13.7168 22.6273C14.1094 22.4723 14.4356 22.1803 14.6307 21.8013L13.9639 21.458ZM13.4414 21.9297L13.166 21.2321C13.1784 21.2272 13.1654 21.2365 13.0727 21.2427C12.9726 21.2495 12.8384 21.25 12.6113 21.25V22V22.75C12.9796 22.75 13.3744 22.7624 13.7168 22.6273L13.4414 21.9297ZM12.6113 22V21.25H11.3525V22V22.75H12.6113V22ZM11.3525 22V21.25C11.125 21.25 10.991 21.2497 10.8906 21.2431C10.7977 21.2369 10.7853 21.2277 10.7983 21.2329L10.5234 21.9307L10.2485 22.6285C10.4384 22.7033 10.6232 22.7287 10.7919 22.7398C10.9533 22.7505 11.1454 22.75 11.3525 22.75V22ZM10.5234 21.9307L10.7987 21.233C10.7422 21.2107 10.6954 21.1683 10.6677 21.1146L10.001 21.458L9.33421 21.8014C9.52854 22.1787 9.85373 22.4727 10.2482 22.6283L10.5234 21.9307ZM10.001 21.458L10.6677 21.1146C10.6741 21.127 10.6636 21.1152 10.6481 21.023C10.6314 20.9236 10.6176 20.7897 10.5949 20.563L9.84863 20.6377L9.10236 20.7124C9.1231 20.9195 9.14192 21.1113 9.16879 21.2713C9.19685 21.4385 9.24078 21.62 9.33421 21.8014L10.001 21.458ZM9.84863 20.6377L10.5949 20.563C10.5553 20.1669 10.5218 19.8256 10.4739 19.5577C10.4274 19.2973 10.3505 18.9926 10.1546 18.7339L9.55664 19.1865L8.95863 19.6392C8.93258 19.6047 8.96073 19.6168 8.9973 19.8215C9.03252 20.0187 9.06016 20.2908 9.10236 20.7124L9.84863 20.6377ZM9.55664 19.1865L10.1545 18.7336C9.77166 18.2283 9.14505 17.9698 8.51783 18.0569L8.62109 18.7998L8.72436 19.5427C8.81436 19.5301 8.90437 19.5675 8.95881 19.6394L9.55664 19.1865ZM8.62109 18.7998L8.51731 18.057C8.19676 18.1018 7.92766 18.2622 7.71064 18.4135C7.4876 18.569 7.22334 18.7863 6.91613 19.0381L7.3916 19.6182L7.86707 20.1982C8.19364 19.9305 8.40485 19.7581 8.56848 19.644C8.73812 19.5257 8.76688 19.5367 8.72488 19.5426L8.62109 18.7998ZM7.3916 19.6182L6.91613 19.0381C6.74089 19.1818 6.63721 19.2663 6.55572 19.3245C6.48016 19.3785 6.46453 19.3794 6.4776 19.3751L6.70801 20.0889L6.93841 20.8026C7.13175 20.7402 7.29028 20.6432 7.42762 20.545C7.55904 20.4512 7.70702 20.3294 7.86707 20.1982L7.3916 19.6182ZM6.70801 20.0889L6.47775 19.3751C6.41956 19.3939 6.35678 19.3907 6.30106 19.3664L6.00098 20.0537L5.70089 20.7411C6.09222 20.9119 6.53223 20.9336 6.93826 20.8026L6.70801 20.0889ZM6.00098 20.0537L6.30109 19.3664C6.30991 19.3702 6.30261 19.3692 6.26961 19.3432C6.23269 19.314 6.18039 19.2672 6.09511 19.1839L5.57129 19.7207L5.04747 20.2575C5.22633 20.432 5.43177 20.6236 5.70087 20.741L6.00098 20.0537ZM5.57129 19.7207L6.10162 19.1904L5.00592 18.0947L4.47559 18.625L3.94526 19.1553L5.04096 20.251L5.57129 19.7207ZM4.47559 18.625L5.00628 18.095C4.84532 17.9339 4.75059 17.8383 4.68447 17.7625C4.6232 17.6923 4.62068 17.6766 4.62602 17.6889L3.9375 17.9863L3.24898 18.2837C3.32996 18.4712 3.44235 18.6205 3.55415 18.7486C3.6611 18.8712 3.79759 19.0075 3.94489 19.155L4.47559 18.625ZM3.9375 17.9863L4.62611 17.6892C4.60282 17.6352 4.59936 17.5732 4.61806 17.5144L3.90332 17.2871L3.18858 17.0598C3.06122 17.4604 3.0812 17.8949 3.24889 18.2835L3.9375 17.9863ZM3.90332 17.2871L4.61805 17.5144C4.6138 17.5278 4.61449 17.5122 4.6687 17.436C4.72723 17.3538 4.81218 17.2492 4.95683 17.0721L4.37598 16.5977L3.79512 16.1232C3.66323 16.2847 3.54076 16.4339 3.44655 16.5663C3.34802 16.7048 3.25065 16.8647 3.18859 17.0598L3.90332 17.2871ZM4.37598 16.5977L4.95683 17.0721C5.20991 16.7623 5.42777 16.496 5.58356 16.2711C5.73516 16.0523 5.8951 15.7816 5.93857 15.4598L5.19531 15.3594L4.45206 15.259C4.45772 15.2171 4.46876 15.2463 4.35051 15.417C4.23647 15.5816 4.06357 15.7945 3.79512 16.1232L4.37598 16.5977ZM5.19531 15.3594L5.93858 15.4596C6.0226 14.8367 5.76669 14.2149 5.26479 13.8329L4.81055 14.4297L4.3563 15.0265C4.427 15.0803 4.46422 15.1689 4.45204 15.2591L5.19531 15.3594ZM4.81055 14.4297L5.26464 13.8328C5.00578 13.6359 4.70078 13.5581 4.43933 13.5111C4.17064 13.4628 3.82877 13.4291 3.43205 13.3895L3.35742 14.1357L3.28279 14.882C3.70454 14.9242 3.97681 14.952 4.17385 14.9874C4.37814 15.0242 4.39047 15.0525 4.35646 15.0266L4.81055 14.4297ZM3.35742 14.1357L3.43205 13.3895C3.20532 13.3668 3.07202 13.3532 2.97264 13.3367C2.88063 13.3213 2.8695 13.3109 2.88234 13.3175L2.53906 13.9844L2.19579 14.6512C2.37763 14.7448 2.55935 14.7885 2.7261 14.8163C2.88549 14.8428 3.07686 14.8614 3.28279 14.882L3.35742 14.1357ZM2.53906 13.9844L2.88244 13.3176C2.82869 13.2899 2.78638 13.2432 2.76408 13.1867L2.06641 13.4619L1.36873 13.7371C1.52437 14.1317 1.81834 14.4568 2.19568 14.6512L2.53906 13.9844ZM2.06641 13.4619L2.76417 13.1869C2.76934 13.2 2.76011 13.1877 2.75398 13.0948C2.74737 12.9944 2.74707 12.8604 2.74707 12.6328H1.99707H1.24707C1.24707 12.8399 1.2466 13.0321 1.25723 13.1934C1.26835 13.3621 1.29379 13.547 1.36864 13.7369L2.06641 13.4619ZM1.99707 12.6328H2.74707V11.3672H1.99707H1.24707V12.6328H1.99707ZM1.99707 11.3672H2.74707C2.74707 11.1397 2.74739 11.0057 2.75401 10.9053C2.76015 10.8123 2.76938 10.7998 2.76426 10.8128L2.06641 10.5381L1.36855 10.2633C1.29382 10.4531 1.26839 10.6379 1.25726 10.8066C1.24662 10.9679 1.24707 11.16 1.24707 11.3672H1.99707ZM2.06641 10.5381L2.76407 10.8133C2.78633 10.7569 2.82874 10.7101 2.88254 10.6823L2.53906 10.0156L2.19558 9.3489C1.81845 9.54319 1.52439 9.86833 1.36874 10.2628L2.06641 10.5381ZM2.53906 10.0156L2.8825 10.6824C2.87045 10.6886 2.88222 10.6781 2.97385 10.6627C3.07278 10.646 3.20614 10.6322 3.43224 10.6095L3.35742 9.86328L3.2826 9.11702C3.07594 9.13774 2.88463 9.15658 2.72482 9.18348C2.55773 9.21162 2.3767 9.25561 2.19563 9.34888L2.53906 10.0156ZM3.35742 9.86328L3.43224 10.6095C3.8287 10.5698 4.17036 10.5361 4.43878 10.4878C4.70011 10.4408 5.00487 10.3631 5.26368 10.1662L4.80957 9.56934L4.35546 8.97244C4.38943 8.9466 4.37721 8.97485 4.17322 9.01154C3.97633 9.04696 3.70433 9.07474 3.2826 9.11702L3.35742 9.86328ZM4.80957 9.56934L5.26388 10.1661C5.76442 9.78502 6.02282 9.16381 5.93858 8.53937L5.19531 8.63965L4.45205 8.73993C4.464 8.82856 4.42723 8.9178 4.35527 8.97259L4.80957 9.56934ZM5.19531 8.63965L5.93852 8.53893C5.8948 8.21638 5.73383 7.94545 5.58229 7.72735C5.42645 7.50307 5.20839 7.23708 4.95587 6.92791L4.375 7.40234L3.79413 7.87678C4.06277 8.20569 4.23589 8.41838 4.35044 8.58325C4.46928 8.75429 4.45788 8.78297 4.45211 8.74037L5.19531 8.63965ZM4.375 7.40234L4.95587 6.92791C4.81181 6.75152 4.72707 6.6469 4.66896 6.56499C4.61513 6.48909 4.61405 6.47303 4.61803 6.48554L3.90332 6.71289L3.18861 6.94024C3.30042 7.29174 3.56002 7.59015 3.79413 7.87678L4.375 7.40234ZM3.90332 6.71289L4.61806 6.48563C4.59935 6.42678 4.60282 6.36482 4.6261 6.31087L3.9375 6.01367L3.2489 5.71648C3.08118 6.10508 3.06123 6.53964 3.18858 6.94015L3.90332 6.71289ZM3.9375 6.01367L4.62599 6.31112C4.62065 6.3235 4.62319 6.30773 4.68451 6.23744C4.75065 6.16163 4.8454 6.06607 5.00628 5.90496L4.47559 5.375L3.94489 4.84504C3.7976 4.99253 3.66112 5.12877 3.55417 5.25138C3.4424 5.3795 3.32999 5.52878 3.24901 5.71622L3.9375 6.01367ZM4.47559 5.375L5.00592 5.90533L6.10162 4.80963L5.57129 4.2793L5.04096 3.74897L3.94526 4.84467L4.47559 5.375ZM5.57129 4.2793L6.09512 4.81605C6.18033 4.73289 6.23264 4.68602 6.26957 4.65688C6.30258 4.63083 6.31001 4.62973 6.30139 4.6335L6.00098 3.94629L5.70057 3.25908C5.43183 3.37656 5.22657 3.56775 5.04746 3.74255L5.57129 4.2793ZM6.00098 3.94629L6.30096 4.63368C6.35653 4.60943 6.41968 4.6062 6.47797 4.62498L6.70801 3.91113L6.93805 3.19728C6.53235 3.06655 6.09221 3.08816 5.70099 3.2589L6.00098 3.94629ZM6.70801 3.91113L6.47779 4.62493C6.46541 4.62093 6.48133 4.62208 6.55653 4.67565C6.63773 4.73349 6.74139 4.81773 6.91632 4.96104L7.3916 4.38086L7.86688 3.80068C7.58283 3.56799 7.28696 3.30981 6.93822 3.19734L6.70801 3.91113ZM7.3916 4.38086L6.91632 4.96104C7.22414 5.2132 7.48885 5.43062 7.71237 5.58618C7.9299 5.73756 8.1994 5.89776 8.52029 5.94215L8.62305 5.19922L8.7258 4.45629C8.76779 4.4621 8.73897 4.47313 8.56919 4.35498C8.40541 4.241 8.19385 4.06853 7.86688 3.80068L7.3916 4.38086ZM8.62305 5.19922L8.52049 5.94217C9.14628 6.02856 9.77135 5.77154 10.1542 5.26668L9.55664 4.81348L8.95905 4.36028C8.90502 4.43153 8.81609 4.46875 8.72561 4.45626L8.62305 5.19922ZM9.55664 4.81348L10.1544 5.26644C10.3503 5.00797 10.4276 4.70345 10.4745 4.44252C10.5226 4.17408 10.5563 3.83255 10.5959 3.43587L9.84961 3.36133L9.10332 3.28679C9.06124 3.70815 9.03341 3.98048 8.99805 4.17752C8.96134 4.38204 8.93306 4.39458 8.95888 4.36051L9.55664 4.81348ZM9.84961 3.36133L10.5959 3.43587C10.6185 3.20941 10.6322 3.07595 10.6487 2.97667C10.6641 2.88464 10.6745 2.87312 10.6682 2.88557L10.001 2.54297L9.3338 2.20037C9.24068 2.38171 9.19705 2.56297 9.16922 2.72969C9.1426 2.88917 9.12393 3.08045 9.10332 3.28679L9.84961 3.36133ZM10.001 2.54297L10.6679 2.88609C10.6962 2.83104 10.7433 2.78884 10.7986 2.76704L10.5234 2.06934L10.2483 1.37163C9.85215 1.52785 9.52774 1.82341 9.33407 2.19984L10.001 2.54297ZM10.5234 2.06934L10.7986 2.76704C10.7854 2.77225 10.7976 2.76302 10.8906 2.7569C10.9909 2.75029 11.1249 2.75 11.3525 2.75V2V1.25C11.1454 1.25 10.9532 1.24952 10.7919 1.26015C10.6232 1.27126 10.4383 1.2967 10.2483 1.37163L10.5234 2.06934ZM11.3525 2V2.75H12.6123V2V1.25H11.3525V2ZM11.9824 8L11.9824 7.25C9.3613 7.25006 7.23828 9.3777 7.23828 12H7.98828H8.73828C8.73828 10.2041 10.1918 8.75004 11.9824 8.75L11.9824 8ZM7.98828 12H7.23828C7.23828 14.6223 9.3613 16.7499 11.9824 16.75L11.9824 16L11.9824 15.25C10.1918 15.25 8.73828 13.7959 8.73828 12H7.98828ZM11.9824 16V16.75C14.6036 16.75 16.7266 14.6223 16.7266 12H15.9766H15.2266C15.2266 13.796 13.7731 15.25 11.9824 15.25V16ZM15.9766 12H16.7266C16.7266 9.37769 14.6036 7.25 11.9824 7.25V8V8.75C13.7731 8.75 15.2266 10.204 15.2266 12H15.9766Z" fill="#79869B"/>
</svg>
