<svg xmlns="http://www.w3.org/2000/svg" width="293" height="213" viewBox="0 0 293 213" fill="none">
  <g opacity="0.3">
    <path d="M1.64238 0H24.6357C25.5428 0 26.2781 1.22261 26.2781 2.73077V13.6538C26.2781 15.162 25.5428 16.3846 24.6357 16.3846H1.64238C0.735319 16.3846 0 15.162 0 13.6538V2.73077C0 1.22261 0.735319 0 1.64238 0Z" fill="url(#paint0_linear_3598_2542)"/>
    <path d="M1.64238 21.8462H24.6357C25.5428 21.8462 26.2781 23.0688 26.2781 24.5769V35.5C26.2781 37.0082 25.5428 38.2308 24.6357 38.2308H1.64238C0.735319 38.2308 0 37.0082 0 35.5V24.5769C0 23.0688 0.735319 21.8462 1.64238 21.8462Z" fill="url(#paint1_linear_3598_2542)"/>
    <path d="M1.64238 43.6923H24.6357C25.5428 43.6923 26.2781 44.9149 26.2781 46.4231V57.3462C26.2781 58.8543 25.5428 60.0769 24.6357 60.0769H1.64238C0.735319 60.0769 0 58.8543 0 57.3462V46.4231C0 44.9149 0.735319 43.6923 1.64238 43.6923Z" fill="url(#paint2_linear_3598_2542)"/>
    <path d="M1.64238 65.5385H24.6357C25.5428 65.5385 26.2781 66.7611 26.2781 68.2692V79.1923C26.2781 80.7005 25.5428 81.9231 24.6357 81.9231H1.64238C0.735319 81.9231 0 80.7005 0 79.1923V68.2692C0 66.7611 0.735319 65.5385 1.64238 65.5385Z" fill="url(#paint3_linear_3598_2542)"/>
    <path d="M1.64238 87.3846H24.6357C25.5428 87.3846 26.2781 88.6072 26.2781 90.1154V101.038C26.2781 102.547 25.5428 103.769 24.6357 103.769H1.64238C0.735319 103.769 0 102.547 0 101.038V90.1154C0 88.6072 0.735319 87.3846 1.64238 87.3846Z" fill="url(#paint4_linear_3598_2542)"/>
    <path d="M1.64238 109.231H24.6357C25.5428 109.231 26.2781 110.453 26.2781 111.962V122.885C26.2781 124.393 25.5428 125.615 24.6357 125.615H1.64238C0.735319 125.615 0 124.393 0 122.885V111.962C0 110.453 0.735319 109.231 1.64238 109.231Z" fill="url(#paint5_linear_3598_2542)"/>
    <path d="M1.64238 131.077H24.6357C25.5428 131.077 26.2781 132.3 26.2781 133.808V144.731C26.2781 146.239 25.5428 147.462 24.6357 147.462H1.64238C0.735319 147.462 0 146.239 0 144.731V133.808C0 132.3 0.735319 131.077 1.64238 131.077Z" fill="url(#paint6_linear_3598_2542)"/>
    <path d="M1.64238 152.923H24.6357C25.5428 152.923 26.2781 154.146 26.2781 155.654V166.577C26.2781 168.085 25.5428 169.308 24.6357 169.308H1.64238C0.735319 169.308 0 168.085 0 166.577V155.654C0 154.146 0.735319 152.923 1.64238 152.923Z" fill="url(#paint7_linear_3598_2542)"/>
    <path d="M1.64238 174.769H24.6357C25.5428 174.769 26.2781 175.992 26.2781 177.5V188.423C26.2781 189.931 25.5428 191.154 24.6357 191.154H1.64238C0.735319 191.154 0 189.931 0 188.423V177.5C0 175.992 0.735319 174.769 1.64238 174.769Z" fill="url(#paint8_linear_3598_2542)"/>
    <path d="M24.6357 196.615H1.64238C0.735319 196.615 0 197.838 0 199.346V210.269C0 211.777 0.735319 213 1.64238 213H24.6357C25.5428 213 26.2781 211.777 26.2781 210.269V199.346C26.2781 197.838 25.5428 196.615 24.6357 196.615Z" fill="url(#paint9_linear_3598_2542)"/>
    <path d="M54.1985 196.615H31.2052C30.2982 196.615 29.5628 197.838 29.5628 199.346V210.269C29.5628 211.777 30.2982 213 31.2052 213H54.1985C55.1056 213 55.8409 211.777 55.8409 210.269V199.346C55.8409 197.838 55.1056 196.615 54.1985 196.615Z" fill="url(#paint10_linear_3598_2542)"/>
    <path d="M60.7681 196.615H83.7614C84.6684 196.615 85.4038 197.838 85.4038 199.346V210.269C85.4038 211.777 84.6684 213 83.7614 213H60.7681C59.861 213 59.1257 211.777 59.1257 210.269V199.346C59.1257 197.838 59.861 196.615 60.7681 196.615Z" fill="url(#paint11_linear_3598_2542)"/>
    <path d="M113.324 196.615H90.3309C89.4239 196.615 88.6885 197.838 88.6885 199.346V210.269C88.6885 211.777 89.4239 213 90.3309 213H113.324C114.231 213 114.967 211.777 114.967 210.269V199.346C114.967 197.838 114.231 196.615 113.324 196.615Z" fill="url(#paint12_linear_3598_2542)"/>
    <path d="M119.894 196.615H142.887C143.794 196.615 144.529 197.838 144.529 199.346V210.269C144.529 211.777 143.794 213 142.887 213H119.894C118.987 213 118.251 211.777 118.251 210.269V199.346C118.251 197.838 118.987 196.615 119.894 196.615Z" fill="url(#paint13_linear_3598_2542)"/>
    <path d="M172.45 196.615H149.457C148.55 196.615 147.814 197.838 147.814 199.346V210.269C147.814 211.777 148.55 213 149.457 213H172.45C173.357 213 174.092 211.777 174.092 210.269V199.346C174.092 197.838 173.357 196.615 172.45 196.615Z" fill="url(#paint14_linear_3598_2542)"/>
    <path d="M179.019 196.615H202.013C202.92 196.615 203.655 197.838 203.655 199.346V210.269C203.655 211.777 202.92 213 202.013 213H179.019C178.112 213 177.377 211.777 177.377 210.269V199.346C177.377 197.838 178.112 196.615 179.019 196.615Z" fill="url(#paint15_linear_3598_2542)"/>
    <path d="M231.576 196.615H208.582C207.675 196.615 206.94 197.838 206.94 199.346V210.269C206.94 211.777 207.675 213 208.582 213H231.576C232.483 213 233.218 211.777 233.218 210.269V199.346C233.218 197.838 232.483 196.615 231.576 196.615Z" fill="url(#paint16_linear_3598_2542)"/>
    <path d="M238.145 196.615H261.138C262.046 196.615 262.781 197.838 262.781 199.346V210.269C262.781 211.777 262.046 213 261.138 213H238.145C237.238 213 236.503 211.777 236.503 210.269V199.346C236.503 197.838 237.238 196.615 238.145 196.615Z" fill="url(#paint17_linear_3598_2542)"/>
    <path d="M290.701 196.615H267.708C266.801 196.615 266.066 197.838 266.066 199.346V210.269C266.066 211.777 266.801 213 267.708 213H290.701C291.608 213 292.344 211.777 292.344 210.269V199.346C292.344 197.838 291.608 196.615 290.701 196.615Z" fill="url(#paint18_linear_3598_2542)"/>
    <path d="M54.1985 174.769H31.2052C30.2982 174.769 29.5628 175.992 29.5628 177.5V188.423C29.5628 189.931 30.2982 191.154 31.2052 191.154H54.1985C55.1056 191.154 55.8409 189.931 55.8409 188.423V177.5C55.8409 175.992 55.1056 174.769 54.1985 174.769Z" fill="url(#paint19_linear_3598_2542)"/>
    <path d="M60.7681 174.769H83.7614C84.6684 174.769 85.4038 175.992 85.4038 177.5V188.423C85.4038 189.931 84.6684 191.154 83.7614 191.154H60.7681C59.861 191.154 59.1257 189.931 59.1257 188.423V177.5C59.1257 175.992 59.861 174.769 60.7681 174.769Z" fill="url(#paint20_linear_3598_2542)"/>
    <path d="M113.324 174.769H90.3309C89.4239 174.769 88.6885 175.992 88.6885 177.5V188.423C88.6885 189.931 89.4239 191.154 90.3309 191.154H113.324C114.231 191.154 114.967 189.931 114.967 188.423V177.5C114.967 175.992 114.231 174.769 113.324 174.769Z" fill="url(#paint21_linear_3598_2542)"/>
    <path d="M119.894 174.769H142.887C143.794 174.769 144.529 175.992 144.529 177.5V188.423C144.529 189.931 143.794 191.154 142.887 191.154H119.894C118.987 191.154 118.251 189.931 118.251 188.423V177.5C118.251 175.992 118.987 174.769 119.894 174.769Z" fill="url(#paint22_linear_3598_2542)"/>
    <path d="M172.45 174.769H149.457C148.55 174.769 147.814 175.992 147.814 177.5V188.423C147.814 189.931 148.55 191.154 149.457 191.154H172.45C173.357 191.154 174.092 189.931 174.092 188.423V177.5C174.092 175.992 173.357 174.769 172.45 174.769Z" fill="url(#paint23_linear_3598_2542)"/>
    <path d="M179.019 174.769H202.013C202.92 174.769 203.655 175.992 203.655 177.5V188.423C203.655 189.931 202.92 191.154 202.013 191.154H179.019C178.112 191.154 177.377 189.931 177.377 188.423V177.5C177.377 175.992 178.112 174.769 179.019 174.769Z" fill="url(#paint24_linear_3598_2542)"/>
    <path d="M231.576 174.769H208.582C207.675 174.769 206.94 175.992 206.94 177.5V188.423C206.94 189.931 207.675 191.154 208.582 191.154H231.576C232.483 191.154 233.218 189.931 233.218 188.423V177.5C233.218 175.992 232.483 174.769 231.576 174.769Z" fill="url(#paint25_linear_3598_2542)"/>
    <path d="M238.145 174.769H261.138C262.046 174.769 262.781 175.992 262.781 177.5V188.423C262.781 189.931 262.046 191.154 261.138 191.154H238.145C237.238 191.154 236.503 189.931 236.503 188.423V177.5C236.503 175.992 237.238 174.769 238.145 174.769Z" fill="url(#paint26_linear_3598_2542)"/>
    <path d="M290.701 174.769H267.708C266.801 174.769 266.066 175.992 266.066 177.5V188.423C266.066 189.931 266.801 191.154 267.708 191.154H290.701C291.608 191.154 292.344 189.931 292.344 188.423V177.5C292.344 175.992 291.608 174.769 290.701 174.769Z" fill="url(#paint27_linear_3598_2542)"/>
    <path d="M54.1985 152.923H31.2052C30.2982 152.923 29.5628 154.146 29.5628 155.654V166.577C29.5628 168.085 30.2982 169.308 31.2052 169.308H54.1985C55.1056 169.308 55.8409 168.085 55.8409 166.577V155.654C55.8409 154.146 55.1056 152.923 54.1985 152.923Z" fill="url(#paint28_linear_3598_2542)"/>
    <path d="M60.7681 152.923H83.7614C84.6684 152.923 85.4038 154.146 85.4038 155.654V166.577C85.4038 168.085 84.6684 169.308 83.7614 169.308H60.7681C59.861 169.308 59.1257 168.085 59.1257 166.577V155.654C59.1257 154.146 59.861 152.923 60.7681 152.923Z" fill="url(#paint29_linear_3598_2542)"/>
    <path d="M113.324 152.923H90.3309C89.4239 152.923 88.6885 154.146 88.6885 155.654V166.577C88.6885 168.085 89.4239 169.308 90.3309 169.308H113.324C114.231 169.308 114.967 168.085 114.967 166.577V155.654C114.967 154.146 114.231 152.923 113.324 152.923Z" fill="url(#paint30_linear_3598_2542)"/>
    <path d="M119.894 152.923H142.887C143.794 152.923 144.529 154.146 144.529 155.654V166.577C144.529 168.085 143.794 169.308 142.887 169.308H119.894C118.987 169.308 118.251 168.085 118.251 166.577V155.654C118.251 154.146 118.987 152.923 119.894 152.923Z" fill="url(#paint31_linear_3598_2542)"/>
    <path d="M172.45 152.923H149.457C148.55 152.923 147.814 154.146 147.814 155.654V166.577C147.814 168.085 148.55 169.308 149.457 169.308H172.45C173.357 169.308 174.092 168.085 174.092 166.577V155.654C174.092 154.146 173.357 152.923 172.45 152.923Z" fill="url(#paint32_linear_3598_2542)"/>
    <path d="M179.019 152.923H202.013C202.92 152.923 203.655 154.146 203.655 155.654V166.577C203.655 168.085 202.92 169.308 202.013 169.308H179.019C178.112 169.308 177.377 168.085 177.377 166.577V155.654C177.377 154.146 178.112 152.923 179.019 152.923Z" fill="url(#paint33_linear_3598_2542)"/>
    <path d="M231.576 152.923H208.582C207.675 152.923 206.94 154.146 206.94 155.654V166.577C206.94 168.085 207.675 169.308 208.582 169.308H231.576C232.483 169.308 233.218 168.085 233.218 166.577V155.654C233.218 154.146 232.483 152.923 231.576 152.923Z" fill="url(#paint34_linear_3598_2542)"/>
    <path d="M238.145 152.923H261.138C262.046 152.923 262.781 154.146 262.781 155.654V166.577C262.781 168.085 262.046 169.308 261.138 169.308H238.145C237.238 169.308 236.503 168.085 236.503 166.577V155.654C236.503 154.146 237.238 152.923 238.145 152.923Z" fill="url(#paint35_linear_3598_2542)"/>
    <path d="M290.701 152.923H267.708C266.801 152.923 266.066 154.146 266.066 155.654V166.577C266.066 168.085 266.801 169.308 267.708 169.308H290.701C291.608 169.308 292.344 168.085 292.344 166.577V155.654C292.344 154.146 291.608 152.923 290.701 152.923Z" fill="url(#paint36_linear_3598_2542)"/>
    <path d="M54.1985 131.077H31.2052C30.2982 131.077 29.5628 132.3 29.5628 133.808V144.731C29.5628 146.239 30.2982 147.462 31.2052 147.462H54.1985C55.1056 147.462 55.8409 146.239 55.8409 144.731V133.808C55.8409 132.3 55.1056 131.077 54.1985 131.077Z" fill="url(#paint37_linear_3598_2542)"/>
    <path d="M60.7681 131.077H83.7614C84.6684 131.077 85.4038 132.3 85.4038 133.808V144.731C85.4038 146.239 84.6684 147.462 83.7614 147.462H60.7681C59.861 147.462 59.1257 146.239 59.1257 144.731V133.808C59.1257 132.3 59.861 131.077 60.7681 131.077Z" fill="url(#paint38_linear_3598_2542)"/>
    <path d="M113.324 131.077H90.3309C89.4239 131.077 88.6885 132.3 88.6885 133.808V144.731C88.6885 146.239 89.4239 147.462 90.3309 147.462H113.324C114.231 147.462 114.967 146.239 114.967 144.731V133.808C114.967 132.3 114.231 131.077 113.324 131.077Z" fill="url(#paint39_linear_3598_2542)"/>
    <path d="M119.894 131.077H142.887C143.794 131.077 144.529 132.3 144.529 133.808V144.731C144.529 146.239 143.794 147.462 142.887 147.462H119.894C118.987 147.462 118.251 146.239 118.251 144.731V133.808C118.251 132.3 118.987 131.077 119.894 131.077Z" fill="url(#paint40_linear_3598_2542)"/>
    <path d="M172.45 131.077H149.457C148.55 131.077 147.814 132.3 147.814 133.808V144.731C147.814 146.239 148.55 147.462 149.457 147.462H172.45C173.357 147.462 174.092 146.239 174.092 144.731V133.808C174.092 132.3 173.357 131.077 172.45 131.077Z" fill="url(#paint41_linear_3598_2542)"/>
    <path d="M179.019 131.077H202.013C202.92 131.077 203.655 132.3 203.655 133.808V144.731C203.655 146.239 202.92 147.462 202.013 147.462H179.019C178.112 147.462 177.377 146.239 177.377 144.731V133.808C177.377 132.3 178.112 131.077 179.019 131.077Z" fill="url(#paint42_linear_3598_2542)"/>
    <path d="M231.576 131.077H208.582C207.675 131.077 206.94 132.3 206.94 133.808V144.731C206.94 146.239 207.675 147.462 208.582 147.462H231.576C232.483 147.462 233.218 146.239 233.218 144.731V133.808C233.218 132.3 232.483 131.077 231.576 131.077Z" fill="url(#paint43_linear_3598_2542)"/>
    <path d="M238.145 131.077H261.138C262.046 131.077 262.781 132.3 262.781 133.808V144.731C262.781 146.239 262.046 147.462 261.138 147.462H238.145C237.238 147.462 236.503 146.239 236.503 144.731V133.808C236.503 132.3 237.238 131.077 238.145 131.077Z" fill="url(#paint44_linear_3598_2542)"/>
    <path d="M290.701 131.077H267.708C266.801 131.077 266.066 132.3 266.066 133.808V144.731C266.066 146.239 266.801 147.462 267.708 147.462H290.701C291.608 147.462 292.344 146.239 292.344 144.731V133.808C292.344 132.3 291.608 131.077 290.701 131.077Z" fill="url(#paint45_linear_3598_2542)"/>
    <path d="M54.1985 109.231H31.2052C30.2982 109.231 29.5628 110.453 29.5628 111.962V122.885C29.5628 124.393 30.2982 125.615 31.2052 125.615H54.1985C55.1056 125.615 55.8409 124.393 55.8409 122.885V111.962C55.8409 110.453 55.1056 109.231 54.1985 109.231Z" fill="url(#paint46_linear_3598_2542)"/>
    <path d="M60.7681 109.231H83.7614C84.6684 109.231 85.4038 110.453 85.4038 111.962V122.885C85.4038 124.393 84.6684 125.615 83.7614 125.615H60.7681C59.861 125.615 59.1257 124.393 59.1257 122.885V111.962C59.1257 110.453 59.861 109.231 60.7681 109.231Z" fill="url(#paint47_linear_3598_2542)"/>
    <path d="M113.324 109.231H90.3309C89.4239 109.231 88.6885 110.453 88.6885 111.962V122.885C88.6885 124.393 89.4239 125.615 90.3309 125.615H113.324C114.231 125.615 114.967 124.393 114.967 122.885V111.962C114.967 110.453 114.231 109.231 113.324 109.231Z" fill="url(#paint48_linear_3598_2542)"/>
    <path d="M119.894 109.231H142.887C143.794 109.231 144.529 110.453 144.529 111.962V122.885C144.529 124.393 143.794 125.615 142.887 125.615H119.894C118.987 125.615 118.251 124.393 118.251 122.885V111.962C118.251 110.453 118.987 109.231 119.894 109.231Z" fill="url(#paint49_linear_3598_2542)"/>
    <path d="M172.45 109.231H149.457C148.55 109.231 147.814 110.453 147.814 111.962V122.885C147.814 124.393 148.55 125.615 149.457 125.615H172.45C173.357 125.615 174.092 124.393 174.092 122.885V111.962C174.092 110.453 173.357 109.231 172.45 109.231Z" fill="url(#paint50_linear_3598_2542)"/>
    <path d="M179.019 109.231H202.013C202.92 109.231 203.655 110.453 203.655 111.962V122.885C203.655 124.393 202.92 125.615 202.013 125.615H179.019C178.112 125.615 177.377 124.393 177.377 122.885V111.962C177.377 110.453 178.112 109.231 179.019 109.231Z" fill="url(#paint51_linear_3598_2542)"/>
    <path d="M231.576 109.231H208.582C207.675 109.231 206.94 110.453 206.94 111.962V122.885C206.94 124.393 207.675 125.615 208.582 125.615H231.576C232.483 125.615 233.218 124.393 233.218 122.885V111.962C233.218 110.453 232.483 109.231 231.576 109.231Z" fill="url(#paint52_linear_3598_2542)"/>
    <path d="M238.145 109.231H261.138C262.046 109.231 262.781 110.453 262.781 111.962V122.885C262.781 124.393 262.046 125.615 261.138 125.615H238.145C237.238 125.615 236.503 124.393 236.503 122.885V111.962C236.503 110.453 237.238 109.231 238.145 109.231Z" fill="url(#paint53_linear_3598_2542)"/>
    <path d="M290.701 109.231H267.708C266.801 109.231 266.066 110.453 266.066 111.962V122.885C266.066 124.393 266.801 125.615 267.708 125.615H290.701C291.608 125.615 292.344 124.393 292.344 122.885V111.962C292.344 110.453 291.608 109.231 290.701 109.231Z" fill="url(#paint54_linear_3598_2542)"/>
    <path d="M54.1985 87.3846H31.2052C30.2982 87.3846 29.5628 88.6072 29.5628 90.1154V101.038C29.5628 102.547 30.2982 103.769 31.2052 103.769H54.1985C55.1056 103.769 55.8409 102.547 55.8409 101.038V90.1154C55.8409 88.6072 55.1056 87.3846 54.1985 87.3846Z" fill="url(#paint55_linear_3598_2542)"/>
    <path d="M60.7681 87.3846H83.7614C84.6684 87.3846 85.4038 88.6072 85.4038 90.1154V101.038C85.4038 102.547 84.6684 103.769 83.7614 103.769H60.7681C59.861 103.769 59.1257 102.547 59.1257 101.038V90.1154C59.1257 88.6072 59.861 87.3846 60.7681 87.3846Z" fill="url(#paint56_linear_3598_2542)"/>
    <path d="M113.324 87.3846H90.3309C89.4239 87.3846 88.6885 88.6072 88.6885 90.1154V101.038C88.6885 102.547 89.4239 103.769 90.3309 103.769H113.324C114.231 103.769 114.967 102.547 114.967 101.038V90.1154C114.967 88.6072 114.231 87.3846 113.324 87.3846Z" fill="url(#paint57_linear_3598_2542)"/>
    <path d="M119.894 87.3846H142.887C143.794 87.3846 144.529 88.6072 144.529 90.1154V101.038C144.529 102.547 143.794 103.769 142.887 103.769H119.894C118.987 103.769 118.251 102.547 118.251 101.038V90.1154C118.251 88.6072 118.987 87.3846 119.894 87.3846Z" fill="url(#paint58_linear_3598_2542)"/>
    <path d="M172.45 87.3846H149.457C148.55 87.3846 147.814 88.6072 147.814 90.1154V101.038C147.814 102.547 148.55 103.769 149.457 103.769H172.45C173.357 103.769 174.092 102.547 174.092 101.038V90.1154C174.092 88.6072 173.357 87.3846 172.45 87.3846Z" fill="url(#paint59_linear_3598_2542)"/>
    <path d="M179.019 87.3846H202.013C202.92 87.3846 203.655 88.6072 203.655 90.1154V101.038C203.655 102.547 202.92 103.769 202.013 103.769H179.019C178.112 103.769 177.377 102.547 177.377 101.038V90.1154C177.377 88.6072 178.112 87.3846 179.019 87.3846Z" fill="url(#paint60_linear_3598_2542)"/>
    <path d="M231.576 87.3846H208.582C207.675 87.3846 206.94 88.6072 206.94 90.1154V101.038C206.94 102.547 207.675 103.769 208.582 103.769H231.576C232.483 103.769 233.218 102.547 233.218 101.038V90.1154C233.218 88.6072 232.483 87.3846 231.576 87.3846Z" fill="url(#paint61_linear_3598_2542)"/>
    <path d="M238.145 87.3846H261.138C262.046 87.3846 262.781 88.6072 262.781 90.1154V101.038C262.781 102.547 262.046 103.769 261.138 103.769H238.145C237.238 103.769 236.503 102.547 236.503 101.038V90.1154C236.503 88.6072 237.238 87.3846 238.145 87.3846Z" fill="url(#paint62_linear_3598_2542)"/>
    <path d="M290.701 87.3846H267.708C266.801 87.3846 266.066 88.6072 266.066 90.1154V101.038C266.066 102.547 266.801 103.769 267.708 103.769H290.701C291.608 103.769 292.344 102.547 292.344 101.038V90.1154C292.344 88.6072 291.608 87.3846 290.701 87.3846Z" fill="url(#paint63_linear_3598_2542)"/>
    <path d="M54.1985 65.5385H31.2052C30.2982 65.5385 29.5628 66.7611 29.5628 68.2692V79.1923C29.5628 80.7005 30.2982 81.9231 31.2052 81.9231H54.1985C55.1056 81.9231 55.8409 80.7005 55.8409 79.1923V68.2692C55.8409 66.7611 55.1056 65.5385 54.1985 65.5385Z" fill="url(#paint64_linear_3598_2542)"/>
    <path d="M60.7681 65.5385H83.7614C84.6684 65.5385 85.4038 66.7611 85.4038 68.2692V79.1923C85.4038 80.7005 84.6684 81.9231 83.7614 81.9231H60.7681C59.861 81.9231 59.1257 80.7005 59.1257 79.1923V68.2692C59.1257 66.7611 59.861 65.5385 60.7681 65.5385Z" fill="url(#paint65_linear_3598_2542)"/>
    <path d="M113.324 65.5385H90.3309C89.4239 65.5385 88.6885 66.7611 88.6885 68.2692V79.1923C88.6885 80.7005 89.4239 81.9231 90.3309 81.9231H113.324C114.231 81.9231 114.967 80.7005 114.967 79.1923V68.2692C114.967 66.7611 114.231 65.5385 113.324 65.5385Z" fill="url(#paint66_linear_3598_2542)"/>
    <path d="M119.894 65.5385H142.887C143.794 65.5385 144.529 66.7611 144.529 68.2692V79.1923C144.529 80.7005 143.794 81.9231 142.887 81.9231H119.894C118.987 81.9231 118.251 80.7005 118.251 79.1923V68.2692C118.251 66.7611 118.987 65.5385 119.894 65.5385Z" fill="url(#paint67_linear_3598_2542)"/>
    <path d="M172.45 65.5385H149.457C148.55 65.5385 147.814 66.7611 147.814 68.2692V79.1923C147.814 80.7005 148.55 81.9231 149.457 81.9231H172.45C173.357 81.9231 174.092 80.7005 174.092 79.1923V68.2692C174.092 66.7611 173.357 65.5385 172.45 65.5385Z" fill="url(#paint68_linear_3598_2542)"/>
    <path d="M179.019 65.5385H202.013C202.92 65.5385 203.655 66.7611 203.655 68.2692V79.1923C203.655 80.7005 202.92 81.9231 202.013 81.9231H179.019C178.112 81.9231 177.377 80.7005 177.377 79.1923V68.2692C177.377 66.7611 178.112 65.5385 179.019 65.5385Z" fill="url(#paint69_linear_3598_2542)"/>
    <path d="M231.576 65.5385H208.582C207.675 65.5385 206.94 66.7611 206.94 68.2692V79.1923C206.94 80.7005 207.675 81.9231 208.582 81.9231H231.576C232.483 81.9231 233.218 80.7005 233.218 79.1923V68.2692C233.218 66.7611 232.483 65.5385 231.576 65.5385Z" fill="url(#paint70_linear_3598_2542)"/>
    <path d="M238.145 65.5385H261.138C262.046 65.5385 262.781 66.7611 262.781 68.2692V79.1923C262.781 80.7005 262.046 81.9231 261.138 81.9231H238.145C237.238 81.9231 236.503 80.7005 236.503 79.1923V68.2692C236.503 66.7611 237.238 65.5385 238.145 65.5385Z" fill="url(#paint71_linear_3598_2542)"/>
    <path d="M290.701 65.5385H267.708C266.801 65.5385 266.066 66.7611 266.066 68.2692V79.1923C266.066 80.7005 266.801 81.9231 267.708 81.9231H290.701C291.608 81.9231 292.344 80.7005 292.344 79.1923V68.2692C292.344 66.7611 291.608 65.5385 290.701 65.5385Z" fill="url(#paint72_linear_3598_2542)"/>
    <path d="M54.1985 43.6923H31.2052C30.2982 43.6923 29.5628 44.9149 29.5628 46.4231V57.3462C29.5628 58.8543 30.2982 60.0769 31.2052 60.0769H54.1985C55.1056 60.0769 55.8409 58.8543 55.8409 57.3462V46.4231C55.8409 44.9149 55.1056 43.6923 54.1985 43.6923Z" fill="url(#paint73_linear_3598_2542)"/>
    <path d="M60.7681 43.6923H83.7614C84.6684 43.6923 85.4038 44.9149 85.4038 46.4231V57.3462C85.4038 58.8543 84.6684 60.0769 83.7614 60.0769H60.7681C59.861 60.0769 59.1257 58.8543 59.1257 57.3462V46.4231C59.1257 44.9149 59.861 43.6923 60.7681 43.6923Z" fill="url(#paint74_linear_3598_2542)"/>
    <path d="M113.324 43.6923H90.3309C89.4239 43.6923 88.6885 44.9149 88.6885 46.4231V57.3462C88.6885 58.8543 89.4239 60.0769 90.3309 60.0769H113.324C114.231 60.0769 114.967 58.8543 114.967 57.3462V46.4231C114.967 44.9149 114.231 43.6923 113.324 43.6923Z" fill="url(#paint75_linear_3598_2542)"/>
    <path d="M119.894 43.6923H142.887C143.794 43.6923 144.529 44.9149 144.529 46.4231V57.3462C144.529 58.8543 143.794 60.0769 142.887 60.0769H119.894C118.987 60.0769 118.251 58.8543 118.251 57.3462V46.4231C118.251 44.9149 118.987 43.6923 119.894 43.6923Z" fill="url(#paint76_linear_3598_2542)"/>
    <path d="M172.45 43.6923H149.457C148.55 43.6923 147.814 44.9149 147.814 46.4231V57.3462C147.814 58.8543 148.55 60.0769 149.457 60.0769H172.45C173.357 60.0769 174.092 58.8543 174.092 57.3462V46.4231C174.092 44.9149 173.357 43.6923 172.45 43.6923Z" fill="url(#paint77_linear_3598_2542)"/>
    <path d="M179.019 43.6923H202.013C202.92 43.6923 203.655 44.9149 203.655 46.4231V57.3462C203.655 58.8543 202.92 60.0769 202.013 60.0769H179.019C178.112 60.0769 177.377 58.8543 177.377 57.3462V46.4231C177.377 44.9149 178.112 43.6923 179.019 43.6923Z" fill="url(#paint78_linear_3598_2542)"/>
    <path d="M231.576 43.6923H208.582C207.675 43.6923 206.94 44.9149 206.94 46.4231V57.3462C206.94 58.8543 207.675 60.0769 208.582 60.0769H231.576C232.483 60.0769 233.218 58.8543 233.218 57.3462V46.4231C233.218 44.9149 232.483 43.6923 231.576 43.6923Z" fill="url(#paint79_linear_3598_2542)"/>
    <path d="M238.145 43.6923H261.138C262.046 43.6923 262.781 44.9149 262.781 46.4231V57.3462C262.781 58.8543 262.046 60.0769 261.138 60.0769H238.145C237.238 60.0769 236.503 58.8543 236.503 57.3462V46.4231C236.503 44.9149 237.238 43.6923 238.145 43.6923Z" fill="url(#paint80_linear_3598_2542)"/>
    <path d="M290.701 43.6923H267.708C266.801 43.6923 266.066 44.9149 266.066 46.4231V57.3462C266.066 58.8543 266.801 60.0769 267.708 60.0769H290.701C291.608 60.0769 292.344 58.8543 292.344 57.3462V46.4231C292.344 44.9149 291.608 43.6923 290.701 43.6923Z" fill="url(#paint81_linear_3598_2542)"/>
    <path d="M54.1985 21.8462H31.2052C30.2982 21.8462 29.5628 23.0688 29.5628 24.5769V35.5C29.5628 37.0082 30.2982 38.2308 31.2052 38.2308H54.1985C55.1056 38.2308 55.8409 37.0082 55.8409 35.5V24.5769C55.8409 23.0688 55.1056 21.8462 54.1985 21.8462Z" fill="url(#paint82_linear_3598_2542)"/>
    <path d="M60.7681 21.8462H83.7614C84.6684 21.8462 85.4038 23.0688 85.4038 24.5769V35.5C85.4038 37.0082 84.6684 38.2308 83.7614 38.2308H60.7681C59.861 38.2308 59.1257 37.0082 59.1257 35.5V24.5769C59.1257 23.0688 59.861 21.8462 60.7681 21.8462Z" fill="url(#paint83_linear_3598_2542)"/>
    <path d="M113.324 21.8462H90.3309C89.4239 21.8462 88.6885 23.0688 88.6885 24.5769V35.5C88.6885 37.0082 89.4239 38.2308 90.3309 38.2308H113.324C114.231 38.2308 114.967 37.0082 114.967 35.5V24.5769C114.967 23.0688 114.231 21.8462 113.324 21.8462Z" fill="url(#paint84_linear_3598_2542)"/>
    <path d="M119.894 21.8462H142.887C143.794 21.8462 144.529 23.0688 144.529 24.5769V35.5C144.529 37.0082 143.794 38.2308 142.887 38.2308H119.894C118.987 38.2308 118.251 37.0082 118.251 35.5V24.5769C118.251 23.0688 118.987 21.8462 119.894 21.8462Z" fill="url(#paint85_linear_3598_2542)"/>
    <path d="M172.45 21.8462H149.457C148.55 21.8462 147.814 23.0688 147.814 24.5769V35.5C147.814 37.0082 148.55 38.2308 149.457 38.2308H172.45C173.357 38.2308 174.092 37.0082 174.092 35.5V24.5769C174.092 23.0688 173.357 21.8462 172.45 21.8462Z" fill="url(#paint86_linear_3598_2542)"/>
    <path d="M179.019 21.8462H202.013C202.92 21.8462 203.655 23.0688 203.655 24.5769V35.5C203.655 37.0082 202.92 38.2308 202.013 38.2308H179.019C178.112 38.2308 177.377 37.0082 177.377 35.5V24.5769C177.377 23.0688 178.112 21.8462 179.019 21.8462Z" fill="url(#paint87_linear_3598_2542)"/>
    <path d="M231.576 21.8462H208.582C207.675 21.8462 206.94 23.0688 206.94 24.5769V35.5C206.94 37.0082 207.675 38.2308 208.582 38.2308H231.576C232.483 38.2308 233.218 37.0082 233.218 35.5V24.5769C233.218 23.0688 232.483 21.8462 231.576 21.8462Z" fill="url(#paint88_linear_3598_2542)"/>
    <path d="M238.145 21.8462H261.138C262.046 21.8462 262.781 23.0688 262.781 24.5769V35.5C262.781 37.0082 262.046 38.2308 261.138 38.2308H238.145C237.238 38.2308 236.503 37.0082 236.503 35.5V24.5769C236.503 23.0688 237.238 21.8462 238.145 21.8462Z" fill="url(#paint89_linear_3598_2542)"/>
    <path d="M290.701 21.8462H267.708C266.801 21.8462 266.066 23.0688 266.066 24.5769V35.5C266.066 37.0082 266.801 38.2308 267.708 38.2308H290.701C291.608 38.2308 292.344 37.0082 292.344 35.5V24.5769C292.344 23.0688 291.608 21.8462 290.701 21.8462Z" fill="url(#paint90_linear_3598_2542)"/>
    <path d="M54.1985 0H31.2052C30.2982 0 29.5628 1.22261 29.5628 2.73077V13.6538C29.5628 15.162 30.2982 16.3846 31.2052 16.3846H54.1985C55.1056 16.3846 55.8409 15.162 55.8409 13.6538V2.73077C55.8409 1.22261 55.1056 0 54.1985 0Z" fill="url(#paint91_linear_3598_2542)"/>
    <path d="M60.7681 0H83.7614C84.6684 0 85.4038 1.22261 85.4038 2.73077V13.6538C85.4038 15.162 84.6684 16.3846 83.7614 16.3846H60.7681C59.861 16.3846 59.1257 15.162 59.1257 13.6538V2.73077C59.1257 1.22261 59.861 0 60.7681 0Z" fill="url(#paint92_linear_3598_2542)"/>
    <path d="M113.324 0H90.3309C89.4239 0 88.6885 1.22261 88.6885 2.73077V13.6538C88.6885 15.162 89.4239 16.3846 90.3309 16.3846H113.324C114.231 16.3846 114.967 15.162 114.967 13.6538V2.73077C114.967 1.22261 114.231 0 113.324 0Z" fill="url(#paint93_linear_3598_2542)"/>
    <path d="M119.894 0H142.887C143.794 0 144.529 1.22261 144.529 2.73077V13.6538C144.529 15.162 143.794 16.3846 142.887 16.3846H119.894C118.987 16.3846 118.251 15.162 118.251 13.6538V2.73077C118.251 1.22261 118.987 0 119.894 0Z" fill="url(#paint94_linear_3598_2542)"/>
    <path d="M172.45 0H149.457C148.55 0 147.814 1.22261 147.814 2.73077V13.6538C147.814 15.162 148.55 16.3846 149.457 16.3846H172.45C173.357 16.3846 174.092 15.162 174.092 13.6538V2.73077C174.092 1.22261 173.357 0 172.45 0Z" fill="url(#paint95_linear_3598_2542)"/>
    <path d="M179.019 0H202.013C202.92 0 203.655 1.22261 203.655 2.73077V13.6538C203.655 15.162 202.92 16.3846 202.013 16.3846H179.019C178.112 16.3846 177.377 15.162 177.377 13.6538V2.73077C177.377 1.22261 178.112 0 179.019 0Z" fill="url(#paint96_linear_3598_2542)"/>
    <path d="M231.576 0H208.582C207.675 0 206.94 1.22261 206.94 2.73077V13.6538C206.94 15.162 207.675 16.3846 208.582 16.3846H231.576C232.483 16.3846 233.218 15.162 233.218 13.6538V2.73077C233.218 1.22261 232.483 0 231.576 0Z" fill="url(#paint97_linear_3598_2542)"/>
    <path d="M238.145 0H261.138C262.046 0 262.781 1.22261 262.781 2.73077V13.6538C262.781 15.162 262.046 16.3846 261.138 16.3846H238.145C237.238 16.3846 236.503 15.162 236.503 13.6538V2.73077C236.503 1.22261 237.238 0 238.145 0Z" fill="url(#paint98_linear_3598_2542)"/>
    <path d="M290.701 0H267.708C266.801 0 266.066 1.22261 266.066 2.73077V13.6538C266.066 15.162 266.801 16.3846 267.708 16.3846H290.701C291.608 16.3846 292.344 15.162 292.344 13.6538V2.73077C292.344 1.22261 291.608 0 290.701 0Z" fill="url(#paint99_linear_3598_2542)"/>
  </g>
  <defs>
    <linearGradient id="paint0_linear_3598_2542" x1="146.172" y1="0" x2="146.172" y2="213" gradientUnits="userSpaceOnUse">
      <stop stop-color="#182230"/>
      <stop offset="1" stop-color="#101828"/>
    </linearGradient>
    <linearGradient id="paint1_linear_3598_2542" x1="146.172" y1="0" x2="146.172" y2="213" gradientUnits="userSpaceOnUse">
      <stop stop-color="#182230"/>
      <stop offset="1" stop-color="#101828"/>
    </linearGradient>
    <linearGradient id="paint2_linear_3598_2542" x1="146.172" y1="0" x2="146.172" y2="213" gradientUnits="userSpaceOnUse">
      <stop stop-color="#182230"/>
      <stop offset="1" stop-color="#101828"/>
    </linearGradient>
    <linearGradient id="paint3_linear_3598_2542" x1="146.172" y1="0" x2="146.172" y2="213" gradientUnits="userSpaceOnUse">
      <stop stop-color="#182230"/>
      <stop offset="1" stop-color="#101828"/>
    </linearGradient>
    <linearGradient id="paint4_linear_3598_2542" x1="146.172" y1="0" x2="146.172" y2="213" gradientUnits="userSpaceOnUse">
      <stop stop-color="#182230"/>
      <stop offset="1" stop-color="#101828"/>
    </linearGradient>
    <linearGradient id="paint5_linear_3598_2542" x1="146.172" y1="0" x2="146.172" y2="213" gradientUnits="userSpaceOnUse">
      <stop stop-color="#182230"/>
      <stop offset="1" stop-color="#101828"/>
    </linearGradient>
    <linearGradient id="paint6_linear_3598_2542" x1="146.172" y1="0" x2="146.172" y2="213" gradientUnits="userSpaceOnUse">
      <stop stop-color="#182230"/>
      <stop offset="1" stop-color="#101828"/>
    </linearGradient>
    <linearGradient id="paint7_linear_3598_2542" x1="146.172" y1="0" x2="146.172" y2="213" gradientUnits="userSpaceOnUse">
      <stop stop-color="#182230"/>
      <stop offset="1" stop-color="#101828"/>
    </linearGradient>
    <linearGradient id="paint8_linear_3598_2542" x1="146.172" y1="0" x2="146.172" y2="213" gradientUnits="userSpaceOnUse">
      <stop stop-color="#182230"/>
      <stop offset="1" stop-color="#101828"/>
    </linearGradient>
    <linearGradient id="paint9_linear_3598_2542" x1="146.172" y1="0" x2="146.172" y2="213" gradientUnits="userSpaceOnUse">
      <stop stop-color="#182230"/>
      <stop offset="1" stop-color="#101828"/>
    </linearGradient>
    <linearGradient id="paint10_linear_3598_2542" x1="146.172" y1="0" x2="146.172" y2="213" gradientUnits="userSpaceOnUse">
      <stop stop-color="#182230"/>
      <stop offset="1" stop-color="#101828"/>
    </linearGradient>
    <linearGradient id="paint11_linear_3598_2542" x1="146.172" y1="0" x2="146.172" y2="213" gradientUnits="userSpaceOnUse">
      <stop stop-color="#182230"/>
      <stop offset="1" stop-color="#101828"/>
    </linearGradient>
    <linearGradient id="paint12_linear_3598_2542" x1="146.172" y1="0" x2="146.172" y2="213" gradientUnits="userSpaceOnUse">
      <stop stop-color="#182230"/>
      <stop offset="1" stop-color="#101828"/>
    </linearGradient>
    <linearGradient id="paint13_linear_3598_2542" x1="146.172" y1="0" x2="146.172" y2="213" gradientUnits="userSpaceOnUse">
      <stop stop-color="#182230"/>
      <stop offset="1" stop-color="#101828"/>
    </linearGradient>
    <linearGradient id="paint14_linear_3598_2542" x1="146.172" y1="0" x2="146.172" y2="213" gradientUnits="userSpaceOnUse">
      <stop stop-color="#182230"/>
      <stop offset="1" stop-color="#101828"/>
    </linearGradient>
    <linearGradient id="paint15_linear_3598_2542" x1="146.172" y1="0" x2="146.172" y2="213" gradientUnits="userSpaceOnUse">
      <stop stop-color="#182230"/>
      <stop offset="1" stop-color="#101828"/>
    </linearGradient>
    <linearGradient id="paint16_linear_3598_2542" x1="146.172" y1="0" x2="146.172" y2="213" gradientUnits="userSpaceOnUse">
      <stop stop-color="#182230"/>
      <stop offset="1" stop-color="#101828"/>
    </linearGradient>
    <linearGradient id="paint17_linear_3598_2542" x1="146.172" y1="0" x2="146.172" y2="213" gradientUnits="userSpaceOnUse">
      <stop stop-color="#182230"/>
      <stop offset="1" stop-color="#101828"/>
    </linearGradient>
    <linearGradient id="paint18_linear_3598_2542" x1="146.172" y1="0" x2="146.172" y2="213" gradientUnits="userSpaceOnUse">
      <stop stop-color="#182230"/>
      <stop offset="1" stop-color="#101828"/>
    </linearGradient>
    <linearGradient id="paint19_linear_3598_2542" x1="146.172" y1="0" x2="146.172" y2="213" gradientUnits="userSpaceOnUse">
      <stop stop-color="#182230"/>
      <stop offset="1" stop-color="#101828"/>
    </linearGradient>
    <linearGradient id="paint20_linear_3598_2542" x1="146.172" y1="0" x2="146.172" y2="213" gradientUnits="userSpaceOnUse">
      <stop stop-color="#182230"/>
      <stop offset="1" stop-color="#101828"/>
    </linearGradient>
    <linearGradient id="paint21_linear_3598_2542" x1="146.172" y1="0" x2="146.172" y2="213" gradientUnits="userSpaceOnUse">
      <stop stop-color="#182230"/>
      <stop offset="1" stop-color="#101828"/>
    </linearGradient>
    <linearGradient id="paint22_linear_3598_2542" x1="146.172" y1="0" x2="146.172" y2="213" gradientUnits="userSpaceOnUse">
      <stop stop-color="#182230"/>
      <stop offset="1" stop-color="#101828"/>
    </linearGradient>
    <linearGradient id="paint23_linear_3598_2542" x1="146.172" y1="0" x2="146.172" y2="213" gradientUnits="userSpaceOnUse">
      <stop stop-color="#182230"/>
      <stop offset="1" stop-color="#101828"/>
    </linearGradient>
    <linearGradient id="paint24_linear_3598_2542" x1="146.172" y1="0" x2="146.172" y2="213" gradientUnits="userSpaceOnUse">
      <stop stop-color="#182230"/>
      <stop offset="1" stop-color="#101828"/>
    </linearGradient>
    <linearGradient id="paint25_linear_3598_2542" x1="146.172" y1="0" x2="146.172" y2="213" gradientUnits="userSpaceOnUse">
      <stop stop-color="#182230"/>
      <stop offset="1" stop-color="#101828"/>
    </linearGradient>
    <linearGradient id="paint26_linear_3598_2542" x1="146.172" y1="0" x2="146.172" y2="213" gradientUnits="userSpaceOnUse">
      <stop stop-color="#182230"/>
      <stop offset="1" stop-color="#101828"/>
    </linearGradient>
    <linearGradient id="paint27_linear_3598_2542" x1="146.172" y1="0" x2="146.172" y2="213" gradientUnits="userSpaceOnUse">
      <stop stop-color="#182230"/>
      <stop offset="1" stop-color="#101828"/>
    </linearGradient>
    <linearGradient id="paint28_linear_3598_2542" x1="146.172" y1="0" x2="146.172" y2="213" gradientUnits="userSpaceOnUse">
      <stop stop-color="#182230"/>
      <stop offset="1" stop-color="#101828"/>
    </linearGradient>
    <linearGradient id="paint29_linear_3598_2542" x1="146.172" y1="0" x2="146.172" y2="213" gradientUnits="userSpaceOnUse">
      <stop stop-color="#182230"/>
      <stop offset="1" stop-color="#101828"/>
    </linearGradient>
    <linearGradient id="paint30_linear_3598_2542" x1="146.172" y1="0" x2="146.172" y2="213" gradientUnits="userSpaceOnUse">
      <stop stop-color="#182230"/>
      <stop offset="1" stop-color="#101828"/>
    </linearGradient>
    <linearGradient id="paint31_linear_3598_2542" x1="146.172" y1="0" x2="146.172" y2="213" gradientUnits="userSpaceOnUse">
      <stop stop-color="#182230"/>
      <stop offset="1" stop-color="#101828"/>
    </linearGradient>
    <linearGradient id="paint32_linear_3598_2542" x1="146.172" y1="0" x2="146.172" y2="213" gradientUnits="userSpaceOnUse">
      <stop stop-color="#182230"/>
      <stop offset="1" stop-color="#101828"/>
    </linearGradient>
    <linearGradient id="paint33_linear_3598_2542" x1="146.172" y1="0" x2="146.172" y2="213" gradientUnits="userSpaceOnUse">
      <stop stop-color="#182230"/>
      <stop offset="1" stop-color="#101828"/>
    </linearGradient>
    <linearGradient id="paint34_linear_3598_2542" x1="146.172" y1="0" x2="146.172" y2="213" gradientUnits="userSpaceOnUse">
      <stop stop-color="#182230"/>
      <stop offset="1" stop-color="#101828"/>
    </linearGradient>
    <linearGradient id="paint35_linear_3598_2542" x1="146.172" y1="0" x2="146.172" y2="213" gradientUnits="userSpaceOnUse">
      <stop stop-color="#182230"/>
      <stop offset="1" stop-color="#101828"/>
    </linearGradient>
    <linearGradient id="paint36_linear_3598_2542" x1="146.172" y1="0" x2="146.172" y2="213" gradientUnits="userSpaceOnUse">
      <stop stop-color="#182230"/>
      <stop offset="1" stop-color="#101828"/>
    </linearGradient>
    <linearGradient id="paint37_linear_3598_2542" x1="146.172" y1="0" x2="146.172" y2="213" gradientUnits="userSpaceOnUse">
      <stop stop-color="#182230"/>
      <stop offset="1" stop-color="#101828"/>
    </linearGradient>
    <linearGradient id="paint38_linear_3598_2542" x1="146.172" y1="0" x2="146.172" y2="213" gradientUnits="userSpaceOnUse">
      <stop stop-color="#182230"/>
      <stop offset="1" stop-color="#101828"/>
    </linearGradient>
    <linearGradient id="paint39_linear_3598_2542" x1="146.172" y1="0" x2="146.172" y2="213" gradientUnits="userSpaceOnUse">
      <stop stop-color="#182230"/>
      <stop offset="1" stop-color="#101828"/>
    </linearGradient>
    <linearGradient id="paint40_linear_3598_2542" x1="146.172" y1="0" x2="146.172" y2="213" gradientUnits="userSpaceOnUse">
      <stop stop-color="#182230"/>
      <stop offset="1" stop-color="#101828"/>
    </linearGradient>
    <linearGradient id="paint41_linear_3598_2542" x1="146.172" y1="0" x2="146.172" y2="213" gradientUnits="userSpaceOnUse">
      <stop stop-color="#182230"/>
      <stop offset="1" stop-color="#101828"/>
    </linearGradient>
    <linearGradient id="paint42_linear_3598_2542" x1="146.172" y1="0" x2="146.172" y2="213" gradientUnits="userSpaceOnUse">
      <stop stop-color="#182230"/>
      <stop offset="1" stop-color="#101828"/>
    </linearGradient>
    <linearGradient id="paint43_linear_3598_2542" x1="146.172" y1="0" x2="146.172" y2="213" gradientUnits="userSpaceOnUse">
      <stop stop-color="#182230"/>
      <stop offset="1" stop-color="#101828"/>
    </linearGradient>
    <linearGradient id="paint44_linear_3598_2542" x1="146.172" y1="0" x2="146.172" y2="213" gradientUnits="userSpaceOnUse">
      <stop stop-color="#182230"/>
      <stop offset="1" stop-color="#101828"/>
    </linearGradient>
    <linearGradient id="paint45_linear_3598_2542" x1="146.172" y1="0" x2="146.172" y2="213" gradientUnits="userSpaceOnUse">
      <stop stop-color="#182230"/>
      <stop offset="1" stop-color="#101828"/>
    </linearGradient>
    <linearGradient id="paint46_linear_3598_2542" x1="146.172" y1="0" x2="146.172" y2="213" gradientUnits="userSpaceOnUse">
      <stop stop-color="#182230"/>
      <stop offset="1" stop-color="#101828"/>
    </linearGradient>
    <linearGradient id="paint47_linear_3598_2542" x1="146.172" y1="0" x2="146.172" y2="213" gradientUnits="userSpaceOnUse">
      <stop stop-color="#182230"/>
      <stop offset="1" stop-color="#101828"/>
    </linearGradient>
    <linearGradient id="paint48_linear_3598_2542" x1="146.172" y1="0" x2="146.172" y2="213" gradientUnits="userSpaceOnUse">
      <stop stop-color="#182230"/>
      <stop offset="1" stop-color="#101828"/>
    </linearGradient>
    <linearGradient id="paint49_linear_3598_2542" x1="146.172" y1="0" x2="146.172" y2="213" gradientUnits="userSpaceOnUse">
      <stop stop-color="#182230"/>
      <stop offset="1" stop-color="#101828"/>
    </linearGradient>
    <linearGradient id="paint50_linear_3598_2542" x1="146.172" y1="0" x2="146.172" y2="213" gradientUnits="userSpaceOnUse">
      <stop stop-color="#182230"/>
      <stop offset="1" stop-color="#101828"/>
    </linearGradient>
    <linearGradient id="paint51_linear_3598_2542" x1="146.172" y1="0" x2="146.172" y2="213" gradientUnits="userSpaceOnUse">
      <stop stop-color="#182230"/>
      <stop offset="1" stop-color="#101828"/>
    </linearGradient>
    <linearGradient id="paint52_linear_3598_2542" x1="146.172" y1="0" x2="146.172" y2="213" gradientUnits="userSpaceOnUse">
      <stop stop-color="#182230"/>
      <stop offset="1" stop-color="#101828"/>
    </linearGradient>
    <linearGradient id="paint53_linear_3598_2542" x1="146.172" y1="0" x2="146.172" y2="213" gradientUnits="userSpaceOnUse">
      <stop stop-color="#182230"/>
      <stop offset="1" stop-color="#101828"/>
    </linearGradient>
    <linearGradient id="paint54_linear_3598_2542" x1="146.172" y1="0" x2="146.172" y2="213" gradientUnits="userSpaceOnUse">
      <stop stop-color="#182230"/>
      <stop offset="1" stop-color="#101828"/>
    </linearGradient>
    <linearGradient id="paint55_linear_3598_2542" x1="146.172" y1="0" x2="146.172" y2="213" gradientUnits="userSpaceOnUse">
      <stop stop-color="#182230"/>
      <stop offset="1" stop-color="#101828"/>
    </linearGradient>
    <linearGradient id="paint56_linear_3598_2542" x1="146.172" y1="0" x2="146.172" y2="213" gradientUnits="userSpaceOnUse">
      <stop stop-color="#182230"/>
      <stop offset="1" stop-color="#101828"/>
    </linearGradient>
    <linearGradient id="paint57_linear_3598_2542" x1="146.172" y1="0" x2="146.172" y2="213" gradientUnits="userSpaceOnUse">
      <stop stop-color="#182230"/>
      <stop offset="1" stop-color="#101828"/>
    </linearGradient>
    <linearGradient id="paint58_linear_3598_2542" x1="146.172" y1="0" x2="146.172" y2="213" gradientUnits="userSpaceOnUse">
      <stop stop-color="#182230"/>
      <stop offset="1" stop-color="#101828"/>
    </linearGradient>
    <linearGradient id="paint59_linear_3598_2542" x1="146.172" y1="0" x2="146.172" y2="213" gradientUnits="userSpaceOnUse">
      <stop stop-color="#182230"/>
      <stop offset="1" stop-color="#101828"/>
    </linearGradient>
    <linearGradient id="paint60_linear_3598_2542" x1="146.172" y1="0" x2="146.172" y2="213" gradientUnits="userSpaceOnUse">
      <stop stop-color="#182230"/>
      <stop offset="1" stop-color="#101828"/>
    </linearGradient>
    <linearGradient id="paint61_linear_3598_2542" x1="146.172" y1="0" x2="146.172" y2="213" gradientUnits="userSpaceOnUse">
      <stop stop-color="#182230"/>
      <stop offset="1" stop-color="#101828"/>
    </linearGradient>
    <linearGradient id="paint62_linear_3598_2542" x1="146.172" y1="0" x2="146.172" y2="213" gradientUnits="userSpaceOnUse">
      <stop stop-color="#182230"/>
      <stop offset="1" stop-color="#101828"/>
    </linearGradient>
    <linearGradient id="paint63_linear_3598_2542" x1="146.172" y1="0" x2="146.172" y2="213" gradientUnits="userSpaceOnUse">
      <stop stop-color="#182230"/>
      <stop offset="1" stop-color="#101828"/>
    </linearGradient>
    <linearGradient id="paint64_linear_3598_2542" x1="146.172" y1="0" x2="146.172" y2="213" gradientUnits="userSpaceOnUse">
      <stop stop-color="#182230"/>
      <stop offset="1" stop-color="#101828"/>
    </linearGradient>
    <linearGradient id="paint65_linear_3598_2542" x1="146.172" y1="0" x2="146.172" y2="213" gradientUnits="userSpaceOnUse">
      <stop stop-color="#182230"/>
      <stop offset="1" stop-color="#101828"/>
    </linearGradient>
    <linearGradient id="paint66_linear_3598_2542" x1="146.172" y1="0" x2="146.172" y2="213" gradientUnits="userSpaceOnUse">
      <stop stop-color="#182230"/>
      <stop offset="1" stop-color="#101828"/>
    </linearGradient>
    <linearGradient id="paint67_linear_3598_2542" x1="146.172" y1="0" x2="146.172" y2="213" gradientUnits="userSpaceOnUse">
      <stop stop-color="#182230"/>
      <stop offset="1" stop-color="#101828"/>
    </linearGradient>
    <linearGradient id="paint68_linear_3598_2542" x1="146.172" y1="0" x2="146.172" y2="213" gradientUnits="userSpaceOnUse">
      <stop stop-color="#182230"/>
      <stop offset="1" stop-color="#101828"/>
    </linearGradient>
    <linearGradient id="paint69_linear_3598_2542" x1="146.172" y1="0" x2="146.172" y2="213" gradientUnits="userSpaceOnUse">
      <stop stop-color="#182230"/>
      <stop offset="1" stop-color="#101828"/>
    </linearGradient>
    <linearGradient id="paint70_linear_3598_2542" x1="146.172" y1="0" x2="146.172" y2="213" gradientUnits="userSpaceOnUse">
      <stop stop-color="#182230"/>
      <stop offset="1" stop-color="#101828"/>
    </linearGradient>
    <linearGradient id="paint71_linear_3598_2542" x1="146.172" y1="0" x2="146.172" y2="213" gradientUnits="userSpaceOnUse">
      <stop stop-color="#182230"/>
      <stop offset="1" stop-color="#101828"/>
    </linearGradient>
    <linearGradient id="paint72_linear_3598_2542" x1="146.172" y1="0" x2="146.172" y2="213" gradientUnits="userSpaceOnUse">
      <stop stop-color="#182230"/>
      <stop offset="1" stop-color="#101828"/>
    </linearGradient>
    <linearGradient id="paint73_linear_3598_2542" x1="146.172" y1="0" x2="146.172" y2="213" gradientUnits="userSpaceOnUse">
      <stop stop-color="#182230"/>
      <stop offset="1" stop-color="#101828"/>
    </linearGradient>
    <linearGradient id="paint74_linear_3598_2542" x1="146.172" y1="0" x2="146.172" y2="213" gradientUnits="userSpaceOnUse">
      <stop stop-color="#182230"/>
      <stop offset="1" stop-color="#101828"/>
    </linearGradient>
    <linearGradient id="paint75_linear_3598_2542" x1="146.172" y1="0" x2="146.172" y2="213" gradientUnits="userSpaceOnUse">
      <stop stop-color="#182230"/>
      <stop offset="1" stop-color="#101828"/>
    </linearGradient>
    <linearGradient id="paint76_linear_3598_2542" x1="146.172" y1="0" x2="146.172" y2="213" gradientUnits="userSpaceOnUse">
      <stop stop-color="#182230"/>
      <stop offset="1" stop-color="#101828"/>
    </linearGradient>
    <linearGradient id="paint77_linear_3598_2542" x1="146.172" y1="0" x2="146.172" y2="213" gradientUnits="userSpaceOnUse">
      <stop stop-color="#182230"/>
      <stop offset="1" stop-color="#101828"/>
    </linearGradient>
    <linearGradient id="paint78_linear_3598_2542" x1="146.172" y1="0" x2="146.172" y2="213" gradientUnits="userSpaceOnUse">
      <stop stop-color="#182230"/>
      <stop offset="1" stop-color="#101828"/>
    </linearGradient>
    <linearGradient id="paint79_linear_3598_2542" x1="146.172" y1="0" x2="146.172" y2="213" gradientUnits="userSpaceOnUse">
      <stop stop-color="#182230"/>
      <stop offset="1" stop-color="#101828"/>
    </linearGradient>
    <linearGradient id="paint80_linear_3598_2542" x1="146.172" y1="0" x2="146.172" y2="213" gradientUnits="userSpaceOnUse">
      <stop stop-color="#182230"/>
      <stop offset="1" stop-color="#101828"/>
    </linearGradient>
    <linearGradient id="paint81_linear_3598_2542" x1="146.172" y1="0" x2="146.172" y2="213" gradientUnits="userSpaceOnUse">
      <stop stop-color="#182230"/>
      <stop offset="1" stop-color="#101828"/>
    </linearGradient>
    <linearGradient id="paint82_linear_3598_2542" x1="146.172" y1="0" x2="146.172" y2="213" gradientUnits="userSpaceOnUse">
      <stop stop-color="#182230"/>
      <stop offset="1" stop-color="#101828"/>
    </linearGradient>
    <linearGradient id="paint83_linear_3598_2542" x1="146.172" y1="0" x2="146.172" y2="213" gradientUnits="userSpaceOnUse">
      <stop stop-color="#182230"/>
      <stop offset="1" stop-color="#101828"/>
    </linearGradient>
    <linearGradient id="paint84_linear_3598_2542" x1="146.172" y1="0" x2="146.172" y2="213" gradientUnits="userSpaceOnUse">
      <stop stop-color="#182230"/>
      <stop offset="1" stop-color="#101828"/>
    </linearGradient>
    <linearGradient id="paint85_linear_3598_2542" x1="146.172" y1="0" x2="146.172" y2="213" gradientUnits="userSpaceOnUse">
      <stop stop-color="#182230"/>
      <stop offset="1" stop-color="#101828"/>
    </linearGradient>
    <linearGradient id="paint86_linear_3598_2542" x1="146.172" y1="0" x2="146.172" y2="213" gradientUnits="userSpaceOnUse">
      <stop stop-color="#182230"/>
      <stop offset="1" stop-color="#101828"/>
    </linearGradient>
    <linearGradient id="paint87_linear_3598_2542" x1="146.172" y1="0" x2="146.172" y2="213" gradientUnits="userSpaceOnUse">
      <stop stop-color="#182230"/>
      <stop offset="1" stop-color="#101828"/>
    </linearGradient>
    <linearGradient id="paint88_linear_3598_2542" x1="146.172" y1="0" x2="146.172" y2="213" gradientUnits="userSpaceOnUse">
      <stop stop-color="#182230"/>
      <stop offset="1" stop-color="#101828"/>
    </linearGradient>
    <linearGradient id="paint89_linear_3598_2542" x1="146.172" y1="0" x2="146.172" y2="213" gradientUnits="userSpaceOnUse">
      <stop stop-color="#182230"/>
      <stop offset="1" stop-color="#101828"/>
    </linearGradient>
    <linearGradient id="paint90_linear_3598_2542" x1="146.172" y1="0" x2="146.172" y2="213" gradientUnits="userSpaceOnUse">
      <stop stop-color="#182230"/>
      <stop offset="1" stop-color="#101828"/>
    </linearGradient>
    <linearGradient id="paint91_linear_3598_2542" x1="146.172" y1="0" x2="146.172" y2="213" gradientUnits="userSpaceOnUse">
      <stop stop-color="#182230"/>
      <stop offset="1" stop-color="#101828"/>
    </linearGradient>
    <linearGradient id="paint92_linear_3598_2542" x1="146.172" y1="0" x2="146.172" y2="213" gradientUnits="userSpaceOnUse">
      <stop stop-color="#182230"/>
      <stop offset="1" stop-color="#101828"/>
    </linearGradient>
    <linearGradient id="paint93_linear_3598_2542" x1="146.172" y1="0" x2="146.172" y2="213" gradientUnits="userSpaceOnUse">
      <stop stop-color="#182230"/>
      <stop offset="1" stop-color="#101828"/>
    </linearGradient>
    <linearGradient id="paint94_linear_3598_2542" x1="146.172" y1="0" x2="146.172" y2="213" gradientUnits="userSpaceOnUse">
      <stop stop-color="#182230"/>
      <stop offset="1" stop-color="#101828"/>
    </linearGradient>
    <linearGradient id="paint95_linear_3598_2542" x1="146.172" y1="0" x2="146.172" y2="213" gradientUnits="userSpaceOnUse">
      <stop stop-color="#182230"/>
      <stop offset="1" stop-color="#101828"/>
    </linearGradient>
    <linearGradient id="paint96_linear_3598_2542" x1="146.172" y1="0" x2="146.172" y2="213" gradientUnits="userSpaceOnUse">
      <stop stop-color="#182230"/>
      <stop offset="1" stop-color="#101828"/>
    </linearGradient>
    <linearGradient id="paint97_linear_3598_2542" x1="146.172" y1="0" x2="146.172" y2="213" gradientUnits="userSpaceOnUse">
      <stop stop-color="#182230"/>
      <stop offset="1" stop-color="#101828"/>
    </linearGradient>
    <linearGradient id="paint98_linear_3598_2542" x1="146.172" y1="0" x2="146.172" y2="213" gradientUnits="userSpaceOnUse">
      <stop stop-color="#182230"/>
      <stop offset="1" stop-color="#101828"/>
    </linearGradient>
    <linearGradient id="paint99_linear_3598_2542" x1="146.172" y1="0" x2="146.172" y2="213" gradientUnits="userSpaceOnUse">
      <stop stop-color="#182230"/>
      <stop offset="1" stop-color="#101828"/>
    </linearGradient>
  </defs>
</svg>