<svg xmlns="http://www.w3.org/2000/svg" width="24" height="24" viewBox="0 0 24 24" fill="none">
  <path d="M4.0012 14.8996C3.25829 14.1405 2.69784 13.2222 2.36233 12.2144C2.02682 11.2065 1.92503 10.1355 2.06467 9.0825C2.20432 8.02948 2.58174 7.02206 3.16834 6.13653C3.75495 5.251 4.53536 4.5106 5.45045 3.9714C6.36555 3.43219 7.39134 3.10834 8.45012 3.02436C9.5089 2.94037 10.5729 3.09847 11.5615 3.48667C12.5502 3.87487 13.4375 4.48299 14.1564 5.26497C14.8752 6.04695 15.4067 6.98229 15.7105 8.00013H17.5004C18.4659 8.00002 19.4058 8.31047 20.1813 8.88563C20.9568 9.46079 21.5267 10.2701 21.807 11.1942C22.0872 12.1182 22.0629 13.1078 21.7375 14.0169C21.4122 14.926 20.8031 15.7064 20.0003 16.2427M16.0002 14.0003V20.0007M8.00064 14.0003V20.0007M12.0004 16.0004V22.0008" stroke="#94A3B8" stroke-width="2" stroke-linecap="round"/>
</svg>
