<svg xmlns="http://www.w3.org/2000/svg" width="24" height="24" viewBox="0 0 24 24" fill="none">
  <path d="M12.0006 1.99902V3.99918M4.9302 4.92895L6.34021 6.33906M20.0006 11.9998H22.0007M19.0708 4.92895L17.6608 6.33906M15.9481 12.6494C16.0711 11.9039 15.9805 11.1387 15.6868 10.4425C15.393 9.74633 14.908 9.14758 14.2881 8.71561C13.6681 8.28365 12.9385 8.03612 12.1837 8.0017C11.4288 7.96728 10.6797 8.14737 10.023 8.52112M13.0005 22.0006H7.00049C6.05445 22.0004 5.12788 21.7318 4.32839 21.226C3.5289 20.7202 2.8893 19.998 2.48388 19.1431C2.07845 18.2883 1.92385 17.336 2.03801 16.3968C2.15217 15.4576 2.53041 14.5701 3.12882 13.8373C3.72722 13.1045 4.52122 12.5565 5.4186 12.257C6.31598 11.9575 7.27991 11.9187 8.19844 12.1452C9.11698 12.3717 9.95241 12.8541 10.6077 13.5365C11.263 14.2189 11.7113 15.0732 11.9005 16.0001H13.0005C13.7962 16.0001 14.5593 16.3162 15.1219 16.8789C15.6845 17.4415 16.0006 18.2047 16.0006 19.0004C16.0006 19.7961 15.6845 20.5592 15.1219 21.1219C14.5593 21.6845 13.7962 22.0006 13.0005 22.0006Z" stroke="#94A3B8" stroke-width="2" stroke-linecap="round"/>
</svg>
