<svg xmlns="http://www.w3.org/2000/svg" width="24" height="24" viewBox="0 0 24 24" fill="none">
  <path d="M9.00002 19.0006H17.5004C18.694 19.0006 19.8386 18.5265 20.6826 17.6825C21.5265 16.8384 22.0007 15.6937 22.0007 14.5001C22.0007 13.3065 21.5265 12.1618 20.6826 11.3178C19.8386 10.4738 18.694 9.9996 17.5004 9.9996H15.7104C15.3394 8.75543 14.6299 7.63892 13.661 6.77483C12.6921 5.91074 11.502 5.33312 10.2237 5.1065C8.94546 4.87988 7.62936 5.01321 6.42249 5.49157C5.21563 5.96993 4.16554 6.77448 3.38959 7.81533C2.61363 8.85617 2.14237 10.0923 2.02847 11.3856C1.91456 12.6789 2.1625 13.9783 2.74458 15.1388C3.32666 16.2993 4.21994 17.275 5.32461 17.957C6.42928 18.6389 7.70182 19.0003 9.00002 19.0006Z" stroke="#94A3B8" stroke-width="2" stroke-linecap="round"/>
</svg>
