<svg width="36" height="36" viewBox="0 0 36 36" fill="none" xmlns="http://www.w3.org/2000/svg">
<path d="M18.8398 9.89881C19.7848 8.3889 20.4778 6.7365 20.8927 5.00646C20.9181 4.90061 21.0788 4.90107 21.1037 5.00704C21.9428 8.58328 24.1275 11.981 26.9998 14.2788C29.9998 16.6788 31.4998 19.5288 31.4998 22.5288C31.5083 24.6022 30.9011 26.6315 29.755 28.3594C28.6088 30.0873 26.9755 31.436 25.062 32.2345C23.1484 33.0331 21.0409 33.2454 19.0065 32.8447C16.9722 32.444 15.1026 31.4483 13.6348 29.9838M10.5 24.4492C13.8 24.4492 16.5 21.7042 16.5 18.3742C16.5 16.6342 15.645 14.9842 13.935 13.5892C12.3532 12.2988 11.1308 10.4308 10.6121 8.43639C10.5846 8.33061 10.4156 8.33064 10.3882 8.43645C9.87136 10.4328 8.66072 12.3126 7.065 13.5892C5.34 14.9692 4.5 16.6492 4.5 18.3742C4.5 21.7042 7.2 24.4492 10.5 24.4492Z" stroke="url(#humidity-gradient)" stroke-width="3" stroke-linecap="round"/>
<defs><linearGradient id="humidity-gradient" x1="4.49958" y1="33.0419" x2="32.9706" y2="6.082" gradientUnits="userSpaceOnUse"><stop stop-color="#3793FF"/><stop offset="1" stop-color="#3793FF" stop-opacity="0.5"/></linearGradient></defs>
</svg>
