<svg width="64" height="64" viewBox="0 0 64 64" fill="none" xmlns="http://www.w3.org/2000/svg">
  <path d="M31.9999 5.33105V10.6648M31.9999 53.3349V58.6687M13.1442 13.1442L16.9045 16.9045M47.0948 47.0948L50.8551 50.8551M5.33105 31.9999H10.6648M53.3349 31.9999H58.6687M16.9045 47.0948L13.1442 50.8551M50.8551 13.1442L47.0948 16.9045M42.6674 31.9999C42.6674 37.8914 37.8914 42.6674 31.9999 42.6674C26.1083 42.6674 21.3323 37.8914 21.3323 31.9999C21.3323 26.1083 26.1083 21.3323 31.9999 21.3323C37.8914 21.3323 42.6674 26.1083 42.6674 31.9999Z" stroke="url(#paint0_linear_4170_4139)" stroke-width="4" stroke-linecap="round"/>
  <defs>
    <linearGradient id="paint0_linear_4170_4139" x1="5.33022" y1="58.6683" x2="58.668" y2="5.33041" gradientUnits="userSpaceOnUse">
      <stop stop-color="#FF7A00"/>
      <stop offset="1" stop-color="#FFD439"/>
    </linearGradient>
  </defs>
</svg>
