<svg width="31" height="31" viewBox="0 0 31 31" fill="none" xmlns="http://www.w3.org/2000/svg">
<path d="M16.5336 25.3155C16.8611 25.561 17.2423 25.7253 17.6457 25.7947C18.0492 25.8641 18.4633 25.8366 18.8541 25.7146C19.2448 25.5925 19.601 25.3794 19.8932 25.0928C20.1854 24.8061 20.4053 24.4541 20.5347 24.0658C20.6642 23.6776 20.6995 23.2641 20.6378 22.8595C20.576 22.4548 20.419 22.0707 20.1796 21.7387C19.9403 21.4066 19.6254 21.1362 19.261 20.9497C18.8966 20.7632 18.4931 20.6659 18.0838 20.6659H2.58252M22.605 10.3336C22.9352 9.89333 23.3726 9.54475 23.8755 9.32099C24.3785 9.09723 24.9303 9.00571 25.4785 9.05514C26.0268 9.10457 26.5533 9.29329 27.0081 9.60339C27.4628 9.9135 27.8308 10.3347 28.077 10.827C28.3232 11.3192 28.4394 11.8662 28.4147 12.4161C28.3899 12.9659 28.225 13.5003 27.9356 13.9684C27.6462 14.4366 27.2419 14.8231 26.7611 15.0911C26.2803 15.3591 25.739 15.4998 25.1885 15.4998H2.58252M12.6583 5.6841C12.9858 5.43852 13.367 5.27427 13.7704 5.20488C14.1739 5.13548 14.588 5.16294 14.9788 5.28498C15.3695 5.40701 15.7257 5.62014 16.0179 5.9068C16.3101 6.19345 16.53 6.54543 16.6594 6.93372C16.7889 7.32201 16.8242 7.73549 16.7624 8.14011C16.7007 8.54472 16.5437 8.92887 16.3043 9.26091C16.065 9.59294 15.7501 9.86336 15.3857 10.0499C15.0213 10.2364 14.6178 10.3336 14.2084 10.3336H2.58252" stroke="url(#wind-gradient)" stroke-width="2" stroke-linecap="round"/>
<defs><linearGradient id="wind-gradient" x1="-0.495378" y1="14.6938" x2="96.4006" y2="13.981" gradientUnits="userSpaceOnUse"><stop stop-color="#63B7FF"/><stop offset="1" stop-color="#296ACC"/></linearGradient></defs>
</svg>
